<?xml version="1.0" standalone="no"?>
<!DOCTYPE svg PUBLIC "-//W3C//DTD SVG 1.1//EN" "http://www.w3.org/Graphics/SVG/1.1/DTD/svg11.dtd" >
<svg xmlns="http://www.w3.org/2000/svg">
<metadata>
This is a custom SVG webfont generated by Font Squirrel.
Copyright   : Copyright c 2010 by Ralph du Carrois Erik Spiekermann  Botio Nikoltchev All rights reserved
Designer    : Ralph du Carrois Erik Spiekermann  Botio Nikoltchev
Foundry     : Ralph du Carrois Erik Spiekermann  Botio Nikoltchev
Foundry URL : httpedenspiekermanncom
</metadata>
<defs>
<font id="webfontgFNDkZCf" horiz-adv-x="1228" >
<font-face units-per-em="2048" ascent="1618" descent="-430" />
<missing-glyph horiz-adv-x="614" />
<glyph unicode=" "  horiz-adv-x="614" />
<glyph unicode="&#x09;" horiz-adv-x="614" />
<glyph unicode="&#xa0;" horiz-adv-x="614" />
<glyph unicode="!" horiz-adv-x="512" d="M301 451h-80l219 1024h80zM229 0h-110l26 131h111z" />
<glyph unicode="&#x22;" d="M514 1317l-80 -313h-51l49 313l41 188h82zM780 1317l-80 -313h-51l49 313l41 188h82z" />
<glyph unicode="#" d="M274 954l15 68h190l123 412h74l-123 -412h444l123 412h74l-123 -412h180l-14 -68h-186l-144 -475h187l-15 -67h-192l-121 -412h-74l121 412h-444l-121 -412h-74l121 412h-178l14 67h184l144 475h-185zM532 954l-143 -475h445l143 475h-445z" />
<glyph unicode="$" d="M553 51q217 0 367.5 103.5t150.5 283.5q0 102 -90 175t-317 120q-371 76 -371 311q0 180 144.5 294t377.5 124l51 238h72l-51 -238q184 -8 298.5 -102t117.5 -250h-78q-6 133 -105.5 210t-269.5 77q-221 0 -350 -97.5t-129 -252.5q0 -94 78.5 -155t277.5 -101 q225 -49 323.5 -135.5t98.5 -211.5q0 -201 -159 -327.5t-419 -134.5l-53 -258h-72l56 260q-197 10 -310.5 109.5t-113.5 277.5h76q0 -160 106.5 -240t292.5 -80z" />
<glyph unicode="%" horiz-adv-x="1687" d="M1419 1434l-938 -1434h-78l938 1434h78zM612 1405q-133 0 -211.5 -95.5t-78.5 -240.5q0 -119 63.5 -178.5t167.5 -59.5q117 0 205 85t88 247q0 121 -65 181.5t-169 60.5zM915 1165q0 -170 -98 -281.5t-266 -111.5q-131 0 -214 77t-83 220q0 188 105.5 291.5t254.5 103.5 q131 0 216 -78t85 -221zM1270 602q-133 0 -212 -95t-79 -241q0 -119 63.5 -178t167.5 -59q117 0 205 85t88 246q0 121 -64.5 181.5t-168.5 60.5zM1573 362q0 -170 -98.5 -281.5t-266.5 -111.5q-131 0 -214 77t-83 220q0 188 105.5 292t255.5 104q131 0 216 -78.5t85 -221.5z " />
<glyph unicode="&#x26;" horiz-adv-x="1239" d="M1145 686l72 -10q-88 -258 -254 -449l172 -217l-58 -41l-164 207q-211 -207 -471 -207q-190 0 -292.5 82t-102.5 215q0 86 27.5 154.5t89 126t128 100.5t173.5 101q-100 127 -142 201.5t-44 154.5q0 141 113.5 250.5t312.5 109.5q158 0 239.5 -74.5t81.5 -185.5 q0 -127 -109.5 -237.5t-353.5 -237.5l357 -448q149 174 225 405zM446 31q227 0 424 200l-366 467q-96 -51 -156.5 -89t-117 -90t-82 -113.5t-25.5 -137.5q0 -111 84.5 -174t238.5 -63zM350 1110q0 -68 40 -139.5t136 -192.5q223 119 326.5 216.5t103.5 207.5 q0 84 -62.5 142.5t-193.5 58.5q-160 0 -255 -87t-95 -206z" />
<glyph unicode="'" horiz-adv-x="552" d="M514 1317l-80 -313h-51l49 313l41 188h82z" />
<glyph unicode="(" horiz-adv-x="696" d="M854 1659q-293 -354 -435.5 -666.5t-142.5 -687.5q0 -317 150 -653h-66q-158 289 -157 663q0 215 54 424t145.5 380t184.5 301t197 239h70z" />
<glyph unicode=")" horiz-adv-x="696" d="M25 -348h-70q293 354 435 666.5t142 687.5q0 317 -149 653h66q158 -289 157 -664q0 -215 -54 -424t-145.5 -380t-184.5 -300.5t-197 -238.5z" />
<glyph unicode="*" horiz-adv-x="962" d="M856 797l-192 290l-193 -290l-57 45l219 274l-340 94l22 68l328 -123l-16 350h73l-16 -350l328 123l22 -68l-340 -94l219 -274z" />
<glyph unicode="+" d="M721 1069h74l-78 -375h373l-17 -69h-373l-79 -375h-74l80 375h-373l16 69h373z" />
<glyph unicode="," horiz-adv-x="552" d="M285 131l-31 -145q-23 -113 -83 -173.5t-163 -88.5l12 63q66 25 103 74t57 139h-37l27 131h115z" />
<glyph unicode="-" horiz-adv-x="1105" d="M967 694l-17 -69h-696l16 69h697z" />
<glyph unicode="." horiz-adv-x="569" d="M258 0h-111l27 131h111z" />
<glyph unicode="/" horiz-adv-x="696" d="M838 1505l-789 -1689h-76l789 1689h76z" />
<glyph unicode="0" d="M829 1399q-125 0 -229 -75t-168.5 -187.5t-110 -249.5t-62.5 -255t-17 -210q0 -193 76.5 -290t220.5 -97q125 0 229 74.5t167.5 187.5t109 250t62.5 255t17 210q0 193 -77 290t-218 97zM532 -31q-168 0 -267 116t-99 345q0 102 19.5 227t69.5 270.5t123 263.5 t191.5 195.5t264.5 77.5q168 0 267 -115.5t99 -344.5q0 -102 -19.5 -227.5t-69.5 -271t-123 -263t-192 -195.5t-264 -78z" />
<glyph unicode="1" d="M657 0h-75l286 1350l-379 -199l17 82l381 201h74z" />
<glyph unicode="2" d="M385 1100h-80q63 172 203.5 268t320.5 96q158 0 258.5 -82t100.5 -221q0 -162 -92 -287.5t-299 -300.5l-598 -503h762l-15 -70h-868l14 70l684 579q117 98 181.5 167t109.5 157t45 182q0 115 -77 179.5t-214 64.5q-154 0 -271.5 -82t-164.5 -217z" />
<glyph unicode="3" d="M506 -31q-186 0 -295 90.5t-109 253.5h76q0 -135 87 -206.5t251 -71.5q219 0 347 134t128 308q0 121 -77.5 185.5t-219.5 64.5h-159l14 68h151q188 0 295 115.5t107 254.5q0 111 -80 172.5t-217 61.5q-158 0 -273.5 -72t-173.5 -207h-79q63 162 204.5 253t327.5 91 q166 0 266.5 -80.5t100.5 -216.5q0 -150 -96.5 -262t-258.5 -143q111 -14 176.5 -90t65.5 -195q0 -207 -148.5 -357.5t-410.5 -150.5z" />
<glyph unicode="4" d="M1026 1434h92l-233 -1098h217l-12 -66h-218l-57 -270h-76l58 270h-670l16 80zM219 336h590l209 983z" />
<glyph unicode="5" d="M516 -31q-176 0 -285.5 95.5t-109.5 263.5h76q0 -145 91 -219t238 -74q217 0 357.5 162.5t140.5 363.5q0 139 -86 215t-236 76q-139 0 -247.5 -56.5t-169.5 -125.5h-58l189 764h794l-14 -66h-723l-151 -598q176 147 397 148q174 0 275.5 -92.5t101.5 -260.5 q0 -238 -161 -417t-419 -179z" />
<glyph unicode="6" d="M1186 1190h-74q-8 100 -76.5 154.5t-183.5 54.5q-86 0 -165 -34t-160 -110.5t-149.5 -226t-115.5 -358.5q68 113 192 186.5t267 73.5q168 0 269.5 -95.5t101.5 -265.5q0 -264 -170 -432t-392 -168q-193 0 -282.5 117t-89.5 303q0 100 19.5 227t71.5 280t128 276.5 t200.5 207.5t278.5 84q137 0 230.5 -74.5t99.5 -199.5zM707 864q-180 0 -330 -135t-150 -340q0 -352 314 -352q178 0 328.5 148.5t150.5 381.5q0 141 -84 219t-229 78z" />
<glyph unicode="7" d="M1255 1366l-950 -1366h-86l952 1366h-821l15 68h905z" />
<glyph unicode="8" d="M1225 1180q0 -309 -408 -420q301 -88 301 -318q0 -199 -167 -336t-419 -137q-199 0 -314.5 95.5t-115.5 238.5q0 336 449 455q-242 80 -242 284q0 135 82 234.5t199 143.5t244 44q168 0 279.5 -73.5t111.5 -210.5zM1040 440q0 125 -102 195t-254 96q-508 -102 -508 -426 q0 -123 101.5 -196.5t261.5 -73.5q201 0 351 113.5t150 291.5zM385 1044q0 -201 307 -256q74 14 132.5 32t122 49.5t105.5 70.5t69.5 99.5t27.5 134.5q0 113 -91 170t-229 57q-104 0 -200.5 -34t-170 -119t-73.5 -204z" />
<glyph unicode="9" d="M145 244h72q8 -98 86 -153.5t193 -55.5q195 0 350 175t233 554q-72 -113 -194.5 -186.5t-263.5 -73.5q-164 0 -269.5 95t-105.5 267q0 256 170 427t383 171q199 0 290 -118.5t91 -309.5q0 -72 -12.5 -168t-40 -221t-81 -240.5t-126 -216t-184 -161t-247.5 -60.5 q-139 0 -239.5 76t-104.5 199zM633 569q180 0 328.5 135.5t148.5 342.5q0 145 -72.5 247.5t-240.5 102.5q-186 0 -332 -153.5t-146 -377.5q0 -145 86.5 -221t227.5 -76z" />
<glyph unicode=":" horiz-adv-x="569" d="M258 0h-111l27 131h111zM455 934h-111l29 131h110z" />
<glyph unicode=";" horiz-adv-x="569" d="M455 934h-111l29 131h110zM285 131l-31 -145q-23 -113 -83 -173.5t-163 -88.5l12 63q66 25 103 74t57 139h-37l27 131h115z" />
<glyph unicode="&#x3c;" d="M348 657v-4l656 -360l-17 -78l-731 416l12 59l908 416l-17 -86z" />
<glyph unicode="=" d="M1135 909l-15 -69h-819l14 69h820zM1042 479l-14 -69h-819l14 69h819z" />
<glyph unicode="&#x3e;" d="M995 664v4l-655 362l16 76l731 -416l-12 -59l-907 -416l16 86z" />
<glyph unicode="?" horiz-adv-x="1009" d="M362 1174h-79q57 145 184 238t295 93q154 0 249 -77.5t95 -194.5q0 -84 -42 -158t-92 -121t-173 -149l-37 -31q-111 -92 -145.5 -150.5t-67.5 -213.5h-74q37 174 76 244.5t164 170.5l119 98q31 26 83 75t68 76.5t30.5 68.5t14.5 86q0 90 -72.5 151.5t-201.5 61.5 q-133 0 -239 -74.5t-155 -193.5zM481 0h-110l26 131h111z" />
<glyph unicode="@" horiz-adv-x="1904" d="M1458 215q-90 0 -143 61.5t-53 163.5q-35 -74 -134.5 -144.5t-224.5 -70.5q-129 0 -220 92.5t-91 251.5q0 258 145.5 416t337.5 158q84 0 162 -46t100 -130l47 161h56l-115 -573q-12 -61 -12 -100q0 -84 40 -130t109 -46q133 0 233.5 153.5t100.5 421.5q0 260 -184.5 423 t-501.5 163q-111 0 -221.5 -27t-224 -91.5t-199.5 -159.5t-140.5 -242.5t-54.5 -329.5q0 -322 212 -505t528 -183q168 0 323 49l17 -62q-156 -55 -346 -55q-160 0 -303.5 49t-257 140.5t-180 237t-66.5 323.5q0 195 57 353.5t150.5 262t215 174t245.5 101t249 30.5 q352 0 554 -183t202 -462q0 -289 -123 -467t-289 -178zM920 289q117 0 216 81t128 224l30 149q8 43 9 97q0 123 -68 182t-166 59q-154 0 -279.5 -135t-125.5 -368q0 -135 71.5 -212t184.5 -77z" />
<glyph unicode="A" horiz-adv-x="1314" d="M1212 0h-79l-80 436h-764l-266 -436h-84l899 1475h104zM879 1405l-551 -903h714z" />
<glyph unicode="B" horiz-adv-x="1294" d="M406 1475h483q190 0 291.5 -76t101.5 -209q0 -141 -100.5 -261t-255.5 -155q123 -16 196.5 -94t73.5 -197q0 -88 -33 -170t-100.5 -154.5t-184 -115.5t-270.5 -43h-516zM780 745h-454l-144 -677h443q242 0 366.5 124.5t124.5 290.5q0 121 -88 191.5t-248 70.5zM899 1407 h-432l-127 -596h448q201 0 309.5 119t108.5 254q0 106 -78.5 164.5t-228.5 58.5z" />
<glyph unicode="C" horiz-adv-x="1464" d="M694.5 -31q-245.5 0 -389 153.5t-143.5 412.5q0 113 28.5 238.5t94 257.5t159 236.5t237.5 171t314 66.5q233 0 368.5 -112.5t135.5 -350.5h-76q0 395 -436 396q-154 0 -284 -64.5t-212.5 -163t-141 -221.5t-84 -237.5t-25.5 -212.5q0 -231 123.5 -366.5t332.5 -135.5 q211 0 371 115.5t233 324.5h76q-70 -227 -253 -367.5t-428.5 -140.5z" />
<glyph unicode="D" horiz-adv-x="1380" d="M406 1475h376q266 0 423 -144.5t157 -402.5q0 -168 -56.5 -331t-162 -297t-275.5 -217t-376 -83h-400zM784 1407h-317l-285 -1339h322q160 0 293 56t221 146t149.5 206t89 229.5t27.5 220.5q0 231 -135.5 356t-364.5 125z" />
<glyph unicode="E" horiz-adv-x="1148" d="M1051 784l-15 -67h-717l-137 -649h776l-14 -68h-852l314 1475h851l-14 -68h-776l-133 -623h717z" />
<glyph unicode="F" horiz-adv-x="1126" d="M406 1475h839l-14 -68h-764l-141 -664h688l-15 -67h-688l-143 -676h-76z" />
<glyph unicode="G" horiz-adv-x="1490" d="M1413 766l-162 -766h-55l45 260q-96 -141 -237.5 -216t-309.5 -75q-231 0 -380.5 145.5t-149.5 409.5q0 129 31.5 264.5t100.5 264.5t165 229t234.5 161.5t297.5 61.5q227 0 358.5 -109.5t135.5 -310.5h-78q-4 174 -114.5 263.5t-307.5 89.5q-178 0 -324.5 -86 t-236.5 -222.5t-138 -293t-48 -308.5q0 -236 128 -363.5t330 -127.5q205 0 376 128t212 316l47 217h-497l14 68h563z" />
<glyph unicode="H" horiz-adv-x="1384" d="M1366 1475h76l-314 -1475h-75l151 719h-885l-151 -719h-76l314 1475h75l-147 -687h885z" />
<glyph unicode="I" horiz-adv-x="423" d="M406 1475h75l-313 -1475h-76z" />
<glyph unicode="J" horiz-adv-x="1058" d="M70 381h71q-6 -45 -6 -82q0 -127 73 -194.5t204 -67.5q156 0 263 94t146 270l230 1074h75l-231 -1082q-41 -197 -169 -310.5t-316 -113.5q-164 0 -256.5 86t-92.5 236q1 47 9 90z" />
<glyph unicode="K" horiz-adv-x="1187" d="M1075 0h-96l-655 737l-156 -737h-76l314 1475h75l-149 -699l899 699h98l-919 -723z" />
<glyph unicode="L" horiz-adv-x="1118" d="M406 1475h75l-299 -1407h776l-14 -68h-852z" />
<glyph unicode="M" horiz-adv-x="1697" d="M829 0h-92l-276 1397l-295 -1397h-74l314 1475h114l275 -1403l841 1403h119l-313 -1475h-74l293 1386z" />
<glyph unicode="N" horiz-adv-x="1452" d="M1438 1475h71l-313 -1475h-74l-667 1368l-289 -1368h-74l314 1475h77l666 -1358z" />
<glyph unicode="O" horiz-adv-x="1523" d="M985 1438q-160 0 -291 -64.5t-214 -165t-139 -226.5t-78.5 -240.5t-22.5 -219.5q0 -233 120.5 -359t325.5 -126q158 0 289 64.5t214 165t139 225t80 241.5t24 219q0 231 -122 358.5t-325 127.5zM682 -31q-233 0 -375.5 146.5t-142.5 410.5q0 115 26.5 242t91 260 t156.5 237.5t235.5 172t315.5 67.5q233 0 375.5 -147.5t142.5 -409.5q0 -115 -26.5 -241.5t-91 -260t-156.5 -238t-235.5 -172t-315.5 -67.5z" />
<glyph unicode="P" horiz-adv-x="1277" d="M406 1475h493q203 0 311.5 -92.5t108.5 -258.5q0 -219 -160 -380.5t-438 -161.5h-430l-123 -582h-76zM899 1407h-432l-162 -756h422q240 0 377 139.5t137 331.5q0 137 -88 211t-254 74z" />
<glyph unicode="Q" horiz-adv-x="1523" d="M682 -31q-233 0 -375.5 146.5t-142.5 410.5q0 115 26.5 242t91 260t156.5 237.5t235.5 172t315.5 67.5q233 0 375.5 -147.5t142.5 -409.5q0 -221 -99 -461.5t-294 -382.5l162 -270l-76 -45l-147 277q-166 -97 -371 -97zM985 1438q-160 0 -291 -64.5t-214 -165 t-139 -226.5t-78.5 -240.5t-22.5 -219.5q0 -233 120.5 -359t325.5 -126q158 0 289 64.5t214 165t139 225t80 241.5t24 219q0 231 -122 358.5t-325 127.5z" />
<glyph unicode="R" horiz-adv-x="1267" d="M1145 0h-88l-287 625h-471l-131 -625h-76l314 1475h505q203 0 309.5 -88.5t106.5 -247.5q0 -197 -128 -330t-347 -176zM911 1407h-444l-154 -715h428q221 0 363.5 128t142.5 319q0 129 -85 198.5t-251 69.5z" />
<glyph unicode="S" horiz-adv-x="1316" d="M586 39q250 0 395 113.5t145 304.5q0 113 -95 179t-335 116q-201 41 -292 120.5t-91 202.5q0 195 150.5 312.5t421.5 117.5q213 0 341 -95t130 -259h-78q-6 135 -106.5 211t-288.5 76q-242 0 -368 -101.5t-126 -263.5q0 -100 83 -158.5t288 -103.5q236 -51 340 -134 t104 -222q0 -215 -167 -350.5t-457 -135.5q-229 0 -359.5 101.5t-130.5 289.5h76q0 -162 109.5 -241.5t310.5 -79.5z" />
<glyph unicode="T" horiz-adv-x="1153" d="M1343 1475l-14 -68h-498l-299 -1407h-75l299 1407h-498l14 68h1071z" />
<glyph unicode="U" horiz-adv-x="1433" d="M635 -31q-221 0 -342 117t-121 295q0 55 12 111l211 983h74l-213 -996q-10 -41 -10 -96q0 -156 108.5 -251t286.5 -95q209 0 371 124t202 318l213 996h74l-215 -1004q-47 -215 -223 -358.5t-428 -143.5z" />
<glyph unicode="V" horiz-adv-x="1265" d="M252 1475h74l233 -1418l838 1418h80l-871 -1475h-112z" />
<glyph unicode="W" horiz-adv-x="1945" d="M2068 1475h78l-729 -1475h-112l-115 1413l-711 -1413h-114l-103 1475h76l94 -1416l715 1416h113l110 -1412z" />
<glyph unicode="X" horiz-adv-x="1220" d="M1393 1475l-654 -715l359 -760h-84l-332 705l-627 -705h-96l686 766l-332 709h84l303 -654l600 654h93z" />
<glyph unicode="Y" horiz-adv-x="1269" d="M252 1475h78l354 -832l713 832h84l-770 -900l-121 -575h-76l123 580z" />
<glyph unicode="Z" horiz-adv-x="1308" d="M1423 1411l-1292 -1343h987l-14 -68h-1084l15 70l1290 1337h-958l14 68h1057z" />
<glyph unicode="[" horiz-adv-x="471" d="M266 -283l-14 -65h-346l426 2007h348l-14 -66h-275l-399 -1876h274z" />
<glyph unicode="\" horiz-adv-x="622" d="M369 -184l-68 1689h68l67 -1689h-67z" />
<glyph unicode="]" horiz-adv-x="471" d="M-94 -348l12 65h275l399 1876h-275l15 66h348l-428 -2007h-346z" />
<glyph unicode="^" horiz-adv-x="983" d="M715 1417l-449 -598h-80l496 656h82l217 -656h-72z" />
<glyph unicode="_" horiz-adv-x="1236" d="M1063 -143l-16 -70h-1115l17 70h1114z" />
<glyph unicode="`" horiz-adv-x="442" d="M406 1505l151 -280h-65l-191 280h105z" />
<glyph unicode="a" horiz-adv-x="1064" d="M297 799h-74q41 133 164 215t287 82q147 0 235 -70t88 -195q0 -43 -8 -77l-160 -754h-59l27 190q-166 -221 -422 -221q-135 0 -221 64.5t-86 177.5q0 176 128 267t359 128l340 53l23 109q6 35 6 63q0 94 -68 148.5t-190 54.5q-133 0 -233.5 -65.5t-135.5 -169.5zM834 375 l49 223l-308 -49q-231 -37 -329.5 -118t-98.5 -216q0 -90 68 -136t184 -46q141 0 271.5 97.5t163.5 244.5z" />
<glyph unicode="b" horiz-adv-x="1163" d="M141 0h-59l313 1475h74l-135 -629q166 250 428 250q162 0 256 -96.5t94 -280.5q0 -92 -19.5 -190.5t-65.5 -199t-111.5 -180t-165 -130t-218.5 -50.5q-133 0 -220 72t-111 186zM528 31q104 0 193.5 50t146 126t96.5 171t57 182t17 161q0 156 -77.5 234.5t-215.5 78.5 q-158 0 -277.5 -110.5t-174.5 -262t-55 -307.5q0 -158 77.5 -240.5t212.5 -82.5z" />
<glyph unicode="c" horiz-adv-x="1093" d="M897 301h76q-55 -147 -189.5 -239.5t-302.5 -92.5q-166 0 -267 103.5t-101 292.5q0 170 64.5 332.5t204.5 280.5t327 118q168 0 263 -86t95 -232h-78q0 117 -73.5 186.5t-208.5 69.5q-127 0 -230.5 -66.5t-165 -169t-94.5 -216t-33 -217.5q0 -164 84 -248t224 -84 q135 0 247.5 75.5t157.5 192.5z" />
<glyph unicode="d" horiz-adv-x="1163" d="M918 0h-60l35 219q-164 -250 -430 -250q-156 0 -254 100.5t-98 286.5q0 111 33.5 233t99 238.5t182.5 192.5t264 76q129 0 219 -71t117 -181l131 631h74zM696 1034q-127 0 -229 -69.5t-160.5 -176t-89.5 -219t-31 -213.5q0 -160 80 -242.5t215 -82.5q156 0 274.5 109.5 t174 261t55.5 307.5q0 160 -79 242.5t-210 82.5z" />
<glyph unicode="e" horiz-adv-x="1163" d="M930 283h78q-66 -145 -197 -229.5t-293 -84.5q-182 0 -291.5 109.5t-109.5 304.5q0 119 38 240.5t108.5 229.5t189 175.5t264.5 67.5q172 0 276.5 -102.5t104.5 -297.5q0 -88 -21 -182h-872q-14 -70 -15 -137q0 -170 91.5 -257t244.5 -87q131 0 239 65.5t165 184.5z M713 1034q-164 0 -301.5 -120.5t-194.5 -335.5h795q10 72 10 118q0 164 -84 251t-225 87z" />
<glyph unicode="f" horiz-adv-x="595" d="M838 1475l-13 -62q-82 31 -151 31q-158 0 -197 -184l-41 -195h260l-14 -64h-260l-211 -1001h-74l211 1001h-158l15 64h157l44 203q25 117 96 177t178 60q78 1 158 -30z" />
<glyph unicode="g" horiz-adv-x="1163" d="M45 -111h74q0 -115 78.5 -171t216.5 -56q164 0 280.5 92t149.5 246l57 266q-158 -225 -420 -225q-156 0 -257 101.5t-101 281.5q0 80 20.5 168t65.5 179t109.5 163t160.5 117t211 45q129 0 219 -67.5t117 -178.5l57 215h60l-228 -1075q-37 -174 -173 -281.5t-330 -107.5 q-172 0 -269.5 74.5t-97.5 213.5zM694 1034q-125 0 -224 -61.5t-155.5 -157.5t-86 -198.5t-29.5 -196.5q0 -154 81.5 -236t217.5 -82q127 0 226 61.5t154.5 158t83 199t27.5 202.5q0 154 -80 232.5t-215 78.5z" />
<glyph unicode="h" horiz-adv-x="1120" d="M156 0h-74l313 1475h74l-131 -611q74 111 181.5 171.5t223.5 60.5q141 0 224.5 -73t83.5 -198q0 -37 -11 -88l-155 -737h-74l156 733q10 43 10 84q0 102 -65.5 159.5t-188.5 57.5q-133 0 -264 -105.5t-164 -266.5z" />
<glyph unicode="i" horiz-adv-x="393" d="M152 0h-74l225 1065h74zM449 1358h-95l27 117h94z" />
<glyph unicode="j" horiz-adv-x="393" d="M-274 -367l14 62q70 -29 129 -29q137 0 176 180l258 1219h74l-262 -1233q-51 -231 -242 -231q-81 -1 -147 32zM449 1358h-95l27 117h94z" />
<glyph unicode="k" horiz-adv-x="970" d="M156 0h-74l313 1475h74l-182 -852l639 442h106l-678 -471l525 -594h-97l-506 573z" />
<glyph unicode="l" horiz-adv-x="401" d="M469 1475l-313 -1475h-74l313 1475h74z" />
<glyph unicode="m" horiz-adv-x="1726" d="M156 0h-74l225 1065h62l-29 -182q70 106 170 159.5t201 53.5q125 0 197.5 -59.5t76.5 -170.5q74 115 180.5 172.5t212.5 57.5q133 0 207 -66.5t74 -187.5q0 -47 -12 -103l-156 -739h-74l156 735q12 55 12 101q0 199 -223 198q-137 0 -252 -106.5t-147 -263.5l-140 -664 h-73l155 735q12 55 13 101q0 199 -220 198q-141 0 -255.5 -106.5t-147.5 -263.5z" />
<glyph unicode="n" horiz-adv-x="1120" d="M723 1034q-133 0 -264 -104.5t-164 -265.5l-139 -664h-74l225 1065h62l-33 -203q76 113 183.5 173.5t223.5 60.5q141 0 224.5 -73t83.5 -198q0 -37 -11 -88l-155 -737h-74l156 733q10 43 10 84q0 102 -65.5 159.5t-188.5 57.5z" />
<glyph unicode="o" horiz-adv-x="1157" d="M506 31q113 0 206 49t150.5 122.5t96 166t55 174.5t16.5 151q0 166 -83 253t-230 87q-115 0 -209 -49t-151.5 -123t-96.5 -167t-54.5 -174t-15.5 -150q0 -166 84.5 -253t231.5 -87zM502 -31q-178 0 -282.5 106.5t-104.5 297.5q0 82 18.5 173t64.5 191.5t112.5 178 t174 129t238.5 51.5q178 0 280.5 -106.5t102.5 -297.5q0 -104 -33 -222t-99.5 -233.5t-189 -191.5t-282.5 -76z" />
<glyph unicode="p" horiz-adv-x="1163" d="M762 1096q162 0 256 -96.5t94 -280.5q0 -117 -34 -242t-100.5 -241.5t-184 -191.5t-265.5 -75q-131 0 -217 71t-108 183l-127 -592h-74l305 1434h60l-35 -223q74 117 184.5 185.5t245.5 68.5zM524 31q131 0 235.5 73.5t162 185t87 224.5t29.5 207q0 156 -77.5 234.5 t-215.5 78.5q-158 0 -277.5 -110.5t-174.5 -262t-55 -307.5q0 -158 77.5 -240.5t208.5 -82.5z" />
<glyph unicode="q" horiz-adv-x="1163" d="M463 -31q-156 0 -254 100.5t-98 286.5q0 111 33.5 233t99 238.5t182.5 192.5t264 76q129 0 218 -72t114 -186l61 227h60l-305 -1434h-74l125 586q-162 -248 -426 -248zM696 1034q-127 0 -229 -69.5t-160.5 -176t-89.5 -219t-31 -213.5q0 -160 80 -242.5t215 -82.5 q156 0 274.5 107.5t174 259t55.5 311t-79 242.5t-210 83z" />
<glyph unicode="r" horiz-adv-x="684" d="M156 0h-74l225 1065h60l-35 -225q133 256 356 256q49 0 113 -19l-17 -71q-57 20 -108 20q-125 0 -239.5 -120t-153.5 -304z" />
<glyph unicode="s" horiz-adv-x="1005" d="M424 33q160 0 271.5 80t111.5 215q0 86 -75 131t-247 71q-133 20 -208.5 84t-75.5 166q0 137 111.5 226.5t316.5 89.5q162 0 256 -78t94 -209h-74v20q0 90 -75.5 147.5t-211.5 57.5q-172 0 -257 -72.5t-85 -185.5q0 -76 63.5 -119t211.5 -67q336 -55 336 -260 q0 -147 -124 -254t-343 -107q-168 0 -263.5 76t-95.5 195q0 14 2 32h74q-2 -14 -2 -28q0 -96 76 -153.5t213 -57.5z" />
<glyph unicode="t" horiz-adv-x="602" d="M662 1001h-254l-170 -806q-8 -41 -9 -60q0 -104 125 -104q55 0 135 24l-14 -63q-72 -23 -133 -23q-186 0 -186 160q0 35 8 68l170 804h-154l15 64h153l64 256h65l-55 -256h254z" />
<glyph unicode="u" horiz-adv-x="1110" d="M297 1065h74l-152 -711q-14 -55 -14 -110q0 -213 250 -213q143 0 265 108.5t157 270.5l139 655h74l-226 -1065h-61l28 190q-76 -111 -183 -166t-216 -55q-137 0 -219 68.5t-82 198.5q0 53 10 96z" />
<glyph unicode="v" horiz-adv-x="1003" d="M1026 1065h80l-637 -1065h-98l-187 1065h76l170 -1002z" />
<glyph unicode="w" horiz-adv-x="1540" d="M1556 1065h76l-530 -1065h-94l-105 999l-508 -999h-94l-106 1065h69l96 -993l506 993h99l100 -989z" />
<glyph unicode="x" horiz-adv-x="1032" d="M1071 1065l-479 -504l317 -561h-84l-288 510l-482 -510h-96l537 563l-293 502h86l262 -451l426 451h94z" />
<glyph unicode="y" horiz-adv-x="1003" d="M1106 1065l-606 -1071q-143 -256 -202.5 -324.5t-154.5 -68.5q-55 0 -108 24l14 60q49 -23 101 -23q63 0 110 61.5t164 276.5h-29l-211 1065h74l199 -1012l569 1012h80z" />
<glyph unicode="z" horiz-adv-x="978" d="M1024 987l-922 -924h725l-12 -63h-815l14 74l926 927h-698l14 64h784z" />
<glyph unicode="{" horiz-adv-x="696" d="M193 715q88 0 152.5 54t84.5 153l105 487q29 131 103.5 190.5t225.5 59.5l-14 -66q-117 0 -169 -47t-75 -147l-100 -475q-20 -100 -86 -167t-156 -83q66 -14 104 -62.5t38 -122.5q0 -33 -7 -65l-102 -483q-12 -59 -12 -97q0 -61 37.5 -92t130.5 -31l-15 -65 q-227 0 -227 188q0 53 16 123l99 467q6 31 6 60q0 70 -41 108.5t-115 38.5z" />
<glyph unicode="|" horiz-adv-x="696" d="M571 1608h70l-401 -1895h-70z" />
<glyph unicode="}" horiz-adv-x="696" d="M635 674l-17 -74q-88 0 -152.5 -54t-84.5 -153l-105 -487q-29 -131 -103.5 -190.5t-225.5 -59.5l14 65q117 0 169 47.5t75 147.5l100 475q20 100 86 167t156 83q-66 14 -103.5 62.5t-37.5 121.5q0 33 6 66l102 483q12 59 12 96q0 61 -37.5 92t-130.5 31l15 66 q227 0 227 -189q0 -53 -16 -122l-99 -467q-6 -31 -6 -60q0 -70 41 -108.5t115 -38.5z" />
<glyph unicode="~" d="M856 643q104 0 244 102l-19 -83q-127 -84 -233 -84q-88 0 -188.5 60t-167.5 60q-102 0 -242 -104l16 86q127 84 234 84q88 0 188 -60.5t168 -60.5z" />
<glyph unicode="&#xa1;" horiz-adv-x="512" d="M266 655h80l-219 -1024h-80zM352 1106h111l-27 -131h-110z" />
<glyph unicode="&#xa2;" d="M922 301h75q-53 -143 -181 -234.5t-290 -97.5l-51 -245h-72l54 247q-145 16 -232.5 117.5t-87.5 276.5q0 164 60.5 321.5t191.5 276t305 131.5l56 258h71l-55 -258q152 -8 239 -93.5t87 -222.5h-78q0 117 -74 186.5t-209 69.5q-127 0 -230.5 -66.5t-165 -169t-94 -216 t-32.5 -217.5q0 -164 84 -248t223 -84q135 0 248 75.5t158 192.5z" />
<glyph unicode="&#xa3;" d="M872 752l-14 -66h-457l-90 -418q-29 -127 -147 -200h803l-15 -68h-911l14 68q152 55 187 211l88 407h-92l14 66h92l70 333q39 184 154.5 281.5t287.5 97.5q141 0 233.5 -80.5t94.5 -199.5h-70q-4 94 -75.5 155.5t-186.5 61.5q-143 0 -239.5 -85t-129.5 -241l-67 -323h456 z" />
<glyph unicode="&#xa4;" d="M207 696q0 176 100 299l-133 133l49 50l131 -134q133 121 309.5 121t309.5 -123l135 136l49 -50l-137 -137q100 -125 100 -295q0 -178 -102 -301l139 -139l-49 -49l-139 137q-133 -117 -305 -117t-306 115l-135 -135l-49 49l137 137q-104 121 -104 303zM281 696 q0 -176 111.5 -289.5t273.5 -113.5q158 0 269.5 113.5t111.5 289.5t-112 290t-269 114q-160 0 -272.5 -114t-112.5 -290z" />
<glyph unicode="&#xa5;" d="M915 373l-14 -66h-313l-64 -307h-75l63 307h-309l14 66h309l45 209h-309l14 65h269l-342 787h78l337 -785l676 785h84l-673 -787h270l-14 -65h-314l-45 -209h313z" />
<glyph unicode="&#xa6;" horiz-adv-x="696" d="M338 502h70l-168 -789h-70zM571 1608h70l-166 -789h-67z" />
<glyph unicode="&#xa7;" horiz-adv-x="1187" d="M1053 668q0 -236 -344 -332q150 -74 149 -199q0 -123 -100.5 -222t-296.5 -99q-133 0 -217 62.5t-94 150.5h79q12 -74 80 -113t162 -39q154 0 233.5 81t79.5 171q0 74 -56 117t-177 88q-166 59 -238.5 123.5t-72.5 152.5q0 240 344 332q-147 74 -148 201q0 123 101.5 222 t296.5 99q133 0 213.5 -62.5t91.5 -150.5h-80q-12 74 -76.5 113t-159.5 39q-154 0 -234.5 -81t-80.5 -171q0 -76 57.5 -119t177.5 -86q166 -61 238 -125.5t72 -152.5zM692 897q-8 2 -21.5 7t-17.5 7q-190 -55 -264 -119.5t-74 -173.5q0 -76 63.5 -125t223.5 -110l39 -16 q190 55 264 120.5t74 174.5q0 76 -63.5 125t-223.5 110z" />
<glyph unicode="&#xa8;" horiz-adv-x="757" d="M422 1358h-94l26 117h95zM823 1358h-94l27 117h94z" />
<glyph unicode="&#xa9;" horiz-adv-x="1726" d="M258 737q0 -178 58.5 -318t155.5 -223t215 -125t247 -42t246.5 42t215 125t156 223t58.5 318t-58.5 318.5t-156 223.5t-215 125t-246.5 42t-247 -42t-215 -125t-155.5 -223.5t-58.5 -318.5zM1675 737.5q0 -192.5 -64.5 -345t-171 -242t-235.5 -135.5t-270 -46t-270 46 t-235.5 135.5t-171 242t-64.5 345t64.5 345t171 241.5t235.5 135t270 46t270 -46t235.5 -135t171 -241.5t64.5 -345zM1194 573h72q-23 -117 -113 -187.5t-221 -70.5q-156 0 -257.5 112t-101.5 312q0 209 103.5 323t257.5 114q129 0 217 -68t111 -180h-74q-16 86 -84 136 t-168 50q-127 0 -209 -97t-82 -280q0 -174 83 -266t206 -92q100 0 172 53t88 141z" />
<glyph unicode="&#xaa;" horiz-adv-x="901" d="M446 1307h-71q31 94 120 145t197.5 51t172 -55t63.5 -150q0 -20 -8 -65l-129 -604h-54l17 137q-119 -154 -289 -154q-98 0 -158.5 54.5t-60.5 144.5q0 246 354 307l236 41l18 88q6 31 6 58q0 143 -178 143q-84 0 -150 -39t-86 -102zM784 920l39 180l-211 -37 q-137 -23 -217 -79t-80 -173q0 -68 45.5 -104.5t126.5 -36.5q98 0 187.5 78t109.5 172zM692 70l-14 -70h-619l15 70h618z" />
<glyph unicode="&#xab;" horiz-adv-x="940" d="M313 184l-127 461l326 420h70l-308 -424l101 -457h-62zM682 184l-127 461l326 420h69l-307 -424l100 -457h-61z" />
<glyph unicode="&#xac;" d="M270 694h820l-97 -444h-73l79 375h-745z" />
<glyph unicode="&#xad;" horiz-adv-x="1105" d="M987 694l-16 -69h-738l17 69h737z" />
<glyph unicode="&#xae;" horiz-adv-x="1257" d="M287 1009.5q0 233.5 145.5 359.5t329.5 126t329.5 -126t145.5 -359.5t-145.5 -359.5t-329.5 -126t-329.5 126t-145.5 359.5zM344 1009.5q0 -200.5 124 -317.5t294 -117t294 117t124 317.5t-124 317.5t-294 117t-294 -117t-124 -317.5zM973 750h-64l-129 213h-118v-213 h-54v528h158q84 0 135 -38t51 -114q0 -117 -116 -153zM768 1233h-106v-225h112q57 0 90 35.5t33 82.5q0 45 -31.5 76t-97.5 31z" />
<glyph unicode="&#xaf;" horiz-adv-x="593" d="M737 1354h-471l15 65h471z" />
<glyph unicode="&#xb0;" d="M643 1393q-125 0 -199.5 -88t-74.5 -213q0 -104 60 -164t159 -60q123 0 197.5 88t74.5 213q0 104 -60.5 164t-156.5 60zM584 807q-121 0 -205 73.5t-84 204.5q0 152 94 260.5t256 108.5q121 0 205 -73.5t84 -204.5q0 -152 -94 -260.5t-256 -108.5z" />
<glyph unicode="&#xb1;" d="M721 1069h74l-78 -375h373l-17 -69h-373l-73 -355h-74l74 355h-373l16 69h373zM956 70l-14 -70h-819l14 70h819z" />
<glyph unicode="&#xb2;" horiz-adv-x="696" d="M393 1464h-69q41 88 117.5 141.5t172.5 53.5q94 0 148.5 -52.5t54.5 -129.5q0 -94 -50 -165t-149 -153l-288 -237h366l-12 -62h-457l13 62l335 282q61 51 90 79t57 79t28 108q0 53 -33 92.5t-107 39.5q-145 -1 -217 -138z" />
<glyph unicode="&#xb3;" horiz-adv-x="696" d="M410 1485h-70q37 82 109.5 128t166.5 46q84 0 134.5 -47t50.5 -119q0 -82 -49.5 -140.5t-133.5 -80.5q55 -12 94.5 -53t39.5 -107q0 -115 -83 -189.5t-206 -74.5q-88 0 -152.5 53t-64.5 127h67q6 -55 47 -88t107 -33q96 0 155.5 61.5t59.5 143.5q0 61 -44 96t-112 35h-47 l10 55h58q74 0 130 61.5t56 133.5q0 51 -32.5 80t-92.5 29q-141 0 -198 -117z" />
<glyph unicode="&#xb4;" horiz-adv-x="442" d="M238 1225l270 280h113l-310 -280h-73z" />
<glyph unicode="&#xb5;" horiz-adv-x="1120" d="M381 1065l-160 -748q-10 -47 -10 -77q0 -102 66.5 -155.5t187.5 -53.5q143 0 265 108.5t157 270.5l139 655h74l-226 -1065h-61l29 190q-76 -111 -181.5 -166t-214.5 -55q-201 0 -268 148l-102 -486h-74l305 1434h74z" />
<glyph unicode="&#xb6;" horiz-adv-x="1126" d="M360 -369h-69l250 1178q-86 0 -167 63.5t-81 188.5q0 160 113.5 287t277.5 127h70zM1063 1475h70l-394 -1844h-69z" />
<glyph unicode="&#xb7;" horiz-adv-x="569" d="M383 592h-111l29 131h111z" />
<glyph unicode="&#xb8;" horiz-adv-x="575" d="M373 -268q0 -82 -76 -150.5t-191 -68.5q-90 0 -142 40.5t-52 116.5v11h65v-9q0 -100 144 -100q76 0 130 47t54 113q0 111 -209 110l56 189h57l-31 -137q94 -8 144.5 -53.5t50.5 -108.5z" />
<glyph unicode="&#xb9;" horiz-adv-x="696" d="M676 860h-422l12 60h193l139 649l-250 -131l14 73l242 127h78l-154 -718h160z" />
<glyph unicode="&#xba;" horiz-adv-x="786" d="M621 1446q-98 0 -172 -62.5t-112 -156.5t-55.5 -179t-17.5 -153q0 -117 52.5 -171t138.5 -54q98 0 172.5 62.5t110.5 156.5t52.5 178t16.5 154q0 225 -186 225zM451 612q-119 0 -186.5 73t-67.5 212q0 82 20.5 176t65.5 195.5t135 168t211 66.5q119 0 182 -72.5 t63 -211.5q0 -84 -19 -177.5t-62 -195t-132 -168t-210 -66.5zM616 70l-14 -70h-602l14 70h602z" />
<glyph unicode="&#xbb;" horiz-adv-x="940" d="M860 645l-311 -461h-70l293 457l-127 424h62zM492 645l-312 -461h-69l292 457l-127 424h62z" />
<glyph unicode="&#xbc;" horiz-adv-x="1802" d="M741 655h-422l13 60h192l140 649l-250 -131l14 74l242 127h78l-154 -719h160zM1442 492h59l-53 -248h137l-12 -60h-137l-39 -184h-70l39 184h-303l12 62l287 532h72l-289 -534h233l8 41zM1681 1618l-1308 -1802h-74l1307 1802h75z" />
<glyph unicode="&#xbd;" horiz-adv-x="1802" d="M1257 604h-69q41 88 117.5 141.5t173.5 53.5q94 0 148 -52.5t54 -130.5q0 -94 -50 -164.5t-148 -152.5l-289 -238h367l-13 -61h-456l12 61l336 283q61 51 90 79t56.5 79t27.5 108q0 53 -33 92t-106 39q-146 0 -218 -137zM737 655h-422l13 60h192l139 649l-249 -131l14 74 l242 127h77l-153 -719h160zM1677 1618l-1308 -1802h-74l1307 1802h75z" />
<glyph unicode="&#xbe;" horiz-adv-x="1802" d="M496 1290h-70q37 82 109.5 128t166.5 46q84 0 134.5 -47t50.5 -119q0 -82 -49.5 -140t-132.5 -81q55 -12 94 -53t39 -106q0 -115 -83 -190t-206 -75q-88 0 -152.5 53.5t-64.5 127.5h67q6 -55 47 -88t107 -33q96 0 155.5 61.5t59.5 143.5q0 61 -44 96t-112 35h-47l10 55 h58q74 0 130 61.5t56 132.5q0 51 -32.5 80t-92.5 29q-141 0 -198 -117zM1442 492h59l-53 -248h137l-12 -60h-137l-39 -184h-70l39 184h-303l12 62l287 532h72l-289 -534h233l8 41zM1681 1618l-1308 -1802h-74l1307 1802h75z" />
<glyph unicode="&#xbf;" horiz-adv-x="1009" d="M717 -68h80q-57 -145 -182.5 -238t-297.5 -93q-154 0 -249 77.5t-95 194.5q0 33 3.5 59.5t16.5 55t20 48t33 49.5t36 43t50 48l52 46q12 11 64.5 53t68.5 57q111 92 146 150.5t67 213.5h74q-37 -174 -76 -244.5t-163 -170.5q-197 -160 -244 -218q-72 -84 -72 -186 q0 -90 73 -151.5t202 -61.5q133 0 238.5 74.5t154.5 193.5zM598 1106h111l-27 -131h-111z" />
<glyph unicode="&#xc0;" horiz-adv-x="1314" d="M1212 0h-79l-80 436h-764l-266 -436h-84l899 1475h104zM879 1405l-551 -903h714zM842 1853l151 -280h-65l-191 280h105z" />
<glyph unicode="&#xc1;" horiz-adv-x="1314" d="M1212 0h-79l-80 436h-764l-266 -436h-84l899 1475h104zM879 1405l-551 -903h714zM793 1573l270 280h113l-310 -280h-73z" />
<glyph unicode="&#xc2;" horiz-adv-x="1314" d="M1212 0h-79l-80 436h-764l-266 -436h-84l899 1475h104zM879 1405l-551 -903h714zM1006 1853l151 -280h-70l-137 231l-233 -231h-80l272 280h97z" />
<glyph unicode="&#xc3;" horiz-adv-x="1314" d="M1212 0h-79l-80 436h-764l-266 -436h-84l899 1475h104zM879 1405l-551 -903h714zM1026 1645q-57 0 -112.5 32.5t-96.5 32.5q-57 0 -164 -72l17 80q92 59 157 60q57 0 112.5 -33t96.5 -33q59 0 166 72l-16 -80q-92 -59 -160 -59z" />
<glyph unicode="&#xc4;" horiz-adv-x="1314" d="M1212 0h-79l-80 436h-764l-266 -436h-84l899 1475h104zM879 1405l-551 -903h714zM772 1706h-94l27 117h94zM1174 1706h-95l27 117h94z" />
<glyph unicode="&#xc5;" horiz-adv-x="1314" d="M1212 0h-79l-80 436h-764l-266 -436h-84l876 1438q-127 47 -127 190q0 104 68.5 185t189.5 81q96 0 155.5 -57t59.5 -147q0 -92 -56 -169t-155 -94zM879 1405l-551 -903h714zM944 1839q-86 0 -138 -60.5t-52 -146.5q0 -74 42 -113.5t109 -39.5q86 0 138.5 60t52.5 147 q0 74 -42 113.5t-110 39.5z" />
<glyph unicode="&#xc6;" horiz-adv-x="1878" d="M954 436h-594l-354 -436h-88l1200 1475h869l-15 -68h-735l-133 -623h676l-15 -67h-675l-138 -649h736l-15 -68h-811zM1163 1423l-749 -921h555z" />
<glyph unicode="&#xc7;" horiz-adv-x="1464" d="M899 -258q0 -84 -77 -156.5t-189 -72.5q-90 0 -142.5 40.5t-52.5 116.5v11h66v-9q0 -100 143 -100q76 0 130 47t54 113q0 111 -208 110l36 129q-231 10 -364 163t-133 401q0 113 28.5 238.5t94 257.5t159 236.5t237.5 171t314 66.5q233 0 368.5 -112.5t135.5 -350.5h-76 q0 395 -436 396q-154 0 -284 -64.5t-212.5 -163t-141 -221.5t-84 -237.5t-25.5 -212.5q0 -231 123.5 -366.5t332.5 -135.5q211 0 371 115.5t233 324.5h76q-70 -221 -245 -360.5t-410 -147.5l-16 -75q96 -8 145 -49.5t49 -102.5z" />
<glyph unicode="&#xc8;" horiz-adv-x="1148" d="M1051 784l-15 -67h-717l-137 -649h776l-14 -68h-852l314 1475h851l-14 -68h-776l-133 -623h717zM805 1853l151 -280h-65l-191 280h105z" />
<glyph unicode="&#xc9;" horiz-adv-x="1148" d="M1051 784l-15 -67h-717l-137 -649h776l-14 -68h-852l314 1475h851l-14 -68h-776l-133 -623h717zM729 1573l270 280h113l-309 -280h-74z" />
<glyph unicode="&#xca;" horiz-adv-x="1148" d="M1051 784l-15 -67h-717l-137 -649h776l-14 -68h-852l314 1475h851l-14 -68h-776l-133 -623h717zM954 1853l152 -280h-70l-137 231l-233 -231h-80l272 280h96z" />
<glyph unicode="&#xcb;" horiz-adv-x="1148" d="M1051 784l-15 -67h-717l-137 -649h776l-14 -68h-852l314 1475h851l-14 -68h-776l-133 -623h717zM696 1706h-94l27 117h94zM1098 1706h-94l26 117h94z" />
<glyph unicode="&#xcc;" horiz-adv-x="423" d="M406 1475h75l-313 -1475h-76zM391 1853l152 -280h-66l-190 280h104z" />
<glyph unicode="&#xcd;" horiz-adv-x="423" d="M406 1475h75l-313 -1475h-76zM356 1573l271 280h112l-309 -280h-74z" />
<glyph unicode="&#xce;" horiz-adv-x="423" d="M406 1475h75l-313 -1475h-76zM559 1853l152 -280h-70l-137 231l-234 -231h-80l273 280h96z" />
<glyph unicode="&#xcf;" horiz-adv-x="423" d="M406 1475h75l-313 -1475h-76zM317 1706h-94l27 117h94zM719 1706h-94l26 117h94z" />
<glyph unicode="&#xd0;" horiz-adv-x="1380" d="M406 1475h376q266 0 423 -144.5t157 -402.5q0 -168 -56.5 -331t-162 -297t-275.5 -217t-376 -83h-400l158 741h-125l14 68h125zM784 1407h-317l-127 -598h485l-14 -68h-485l-144 -673h322q160 0 293 56t221 146t149.5 206t89 229.5t27.5 220.5q0 231 -135.5 356 t-364.5 125z" />
<glyph unicode="&#xd1;" horiz-adv-x="1452" d="M1438 1475h71l-313 -1475h-74l-667 1368l-289 -1368h-74l314 1475h77l666 -1358zM1102 1645q-57 0 -112.5 32.5t-96.5 32.5q-57 0 -164 -72l16 80q92 59 158 60q57 0 112.5 -33t96.5 -33q59 0 166 72l-16 -80q-92 -59 -160 -59z" />
<glyph unicode="&#xd2;" horiz-adv-x="1523" d="M985 1438q-160 0 -291 -64.5t-214 -165t-139 -226.5t-78.5 -240.5t-22.5 -219.5q0 -233 120.5 -359t325.5 -126q158 0 289 64.5t214 165t139 225t80 241.5t24 219q0 231 -122 358.5t-325 127.5zM682 -31q-233 0 -375.5 146.5t-142.5 410.5q0 115 26.5 242t91 260 t156.5 237.5t235.5 172t315.5 67.5q233 0 375.5 -147.5t142.5 -409.5q0 -115 -26.5 -241.5t-91 -260t-156.5 -238t-235.5 -172t-315.5 -67.5zM920 1853l151 -280h-65l-191 280h105z" />
<glyph unicode="&#xd3;" horiz-adv-x="1523" d="M985 1438q-160 0 -291 -64.5t-214 -165t-139 -226.5t-78.5 -240.5t-22.5 -219.5q0 -233 120.5 -359t325.5 -126q158 0 289 64.5t214 165t139 225t80 241.5t24 219q0 231 -122 358.5t-325 127.5zM682 -31q-233 0 -375.5 146.5t-142.5 410.5q0 115 26.5 242t91 260 t156.5 237.5t235.5 172t315.5 67.5q233 0 375.5 -147.5t142.5 -409.5q0 -115 -26.5 -241.5t-91 -260t-156.5 -238t-235.5 -172t-315.5 -67.5zM907 1573l271 280h112l-309 -280h-74z" />
<glyph unicode="&#xd4;" horiz-adv-x="1523" d="M985 1438q-160 0 -291 -64.5t-214 -165t-139 -226.5t-78.5 -240.5t-22.5 -219.5q0 -233 120.5 -359t325.5 -126q158 0 289 64.5t214 165t139 225t80 241.5t24 219q0 231 -122 358.5t-325 127.5zM682 -31q-233 0 -375.5 146.5t-142.5 410.5q0 115 26.5 242t91 260 t156.5 237.5t235.5 172t315.5 67.5q233 0 375.5 -147.5t142.5 -409.5q0 -115 -26.5 -241.5t-91 -260t-156.5 -238t-235.5 -172t-315.5 -67.5zM1114 1853l152 -280h-70l-137 231l-234 -231h-80l273 280h96z" />
<glyph unicode="&#xd5;" horiz-adv-x="1523" d="M985 1438q-160 0 -291 -64.5t-214 -165t-139 -226.5t-78.5 -240.5t-22.5 -219.5q0 -233 120.5 -359t325.5 -126q158 0 289 64.5t214 165t139 225t80 241.5t24 219q0 231 -122 358.5t-325 127.5zM682 -31q-233 0 -375.5 146.5t-142.5 410.5q0 115 26.5 242t91 260 t156.5 237.5t235.5 172t315.5 67.5q233 0 375.5 -147.5t142.5 -409.5q0 -115 -26.5 -241.5t-91 -260t-156.5 -238t-235.5 -172t-315.5 -67.5zM1133 1645q-57 0 -112.5 32.5t-96.5 32.5q-57 0 -164 -72l16 80q92 59 158 60q57 0 112.5 -33t96.5 -33q59 0 166 72l-17 -80 q-91 -59 -159 -59z" />
<glyph unicode="&#xd6;" horiz-adv-x="1523" d="M985 1438q-160 0 -291 -64.5t-214 -165t-139 -226.5t-78.5 -240.5t-22.5 -219.5q0 -233 120.5 -359t325.5 -126q158 0 289 64.5t214 165t139 225t80 241.5t24 219q0 231 -122 358.5t-325 127.5zM682 -31q-233 0 -375.5 146.5t-142.5 410.5q0 115 26.5 242t91 260 t156.5 237.5t235.5 172t315.5 67.5q233 0 375.5 -147.5t142.5 -409.5q0 -115 -26.5 -241.5t-91 -260t-156.5 -238t-235.5 -172t-315.5 -67.5zM879 1706h-95l27 117h94zM1280 1706h-94l26 117h95z" />
<glyph unicode="&#xd7;" d="M416 926l57 47l207 -268l317 264l43 -54l-317 -262l203 -260l-58 -47l-204 266l-320 -264l-41 53l318 263z" />
<glyph unicode="&#xd8;" horiz-adv-x="1523" d="M682 -31q-127 0 -225 43l-138 -237h-75l153 266q-233 141 -233 485q0 115 26.5 242t91 260t156.5 237.5t235.5 172t315.5 67.5q125 0 230 -47l129 221h75l-145 -252q229 -143 229 -479q0 -115 -26.5 -241.5t-91 -260t-156.5 -238t-235.5 -172t-315.5 -67.5zM985 1438 q-160 0 -291 -64.5t-214 -165t-139 -226.5t-78.5 -240.5t-22.5 -219.5q0 -299 192 -420l752 1297q-90 39 -199 39zM1432 952q0 293 -191 414l-749 -1294q88 -35 194 -35q158 0 289 64.5t214 165t139 225t80 241.5t24 219z" />
<glyph unicode="&#xd9;" horiz-adv-x="1433" d="M635 -31q-221 0 -342 117t-121 295q0 55 12 111l211 983h74l-213 -996q-10 -41 -10 -96q0 -156 108.5 -251t286.5 -95q209 0 371 124t202 318l213 996h74l-215 -1004q-47 -215 -223 -358.5t-428 -143.5zM918 1853l151 -280h-65l-191 280h105z" />
<glyph unicode="&#xda;" horiz-adv-x="1433" d="M635 -31q-221 0 -342 117t-121 295q0 55 12 111l211 983h74l-213 -996q-10 -41 -10 -96q0 -156 108.5 -251t286.5 -95q209 0 371 124t202 318l213 996h74l-215 -1004q-47 -215 -223 -358.5t-428 -143.5zM852 1573l270 280h113l-309 -280h-74z" />
<glyph unicode="&#xdb;" horiz-adv-x="1433" d="M635 -31q-221 0 -342 117t-121 295q0 55 12 111l211 983h74l-213 -996q-10 -41 -10 -96q0 -156 108.5 -251t286.5 -95q209 0 371 124t202 318l213 996h74l-215 -1004q-47 -215 -223 -358.5t-428 -143.5zM1073 1853l152 -280h-70l-137 231l-234 -231h-79l272 280h96z" />
<glyph unicode="&#xdc;" horiz-adv-x="1433" d="M635 -31q-221 0 -342 117t-121 295q0 55 12 111l211 983h74l-213 -996q-10 -41 -10 -96q0 -156 108.5 -251t286.5 -95q209 0 371 124t202 318l213 996h74l-215 -1004q-47 -215 -223 -358.5t-428 -143.5zM829 1706h-94l27 117h94zM1231 1706h-94l26 117h94z" />
<glyph unicode="&#xdd;" horiz-adv-x="1269" d="M252 1475h78l354 -832l713 832h84l-770 -900l-121 -575h-76l123 580zM780 1573l271 280h112l-309 -280h-74z" />
<glyph unicode="&#xde;" horiz-adv-x="1277" d="M422 1202h420q203 0 311.5 -92t108.5 -258q0 -240 -169 -391.5t-429 -151.5h-431l-65 -309h-76l314 1475h75zM842 1135h-432l-162 -756h422q227 0 370.5 133t143.5 338q0 135 -88 210t-254 75z" />
<glyph unicode="&#xdf;" horiz-adv-x="1116" d="M332 176h78q16 -68 79.5 -106.5t159.5 -38.5q125 0 219.5 88t94.5 229q0 125 -162 225q-156 96 -156 205q0 61 33 112.5t79 87.5l92 73q46 37 79 91t33 124q0 86 -60.5 132t-163.5 46q-274 0 -342 -316l-239 -1128h-74l240 1135q78 371 421 370q127 0 207 -60.5 t80 -172.5q0 -76 -32.5 -137.5t-79 -101.5t-92.5 -75.5t-78.5 -77.5t-32.5 -89q0 -88 131 -166q195 -117 194 -275q0 -162 -114.5 -271.5t-288.5 -109.5q-129 0 -207 58.5t-98 148.5z" />
<glyph unicode="&#xe0;" horiz-adv-x="1064" d="M297 799h-74q41 133 164 215t287 82q147 0 235 -70t88 -195q0 -43 -8 -77l-160 -754h-59l27 190q-166 -221 -422 -221q-135 0 -221 64.5t-86 177.5q0 176 128 267t359 128l340 53l23 109q6 35 6 63q0 94 -68 148.5t-190 54.5q-133 0 -233.5 -65.5t-135.5 -169.5zM834 375 l49 223l-308 -49q-231 -37 -329.5 -118t-98.5 -216q0 -90 68 -136t184 -46q141 0 271.5 97.5t163.5 244.5zM627 1505l151 -280h-65l-191 280h105z" />
<glyph unicode="&#xe1;" horiz-adv-x="1064" d="M297 799h-74q41 133 164 215t287 82q147 0 235 -70t88 -195q0 -43 -8 -77l-160 -754h-59l27 190q-166 -221 -422 -221q-135 0 -221 64.5t-86 177.5q0 176 128 267t359 128l340 53l23 109q6 35 6 63q0 94 -68 148.5t-190 54.5q-133 0 -233.5 -65.5t-135.5 -169.5zM834 375 l49 223l-308 -49q-231 -37 -329.5 -118t-98.5 -216q0 -90 68 -136t184 -46q141 0 271.5 97.5t163.5 244.5zM639 1225l270 280h113l-309 -280h-74z" />
<glyph unicode="&#xe2;" horiz-adv-x="1064" d="M297 799h-74q41 133 164 215t287 82q147 0 235 -70t88 -195q0 -43 -8 -77l-160 -754h-59l27 190q-166 -221 -422 -221q-135 0 -221 64.5t-86 177.5q0 176 128 267t359 128l340 53l23 109q6 35 6 63q0 94 -68 148.5t-190 54.5q-133 0 -233.5 -65.5t-135.5 -169.5zM834 375 l49 223l-308 -49q-231 -37 -329.5 -118t-98.5 -216q0 -90 68 -136t184 -46q141 0 271.5 97.5t163.5 244.5zM825 1505l152 -280h-70l-137 231l-233 -231h-80l272 280h96z" />
<glyph unicode="&#xe3;" horiz-adv-x="1064" d="M297 799h-74q41 133 164 215t287 82q147 0 235 -70t88 -195q0 -43 -8 -77l-160 -754h-59l27 190q-166 -221 -422 -221q-135 0 -221 64.5t-86 177.5q0 176 128 267t359 128l340 53l23 109q6 35 6 63q0 94 -68 148.5t-190 54.5q-133 0 -233.5 -65.5t-135.5 -169.5zM834 375 l49 223l-308 -49q-231 -37 -329.5 -118t-98.5 -216q0 -90 68 -136t184 -46q141 0 271.5 97.5t163.5 244.5zM838 1296q-57 0 -112.5 33t-96.5 33q-57 0 -164 -72l16 80q92 59 158 60q57 0 112.5 -33t96.5 -33q59 0 166 72l-17 -80q-91 -60 -159 -60z" />
<glyph unicode="&#xe4;" horiz-adv-x="1064" d="M297 799h-74q41 133 164 215t287 82q147 0 235 -70t88 -195q0 -43 -8 -77l-160 -754h-59l27 190q-166 -221 -422 -221q-135 0 -221 64.5t-86 177.5q0 176 128 267t359 128l340 53l23 109q6 35 6 63q0 94 -68 148.5t-190 54.5q-133 0 -233.5 -65.5t-135.5 -169.5zM834 375 l49 223l-308 -49q-231 -37 -329.5 -118t-98.5 -216q0 -90 68 -136t184 -46q141 0 271.5 97.5t163.5 244.5zM584 1358h-95l27 117h94zM985 1358h-94l27 117h94z" />
<glyph unicode="&#xe5;" horiz-adv-x="1064" d="M297 799h-74q41 133 164 215t287 82q147 0 235 -70t88 -195q0 -43 -8 -77l-160 -754h-59l27 190q-166 -221 -422 -221q-135 0 -221 64.5t-86 177.5q0 176 128 267t359 128l340 53l23 109q6 35 6 63q0 94 -68 148.5t-190 54.5q-133 0 -233.5 -65.5t-135.5 -169.5zM834 375 l49 223l-308 -49q-231 -37 -329.5 -118t-98.5 -216q0 -90 68 -136t184 -46q141 0 271.5 97.5t163.5 244.5zM764 1614q-86 0 -138.5 -60.5t-52.5 -146.5q0 -74 42 -114t110 -40q86 0 138 60.5t52 146.5q0 74 -41.5 114t-109.5 40zM723 1198q-96 0 -155.5 57.5t-59.5 147.5 q0 104 68.5 185t189.5 81q96 0 155.5 -57.5t59.5 -147.5q0 -104 -68.5 -185t-189.5 -81z" />
<glyph unicode="&#xe6;" horiz-adv-x="1898" d="M375 -31q-135 0 -221 64.5t-86 177.5q0 319 487 395l340 53l23 109q6 35 6 63q0 94 -68 148.5t-190 54.5q-133 0 -233.5 -65.5t-135.5 -169.5h-74q41 133 164 215t287 82q145 0 228 -70t83 -197q82 133 204 205t261 72q172 0 277.5 -103.5t105.5 -289.5q0 -82 -16 -156 h-873q-20 -90 -20 -170q0 -174 92 -259t244 -85q131 0 238.5 65.5t164.5 184.5h78q-66 -145 -197 -229t-293 -84q-154 0 -255 78.5t-128 224.5q-82 -162 -216 -238t-277 -76zM883 598l-308 -49q-231 -37 -329.5 -118t-98.5 -216q0 -90 68 -136t184 -46q141 0 271.5 97 t163.5 245zM1446 1044q-158 0 -300 -122.5t-190 -300.5h795q8 47 8 98q0 156 -85 240.5t-228 84.5z" />
<glyph unicode="&#xe7;" horiz-adv-x="1093" d="M897 301h76q-53 -141 -180 -231t-285 -99l-16 -77q94 -8 144 -51.5t50 -106.5q0 -84 -73.5 -153.5t-192.5 -69.5q-90 0 -142.5 40.5t-52.5 116.5v11h66v-9q0 -100 143 -100q76 0 130 47t54 113q0 111 -208 110l36 129q-152 10 -242.5 111.5t-90.5 282.5q0 170 64.5 332.5 t204.5 280.5t327 118q168 0 263 -86t95 -232h-78q0 117 -73.5 186.5t-208.5 69.5q-127 0 -230.5 -66.5t-165 -169t-94.5 -216t-33 -217.5q0 -164 84 -248t224 -84q135 0 247.5 75.5t157.5 192.5z" />
<glyph unicode="&#xe8;" horiz-adv-x="1163" d="M930 283h78q-66 -145 -197 -229.5t-293 -84.5q-182 0 -291.5 109.5t-109.5 304.5q0 119 38 240.5t108.5 229.5t189 175.5t264.5 67.5q172 0 276.5 -102.5t104.5 -297.5q0 -88 -21 -182h-872q-14 -70 -15 -137q0 -170 91.5 -257t244.5 -87q131 0 239 65.5t165 184.5z M713 1034q-164 0 -301.5 -120.5t-194.5 -335.5h795q10 72 10 118q0 164 -84 251t-225 87zM678 1505l151 -280h-65l-191 280h105z" />
<glyph unicode="&#xe9;" horiz-adv-x="1163" d="M930 283h78q-66 -145 -197 -229.5t-293 -84.5q-182 0 -291.5 109.5t-109.5 304.5q0 119 38 240.5t108.5 229.5t189 175.5t264.5 67.5q172 0 276.5 -102.5t104.5 -297.5q0 -88 -21 -182h-872q-14 -70 -15 -137q0 -170 91.5 -257t244.5 -87q131 0 239 65.5t165 184.5z M713 1034q-164 0 -301.5 -120.5t-194.5 -335.5h795q10 72 10 118q0 164 -84 251t-225 87zM686 1225l270 280h113l-309 -280h-74z" />
<glyph unicode="&#xea;" horiz-adv-x="1163" d="M930 283h78q-66 -145 -197 -229.5t-293 -84.5q-182 0 -291.5 109.5t-109.5 304.5q0 119 38 240.5t108.5 229.5t189 175.5t264.5 67.5q172 0 276.5 -102.5t104.5 -297.5q0 -88 -21 -182h-872q-14 -70 -15 -137q0 -170 91.5 -257t244.5 -87q131 0 239 65.5t165 184.5z M713 1034q-164 0 -301.5 -120.5t-194.5 -335.5h795q10 72 10 118q0 164 -84 251t-225 87zM860 1505l152 -280h-70l-137 231l-234 -231h-79l272 280h96z" />
<glyph unicode="&#xeb;" horiz-adv-x="1163" d="M930 283h78q-66 -145 -197 -229.5t-293 -84.5q-182 0 -291.5 109.5t-109.5 304.5q0 119 38 240.5t108.5 229.5t189 175.5t264.5 67.5q172 0 276.5 -102.5t104.5 -297.5q0 -88 -21 -182h-872q-14 -70 -15 -137q0 -170 91.5 -257t244.5 -87q131 0 239 65.5t165 184.5z M713 1034q-164 0 -301.5 -120.5t-194.5 -335.5h795q10 72 10 118q0 164 -84 251t-225 87zM627 1358h-95l27 117h94zM1028 1358h-94l27 117h94z" />
<glyph unicode="&#xec;" horiz-adv-x="393" d="M152 0h-74l225 1065h74zM319 1505l152 -280h-65l-191 280h104z" />
<glyph unicode="&#xed;" horiz-adv-x="393" d="M152 0h-74l225 1065h74zM274 1225l271 280h112l-309 -280h-74z" />
<glyph unicode="&#xee;" horiz-adv-x="393" d="M152 0h-74l225 1065h74zM483 1505l152 -280h-70l-137 231l-233 -231h-80l272 280h96z" />
<glyph unicode="&#xef;" horiz-adv-x="393" d="M152 0h-74l225 1065h74zM248 1358h-94l26 117h94zM649 1358h-94l27 117h94z" />
<glyph unicode="&#xf0;" horiz-adv-x="1097" d="M498 1427l26 58q188 -37 322 -137l147 127h88l-190 -164q180 -166 180 -451q0 -82 -13.5 -182t-55 -229.5t-106.5 -232.5t-179.5 -175t-261.5 -72q-166 0 -257.5 103.5t-91.5 275.5q0 254 151 442.5t382 188.5q160 0 248 -86t96 -207q16 90 16 184q0 258 -155 400 l-154 -131h-88l197 168q-115 83 -301 120zM457 37q100 0 185 42t139.5 104.5t92 140t53 145.5t15.5 123q0 137 -75.5 229t-221.5 92q-211 0 -337 -172t-126 -395q0 -141 72 -225t203 -84z" />
<glyph unicode="&#xf1;" horiz-adv-x="1120" d="M723 1034q-133 0 -264 -104.5t-164 -265.5l-139 -664h-74l225 1065h62l-33 -203q76 113 183.5 173.5t223.5 60.5q141 0 224.5 -73t83.5 -198q0 -37 -11 -88l-155 -737h-74l156 733q10 43 10 84q0 102 -65.5 159.5t-188.5 57.5zM887 1296q-57 0 -112.5 33t-96.5 33 q-57 0 -164 -72l16 80q92 59 158 60q57 0 112.5 -33t96.5 -33q59 0 166 72l-16 -80q-92 -60 -160 -60z" />
<glyph unicode="&#xf2;" horiz-adv-x="1157" d="M506 31q113 0 206 49t150.5 122.5t96 166t55 174.5t16.5 151q0 166 -83 253t-230 87q-115 0 -209 -49t-151.5 -123t-96.5 -167t-54.5 -174t-15.5 -150q0 -166 84.5 -253t231.5 -87zM502 -31q-178 0 -282.5 106.5t-104.5 297.5q0 82 18.5 173t64.5 191.5t112.5 178 t174 129t238.5 51.5q178 0 280.5 -106.5t102.5 -297.5q0 -104 -33 -222t-99.5 -233.5t-189 -191.5t-282.5 -76zM678 1505l151 -280h-65l-191 280h105z" />
<glyph unicode="&#xf3;" horiz-adv-x="1157" d="M506 31q113 0 206 49t150.5 122.5t96 166t55 174.5t16.5 151q0 166 -83 253t-230 87q-115 0 -209 -49t-151.5 -123t-96.5 -167t-54.5 -174t-15.5 -150q0 -166 84.5 -253t231.5 -87zM502 -31q-178 0 -282.5 106.5t-104.5 297.5q0 82 18.5 173t64.5 191.5t112.5 178 t174 129t238.5 51.5q178 0 280.5 -106.5t102.5 -297.5q0 -104 -33 -222t-99.5 -233.5t-189 -191.5t-282.5 -76zM678 1225l270 280h113l-309 -280h-74z" />
<glyph unicode="&#xf4;" horiz-adv-x="1157" d="M506 31q113 0 206 49t150.5 122.5t96 166t55 174.5t16.5 151q0 166 -83 253t-230 87q-115 0 -209 -49t-151.5 -123t-96.5 -167t-54.5 -174t-15.5 -150q0 -166 84.5 -253t231.5 -87zM502 -31q-178 0 -282.5 106.5t-104.5 297.5q0 82 18.5 173t64.5 191.5t112.5 178 t174 129t238.5 51.5q178 0 280.5 -106.5t102.5 -297.5q0 -104 -33 -222t-99.5 -233.5t-189 -191.5t-282.5 -76zM866 1505l152 -280h-70l-137 231l-233 -231h-80l272 280h96z" />
<glyph unicode="&#xf5;" horiz-adv-x="1157" d="M506 31q113 0 206 49t150.5 122.5t96 166t55 174.5t16.5 151q0 166 -83 253t-230 87q-115 0 -209 -49t-151.5 -123t-96.5 -167t-54.5 -174t-15.5 -150q0 -166 84.5 -253t231.5 -87zM502 -31q-178 0 -282.5 106.5t-104.5 297.5q0 82 18.5 173t64.5 191.5t112.5 178 t174 129t238.5 51.5q178 0 280.5 -106.5t102.5 -297.5q0 -104 -33 -222t-99.5 -233.5t-189 -191.5t-282.5 -76zM883 1296q-57 0 -112.5 33t-96.5 33q-57 0 -164 -72l16 80q92 59 158 60q57 0 112.5 -33t96.5 -33q59 0 166 72l-17 -80q-91 -60 -159 -60z" />
<glyph unicode="&#xf6;" horiz-adv-x="1157" d="M506 31q113 0 206 49t150.5 122.5t96 166t55 174.5t16.5 151q0 166 -83 253t-230 87q-115 0 -209 -49t-151.5 -123t-96.5 -167t-54.5 -174t-15.5 -150q0 -166 84.5 -253t231.5 -87zM502 -31q-178 0 -282.5 106.5t-104.5 297.5q0 82 18.5 173t64.5 191.5t112.5 178 t174 129t238.5 51.5q178 0 280.5 -106.5t102.5 -297.5q0 -104 -33 -222t-99.5 -233.5t-189 -191.5t-282.5 -76zM631 1358h-94l26 117h94zM1032 1358h-94l27 117h94z" />
<glyph unicode="&#xf7;" d="M610 131h-102l29 131h102zM807 1057h-102l28 131h103zM1090 694l-17 -69h-819l16 69h820z" />
<glyph unicode="&#xf8;" horiz-adv-x="1157" d="M502 -31q-106 0 -199 43l-156 -237h-77l180 272q-135 106 -135 326q0 82 18.5 173t64.5 191.5t112.5 178t174 129t238.5 51.5q109 0 190 -41l156 235h78l-178 -270q137 -109 137 -328q0 -104 -33 -222t-99.5 -233.5t-189 -191.5t-282.5 -76zM506 31q113 0 206 49 t150.5 122.5t96 166t55 174.5t16.5 151q0 180 -100 269l-590 -895q68 -37 166 -37zM190 371q0 -176 97 -267l590 895q-70 35 -160 35q-115 0 -209 -49t-151.5 -123t-96.5 -167t-54.5 -173.5t-15.5 -150.5z" />
<glyph unicode="&#xf9;" horiz-adv-x="1110" d="M297 1065h74l-152 -711q-14 -55 -14 -110q0 -213 250 -213q143 0 265 108.5t157 270.5l139 655h74l-226 -1065h-61l28 190q-76 -111 -183 -166t-216 -55q-137 0 -219 68.5t-82 198.5q0 53 10 96zM657 1505l152 -280h-66l-190 280h104z" />
<glyph unicode="&#xfa;" horiz-adv-x="1110" d="M297 1065h74l-152 -711q-14 -55 -14 -110q0 -213 250 -213q143 0 265 108.5t157 270.5l139 655h74l-226 -1065h-61l28 190q-76 -111 -183 -166t-216 -55q-137 0 -219 68.5t-82 198.5q0 53 10 96zM643 1225l270 280h113l-309 -280h-74z" />
<glyph unicode="&#xfb;" horiz-adv-x="1110" d="M297 1065h74l-152 -711q-14 -55 -14 -110q0 -213 250 -213q143 0 265 108.5t157 270.5l139 655h74l-226 -1065h-61l28 190q-76 -111 -183 -166t-216 -55q-137 0 -219 68.5t-82 198.5q0 53 10 96zM838 1505l151 -280h-69l-138 231l-233 -231h-80l272 280h97z" />
<glyph unicode="&#xfc;" horiz-adv-x="1110" d="M297 1065h74l-152 -711q-14 -55 -14 -110q0 -213 250 -213q143 0 265 108.5t157 270.5l139 655h74l-226 -1065h-61l28 190q-76 -111 -183 -166t-216 -55q-137 0 -219 68.5t-82 198.5q0 53 10 96zM602 1358h-94l27 117h94zM1004 1358h-95l27 117h94z" />
<glyph unicode="&#xfd;" horiz-adv-x="1003" d="M1106 1065l-606 -1071q-143 -256 -202.5 -324.5t-154.5 -68.5q-55 0 -108 24l14 60q49 -23 101 -23q63 0 110 61.5t164 276.5h-29l-211 1065h74l199 -1012l569 1012h80zM578 1225l270 280h113l-310 -280h-73z" />
<glyph unicode="&#xfe;" horiz-adv-x="1163" d="M528 31q104 0 193.5 50t146 126t96.5 171t57 182t17 161q0 156 -77.5 234.5t-215.5 78.5q-158 0 -277.5 -110.5t-174.5 -262t-55 -307.5q0 -158 77.5 -240.5t212.5 -82.5zM532 -31q-133 0 -219 70t-110 184l-127 -592h-74l393 1844h74l-135 -629q166 250 428 250 q162 0 256 -96.5t94 -280.5q0 -92 -19.5 -190.5t-65.5 -199t-111.5 -180t-165 -130t-218.5 -50.5z" />
<glyph unicode="&#xff;" horiz-adv-x="1003" d="M1106 1065l-606 -1071q-143 -256 -202.5 -324.5t-154.5 -68.5q-55 0 -108 24l14 60q49 -23 101 -23q63 0 110 61.5t164 276.5h-29l-211 1065h74l199 -1012l569 1012h80zM561 1358h-94l27 117h94zM963 1358h-95l27 117h94z" />
<glyph unicode="&#x100;" horiz-adv-x="1314" d="M1212 0h-79l-80 436h-764l-266 -436h-84l899 1475h104zM879 1405l-551 -903h714zM1159 1702h-471l14 65h472z" />
<glyph unicode="&#x101;" horiz-adv-x="1064" d="M297 799h-74q41 133 164 215t287 82q147 0 235 -70t88 -195q0 -43 -8 -77l-160 -754h-59l27 190q-166 -221 -422 -221q-135 0 -221 64.5t-86 177.5q0 176 128 267t359 128l340 53l23 109q6 35 6 63q0 94 -68 148.5t-190 54.5q-133 0 -233.5 -65.5t-135.5 -169.5zM834 375 l49 223l-308 -49q-231 -37 -329.5 -118t-98.5 -216q0 -90 68 -136t184 -46q141 0 271.5 97.5t163.5 244.5zM967 1354h-471l14 65h471z" />
<glyph unicode="&#x102;" horiz-adv-x="1314" d="M1212 0h-79l-80 436h-764l-266 -436h-84l899 1475h104zM879 1405l-551 -903h714zM905 1552q-104 2 -160.5 58.5t-56.5 154.5q0 37 4 58h64q-4 -23 -4 -51q0 -160 155 -160q94 0 155.5 59.5t86.5 151.5h65q-29 -127 -109.5 -198t-199.5 -73z" />
<glyph unicode="&#x103;" horiz-adv-x="1064" d="M297 799h-74q41 133 164 215t287 82q147 0 235 -70t88 -195q0 -43 -8 -77l-160 -754h-59l27 190q-166 -221 -422 -221q-135 0 -221 64.5t-86 177.5q0 176 128 267t359 128l340 53l23 109q6 35 6 63q0 94 -68 148.5t-190 54.5q-133 0 -233.5 -65.5t-135.5 -169.5zM834 375 l49 223l-308 -49q-231 -37 -329.5 -118t-98.5 -216q0 -90 68 -136t184 -46q141 0 271.5 97.5t163.5 244.5zM705 1204q-104 2 -161 58.5t-57 154.5q0 37 5 58h63q-4 -23 -4 -52q0 -160 156 -159q94 0 155.5 59t85.5 152h66q-29 -127 -109.5 -198t-199.5 -73z" />
<glyph unicode="&#x104;" horiz-adv-x="1314" d="M1206 -305h74q-37 -82 -112.5 -129t-159.5 -47q-86 0 -138.5 44t-52.5 118q0 102 86 188t227 143l-77 424h-764l-266 -436h-84l899 1475h104l270 -1475h-16q-311 -135 -311 -309q0 -111 131 -111q127 0 190 115zM879 1405l-551 -903h714z" />
<glyph unicode="&#x105;" horiz-adv-x="1064" d="M827 -305h74q-37 -82 -112.5 -129t-159.5 -47q-86 0 -138.5 44t-52.5 118q0 106 92.5 194t241.5 145l25 170q-166 -221 -422 -221q-135 0 -221 64.5t-86 177.5q0 176 128 267t359 128l340 53l23 109q6 35 6 63q0 94 -68 148.5t-190 54.5q-133 0 -233.5 -65.5 t-135.5 -169.5h-74q41 133 164 215t287 82q147 0 235 -70t88 -195q0 -43 -8 -77l-160 -754h-12q-311 -135 -311 -309q0 -111 131 -111q127 0 190 115zM834 375l49 223l-308 -49q-231 -37 -329.5 -118t-98.5 -216q0 -90 68 -136t184 -46q141 0 271.5 97.5t163.5 244.5z" />
<glyph unicode="&#x106;" horiz-adv-x="1464" d="M694.5 -31q-245.5 0 -389 153.5t-143.5 412.5q0 113 28.5 238.5t94 257.5t159 236.5t237.5 171t314 66.5q233 0 368.5 -112.5t135.5 -350.5h-76q0 395 -436 396q-154 0 -284 -64.5t-212.5 -163t-141 -221.5t-84 -237.5t-25.5 -212.5q0 -231 123.5 -366.5t332.5 -135.5 q211 0 371 115.5t233 324.5h76q-70 -227 -253 -367.5t-428.5 -140.5zM926 1573l270 280h113l-310 -280h-73z" />
<glyph unicode="&#x107;" horiz-adv-x="1093" d="M897 301h76q-55 -147 -189.5 -239.5t-302.5 -92.5q-166 0 -267 103.5t-101 292.5q0 170 64.5 332.5t204.5 280.5t327 118q168 0 263 -86t95 -232h-78q0 117 -73.5 186.5t-208.5 69.5q-127 0 -230.5 -66.5t-165 -169t-94.5 -216t-33 -217.5q0 -164 84 -248t224 -84 q135 0 247.5 75.5t157.5 192.5zM690 1225l271 280h112l-309 -280h-74z" />
<glyph unicode="&#x108;" horiz-adv-x="1464" d="M694.5 -31q-245.5 0 -389 153.5t-143.5 412.5q0 113 28.5 238.5t94 257.5t159 236.5t237.5 171t314 66.5q233 0 368.5 -112.5t135.5 -350.5h-76q0 395 -436 396q-154 0 -284 -64.5t-212.5 -163t-141 -221.5t-84 -237.5t-25.5 -212.5q0 -231 123.5 -366.5t332.5 -135.5 q211 0 371 115.5t233 324.5h76q-70 -227 -253 -367.5t-428.5 -140.5zM1096 1853l151 -280h-69l-138 231l-233 -231h-80l272 280h97z" />
<glyph unicode="&#x109;" horiz-adv-x="1093" d="M897 301h76q-55 -147 -189.5 -239.5t-302.5 -92.5q-166 0 -267 103.5t-101 292.5q0 170 64.5 332.5t204.5 280.5t327 118q168 0 263 -86t95 -232h-78q0 117 -73.5 186.5t-208.5 69.5q-127 0 -230.5 -66.5t-165 -169t-94.5 -216t-33 -217.5q0 -164 84 -248t224 -84 q135 0 247.5 75.5t157.5 192.5zM834 1505l151 -280h-70l-137 231l-233 -231h-80l272 280h97z" />
<glyph unicode="&#x10a;" horiz-adv-x="1464" d="M694.5 -31q-245.5 0 -389 153.5t-143.5 412.5q0 113 28.5 238.5t94 257.5t159 236.5t237.5 171t314 66.5q233 0 368.5 -112.5t135.5 -350.5h-76q0 395 -436 396q-154 0 -284 -64.5t-212.5 -163t-141 -221.5t-84 -237.5t-25.5 -212.5q0 -231 123.5 -366.5t332.5 -135.5 q211 0 371 115.5t233 324.5h76q-70 -227 -253 -367.5t-428.5 -140.5zM1079 1706h-94l27 117h94z" />
<glyph unicode="&#x10b;" horiz-adv-x="1093" d="M897 301h76q-55 -147 -189.5 -239.5t-302.5 -92.5q-166 0 -267 103.5t-101 292.5q0 170 64.5 332.5t204.5 280.5t327 118q168 0 263 -86t95 -232h-78q0 117 -73.5 186.5t-208.5 69.5q-127 0 -230.5 -66.5t-165 -169t-94.5 -216t-33 -217.5q0 -164 84 -248t224 -84 q135 0 247.5 75.5t157.5 192.5zM813 1358h-94l26 117h95z" />
<glyph unicode="&#x10c;" horiz-adv-x="1464" d="M694.5 -31q-245.5 0 -389 153.5t-143.5 412.5q0 113 28.5 238.5t94 257.5t159 236.5t237.5 171t314 66.5q233 0 368.5 -112.5t135.5 -350.5h-76q0 395 -436 396q-154 0 -284 -64.5t-212.5 -163t-141 -221.5t-84 -237.5t-25.5 -212.5q0 -231 123.5 -366.5t332.5 -135.5 q211 0 371 115.5t233 324.5h76q-70 -227 -253 -367.5t-428.5 -140.5zM934 1573l-152 280h70l137 -231l234 231h80l-273 -280h-96z" />
<glyph unicode="&#x10d;" horiz-adv-x="1093" d="M897 301h76q-55 -147 -189.5 -239.5t-302.5 -92.5q-166 0 -267 103.5t-101 292.5q0 170 64.5 332.5t204.5 280.5t327 118q168 0 263 -86t95 -232h-78q0 117 -73.5 186.5t-208.5 69.5q-127 0 -230.5 -66.5t-165 -169t-94.5 -216t-33 -217.5q0 -164 84 -248t224 -84 q135 0 247.5 75.5t157.5 192.5zM690 1225l-151 280h69l137 -231l234 231h80l-273 -280h-96z" />
<glyph unicode="&#x10e;" horiz-adv-x="1380" d="M406 1475h376q266 0 423 -144.5t157 -402.5q0 -168 -56.5 -331t-162 -297t-275.5 -217t-376 -83h-400zM784 1407h-317l-285 -1339h322q160 0 293 56t221 146t149.5 206t89 229.5t27.5 220.5q0 231 -135.5 356t-364.5 125zM782 1573l-151 280h69l138 -231l233 231h80 l-272 -280h-97z" />
<glyph unicode="&#x10f;" horiz-adv-x="1251" d="M918 0h-60l35 219q-164 -250 -430 -250q-156 0 -254 100.5t-98 286.5q0 111 33.5 233t99 238.5t182.5 192.5t264 76q129 0 219 -71t117 -181l131 631h74zM696 1034q-127 0 -229 -69.5t-160.5 -176t-89.5 -219t-31 -213.5q0 -160 80 -242.5t215 -82.5q156 0 274.5 109.5 t174 261t55.5 307.5q0 160 -79 242.5t-210 82.5zM1462 1475l-30 -146q-18 -90 -63.5 -132t-137.5 -73l10 50q53 23 81 60.5t42 108.5h-33l29 132h102z" />
<glyph unicode="&#x110;" horiz-adv-x="1380" d="M406 1475h376q266 0 423 -144.5t157 -402.5q0 -168 -56.5 -331t-162 -297t-275.5 -217t-376 -83h-400l158 741h-125l14 68h125zM784 1407h-317l-127 -598h485l-14 -68h-485l-144 -673h322q160 0 293 56t221 146t149.5 206t89 229.5t27.5 220.5q0 231 -135.5 356 t-364.5 125z" />
<glyph unicode="&#x111;" horiz-adv-x="1163" d="M918 0h-60l35 219q-164 -250 -430 -250q-156 0 -254 100.5t-98 286.5q0 111 33.5 233t99 238.5t182.5 192.5t264 76q129 0 219 -71t117 -181l88 426h-381l15 63h378l31 142h74l-31 -142h103l-15 -63h-102zM696 1034q-127 0 -229 -69.5t-160.5 -176t-89.5 -219t-31 -213.5 q0 -160 80 -242.5t215 -82.5q156 0 274.5 109.5t174 261t55.5 307.5q0 160 -79 242.5t-210 82.5z" />
<glyph unicode="&#x112;" horiz-adv-x="1148" d="M1051 784l-15 -67h-717l-137 -649h776l-14 -68h-852l314 1475h851l-14 -68h-776l-133 -623h717zM1094 1702h-471l14 65h471z" />
<glyph unicode="&#x113;" horiz-adv-x="1163" d="M930 283h78q-66 -145 -197 -229.5t-293 -84.5q-182 0 -291.5 109.5t-109.5 304.5q0 119 38 240.5t108.5 229.5t189 175.5t264.5 67.5q172 0 276.5 -102.5t104.5 -297.5q0 -88 -21 -182h-872q-14 -70 -15 -137q0 -170 91.5 -257t244.5 -87q131 0 239 65.5t165 184.5z M713 1034q-164 0 -301.5 -120.5t-194.5 -335.5h795q10 72 10 118q0 164 -84 251t-225 87zM1014 1354h-471l14 65h471z" />
<glyph unicode="&#x114;" horiz-adv-x="1148" d="M866 1628q-104 2 -160.5 58.5t-56.5 154.5q0 37 4 58h63q-4 -23 -4 -52q0 -160 156 -159q94 0 155.5 59t86.5 152h65q-29 -127 -109.5 -198t-199.5 -73zM1051 784l-15 -67h-717l-137 -649h776l-14 -68h-852l314 1475h851l-14 -68h-776l-133 -623h717z" />
<glyph unicode="&#x115;" horiz-adv-x="1163" d="M746 1218q-104 2 -160.5 58.5t-56.5 154.5q0 37 4 58h63q-4 -23 -4 -52q0 -160 156 -159q94 0 155.5 59t86.5 152h65q-29 -127 -109.5 -198t-199.5 -73zM930 283h78q-66 -145 -197 -229.5t-293 -84.5q-182 0 -291.5 109.5t-109.5 304.5q0 119 38 240.5t108.5 229.5 t189 175.5t264.5 67.5q172 0 276.5 -102.5t104.5 -297.5q0 -88 -21 -182h-872q-14 -70 -15 -137q0 -170 91.5 -257t244.5 -87q131 0 239 65.5t165 184.5zM713 1034q-164 0 -301.5 -120.5t-194.5 -335.5h795q10 72 10 118q0 164 -84 251t-225 87z" />
<glyph unicode="&#x116;" horiz-adv-x="1148" d="M1051 784l-15 -67h-717l-137 -649h776l-14 -68h-852l314 1475h851l-14 -68h-776l-133 -623h717zM903 1706h-94l27 117h94z" />
<glyph unicode="&#x117;" horiz-adv-x="1163" d="M930 283h78q-66 -145 -197 -229.5t-293 -84.5q-182 0 -291.5 109.5t-109.5 304.5q0 119 38 240.5t108.5 229.5t189 175.5t264.5 67.5q172 0 276.5 -102.5t104.5 -297.5q0 -88 -21 -182h-872q-14 -70 -15 -137q0 -170 91.5 -257t244.5 -87q131 0 239 65.5t165 184.5z M713 1034q-164 0 -301.5 -120.5t-194.5 -335.5h795q10 72 10 118q0 164 -84 251t-225 87zM823 1358h-94l27 117h94z" />
<glyph unicode="&#x118;" horiz-adv-x="1148" d="M788 -305h74q-37 -82 -112.5 -129t-159.5 -47q-86 0 -138.5 44t-52.5 118q0 96 80 179t211 140h-598l314 1475h851l-14 -68h-776l-133 -623h717l-15 -67h-717l-137 -649h776l-14 -68h-166q-311 -135 -311 -309q0 -111 131 -111q127 0 190 115z" />
<glyph unicode="&#x119;" horiz-adv-x="1163" d="M702 -305h74q-37 -82 -112.5 -129t-159.5 -47q-86 0 -138.5 44t-52.5 118q0 166 224 288h-19q-182 0 -291.5 109.5t-109.5 304.5q0 119 38 240.5t108.5 229.5t189 175.5t264.5 67.5q172 0 276.5 -102.5t104.5 -297.5q0 -88 -21 -182h-872q-14 -70 -15 -137 q0 -170 91.5 -257t244.5 -87q131 0 238.5 65.5t165.5 184.5h78q-92 -203 -336 -291q-133 -47 -212 -126t-79 -175q0 -111 131 -111q127 0 190 115zM713 1034q-164 0 -301.5 -120.5t-194.5 -335.5h795q10 72 10 118q0 164 -84 251t-225 87z" />
<glyph unicode="&#x11a;" horiz-adv-x="1148" d="M1051 784l-15 -67h-717l-137 -649h776l-14 -68h-852l314 1475h851l-14 -68h-776l-133 -623h717zM791 1573l-152 280h70l137 -231l233 231h80l-272 -280h-96z" />
<glyph unicode="&#x11b;" horiz-adv-x="1163" d="M930 283h78q-66 -145 -197 -229.5t-293 -84.5q-182 0 -291.5 109.5t-109.5 304.5q0 119 38 240.5t108.5 229.5t189 175.5t264.5 67.5q172 0 276.5 -102.5t104.5 -297.5q0 -88 -21 -182h-872q-14 -70 -15 -137q0 -170 91.5 -257t244.5 -87q131 0 239 65.5t165 184.5z M713 1034q-164 0 -301.5 -120.5t-194.5 -335.5h795q10 72 10 118q0 164 -84 251t-225 87zM713 1225l-152 280h70l137 -231l233 231h80l-272 -280h-96z" />
<glyph unicode="&#x11c;" horiz-adv-x="1490" d="M1413 766l-162 -766h-55l45 260q-96 -141 -237.5 -216t-309.5 -75q-231 0 -380.5 145.5t-149.5 409.5q0 129 31.5 264.5t100.5 264.5t165 229t234.5 161.5t297.5 61.5q227 0 358.5 -109.5t135.5 -310.5h-78q-4 174 -114.5 263.5t-307.5 89.5q-178 0 -324.5 -86 t-236.5 -222.5t-138 -293t-48 -308.5q0 -236 128 -363.5t330 -127.5q205 0 376 128t212 316l47 217h-497l14 68h563zM1102 1853l151 -280h-69l-137 231l-234 -231h-80l273 280h96z" />
<glyph unicode="&#x11d;" horiz-adv-x="1163" d="M45 -111h74q0 -115 78.5 -171t216.5 -56q164 0 280.5 92t149.5 246l57 266q-158 -225 -420 -225q-156 0 -257 101.5t-101 281.5q0 80 20.5 168t65.5 179t109.5 163t160.5 117t211 45q129 0 219 -67.5t117 -178.5l57 215h60l-228 -1075q-37 -174 -173 -281.5t-330 -107.5 q-172 0 -269.5 74.5t-97.5 213.5zM694 1034q-125 0 -224 -61.5t-155.5 -157.5t-86 -198.5t-29.5 -196.5q0 -154 81.5 -236t217.5 -82q127 0 226 61.5t154.5 158t83 199t27.5 202.5q0 154 -80 232.5t-215 78.5zM854 1505l152 -280h-70l-137 231l-234 -231h-80l273 280h96z " />
<glyph unicode="&#x11e;" horiz-adv-x="1490" d="M1413 766l-162 -766h-55l45 260q-96 -141 -237.5 -216t-309.5 -75q-231 0 -380.5 145.5t-149.5 409.5q0 129 31.5 264.5t100.5 264.5t165 229t234.5 161.5t297.5 61.5q227 0 358.5 -109.5t135.5 -310.5h-78q-4 174 -114.5 263.5t-307.5 89.5q-178 0 -324.5 -86 t-236.5 -222.5t-138 -293t-48 -308.5q0 -236 128 -363.5t330 -127.5q205 0 376 128t212 316l47 217h-497l14 68h563zM1004 1552q-104 2 -161 58.5t-57 154.5q0 37 5 58h63q-4 -23 -4 -51q0 -160 156 -160q94 0 155.5 59.5t85.5 151.5h66q-29 -127 -109.5 -198t-199.5 -73z " />
<glyph unicode="&#x11f;" horiz-adv-x="1163" d="M45 -111h74q0 -115 78.5 -171t216.5 -56q164 0 280.5 92t149.5 246l57 266q-158 -225 -420 -225q-156 0 -257 101.5t-101 281.5q0 80 20.5 168t65.5 179t109.5 163t160.5 117t211 45q129 0 219 -67.5t117 -178.5l57 215h60l-228 -1075q-37 -174 -173 -281.5t-330 -107.5 q-172 0 -269.5 74.5t-97.5 213.5zM694 1034q-125 0 -224 -61.5t-155.5 -157.5t-86 -198.5t-29.5 -196.5q0 -154 81.5 -236t217.5 -82q127 0 226 61.5t154.5 158t83 199t27.5 202.5q0 154 -80 232.5t-215 78.5zM745 1204q-104 2 -160.5 58.5t-56.5 154.5q0 37 4 58h64 q-4 -23 -4 -52q0 -160 156 -159q94 0 155.5 59t85.5 152h66q-29 -127 -110 -198t-200 -73z" />
<glyph unicode="&#x120;" horiz-adv-x="1490" d="M1413 766l-162 -766h-55l45 260q-96 -141 -237.5 -216t-309.5 -75q-231 0 -380.5 145.5t-149.5 409.5q0 129 31.5 264.5t100.5 264.5t165 229t234.5 161.5t297.5 61.5q227 0 358.5 -109.5t135.5 -310.5h-78q-4 174 -114.5 263.5t-307.5 89.5q-178 0 -324.5 -86 t-236.5 -222.5t-138 -293t-48 -308.5q0 -236 128 -363.5t330 -127.5q205 0 376 128t212 316l47 217h-497l14 68h563zM1067 1706h-94l26 117h95z" />
<glyph unicode="&#x121;" horiz-adv-x="1163" d="M45 -111h74q0 -115 78.5 -171t216.5 -56q164 0 280.5 92t149.5 246l57 266q-158 -225 -420 -225q-156 0 -257 101.5t-101 281.5q0 80 20.5 168t65.5 179t109.5 163t160.5 117t211 45q129 0 219 -67.5t117 -178.5l57 215h60l-228 -1075q-37 -174 -173 -281.5t-330 -107.5 q-172 0 -269.5 74.5t-97.5 213.5zM694 1034q-125 0 -224 -61.5t-155.5 -157.5t-86 -198.5t-29.5 -196.5q0 -154 81.5 -236t217.5 -82q127 0 226 61.5t154.5 158t83 199t27.5 202.5q0 154 -80 232.5t-215 78.5zM805 1358h-94l26 117h94z" />
<glyph unicode="&#x122;" horiz-adv-x="1490" d="M1413 766l-162 -766h-55l45 260q-96 -141 -237.5 -216t-309.5 -75q-231 0 -380.5 145.5t-149.5 409.5q0 129 31.5 264.5t100.5 264.5t165 229t234.5 161.5t297.5 61.5q227 0 358.5 -109.5t135.5 -310.5h-78q-4 174 -114.5 263.5t-307.5 89.5q-178 0 -324.5 -86 t-236.5 -222.5t-138 -293t-48 -308.5q0 -236 128 -363.5t330 -127.5q205 0 376 128t212 316l47 217h-497l14 68h563zM682 -184l-31 -146q-37 -166 -196 -219l8 49q98 43 129 185h-29l27 131h92z" />
<glyph unicode="&#x123;" horiz-adv-x="1163" d="M45 -111h74q0 -115 78.5 -171t216.5 -56q164 0 280.5 92t149.5 246l57 266q-158 -225 -420 -225q-156 0 -257 101.5t-101 281.5q0 80 20.5 168t65.5 179t109.5 163t160.5 117t211 45q129 0 219 -67.5t117 -178.5l57 215h60l-228 -1075q-37 -174 -173 -281.5t-330 -107.5 q-172 0 -269.5 74.5t-97.5 213.5zM694 1034q-125 0 -224 -61.5t-155.5 -157.5t-86 -198.5t-29.5 -196.5q0 -154 81.5 -236t217.5 -82q127 0 226 61.5t154.5 158t83 199t27.5 202.5q0 154 -80 232.5t-215 78.5zM666 1249l30 146q18 90 63.5 132t137.5 72l-10 -49 q-53 -23 -81 -60.5t-42 -109.5h33l-29 -131h-102z" />
<glyph unicode="&#x124;" horiz-adv-x="1384" d="M1366 1475h76l-314 -1475h-75l151 719h-885l-151 -719h-76l314 1475h75l-147 -687h885zM1044 1853l152 -280h-70l-137 231l-233 -231h-80l272 280h96z" />
<glyph unicode="&#x125;" horiz-adv-x="1120" d="M156 0h-74l313 1475h74l-131 -611q74 111 181.5 171.5t223.5 60.5q141 0 224.5 -73t83.5 -198q0 -37 -11 -88l-155 -737h-74l156 733q10 43 10 84q0 102 -65.5 159.5t-188.5 57.5q-133 0 -264 -105.5t-164 -266.5zM786 1853l152 -280h-70l-137 231l-233 -231h-80l272 280 h96z" />
<glyph unicode="&#x126;" horiz-adv-x="1384" d="M406 1475h75l-51 -236h885l51 236h76l-51 -236h122l-12 -63h-123l-250 -1176h-75l151 719h-885l-151 -719h-76l250 1176h-123l12 63h123zM334 788h885l84 388h-885z" />
<glyph unicode="&#x127;" horiz-adv-x="1120" d="M156 0h-74l268 1270h-110l14 63h111l30 142h74l-31 -142h371l-14 -63h-371l-86 -406q74 111 181.5 171.5t223.5 60.5q141 0 224.5 -73t83.5 -198q0 -37 -11 -88l-155 -737h-74l156 733q10 43 10 84q0 102 -65.5 159.5t-188.5 57.5q-133 0 -264 -105.5t-164 -266.5z" />
<glyph unicode="&#x128;" horiz-adv-x="423" d="M406 1475h75l-313 -1475h-76zM573 1645q-57 0 -112 32.5t-96 32.5q-57 0 -164 -72l16 80q92 59 158 60q57 0 112.5 -33t96.5 -33q59 0 166 72l-17 -80q-92 -59 -160 -59z" />
<glyph unicode="&#x129;" horiz-adv-x="393" d="M152 0h-74l225 1065h74zM502 1296q-57 0 -112.5 33t-96.5 33q-57 0 -164 -72l16 80q92 59 158 60q57 0 112.5 -33t96.5 -33q59 0 166 72l-16 -80q-92 -60 -160 -60z" />
<glyph unicode="&#x12a;" horiz-adv-x="423" d="M406 1475h75l-313 -1475h-76zM709 1702h-471l14 65h471z" />
<glyph unicode="&#x12b;" horiz-adv-x="393" d="M152 0h-74l225 1065h74zM637 1354h-471l14 65h471z" />
<glyph unicode="&#x12c;" horiz-adv-x="423" d="M477 1628q-104 2 -160.5 58.5t-56.5 154.5q0 37 4 58h63q-4 -23 -4 -52q0 -160 156 -159q94 0 155.5 59t86.5 152h65q-29 -127 -109.5 -198t-199.5 -73zM406 1475h75l-313 -1475h-76z" />
<glyph unicode="&#x12d;" horiz-adv-x="393" d="M375 1218q-104 2 -160.5 58.5t-56.5 154.5q0 37 4 58h63q-4 -23 -4 -52q0 -160 156 -159q94 0 155.5 59t86.5 152h65q-29 -127 -109.5 -198t-199.5 -73zM152 0h-74l225 1065h74z" />
<glyph unicode="&#x12e;" horiz-adv-x="423" d="M176 -305h74q-37 -82 -113 -129t-160 -47q-86 0 -138 44t-52 118q0 100 85 185t222 142l312 1467h75l-313 -1475h-2q-311 -137 -311 -309q0 -111 131 -111q127 0 190 115z" />
<glyph unicode="&#x12f;" horiz-adv-x="393" d="M162 -305h74q-37 -82 -113 -129t-160 -47q-86 0 -138 44t-52 118q0 100 85 185t222 142l223 1057h74l-217 -1026h86q-193 -74 -299.5 -156t-106.5 -192.5t131 -110.5q128 0 191 115zM449 1358h-95l27 117h94z" />
<glyph unicode="&#x130;" horiz-adv-x="423" d="M406 1475h75l-313 -1475h-76zM532 1706h-94l27 117h94z" />
<glyph unicode="&#x131;" horiz-adv-x="393" d="M152 0h-74l225 1065h74z" />
<glyph unicode="&#x132;" horiz-adv-x="1482" d="M494 381h71q-6 -45 -6 -82q0 -127 73 -194.5t204 -67.5q156 0 263 94t146 270l230 1074h75l-231 -1082q-41 -197 -169 -310.5t-316 -113.5q-164 0 -256.5 86t-92.5 236q1 47 9 90zM406 1475h75l-313 -1475h-76z" />
<glyph unicode="&#x133;" horiz-adv-x="786" d="M119 -367l14 62q70 -29 129 -29q137 0 176 180l258 1219h74l-262 -1233q-51 -231 -242 -231q-81 -1 -147 32zM842 1358h-95l27 117h94zM152 0h-74l225 1065h74zM449 1358h-95l27 117h94z" />
<glyph unicode="&#x134;" horiz-adv-x="1058" d="M70 381h71q-6 -45 -6 -82q0 -127 73 -194.5t204 -67.5q156 0 263 94t146 270l230 1074h75l-231 -1082q-41 -197 -169 -310.5t-316 -113.5q-164 0 -256.5 86t-92.5 236q1 47 9 90zM1190 1853l151 -280h-69l-137 231l-234 -231h-80l273 280h96z" />
<glyph unicode="&#x135;" horiz-adv-x="393" d="M-274 -367l14 62q70 -29 129 -29q137 0 176 180l258 1219h74l-262 -1233q-51 -231 -242 -231q-81 -1 -147 32zM451 1505l151 -280h-70l-137 231l-233 -231h-80l272 280h97z" />
<glyph unicode="&#x136;" horiz-adv-x="1187" d="M1075 0h-96l-655 737l-156 -737h-76l314 1475h75l-149 -699l899 699h98l-919 -723zM522 -184l-30 -146q-37 -166 -197 -219l8 49q98 43 129 185h-29l27 131h92z" />
<glyph unicode="&#x137;" horiz-adv-x="970" d="M156 0h-74l313 1475h74l-182 -852l639 442h106l-678 -471l525 -594h-97l-506 573zM434 -184l-31 -146q-37 -166 -196 -219l8 49q98 43 129 185h-29l27 131h92z" />
<glyph unicode="&#x138;" horiz-adv-x="970" d="M156 0h-74l225 1065h74l-105 -490l664 490h92l-682 -506l529 -559h-99l-512 537z" />
<glyph unicode="&#x139;" horiz-adv-x="1118" d="M406 1475h75l-299 -1407h776l-14 -68h-852zM375 1573l270 280h113l-309 -280h-74z" />
<glyph unicode="&#x13a;" horiz-adv-x="401" d="M469 1475l-313 -1475h-74l313 1475h74zM365 1573l270 280h113l-310 -280h-73z" />
<glyph unicode="&#x13b;" horiz-adv-x="1118" d="M406 1475h75l-299 -1407h776l-14 -68h-852zM504 -184l-31 -146q-37 -166 -197 -219l9 49q98 43 129 185h-29l27 131h92z" />
<glyph unicode="&#x13c;" horiz-adv-x="401" d="M469 1475l-313 -1475h-74l313 1475h74zM127 -184l-31 -146q-37 -166 -196 -219l8 49q98 43 129 185h-29l27 131h92z" />
<glyph unicode="&#x13d;" horiz-adv-x="1118" d="M406 1475h75l-299 -1407h776l-14 -68h-852zM813 1475l-31 -146q-18 -90 -63 -132t-137 -73l10 50q53 23 80.5 60.5t42.5 108.5h-33l29 132h102z" />
<glyph unicode="&#x13e;" horiz-adv-x="401" d="M469 1475l-313 -1475h-74l313 1475h74zM707 1475l-31 -146q-18 -90 -63.5 -132t-137.5 -73l10 50q53 23 81 60.5t42 108.5h-33l29 132h103z" />
<glyph unicode="&#x13f;" horiz-adv-x="1118" d="M702 686h-111l29 131h111zM406 1475h75l-299 -1407h776l-14 -68h-852z" />
<glyph unicode="&#x140;" horiz-adv-x="970" d="M784 592h-111l29 131h111zM469 1475l-313 -1475h-74l313 1475h74z" />
<glyph unicode="&#x141;" horiz-adv-x="1118" d="M406 1475h75l-143 -674l360 194l-18 -84l-361 -194l-137 -649h776l-14 -68h-852l141 672l-141 -76l19 84l141 76z" />
<glyph unicode="&#x142;" horiz-adv-x="401" d="M469 1475l-135 -629l180 100l-18 -82l-179 -100l-161 -764h-74l151 717l-180 -101l19 82l178 101l145 676h74z" />
<glyph unicode="&#x143;" horiz-adv-x="1452" d="M1438 1475h71l-313 -1475h-74l-667 1368l-289 -1368h-74l314 1475h77l666 -1358zM879 1573l270 280h113l-310 -280h-73z" />
<glyph unicode="&#x144;" horiz-adv-x="1120" d="M723 1034q-133 0 -264 -104.5t-164 -265.5l-139 -664h-74l225 1065h62l-33 -203q76 113 183.5 173.5t223.5 60.5q141 0 224.5 -73t83.5 -198q0 -37 -11 -88l-155 -737h-74l156 733q10 43 10 84q0 102 -65.5 159.5t-188.5 57.5zM659 1225l271 280h112l-309 -280h-74z" />
<glyph unicode="&#x145;" horiz-adv-x="1452" d="M1438 1475h71l-313 -1475h-74l-667 1368l-289 -1368h-74l314 1475h77l666 -1358zM662 -184l-31 -146q-37 -166 -197 -219l8 49q98 43 129 185h-28l26 131h93z" />
<glyph unicode="&#x146;" horiz-adv-x="1120" d="M723 1034q-133 0 -264 -104.5t-164 -265.5l-139 -664h-74l225 1065h62l-33 -203q76 113 183.5 173.5t223.5 60.5q141 0 224.5 -73t83.5 -198q0 -37 -11 -88l-155 -737h-74l156 733q10 43 10 84q0 102 -65.5 159.5t-188.5 57.5zM508 -184l-31 -146q-37 -166 -196 -219 l8 49q98 43 129 185h-29l27 131h92z" />
<glyph unicode="&#x147;" horiz-adv-x="1452" d="M1438 1475h71l-313 -1475h-74l-667 1368l-289 -1368h-74l314 1475h77l666 -1358zM934 1573l-152 280h70l137 -231l234 231h80l-273 -280h-96z" />
<glyph unicode="&#x148;" horiz-adv-x="1120" d="M723 1034q-133 0 -264 -104.5t-164 -265.5l-139 -664h-74l225 1065h62l-33 -203q76 113 183.5 173.5t223.5 60.5q141 0 224.5 -73t83.5 -198q0 -37 -11 -88l-155 -737h-74l156 733q10 43 10 84q0 102 -65.5 159.5t-188.5 57.5zM707 1225l-152 280h70l137 -231l233 231h80 l-272 -280h-96z" />
<glyph unicode="&#x14a;" horiz-adv-x="1452" d="M772 -367l14 62q70 -29 129 -29q139 0 177 180l30 154l-667 1368l-289 -1368h-74l314 1475h77l666 -1358l289 1358h71l-348 -1643q-51 -231 -241 -231q-82 -1 -148 32z" />
<glyph unicode="&#x14b;" horiz-adv-x="1120" d="M1040 737l-192 -905q-51 -231 -242 -231q-82 0 -147 32l14 62q70 -29 129 -29q137 0 176 180l189 887q10 43 10 84q0 102 -65.5 159.5t-188.5 57.5q-133 0 -264 -104.5t-164 -265.5l-139 -664h-74l225 1065h62l-33 -203q76 113 183.5 173.5t223.5 60.5q141 0 224.5 -73 t83.5 -198q-1 -37 -11 -88z" />
<glyph unicode="&#x14c;" horiz-adv-x="1523" d="M985 1438q-160 0 -291 -64.5t-214 -165t-139 -226.5t-78.5 -240.5t-22.5 -219.5q0 -233 120.5 -359t325.5 -126q158 0 289 64.5t214 165t139 225t80 241.5t24 219q0 231 -122 358.5t-325 127.5zM682 -31q-233 0 -375.5 146.5t-142.5 410.5q0 115 26.5 242t91 260 t156.5 237.5t235.5 172t315.5 67.5q233 0 375.5 -147.5t142.5 -409.5q0 -115 -26.5 -241.5t-91 -260t-156.5 -238t-235.5 -172t-315.5 -67.5zM1272 1702h-471l14 65h471z" />
<glyph unicode="&#x14d;" horiz-adv-x="1157" d="M506 31q113 0 206 49t150.5 122.5t96 166t55 174.5t16.5 151q0 166 -83 253t-230 87q-115 0 -209 -49t-151.5 -123t-96.5 -167t-54.5 -174t-15.5 -150q0 -166 84.5 -253t231.5 -87zM502 -31q-178 0 -282.5 106.5t-104.5 297.5q0 82 18.5 173t64.5 191.5t112.5 178 t174 129t238.5 51.5q178 0 280.5 -106.5t102.5 -297.5q0 -104 -33 -222t-99.5 -233.5t-189 -191.5t-282.5 -76zM1018 1354h-471l14 65h471z" />
<glyph unicode="&#x14e;" horiz-adv-x="1523" d="M1018 1628q-104 2 -160.5 58.5t-56.5 154.5q0 37 4 58h63q-4 -23 -4 -52q0 -160 156 -159q94 0 155.5 59t86.5 152h65q-29 -127 -109.5 -198t-199.5 -73zM985 1438q-160 0 -291 -64.5t-214 -165t-139 -226.5t-78.5 -240.5t-22.5 -219.5q0 -233 120.5 -359t325.5 -126 q158 0 289 64.5t214 165t139 225t80 241.5t24 219q0 231 -122 358.5t-325 127.5zM682 -31q-233 0 -375.5 146.5t-142.5 410.5q0 115 26.5 242t91 260t156.5 237.5t235.5 172t315.5 67.5q233 0 375.5 -147.5t142.5 -409.5q0 -115 -26.5 -241.5t-91 -260t-156.5 -238 t-235.5 -172t-315.5 -67.5z" />
<glyph unicode="&#x14f;" horiz-adv-x="1157" d="M752 1218q-104 2 -160.5 58.5t-56.5 154.5q0 37 4 58h63q-4 -23 -4 -52q0 -160 156 -159q94 0 155.5 59t86.5 152h65q-29 -127 -109.5 -198t-199.5 -73zM506 31q113 0 206 49t150.5 122.5t96 166t55 174.5t16.5 151q0 166 -83 253t-230 87q-115 0 -209 -49t-151.5 -123 t-96.5 -167t-54.5 -174t-15.5 -150q0 -166 84.5 -253t231.5 -87zM502 -31q-178 0 -282.5 106.5t-104.5 297.5q0 82 18.5 173t64.5 191.5t112.5 178t174 129t238.5 51.5q178 0 280.5 -106.5t102.5 -297.5q0 -104 -33 -222t-99.5 -233.5t-189 -191.5t-282.5 -76z" />
<glyph unicode="&#x150;" horiz-adv-x="1523" d="M985 1438q-160 0 -291 -64.5t-214 -165t-139 -226.5t-78.5 -240.5t-22.5 -219.5q0 -233 120.5 -359t325.5 -126q158 0 289 64.5t214 165t139 225t80 241.5t24 219q0 231 -122 358.5t-325 127.5zM682 -31q-233 0 -375.5 146.5t-142.5 410.5q0 115 26.5 242t91 260 t156.5 237.5t235.5 172t315.5 67.5q233 0 375.5 -147.5t142.5 -409.5q0 -115 -26.5 -241.5t-91 -260t-156.5 -238t-235.5 -172t-315.5 -67.5zM807 1573l213 280h104l-252 -280h-65zM1120 1573l213 280h105l-252 -280h-66z" />
<glyph unicode="&#x151;" horiz-adv-x="1157" d="M506 31q113 0 206 49t150.5 122.5t96 166t55 174.5t16.5 151q0 166 -83 253t-230 87q-115 0 -209 -49t-151.5 -123t-96.5 -167t-54.5 -174t-15.5 -150q0 -166 84.5 -253t231.5 -87zM502 -31q-178 0 -282.5 106.5t-104.5 297.5q0 82 18.5 173t64.5 191.5t112.5 178 t174 129t238.5 51.5q178 0 280.5 -106.5t102.5 -297.5q0 -104 -33 -222t-99.5 -233.5t-189 -191.5t-282.5 -76zM563 1225l213 280h105l-252 -280h-66zM877 1225l213 280h104l-252 -280h-65z" />
<glyph unicode="&#x152;" horiz-adv-x="1898" d="M684 -20q-236 0 -378 144t-142 406q0 119 28.5 247t94 260t159 234.5t238.5 168t317 65.5q98 0 201 -30h805l-14 -68h-736l-133 -623h676l-14 -67h-676l-137 -649h735l-14 -68h-811q-95 -20 -199 -20zM688 47q121 0 209 25l285 1337q-78 29 -187 29q-160 0 -292 -63.5 t-216 -161t-142 -222.5t-81.5 -241.5t-23.5 -223.5q0 -231 121.5 -355t326.5 -124z" />
<glyph unicode="&#x153;" horiz-adv-x="2037" d="M1802 283h78q-66 -145 -197 -229.5t-292 -84.5q-166 0 -269.5 90.5t-120.5 253.5q-78 -170 -207.5 -257t-291.5 -87q-178 0 -282.5 106.5t-104.5 297.5q0 82 18.5 173t64.5 191.5t112.5 178t174 129t238.5 51.5q158 0 255 -87t112 -253q80 164 212 252t287 88 q172 0 276.5 -102.5t104.5 -297.5q0 -88 -20 -182h-873q-14 -70 -14 -137q0 -170 91 -257t245 -87q131 0 238.5 65.5t164.5 184.5zM717 1034q-115 0 -209 -49t-151.5 -123t-96.5 -167t-54.5 -174t-15.5 -150q0 -166 84 -253t232 -87q178 0 315 129t189 372q18 92 18 168 q0 164 -83 249t-228 85zM1585 1034q-164 0 -301 -120.5t-194 -335.5h794q10 72 10 118q0 164 -84 251t-225 87z" />
<glyph unicode="&#x154;" horiz-adv-x="1267" d="M1145 0h-88l-287 625h-471l-131 -625h-76l314 1475h505q203 0 309.5 -88.5t106.5 -247.5q0 -197 -128 -330t-347 -176zM911 1407h-444l-154 -715h428q221 0 363.5 128t142.5 319q0 129 -85 198.5t-251 69.5zM764 1573l270 280h113l-309 -280h-74z" />
<glyph unicode="&#x155;" horiz-adv-x="684" d="M156 0h-74l225 1065h60l-35 -225q133 256 356 256q49 0 113 -19l-17 -71q-57 20 -108 20q-125 0 -239.5 -120t-153.5 -304zM508 1225l270 280h113l-309 -280h-74z" />
<glyph unicode="&#x156;" horiz-adv-x="1267" d="M1145 0h-88l-287 625h-471l-131 -625h-76l314 1475h505q203 0 309.5 -88.5t106.5 -247.5q0 -197 -128 -330t-347 -176zM911 1407h-444l-154 -715h428q221 0 363.5 128t142.5 319q0 129 -85 198.5t-251 69.5zM543 -184l-31 -146q-37 -166 -197 -219l9 49q98 43 129 185 h-29l27 131h92z" />
<glyph unicode="&#x157;" horiz-adv-x="684" d="M156 0h-74l225 1065h60l-35 -225q133 256 356 256q49 0 113 -19l-17 -71q-57 20 -108 20q-125 0 -239.5 -120t-153.5 -304zM133 -184l-31 -146q-37 -166 -196 -219l8 49q98 43 129 185h-29l27 131h92z" />
<glyph unicode="&#x158;" horiz-adv-x="1267" d="M1145 0h-88l-287 625h-471l-131 -625h-76l314 1475h505q203 0 309.5 -88.5t106.5 -247.5q0 -197 -128 -330t-347 -176zM911 1407h-444l-154 -715h428q221 0 363.5 128t142.5 319q0 129 -85 198.5t-251 69.5zM772 1573l-151 280h69l137 -231l234 231h80l-273 -280h-96z " />
<glyph unicode="&#x159;" horiz-adv-x="684" d="M156 0h-74l225 1065h60l-35 -225q133 256 356 256q49 0 113 -19l-17 -71q-57 20 -108 20q-125 0 -239.5 -120t-153.5 -304zM518 1225l-151 280h69l137 -231l234 231h80l-273 -280h-96z" />
<glyph unicode="&#x15a;" horiz-adv-x="1316" d="M586 39q250 0 395 113.5t145 304.5q0 113 -95 179t-335 116q-201 41 -292 120.5t-91 202.5q0 195 150.5 312.5t421.5 117.5q213 0 341 -95t130 -259h-78q-6 135 -106.5 211t-288.5 76q-242 0 -368 -101.5t-126 -263.5q0 -100 83 -158.5t288 -103.5q236 -51 340 -134 t104 -222q0 -215 -167 -350.5t-457 -135.5q-229 0 -359.5 101.5t-130.5 289.5h76q0 -162 109.5 -241.5t310.5 -79.5zM819 1573l271 280h112l-309 -280h-74z" />
<glyph unicode="&#x15b;" horiz-adv-x="1005" d="M424 33q160 0 271.5 80t111.5 215q0 86 -75 131t-247 71q-133 20 -208.5 84t-75.5 166q0 137 111.5 226.5t316.5 89.5q162 0 256 -78t94 -209h-74v20q0 90 -75.5 147.5t-211.5 57.5q-172 0 -257 -72.5t-85 -185.5q0 -76 63.5 -119t211.5 -67q336 -55 336 -260 q0 -147 -124 -254t-343 -107q-168 0 -263.5 76t-95.5 195q0 14 2 32h74q-2 -14 -2 -28q0 -96 76 -153.5t213 -57.5zM608 1225l271 280h112l-309 -280h-74z" />
<glyph unicode="&#x15c;" horiz-adv-x="1316" d="M586 39q250 0 395 113.5t145 304.5q0 113 -95 179t-335 116q-201 41 -292 120.5t-91 202.5q0 195 150.5 312.5t421.5 117.5q213 0 341 -95t130 -259h-78q-6 135 -106.5 211t-288.5 76q-242 0 -368 -101.5t-126 -263.5q0 -100 83 -158.5t288 -103.5q236 -51 340 -134 t104 -222q0 -215 -167 -350.5t-457 -135.5q-229 0 -359.5 101.5t-130.5 289.5h76q0 -162 109.5 -241.5t310.5 -79.5zM1004 1853l151 -280h-70l-137 231l-233 -231h-80l272 280h97z" />
<glyph unicode="&#x15d;" horiz-adv-x="1005" d="M424 33q160 0 271.5 80t111.5 215q0 86 -75 131t-247 71q-133 20 -208.5 84t-75.5 166q0 137 111.5 226.5t316.5 89.5q162 0 256 -78t94 -209h-74v20q0 90 -75.5 147.5t-211.5 57.5q-172 0 -257 -72.5t-85 -185.5q0 -76 63.5 -119t211.5 -67q336 -55 336 -260 q0 -147 -124 -254t-343 -107q-168 0 -263.5 76t-95.5 195q0 14 2 32h74q-2 -14 -2 -28q0 -96 76 -153.5t213 -57.5zM772 1505l152 -280h-70l-137 231l-234 -231h-80l273 280h96z" />
<glyph unicode="&#x15e;" horiz-adv-x="1316" d="M813 -268q0 -82 -75.5 -150.5t-190.5 -68.5q-90 0 -142.5 40.5t-52.5 116.5v11h66v-9q0 -100 143 -100q76 0 130 47t54 113q0 111 -208 110l36 127q-227 2 -355 103.5t-128 287.5h76q0 -162 109.5 -241.5t310.5 -79.5q250 0 395 113.5t145 304.5q0 113 -95 179t-335 116 q-201 41 -292 120.5t-91 202.5q0 195 150.5 312.5t421.5 117.5q213 0 341 -95t130 -259h-78q-6 135 -106.5 211t-288.5 76q-242 0 -368 -101.5t-126 -263.5q0 -100 83 -158.5t288 -103.5q236 -51 340 -134t104 -222q0 -203 -151.5 -336t-417.5 -148l-17 -77 q94 -8 144.5 -53.5t50.5 -108.5z" />
<glyph unicode="&#x15f;" horiz-adv-x="1005" d="M641 -268q0 -82 -76 -150.5t-190 -68.5q-90 0 -142.5 40.5t-52.5 116.5v11h66v-9q0 -100 143 -100q76 0 130 47t54 113q0 111 -208 110l36 127q-160 4 -250 80t-90 191q0 14 2 32h74q-2 -14 -2 -28q0 -96 76 -153.5t213 -57.5q160 0 271.5 80t111.5 215q0 86 -75 131 t-247 71q-133 20 -208.5 84t-75.5 166q0 137 111.5 226.5t316.5 89.5q162 0 256 -78t94 -209h-74v20q0 90 -75.5 147.5t-211.5 57.5q-172 0 -257 -72.5t-85 -185.5q0 -76 63.5 -119t211.5 -67q336 -55 336 -260q0 -141 -111.5 -243.5t-312.5 -115.5l-17 -77 q94 -8 144.5 -53.5t50.5 -108.5z" />
<glyph unicode="&#x160;" horiz-adv-x="1316" d="M586 39q250 0 395 113.5t145 304.5q0 113 -95 179t-335 116q-201 41 -292 120.5t-91 202.5q0 195 150.5 312.5t421.5 117.5q213 0 341 -95t130 -259h-78q-6 135 -106.5 211t-288.5 76q-242 0 -368 -101.5t-126 -263.5q0 -100 83 -158.5t288 -103.5q236 -51 340 -134 t104 -222q0 -215 -167 -350.5t-457 -135.5q-229 0 -359.5 101.5t-130.5 289.5h76q0 -162 109.5 -241.5t310.5 -79.5zM844 1573l-152 280h70l137 -231l234 231h79l-272 -280h-96z" />
<glyph unicode="&#x161;" horiz-adv-x="1005" d="M424 33q160 0 271.5 80t111.5 215q0 86 -75 131t-247 71q-133 20 -208.5 84t-75.5 166q0 137 111.5 226.5t316.5 89.5q162 0 256 -78t94 -209h-74v20q0 90 -75.5 147.5t-211.5 57.5q-172 0 -257 -72.5t-85 -185.5q0 -76 63.5 -119t211.5 -67q336 -55 336 -260 q0 -147 -124 -254t-343 -107q-168 0 -263.5 76t-95.5 195q0 14 2 32h74q-2 -14 -2 -28q0 -96 76 -153.5t213 -57.5zM621 1225l-152 280h70l137 -231l233 231h80l-272 -280h-96z" />
<glyph unicode="&#x162;" horiz-adv-x="1153" d="M1343 1475l-14 -68h-498l-299 -1407h-75l299 1407h-498l14 68h1071zM512 -184l-31 -146q-37 -166 -196 -219l8 49q98 43 129 185h-29l27 131h92z" />
<glyph unicode="&#x163;" horiz-adv-x="602" d="M662 1001h-254l-170 -806q-8 -41 -9 -60q0 -104 125 -104q55 0 135 24l-14 -63q-72 -23 -133 -23q-186 0 -186 160q0 35 8 68l170 804h-154l15 64h153l64 256h65l-55 -256h254zM270 -184l-30 -146q-37 -166 -197 -219l8 49q98 43 129 185h-28l26 131h92z" />
<glyph unicode="&#x164;" horiz-adv-x="1153" d="M1343 1475l-14 -68h-498l-299 -1407h-75l299 1407h-498l14 68h1071zM766 1573l-152 280h70l137 -231l234 231h80l-273 -280h-96z" />
<glyph unicode="&#x165;" horiz-adv-x="657" d="M868 1475l-26 -125q-20 -92 -68.5 -144.5t-136.5 -81.5l10 50q53 23 80 61.5t43 107.5h-33l29 132h102zM662 1001h-254l-170 -806q-8 -41 -9 -60q0 -104 125 -104q55 0 135 24l-14 -63q-72 -23 -133 -23q-186 0 -186 160q0 35 8 68l170 804h-154l15 64h153l64 256h65 l-55 -256h254z" />
<glyph unicode="&#x166;" horiz-adv-x="1153" d="M1343 1475l-14 -68h-498l-114 -537h254l-15 -67h-254l-170 -803h-75l170 803h-254l14 67h254l115 537h-498l14 68h1071z" />
<glyph unicode="&#x167;" horiz-adv-x="602" d="M662 1001h-254l-48 -221h236l-14 -63h-236l-108 -522q-8 -41 -9 -60q0 -104 125 -104q55 0 135 24l-14 -63q-72 -23 -133 -23q-186 0 -186 160q0 35 8 68l108 520h-137l15 63h137l47 221h-154l15 64h153l64 256h65l-55 -256h254z" />
<glyph unicode="&#x168;" horiz-adv-x="1433" d="M635 -31q-221 0 -342 117t-121 295q0 55 12 111l211 983h74l-213 -996q-10 -41 -10 -96q0 -156 108.5 -251t286.5 -95q209 0 371 124t202 318l213 996h74l-215 -1004q-47 -215 -223 -358.5t-428 -143.5zM1083 1645q-57 0 -112.5 32.5t-96.5 32.5q-57 0 -163 -72l16 80 q92 59 158 60q57 0 112.5 -33t96.5 -33q59 0 166 72l-17 -80q-92 -59 -160 -59z" />
<glyph unicode="&#x169;" horiz-adv-x="1110" d="M297 1065h74l-152 -711q-14 -55 -14 -110q0 -213 250 -213q143 0 265 108.5t157 270.5l139 655h74l-226 -1065h-61l28 190q-76 -111 -183 -166t-216 -55q-137 0 -219 68.5t-82 198.5q0 53 10 96zM846 1296q-57 0 -112.5 33t-96.5 33q-57 0 -164 -72l16 80q92 59 158 60 q57 0 112.5 -33t96.5 -33q59 0 166 72l-16 -80q-92 -60 -160 -60z" />
<glyph unicode="&#x16a;" horiz-adv-x="1433" d="M635 -31q-221 0 -342 117t-121 295q0 55 12 111l211 983h74l-213 -996q-10 -41 -10 -96q0 -156 108.5 -251t286.5 -95q209 0 371 124t202 318l213 996h74l-215 -1004q-47 -215 -223 -358.5t-428 -143.5zM1219 1702h-471l14 65h471z" />
<glyph unicode="&#x16b;" horiz-adv-x="1110" d="M297 1065h74l-152 -711q-14 -55 -14 -110q0 -213 250 -213q143 0 265 108.5t157 270.5l139 655h74l-226 -1065h-61l28 190q-76 -111 -183 -166t-216 -55q-137 0 -219 68.5t-82 198.5q0 53 10 96zM979 1354h-471l14 65h471z" />
<glyph unicode="&#x16c;" horiz-adv-x="1433" d="M635 -31q-221 0 -342 117t-121 295q0 55 12 111l211 983h74l-213 -996q-10 -41 -10 -96q0 -156 108.5 -251t286.5 -95q209 0 371 124t202 318l213 996h74l-215 -1004q-47 -215 -223 -358.5t-428 -143.5zM967 1552q-104 2 -160.5 58.5t-56.5 154.5q0 37 4 58h63 q-4 -23 -4 -51q0 -160 156 -160q94 0 155.5 59.5t85.5 151.5h66q-29 -127 -109.5 -198t-199.5 -73z" />
<glyph unicode="&#x16d;" horiz-adv-x="1110" d="M297 1065h74l-152 -711q-14 -55 -14 -110q0 -213 250 -213q143 0 265 108.5t157 270.5l139 655h74l-226 -1065h-61l28 190q-76 -111 -183 -166t-216 -55q-137 0 -219 68.5t-82 198.5q0 53 10 96zM731 1204q-104 2 -160.5 58.5t-56.5 154.5q0 37 4 58h64q-4 -23 -4 -52 q0 -160 155 -159q94 0 155.5 59t86.5 152h65q-29 -127 -109.5 -198t-199.5 -73z" />
<glyph unicode="&#x16e;" horiz-adv-x="1433" d="M635 -31q-221 0 -342 117t-121 295q0 55 12 111l211 983h74l-213 -996q-10 -41 -10 -96q0 -156 108.5 -251t286.5 -95q209 0 371 124t202 318l213 996h74l-215 -1004q-47 -215 -223 -358.5t-428 -143.5zM1014 1962q-86 0 -138.5 -60.5t-52.5 -146.5q0 -74 42 -113.5 t110 -39.5q86 0 138 60t52 146q0 74 -41.5 114t-109.5 40zM973 1546q-96 0 -155.5 57.5t-59.5 147.5q0 104 68.5 185t189.5 81q96 0 155.5 -57t59.5 -148q0 -104 -68.5 -185t-189.5 -81z" />
<glyph unicode="&#x16f;" horiz-adv-x="1110" d="M297 1065h74l-152 -711q-14 -55 -14 -110q0 -213 250 -213q143 0 265 108.5t157 270.5l139 655h74l-226 -1065h-61l28 190q-76 -111 -183 -166t-216 -55q-137 0 -219 68.5t-82 198.5q0 53 10 96zM784 1614q-86 0 -138 -60.5t-52 -146.5q0 -74 42 -114t109 -40 q86 0 138.5 60.5t52.5 146.5q0 74 -42 114t-110 40zM743 1198q-96 0 -155.5 57.5t-59.5 147.5q0 104 69 185t189 81q96 0 155.5 -57.5t59.5 -147.5q0 -104 -68.5 -185t-189.5 -81z" />
<glyph unicode="&#x170;" horiz-adv-x="1433" d="M635 -31q-221 0 -342 117t-121 295q0 55 12 111l211 983h74l-213 -996q-10 -41 -10 -96q0 -156 108.5 -251t286.5 -95q209 0 371 124t202 318l213 996h74l-215 -1004q-47 -215 -223 -358.5t-428 -143.5zM731 1573l213 280h105l-252 -280h-66zM1044 1573l213 280h105 l-252 -280h-66z" />
<glyph unicode="&#x171;" horiz-adv-x="1110" d="M297 1065h74l-152 -711q-14 -55 -14 -110q0 -213 250 -213q143 0 265 108.5t157 270.5l139 655h74l-226 -1065h-61l28 190q-76 -111 -183 -166t-216 -55q-137 0 -219 68.5t-82 198.5q0 53 10 96zM537 1225l213 280h104l-252 -280h-65zM850 1225l213 280h104l-252 -280 h-65z" />
<glyph unicode="&#x172;" horiz-adv-x="1433" d="M860 -305h74q-37 -82 -113 -129t-159 -47q-86 0 -138.5 44t-52.5 118q0 168 229 292q-45 -4 -65 -4q-221 0 -342 117t-121 295q0 55 12 111l211 983h74l-213 -996q-10 -41 -10 -96q0 -156 108.5 -251t286.5 -95q209 0 371 124t202 318l213 996h74l-215 -1004 q-35 -162 -148.5 -287t-281.5 -182q-145 -49 -231 -130t-86 -181q0 -111 131 -111q127 0 190 115z" />
<glyph unicode="&#x173;" horiz-adv-x="1110" d="M874 -305h74q-37 -82 -112.5 -129t-159.5 -47q-86 0 -138.5 44t-52.5 118q0 102 88.5 189t231.5 144l26 176q-76 -111 -183 -166t-216 -55q-137 0 -219 68.5t-82 198.5q0 53 10 96l156 733h74l-152 -711q-14 -66 -14 -110q0 -213 250 -213q143 0 265 108.5t157 270.5 l139 655h74l-226 -1065q-311 -135 -311 -309q0 -111 131 -111q127 0 190 115z" />
<glyph unicode="&#x174;" horiz-adv-x="1945" d="M2068 1475h78l-729 -1475h-112l-115 1413l-711 -1413h-114l-103 1475h76l94 -1416l715 1416h113l110 -1412zM1319 1853l151 -280h-69l-137 231l-234 -231h-80l273 280h96z" />
<glyph unicode="&#x175;" horiz-adv-x="1540" d="M1556 1065h76l-530 -1065h-94l-105 999l-508 -999h-94l-106 1065h69l96 -993l506 993h99l100 -989zM1061 1505l151 -280h-69l-137 231l-234 -231h-80l273 280h96z" />
<glyph unicode="&#x176;" horiz-adv-x="1269" d="M1005 1908l152 -280h-70l-137 231l-234 -231h-79l272 280h96zM252 1475h78l354 -832l713 832h84l-770 -900l-121 -575h-76l123 580z" />
<glyph unicode="&#x177;" horiz-adv-x="1003" d="M784 1499l152 -280h-70l-137 231l-234 -231h-79l272 280h96zM1106 1065l-606 -1071q-143 -256 -202.5 -324.5t-154.5 -68.5q-55 0 -108 24l14 60q49 -23 101 -23q63 0 110 61.5t164 276.5h-29l-211 1065h74l199 -1012l569 1012h80z" />
<glyph unicode="&#x178;" horiz-adv-x="1269" d="M252 1475h78l354 -832l713 832h84l-770 -900l-121 -575h-76l123 580zM745 1706h-94l27 117h94zM1147 1706h-94l26 117h95z" />
<glyph unicode="&#x179;" horiz-adv-x="1308" d="M1423 1411l-1292 -1343h987l-14 -68h-1084l15 70l1290 1337h-958l14 68h1057zM801 1573l270 280h113l-310 -280h-73z" />
<glyph unicode="&#x17a;" horiz-adv-x="978" d="M1024 987l-922 -924h725l-12 -63h-815l14 74l926 927h-698l14 64h784zM590 1225l270 280h113l-309 -280h-74z" />
<glyph unicode="&#x17b;" horiz-adv-x="1308" d="M1423 1411l-1292 -1343h987l-14 -68h-1084l15 70l1290 1337h-958l14 68h1057zM973 1706h-94l26 117h94z" />
<glyph unicode="&#x17c;" horiz-adv-x="978" d="M1024 987l-922 -924h725l-12 -63h-815l14 74l926 927h-698l14 64h784zM750 1358h-95l27 117h94z" />
<glyph unicode="&#x17d;" horiz-adv-x="1308" d="M1423 1411l-1292 -1343h987l-14 -68h-1084l15 70l1290 1337h-958l14 68h1057zM860 1573l-151 280h69l137 -231l234 231h80l-273 -280h-96z" />
<glyph unicode="&#x17e;" horiz-adv-x="978" d="M1024 987l-922 -924h725l-12 -63h-815l14 74l926 927h-698l14 64h784zM623 1225l-152 280h70l137 -231l233 231h80l-272 -280h-96z" />
<glyph unicode="&#x2c6;" horiz-adv-x="634" d="M604 1505l152 -280h-70l-137 231l-234 -231h-79l272 280h96z" />
<glyph unicode="&#x2d8;" horiz-adv-x="647" d="M508 1204q-104 2 -160.5 58.5t-56.5 154.5q0 37 4 58h63q-4 -23 -4 -52q0 -160 156 -159q94 0 155.5 59t86.5 152h65q-29 -127 -109.5 -198t-199.5 -73z" />
<glyph unicode="&#x2da;" horiz-adv-x="593" d="M535 1614q-86 0 -138.5 -60.5t-52.5 -146.5q0 -74 42 -114t110 -40q86 0 138 60.5t52 146.5q0 74 -41.5 114t-109.5 40zM494 1198q-96 0 -155.5 57.5t-59.5 147.5q0 104 68.5 185t189.5 81q96 0 155.5 -57.5t59.5 -147.5q0 -104 -68.5 -185t-189.5 -81z" />
<glyph unicode="&#x2dc;" horiz-adv-x="643" d="M627 1296q-57 0 -112.5 33t-96.5 33q-57 0 -164 -72l16 80q92 59 158 60q57 0 112.5 -33t96.5 -33q59 0 166 72l-17 -80q-91 -60 -159 -60z" />
<glyph unicode="&#x2000;" horiz-adv-x="1007" />
<glyph unicode="&#x2001;" horiz-adv-x="2017" />
<glyph unicode="&#x2002;" horiz-adv-x="1007" />
<glyph unicode="&#x2003;" horiz-adv-x="2017" />
<glyph unicode="&#x2004;" horiz-adv-x="671" />
<glyph unicode="&#x2005;" horiz-adv-x="503" />
<glyph unicode="&#x2006;" horiz-adv-x="335" />
<glyph unicode="&#x2007;" horiz-adv-x="335" />
<glyph unicode="&#x2008;" horiz-adv-x="251" />
<glyph unicode="&#x2009;" horiz-adv-x="403" />
<glyph unicode="&#x200a;" horiz-adv-x="110" />
<glyph unicode="&#x2010;" horiz-adv-x="1105" d="M967 694l-17 -69h-696l16 69h697z" />
<glyph unicode="&#x2011;" horiz-adv-x="1105" d="M967 694l-17 -69h-696l16 69h697z" />
<glyph unicode="&#x2012;" horiz-adv-x="1105" d="M967 694l-17 -69h-696l16 69h697z" />
<glyph unicode="&#x2013;" horiz-adv-x="819" d="M885 694l-17 -69h-819l17 69h819z" />
<glyph unicode="&#x2014;" d="M1294 694l-16 -69h-1229l17 69h1228z" />
<glyph unicode="&#x2018;" horiz-adv-x="552" d="M356 1067l31 145q23 113 83 173.5t163 89.5l-12 -64q-66 -25 -103 -74t-57 -139h37l-27 -131h-115z" />
<glyph unicode="&#x2019;" horiz-adv-x="552" d="M569 1475l-30 -146q-23 -113 -83.5 -173t-162.5 -89l12 63q66 25 102.5 74t57.5 139h-37l27 132h114z" />
<glyph unicode="&#x201a;" horiz-adv-x="552" d="M285 131l-31 -145q-23 -113 -83 -173.5t-163 -88.5l12 63q66 25 103 74t57 139h-37l27 131h115z" />
<glyph unicode="&#x201c;" horiz-adv-x="815" d="M618 1067l31 145q23 113 83.5 173.5t162.5 89.5l-12 -64q-66 -25 -103 -74t-57 -139h37l-27 -131h-115zM362 1067l31 145q23 113 83.5 173.5t162.5 89.5l-12 -64q-66 -25 -103 -74t-57 -139h37l-27 -131h-115z" />
<glyph unicode="&#x201d;" horiz-adv-x="808" d="M825 1475l-30 -146q-23 -113 -83.5 -173t-162.5 -89l12 63q66 25 102.5 74t57.5 139h-37l27 132h114zM569 1475l-30 -146q-23 -113 -83.5 -173t-162.5 -89l12 63q66 25 102.5 74t57.5 139h-37l27 132h114z" />
<glyph unicode="&#x201e;" horiz-adv-x="808" d="M541 131l-31 -145q-23 -113 -83 -173.5t-163 -88.5l12 63q66 25 103 74t57 139h-37l27 131h115zM285 131l-31 -145q-23 -113 -83 -173.5t-163 -88.5l12 63q66 25 103 74t57 139h-37l27 131h115z" />
<glyph unicode="&#x2022;" horiz-adv-x="604" d="M451 532h-236l49 238h236z" />
<glyph unicode="&#x2026;" horiz-adv-x="1200" d="M242 0h-95l27 131h94zM565 0h-94l27 131h94zM889 0h-94l26 131h94z" />
<glyph unicode="&#x202f;" horiz-adv-x="403" />
<glyph unicode="&#x2039;" horiz-adv-x="571" d="M313 184l-127 461l326 420h70l-308 -424l101 -457h-62z" />
<glyph unicode="&#x203a;" horiz-adv-x="571" d="M492 645l-312 -461h-69l292 457l-127 424h62z" />
<glyph unicode="&#x205f;" horiz-adv-x="503" />
<glyph unicode="&#x20ac;" d="M119 604h139q12 113 47 236h-151l28 65h142q37 115 89 210t124.5 176t172 127t216.5 46q162 0 276.5 -82t120.5 -262h-76q-2 143 -91 211t-228 68q-367 0 -527 -494h648l-29 -65h-639q-29 -102 -47 -236h569l-31 -65h-544q-6 -72 -6 -123q0 -381 315 -381q324 0 442 278 h76q-66 -172 -202 -258t-320 -86q-387 0 -387 449q0 78 4 121h-162z" />
<glyph unicode="&#x2122;" horiz-adv-x="1679" d="M1380 664h-59l-289 737v-737h-61v751h-303v-751h-64v751h-315v60h778l285 -734l278 734h92v-811h-63v737z" />
<glyph unicode="&#xe000;" horiz-adv-x="1065" d="M0 1065h1065v-1065h-1065v1065z" />
<glyph unicode="&#xfb01;" horiz-adv-x="1116" d="M870 0h-73l211 1001h-586l-211 -1001h-74l211 1001h-158l15 64h157l39 182q53 258 355 258q125 0 252 -49l-19 -59q-129 47 -239 47q-233 0 -277 -205l-37 -174h660z" />
<glyph unicode="&#xfb02;" horiz-adv-x="1116" d="M870 0h-73l295 1397q-137 47 -301 47q-154 0 -226.5 -63.5t-103.5 -202.5l-25 -113h250l-14 -64h-250l-211 -1001h-74l211 1001h-158l15 64h157l27 121q35 162 125 240.5t283 78.5q131 0 311 -47l76 17z" />
<glyph unicode="&#xfb03;" horiz-adv-x="1769" d="M1528 0h-74l211 1001h-586l-211 -1001h-73l211 1001h-584l-211 -1001h-74l211 1001h-158l15 64h157l23 109q33 160 123 239.5t283 79.5q180 0 352 -78q90 90 270 90q125 0 252 -49l-18 -59q-129 47 -240 47q-233 0 -277 -205l-36 -174h659zM1102 1364q-152 68 -316 68 q-156 0 -228.5 -62.5t-100.5 -204.5l-21 -100h584l39 182q16 74 43 117z" />
<glyph unicode="&#xfb04;" horiz-adv-x="1775" d="M791 1493q188 0 366 -82q98 94 299 94q131 0 311 -47l76 17l-313 -1475h-74l295 1397q-137 47 -301 47q-154 0 -226.5 -63.5t-103.5 -202.5l-24 -113h250l-15 -64h-250l-211 -1001h-73l211 1001h-586l-211 -1001h-74l211 1001h-158l15 64h157l23 109q33 160 123 239.5 t283 79.5zM1049 1186q23 111 67 176q-156 70 -330 70q-156 0 -228.5 -62.5t-100.5 -204.5l-21 -100h586z" />
</font>
</defs>
</svg>
