<?xml version="1.0" standalone="no"?>
<!DOCTYPE svg PUBLIC "-//W3C//DTD SVG 1.1//EN" "http://www.w3.org/Graphics/SVG/1.1/DTD/svg11.dtd" >
<svg xmlns="http://www.w3.org/2000/svg">
<metadata>
This is a custom SVG webfont generated by Font Squirrel.
Copyright   : Copyright c 2010 by Ralph du Carrois Erik Spiekermann  Botio Nikoltchev All rights reserved
Designer    : Ralph du Carrois Erik Spiekermann  Botio Nikoltchev
Foundry     : Ralph du Carrois Erik Spiekermann  Botio Nikoltchev
Foundry URL : httpedenspiekermanncom
</metadata>
<defs>
<font id="webfontI8eDEnVB" horiz-adv-x="1228" >
<font-face units-per-em="2048" ascent="1618" descent="-430" />
<missing-glyph horiz-adv-x="458" />
<glyph unicode=" "  horiz-adv-x="458" />
<glyph unicode="&#x09;" horiz-adv-x="458" />
<glyph unicode="&#xa0;" horiz-adv-x="458" />
<glyph unicode="!" horiz-adv-x="661" d="M537 496h-369l162 991h469zM463 0h-430l78 371h430z" />
<glyph unicode="&#x22;" horiz-adv-x="1019" d="M618 1282l-100 -321h-254l35 321l45 205h320zM1032 1282l-98 -321h-256l37 321l43 205h319z" />
<glyph unicode="#" d="M217 858l55 262h119l94 314h318l-94 -314h188l94 314h318l-95 -314h93l-56 -262h-114l-86 -283h98l-55 -262h-121l-92 -313h-316l92 313h-188l-94 -313h-316l93 313h-93l56 262h112l86 283h-96zM631 858l-86 -283h188l86 283h-188z" />
<glyph unicode="$" d="M1251 481q0 -467 -575 -506l-53 -251h-340l57 272q-174 47 -256 165t-82 259q0 6 1 16t1 15h412q0 -88 57 -139.5t160 -51.5q86 0 129 38t43 101q0 61 -61.5 103.5t-194.5 79.5q-401 111 -402 411q0 414 504 463l51 242h340l-53 -256q158 -37 242 -140.5t84 -248.5v-27 h-402q0 68 -56 103.5t-132 35.5q-63 0 -99 -28.5t-36 -81.5q0 -109 205 -158q456 -111 456 -416z" />
<glyph unicode="%" horiz-adv-x="1740" d="M1593 1434l-1005 -1434h-305l1005 1434h305zM565 1464q158 0 246 -82t88 -225q0 -178 -108.5 -289.5t-292.5 -111.5q-158 0 -245 82t-87 225q0 182 108.5 291.5t290.5 109.5zM549 1266q-53 0 -83 -60.5t-30 -142.5q0 -109 78 -109q53 0 84 55.5t31 143.5q0 113 -80 113z M1380 676q158 0 246 -82t88 -223q0 -178 -108.5 -290t-292.5 -112q-158 0 -245 81t-87 224q0 182 109.5 292t289.5 110zM1364 477q-51 0 -82 -59.5t-31 -138.5q0 -111 80 -111q53 0 82 55.5t29 143.5q0 110 -78 110z" />
<glyph unicode="&#x26;" horiz-adv-x="1402" d="M1040 743l334 -45q-61 -186 -196 -356l143 -168l-283 -217l-120 141q-176 -129 -396 -129q-227 0 -349 97.5t-122 252.5q0 262 332 416q-111 129 -111 289q0 82 29 157.5t87 140t161.5 103.5t238.5 39q199 0 298.5 -90t99.5 -219q0 -143 -86 -239.5t-250 -196.5l119 -129 q30 47 71 153zM600 240q84 0 154 53l-197 221q-94 -74 -94 -160q0 -55 38 -84.5t99 -29.5zM633 1063q0 -66 49 -131q154 102 154 211q0 41 -24 62.5t-58 21.5q-55 0 -88 -47t-33 -117z" />
<glyph unicode="'" horiz-adv-x="552" d="M621 1282l-101 -321h-256l37 321l45 205h318z" />
<glyph unicode="(" horiz-adv-x="696" d="M971 1659q-299 -410 -426 -707t-127 -643q0 -309 117 -657h-326q-141 295 -141 676q0 655 577 1331h326z" />
<glyph unicode=")" horiz-adv-x="696" d="M252 1659h326q150 -319 149 -690q0 -246 -94 -512.5t-215 -458t-260 -346.5h-324q305 428 423 723t118 604q0 320 -123 680z" />
<glyph unicode="*" horiz-adv-x="1017" d="M745 662l-98 235l-98 -235l-279 204l189 168l-254 21l106 327l219 -127l-59 250h344l-53 -252l223 129l107 -327l-258 -21l190 -170z" />
<glyph unicode="+" d="M608 1106h318l-66 -307h305l-59 -289h-307l-66 -311h-317l67 311h-305l62 289h303z" />
<glyph unicode="," horiz-adv-x="552" d="M498 371l-70 -326q-45 -203 -181 -296t-372 -109l37 180q186 23 219 180h-143l78 371h432z" />
<glyph unicode="-" horiz-adv-x="1105" d="M1032 799l-61 -287h-809l61 287h809z" />
<glyph unicode="." horiz-adv-x="620" d="M444 0h-432l78 371h432z" />
<glyph unicode="/" horiz-adv-x="696" d="M954 1505l-774 -1689h-334l772 1689h336z" />
<glyph unicode="0" d="M592 236q72 0 132 91t93 222t51.5 254t18.5 209q0 190 -115 190q-66 0 -124 -89t-93 -216t-55.5 -257t-20.5 -224q0 -180 113 -180zM555 -31q-217 0 -344 131t-127 381q0 109 17.5 225.5t67.5 257t127 248t210 180t303 72.5q219 0 346 -130t127 -380q0 -109 -19.5 -230.5 t-72.5 -258.5t-131 -244.5t-209 -179.5t-295 -72z" />
<glyph unicode="1" d="M408 0l225 1063l-350 -158l73 350l387 179h363l-303 -1434h-395z" />
<glyph unicode="2" d="M606 1006h-407q76 213 246.5 335.5t394.5 122.5q209 0 336 -100t127 -256v-12q0 -180 -145.5 -334t-561.5 -457h539l-62 -305h-1046l63 305l414 313q231 174 312 268.5t81 186.5q0 49 -29.5 78t-76.5 29q-119 0 -185 -174z" />
<glyph unicode="3" d="M584 246q76 0 129 56t53 165q0 72 -47 109.5t-113 37.5h-166l58 260h170q80 0 142 56.5t62 154.5q0 47 -27.5 72t-70.5 25q-47 0 -93 -33t-75 -96h-383q72 195 229.5 303t378.5 108q203 0 327 -87t124 -234q0 -141 -90 -242.5t-231 -138.5q96 -27 152 -108t56 -185 q0 -203 -165.5 -351.5t-456.5 -148.5q-227 0 -360.5 107.5t-133.5 279.5q0 31 2 47h394v-22q0 -63 36 -99t99 -36z" />
<glyph unicode="4" d="M705 1434h555l-189 -893h146l-58 -281h-147l-56 -260h-381l54 260h-604l63 295zM688 541l8 34l142 525l-371 -559h221z" />
<glyph unicode="5" d="M92 401h383q2 -76 38 -114.5t93 -38.5q86 0 139.5 96t53.5 211q0 152 -140 152q-86 0 -163 -78h-316l209 805h914l-58 -273h-551l-67 -252q106 55 223 56q160 0 261 -100.5t101 -270.5q0 -262 -180 -443.5t-459 -181.5q-217 0 -350 105.5t-133 298.5q0 2 1 14t1 14z" />
<glyph unicode="6" d="M535 846q139 129 311 129t272.5 -101.5t100.5 -273.5q0 -279 -185.5 -455t-464.5 -176q-225 0 -356 134.5t-131 375.5q0 123 33 262q76 342 264 532.5t465 190.5q211 0 341 -98t142 -256h-418q-2 39 -31.5 61.5t-76.5 22.5q-162 0 -266 -348zM688 702q-82 0 -152.5 -79.5 t-70.5 -204.5q0 -74 35 -123t98 -49q86 0 149.5 87t63.5 226q0 143 -123 143z" />
<glyph unicode="7" d="M1300 1159l-757 -1159h-430l766 1145h-627l61 289h1045z" />
<glyph unicode="8" d="M817 1464q197 0 337 -89t140 -242q0 -229 -286 -371q190 -109 190 -301q0 -221 -177 -356.5t-466 -135.5q-240 0 -380 106.5t-140 268.5q0 152 84 243t246 161q-139 90 -140 251q0 205 151.5 335t440.5 130zM643 621q-188 -92 -188 -244q0 -61 40 -96t95 -35q76 0 134 54 t58 144q0 109 -139 177zM782 1210q-63 0 -113.5 -52t-50.5 -132q0 -104 119 -147q68 29 113 85t45 134q0 53 -35 82.5t-78 29.5z" />
<glyph unicode="9" d="M702 727q88 0 150.5 91t62.5 212q0 72 -33.5 117t-99.5 45q-94 0 -153.5 -87t-59.5 -224q0 -154 133 -154zM600 236q76 0 134.5 79.5t107.5 264.5q-133 -127 -303 -127q-176 0 -275.5 110.5t-99.5 288.5q0 287 184 449.5t473 162.5q229 0 355.5 -127t126.5 -364 q0 -109 -16.5 -226.5t-68 -261t-128 -254t-213 -186.5t-310.5 -76q-223 0 -360 101.5t-146 269.5h420q0 -49 35 -76.5t84 -27.5z" />
<glyph unicode=":" horiz-adv-x="620" d="M592 694h-432l78 371h432zM444 0h-432l78 371h432z" />
<glyph unicode=";" horiz-adv-x="620" d="M592 694h-432l78 371h432zM522 371l-69 -326q-45 -203 -181.5 -296t-371.5 -109l37 180q186 23 219 180h-144l78 371h432z" />
<glyph unicode="&#x3c;" d="M180 530l56 252l1019 443l-73 -353l-582 -227l487 -221l-73 -336z" />
<glyph unicode="=" d="M1208 997l-61 -286h-928l62 286h927zM1122 596l-61 -287h-926l60 287h927z" />
<glyph unicode="&#x3e;" d="M1161 782l-53 -252l-1022 -442l74 352l581 226l-485 221l72 338z" />
<glyph unicode="?" horiz-adv-x="1136" d="M641 1096h-412q57 174 217 291.5t367 117.5q201 0 317.5 -81t116.5 -214q0 -137 -70.5 -234t-269.5 -278q-72 -68 -106 -211h-383q33 156 72.5 233t140.5 171q123 117 161.5 167t38.5 95q0 61 -65 61q-76 1 -125 -118zM725 0h-430l78 371h430z" />
<glyph unicode="@" horiz-adv-x="1886" d="M1374 178q-104 0 -165.5 59.5t-63.5 135.5q-31 -70 -113 -122t-184 -52q-143 0 -220 91t-77 240q0 274 143.5 430t319.5 156q55 0 99 -23.5t56 -60.5l41 66h246l-98 -484q-20 -104 -21 -137q0 -82 64 -82q78 0 124 142.5t46 314.5q0 209 -119 310.5t-373 101.5 q-84 0 -164.5 -17.5t-170 -65.5t-156 -123t-109.5 -200t-43 -287q0 -532 584 -532q139 0 321 55l43 -235q-184 -66 -399 -66q-236 0 -426 83t-311 263t-121 432q0 203 62.5 367t162 267.5t229.5 173t258 98t257 28.5q358 0 572 -172t214 -481q0 -279 -143.5 -476.5 t-364.5 -197.5zM932 418q37 0 68.5 45t46.5 123l28 143q12 70 12 90q0 72 -59 72q-70 0 -118 -127t-48 -252q0 -94 70 -94z" />
<glyph unicode="A" horiz-adv-x="1515" d="M1440 0h-443l-26 322h-457l-162 -322h-440l854 1475h442zM911 1104l-256 -500h295z" />
<glyph unicode="B" horiz-adv-x="1406" d="M348 1475h524q573 0 574 -324q0 -137 -94.5 -236.5t-245.5 -130.5q113 -27 185.5 -112.5t72.5 -196.5q0 -475 -727 -475h-602zM762 639h-166l-76 -360h178q113 0 174.5 54t61.5 159q0 68 -46 107.5t-126 39.5zM844 1196h-129l-64 -297h158q88 0 141.5 47t53.5 129 q0 53 -43 87t-117 34z" />
<glyph unicode="C" horiz-adv-x="1558" d="M784 262q119 0 195 73t123 230h432q-102 -303 -294.5 -449.5t-498.5 -146.5q-295 0 -458.5 165t-163.5 448q0 129 26.5 252.5t90 247.5t160 216.5t249 149.5t342.5 57q270 0 445.5 -138t175.5 -382v-20h-426q0 127 -59.5 187t-159.5 60q-102 0 -184.5 -63.5 t-127.5 -162.5t-67.5 -206.5t-22.5 -210.5q0 -154 61.5 -230.5t161.5 -76.5z" />
<glyph unicode="D" horiz-adv-x="1546" d="M348 1475h547q322 0 501 -147.5t179 -422.5q0 -121 -20.5 -234.5t-81 -239.5t-155.5 -218t-262 -152.5t-384 -60.5h-637zM850 1184h-135l-191 -891h164q127 0 221.5 61.5t141.5 157.5t67.5 188.5t20.5 178.5q0 150 -77 227.5t-212 77.5z" />
<glyph unicode="E" horiz-adv-x="1257" d="M1231 885l-60 -283h-581l-64 -303h639l-61 -299h-1069l313 1475h1069l-65 -304h-639l-62 -286h580z" />
<glyph unicode="F" horiz-adv-x="1189" d="M1165 856l-61 -283h-520l-121 -573h-428l313 1475h1012l-64 -299h-585l-68 -320h522z" />
<glyph unicode="G" horiz-adv-x="1579" d="M1581 840l-178 -840h-293l-23 135q-176 -166 -421 -166q-238 0 -392.5 160t-154.5 434q0 115 21.5 230.5t84 248t157.5 231.5t258 165.5t372 66.5q287 0 446.5 -132t159.5 -353h-424q-2 96 -59.5 144t-155.5 48q-111 0 -196 -67.5t-130 -171t-67.5 -206.5t-22.5 -196 q0 -154 66.5 -232.5t171.5 -78.5q129 0 217 67.5t110 176.5l13 59h-314l60 277h694z" />
<glyph unicode="H" horiz-adv-x="1536" d="M1225 1475h426l-314 -1475h-426l125 600h-448l-125 -600h-428l313 1475h428l-125 -584h449z" />
<glyph unicode="I" horiz-adv-x="661" d="M348 1475h428l-313 -1475h-428z" />
<glyph unicode="J" horiz-adv-x="1214" d="M47 471h412q-6 -41 -6 -70q0 -72 31.5 -104.5t76.5 -32.5q53 0 88 38t56 134l221 1039h413l-217 -1014q-53 -250 -190 -371t-393 -121q-225 0 -361.5 107.5t-136.5 318.5q0 35 6 76z" />
<glyph unicode="K" horiz-adv-x="1558" d="M1477 0h-510l-385 565l-119 -565h-428l313 1475h428l-114 -535l565 535h493l-786 -717z" />
<glyph unicode="L" horiz-adv-x="1288" d="M348 1475h428l-248 -1166h701l-64 -309h-1130z" />
<glyph unicode="M" horiz-adv-x="1875" d="M1022 0h-344l-105 831l-176 -831h-362l313 1475h447l137 -1072l584 1072h475l-314 -1475h-383l172 813z" />
<glyph unicode="N" horiz-adv-x="1531" d="M1282 1475h365l-314 -1475h-418l-323 918l-193 -918h-364l313 1475h445l303 -873z" />
<glyph unicode="O" horiz-adv-x="1638" d="M821 270q88 0 161 43t118 109.5t76.5 151.5t45 163t13.5 150q0 162 -78 240.5t-188 78.5q-113 0 -199 -67.5t-130 -170t-65.5 -200.5t-21.5 -182q0 -160 78.5 -238t189.5 -78zM786 -31q-131 0 -248.5 37t-213 110.5t-151.5 194.5t-56 275q0 115 22.5 229.5t84 242.5 t155.5 224t254 159.5t362 63.5q129 0 246 -36.5t214 -108.5t154.5 -194t57.5 -275q0 -117 -23.5 -234.5t-86 -244.5t-157.5 -222.5t-254 -158t-360 -62.5z" />
<glyph unicode="P" horiz-adv-x="1415" d="M348 1475h551q297 0 445.5 -111t148.5 -307q0 -96 -22.5 -178t-77 -159t-138.5 -131t-217 -86t-303 -32h-174l-98 -471h-428zM846 1186h-133l-90 -428h165q121 0 194 70.5t73 187.5q0 82 -54.5 126t-154.5 44z" />
<glyph unicode="Q" horiz-adv-x="1662" d="M786 -31q-131 0 -248.5 37t-213 110.5t-151.5 194.5t-56 275q0 115 22.5 229.5t84 242.5t155.5 224t254 159.5t362 63.5q129 0 246 -36.5t214 -108.5t154.5 -194t57.5 -275q0 -209 -80 -417t-256 -341l168 -227l-397 -234l-125 314q-115 -17 -191 -17zM821 270 q88 0 161 43t118 109.5t76.5 151.5t45 163t13.5 150q0 162 -78 240.5t-188 78.5q-113 0 -199 -67.5t-130 -170t-65.5 -200.5t-21.5 -182q0 -160 78.5 -238t189.5 -78z" />
<glyph unicode="R" horiz-adv-x="1492" d="M1401 0h-492l-211 512h-127l-108 -512h-428l313 1475h563q287 0 438.5 -103.5t151.5 -290.5q0 -358 -385 -493zM858 1184h-143l-82 -381h178q104 0 174 61.5t70 169.5q0 72 -51.5 111t-145.5 39z" />
<glyph unicode="S" horiz-adv-x="1390" d="M670 -31q-305 0 -463 137.5t-158 335.5v23h414q0 -98 60.5 -151.5t181.5 -53.5q227 0 227 154q0 72 -64.5 116.5t-228.5 79.5q-197 41 -314.5 156t-117.5 278q0 461 641 461q272 0 436 -126t164 -337h-404q0 86 -61 129t-162 43q-170 0 -170 -120q0 -117 236 -170 q485 -113 485 -445q0 -510 -702 -510z" />
<glyph unicode="T" horiz-adv-x="1302" d="M1524 1475l-66 -310h-432l-246 -1165h-428l246 1165h-422l66 310h1282z" />
<glyph unicode="U" horiz-adv-x="1517" d="M334 1475h430l-211 -988q-8 -37 -8 -53q0 -80 54 -124t149 -44q221 0 268 213l211 996h415l-206 -971q-115 -535 -717 -535q-281 0 -441.5 117t-160.5 317q0 51 12 111z" />
<glyph unicode="V" horiz-adv-x="1441" d="M1243 1475h430l-794 -1475h-476l-172 1475h431l51 -1110z" />
<glyph unicode="W" horiz-adv-x="2086" d="M1898 1475h420l-641 -1475h-473l-26 1024l-449 -1024h-459l-39 1475h426l-26 -957l420 957h450l25 -965z" />
<glyph unicode="X" horiz-adv-x="1536" d="M1722 1475l-637 -705l359 -770h-469l-187 465l-370 -465h-490l684 768l-336 707h463l172 -412l340 412h471z" />
<glyph unicode="Y" horiz-adv-x="1482" d="M864 0h-409l125 590l-349 885h449l168 -562l432 562h434l-725 -885z" />
<glyph unicode="Z" horiz-adv-x="1325" d="M1452 1200l-883 -903h678l-61 -297h-1223l60 279l882 899h-653l63 297h1196z" />
<glyph unicode="[" horiz-adv-x="696" d="M543 -100l-54 -248h-552l428 2007h553l-54 -248h-223l-319 -1511h221z" />
<glyph unicode="\" horiz-adv-x="696" d="M256 -184l-53 1689h334l53 -1689h-334z" />
<glyph unicode="]" horiz-adv-x="696" d="M-123 -348l53 248h224l319 1511h-223l53 248h555l-428 -2007h-553z" />
<glyph unicode="^" horiz-adv-x="1064" d="M684 1118l-215 -334h-369l478 674h342l188 -674h-354z" />
<glyph unicode="_" horiz-adv-x="1204" d="M1083 -6l-61 -285h-1128l59 285h1130z" />
<glyph unicode="`" horiz-adv-x="741" d="M696 1499l152 -315h-275l-262 315h385z" />
<glyph unicode="a" horiz-adv-x="1189" d="M537 733h-396q154 362 590 363q213 0 330 -89t117 -247q0 -57 -11 -101l-139 -659h-307l-25 119q-57 -63 -154.5 -106.5t-211.5 -43.5q-147 0 -229.5 71t-82.5 196q0 166 120 262t407 143l229 37l6 29q4 16 4 38q0 92 -102 93q-108 -1 -145 -105zM512 227q68 0 124 43 t75 115l20 90q-195 -35 -253 -66.5t-58 -103.5q0 -78 92 -78z" />
<glyph unicode="b" horiz-adv-x="1312" d="M326 0h-314l314 1475h397l-111 -519q143 139 328 140q170 0 269.5 -106.5t99.5 -295.5q0 -125 -35 -247.5t-104.5 -232.5t-188.5 -177.5t-268 -67.5q-96 0 -178 41t-127 109zM755.5 813q-67.5 0 -120.5 -41t-80 -103.5t-40 -124t-13 -114.5q0 -178 151 -178q70 0 122 42 t79 106.5t39 123t12 107.5q0 90 -41 136t-108.5 46z" />
<glyph unicode="c" horiz-adv-x="1241" d="M782 399h408q-78 -197 -232.5 -313.5t-388.5 -116.5q-244 0 -371.5 116t-127.5 321q0 94 20.5 185t70.5 184t124.5 163t193.5 114t269 44q225 0 361 -111t140 -295h-407q0 139 -123 139q-66 0 -116 -45t-75.5 -113.5t-38 -134t-12.5 -122.5q0 -86 36 -133.5t93 -47.5 q119 0 176 166z" />
<glyph unicode="d" horiz-adv-x="1318" d="M1143 0h-316l-34 129q-166 -160 -351 -160q-172 0 -273 113t-101 305q0 88 19 181.5t65.5 188.5t112 169.5t164.5 122t218 47.5q98 0 179 -36t124 -95l109 510h397zM725 813q-68 0 -120 -39t-78.5 -98.5t-39 -118.5t-12.5 -113q0 -92 42 -142t112 -50q86 0 146.5 73.5 t82 156.5t21.5 155q0 90 -43 133t-111 43z" />
<glyph unicode="e" horiz-adv-x="1267" d="M788 338h402q-74 -168 -225.5 -268.5t-378.5 -100.5q-231 0 -370.5 128t-139.5 339q0 123 41 237.5t118.5 210t206.5 154t291 58.5q229 0 368.5 -124t139.5 -349q0 -86 -20 -177h-750q-2 -12 -2 -36q0 -170 164 -170q116 0 155 98zM719 848q-137 0 -203 -193h342 q4 18 4 52q0 141 -143 141z" />
<glyph unicode="f" horiz-adv-x="794" d="M1051 1462l-60 -276q-92 33 -151 33q-55 0 -83 -22.5t-38 -76.5l-12 -55h202l-57 -268h-203l-168 -797h-395l168 797h-156l58 268h155l15 68q43 201 145 286.5t313 85.5q144 0 267 -43z" />
<glyph unicode="g" horiz-adv-x="1296" d="M-6 -43h397q10 -47 44 -68.5t104 -21.5q104 0 145 62.5t76 236.5q-137 -121 -293 -121q-174 0 -280.5 111.5t-106.5 300.5q0 281 168 460t416 179q94 0 174 -37t120 -98l80 104h308l-211 -991q-100 -473 -633 -473q-508 0 -508 356zM881 643q0 84 -43 128t-115 44 q-109 0 -173.5 -91t-64.5 -214q0 -84 44 -132t118 -48q106 0 170 93t64 220z" />
<glyph unicode="h" horiz-adv-x="1243" d="M12 0l314 1475h395l-107 -498q135 119 306 119q150 0 232.5 -80t82.5 -225q0 -70 -14 -132l-142 -659h-397l139 657q8 41 8 60q0 106 -100 106q-72 0 -122 -53t-66 -139l-133 -631h-396z" />
<glyph unicode="i" horiz-adv-x="604" d="M678 1176h-418l64 299h419zM418 0h-395l225 1065h395z" />
<glyph unicode="j" horiz-adv-x="595" d="M-248 -365l60 279q55 -20 98 -20q45 0 69.5 20t34.5 72l230 1079h395l-231 -1100q-78 -365 -433 -364q-129 -1 -223 34zM674 1169h-418l63 299h418z" />
<glyph unicode="k" horiz-adv-x="1275" d="M408 0h-396l314 1475h395l-158 -740l373 330h461l-559 -473l364 -592h-481l-227 412z" />
<glyph unicode="l" horiz-adv-x="585" d="M723 1475l-313 -1475h-398l314 1475h397z" />
<glyph unicode="m" horiz-adv-x="1871" d="M410 0h-398l226 1065h290l33 -121q141 152 332 152q109 0 189.5 -39t111.5 -113q145 152 344 152q150 0 238 -79t88 -229q0 -63 -15 -126l-139 -662h-395l139 672q6 29 6 53q0 98 -88 98q-72 0 -119 -61.5t-67 -155.5l-127 -606h-395l139 672q6 31 6 55q0 96 -88 96 q-68 0 -116 -60.5t-66 -150.5z" />
<glyph unicode="n" horiz-adv-x="1243" d="M12 0l226 1065h335l7 -119q70 70 162 110t178 40q150 0 232.5 -80t82.5 -225q0 -68 -14 -132l-142 -659h-397l141 659q8 37 8 62q0 49 -28.5 75.5t-73.5 26.5q-72 0 -122 -53t-66 -139l-133 -631h-396z" />
<glyph unicode="o" horiz-adv-x="1288" d="M739 1096q242 0 389.5 -118t147.5 -333q0 -133 -39 -251t-118 -215t-211 -153.5t-304 -56.5q-238 0 -384 119t-146 338q0 88 17.5 173t63.5 177t118.5 162t192 114t273.5 44zM719 834q-72 0 -123 -48.5t-73.5 -122t-33 -135t-10.5 -114.5q0 -182 158 -183q70 0 121 49.5 t73.5 124t32.5 138t10 119.5q1 172 -155 172z" />
<glyph unicode="p" horiz-adv-x="1314" d="M717 -31q-84 0 -164 35t-125 94l-98 -467h-398l306 1434h307l39 -129q156 160 348 160q172 0 274.5 -107.5t102.5 -298.5q0 -301 -167 -511t-425 -210zM754 815q-68 0 -120 -41t-80 -104.5t-41 -125t-13 -114.5q0 -90 43 -135t112 -45q115 0 182.5 117.5t67.5 265.5 q0 90 -40.5 136t-110.5 46z" />
<glyph unicode="q" horiz-adv-x="1318" d="M1059 1065h309l-305 -1434h-397l102 478q-154 -139 -319 -140q-172 0 -276.5 114t-104.5 306q0 84 18 175t62.5 187.5t110 172t171 124t234.5 48.5q106 0 186 -42t119 -112zM725 813q-70 0 -121 -38t-77.5 -98.5t-39 -119.5t-12.5 -117q0 -90 41 -139t111 -49 q86 0 146.5 67.5t83 149.5t22.5 164q0 180 -154 180z" />
<glyph unicode="r" horiz-adv-x="870" d="M410 0h-398l226 1065h340v-164q123 195 296 195q68 0 132 -17l-76 -352q-80 25 -150 25q-100 0 -174 -81t-106 -241z" />
<glyph unicode="s" horiz-adv-x="1153" d="M569 229q127 0 127 76q0 41 -39 66.5t-143 44.5q-387 72 -387 321q0 358 524 359q219 0 360.5 -97.5t141.5 -250.5h-385q-10 90 -141 90q-96 0 -97 -64q0 -76 183 -110q391 -76 391 -310q0 -385 -551 -385q-229 0 -375.5 98.5t-146.5 254.5h387q4 -39 43.5 -66t107.5 -27 z" />
<glyph unicode="t" horiz-adv-x="813" d="M758 268l-56 -266q-131 -33 -227 -33q-154 0 -238.5 72t-84.5 199q0 37 10 88l100 469h-156l58 268h153l78 256h373l-53 -256h211l-58 -268h-211l-98 -463q-4 -16 -4 -33q0 -55 76 -55q47 -1 127 22z" />
<glyph unicode="u" d="M223 1065h395l-137 -653q-10 -51 -10 -68q0 -47 26.5 -74.5t73.5 -27.5q68 0 115 53t66 141l133 629h393l-225 -1065h-334l-8 109q-143 -139 -332 -140q-150 0 -230.5 79t-80.5 222q0 57 16 136z" />
<glyph unicode="v" horiz-adv-x="1210" d="M930 1065h426l-606 -1065h-455l-154 1065h416l31 -743z" />
<glyph unicode="w" horiz-adv-x="1759" d="M1497 1065h397l-518 -1065h-450l14 682l-293 -682h-438l-57 1065h397l-29 -678l297 678h420l-10 -674z" />
<glyph unicode="x" horiz-adv-x="1249" d="M1341 1065l-464 -502l292 -563h-452l-123 291l-242 -291h-436l520 559l-276 506h444l107 -256l202 256h428z" />
<glyph unicode="y" horiz-adv-x="1216" d="M950 1065h412l-614 -1079q-129 -223 -231.5 -304t-258.5 -81q-106 0 -219 32l57 267q92 -29 146 -29q45 0 76.5 27.5t68.5 101.5h-74l-170 1065h410l27 -782z" />
<glyph unicode="z" horiz-adv-x="1079" d="M1128 788l-596 -505h472l-60 -283h-991l57 276l606 506h-462l59 283h975z" />
<glyph unicode="{" horiz-adv-x="696" d="M33 522l57 273q164 0 197 149l71 334q23 102 61 173t84 111t117.5 62.5t141 28.5t174.5 6l-53 -252q-94 0 -133 -22.5t-56 -104.5l-69 -336q-43 -209 -219 -289q106 -59 106 -188q0 -45 -12 -102l-70 -332q-8 -45 -8 -56q0 -47 31.5 -61t109.5 -16l-55 -248 q-109 0 -180.5 9t-131 36t-88 79t-28.5 134q0 68 16 139l70 324q4 29 4 43q0 106 -137 106z" />
<glyph unicode="|" horiz-adv-x="696" d="M434 1608h330l-402 -1895h-329z" />
<glyph unicode="}" horiz-adv-x="696" d="M760 778l-60 -272q-166 0 -196 -150l-68 -323q-27 -127 -75 -205t-127.5 -116t-161.5 -49t-213 -11l55 252q92 2 129 23.5t55 105.5l70 323q45 215 221 291q-109 53 -108 189q0 41 12 100l72 344q6 31 6 53q0 47 -32 62.5t-108 15.5l54 248q221 0 325.5 -52.5 t104.5 -205.5q0 -53 -17 -139l-71 -334q-6 -25 -6 -43q0 -107 139 -107z" />
<glyph unicode="~" d="M807 465q-94 0 -196.5 53t-153.5 53q-104 0 -287 -98l63 299q143 76 302 76q94 0 197.5 -54.5t154.5 -54.5q106 0 287 101l-64 -297q-139 -78 -303 -78z" />
<glyph unicode="&#xa1;" horiz-adv-x="661" d="M197 623h366l-160 -992h-471zM268 1118h432l-79 -370h-431z" />
<glyph unicode="&#xa2;" d="M776 399h408q-145 -360 -490 -417l-53 -258h-344l57 276q-143 41 -217 146.5t-74 259.5q0 104 28 206.5t84 200.5t161.5 170t247.5 96l59 271h344l-61 -279q147 -39 230 -139.5t85 -241.5h-405v17q-2 55 -35 83.5t-84 28.5q-90 0 -149.5 -77.5t-78 -162.5t-18.5 -165 q0 -86 38 -133.5t89 -47.5q121 0 178 166z" />
<glyph unicode="&#xa3;" d="M719 1006l-39 -183h338l-51 -245h-340q-16 -102 -52 -167t-110 -102h659l-65 -309h-1055l64 299q68 16 93 66.5t60 212.5h-110l51 245h110l43 201q47 227 175 333.5t356 106.5q203 0 333 -105.5t130 -262.5q0 -20 -4 -54h-379q0 129 -86 129q-49 0 -75 -35.5t-46 -129.5z " />
<glyph unicode="&#xa4;" horiz-adv-x="1185" d="M74 326l121 120q-57 109 -57.5 240t57.5 240l-121 123l217 219l127 -127q111 57 239 57q125 0 240 -57l127 127l217 -219l-121 -123q57 -109 58 -240q0 -127 -60 -240l123 -120l-217 -220l-127 125q-117 -55 -240 -55q-125 0 -241 55l-125 -125zM883 686 q0 109 -63.5 172.5t-162 63.5t-162 -63.5t-63.5 -172.5q0 -106 63.5 -169.5t162 -63.5t162 63.5t63.5 169.5z" />
<glyph unicode="&#xa5;" d="M723 0h-383l45 213h-260l51 238h258l19 86h-258l51 237h157l-227 660h424l105 -553l358 553h432l-510 -660h162l-51 -237h-258l-19 -86h258l-51 -238h-258z" />
<glyph unicode="&#xa6;" horiz-adv-x="696" d="M434 1606h330l-174 -822h-330zM205 526h330l-173 -813h-329z" />
<glyph unicode="&#xa7;" d="M426 897q-94 80 -94 201q0 160 116.5 262t350.5 102q182 0 298.5 -99t116.5 -214q0 -20 -2 -29h-325q-2 45 -31 69.5t-72 24.5q-37 0 -59.5 -18t-22.5 -51q0 -47 74 -82q221 -100 302 -169t81 -181q0 -102 -64.5 -187.5t-181.5 -132.5q84 -72 84 -198 q0 -154 -123.5 -260.5t-345.5 -106.5q-195 0 -307 93t-112 216q0 18 2 31h325q2 -92 105 -92q37 0 61.5 18.5t24.5 50.5q0 45 -70 80l-73 36l-73 37l-63 34q-45 25 -60 39l-44 41q-29 27 -40 50t-20.5 55t-9.5 67q0 225 252 313zM639 764q-92 -70 -92 -141q0 -76 139 -129 q94 66 94 139q0 78 -141 131z" />
<glyph unicode="&#xa8;" horiz-adv-x="964" d="M586 1198h-353l64 295h352zM1075 1198h-354l63 295h355z" />
<glyph unicode="&#xa9;" horiz-adv-x="1726" d="M385 737.5q0 -286.5 164 -443.5t405 -157q240 0 404 157t164 443.5t-164 443t-404 156.5q-242 0 -405.5 -156.5t-163.5 -443zM1735 737.5q0 -186.5 -66.5 -337t-178.5 -242.5t-249 -140.5t-287 -48.5q-119 0 -231.5 30t-212.5 92.5t-175 151.5t-119 217t-44 277.5 t44 277.5t119 217t175 151.5t213 92t231 29.5q150 0 287 -48t249 -140t178.5 -242.5t66.5 -337zM1077 645h301q-33 -143 -137 -231t-278 -88q-201 0 -310.5 105.5t-109.5 304t113.5 312t310.5 113.5q164 0 274.5 -83t132.5 -216h-299q-8 47 -37.5 76t-66.5 29 q-129 0 -129 -234q0 -211 121 -211q89 0 114 123z" />
<glyph unicode="&#xaa;" horiz-adv-x="1044" d="M639 1225h-328q53 125 173 202.5t274 77.5q160 0 251 -69.5t91 -192.5q0 -43 -8 -78l-117 -544h-244l-12 71q-106 -96 -234 -96q-119 0 -197.5 57.5t-78.5 163.5q0 293 430 340l115 12l8 33q4 12 4 37q0 47 -51 47t-76 -61zM913 287l-59 -287h-811l59 287h811zM610 825 q33 0 59.5 27t32.5 61l13 70l-47 -8q-117 -20 -117 -98q0 -23 16 -37.5t43 -14.5z" />
<glyph unicode="&#xab;" horiz-adv-x="1204" d="M279 176l-164 465l356 424h307l-284 -434l71 -455h-286zM780 176l-162 465l357 424h307l-287 -434l74 -455h-289z" />
<glyph unicode="&#xac;" d="M238 799h925l-127 -598h-315l65 311h-608z" />
<glyph unicode="&#xad;" horiz-adv-x="1105" d="M1032 799l-61 -287h-809l61 287h809z" />
<glyph unicode="&#xae;" horiz-adv-x="1286" d="M1280 1022q0 -123 -44 -218t-116.5 -151.5t-160 -85t-181.5 -28.5t-180 28.5t-158.5 85t-116.5 151.5t-44 218t43 219t116.5 151.5t159.5 84t180 28.5t181.5 -28.5t160 -84t116.5 -151.5t44 -219zM778 657q147 0 252 90.5t105 274.5q0 186 -104.5 276.5t-252.5 90.5 q-150 0 -253 -90.5t-103 -276.5t103 -275.5t253 -89.5zM1028 795h-162l-104 168h-39v-168h-137v479h188q215 0 215 -156q0 -92 -92 -133zM774 1180h-51v-125h55q70 0 70 63q0 62 -74 62z" />
<glyph unicode="&#xaf;" horiz-adv-x="675" d="M801 1210h-592l55 263h592z" />
<glyph unicode="&#xb0;" horiz-adv-x="1105" d="M578 1231q-43 0 -68 -41t-25 -107q0 -84 66 -84q39 0 66.5 37t27.5 107q1 88 -67 88zM942 1159q0 -176 -124 -285.5t-292 -109.5q-145 0 -241.5 82t-96.5 225q0 180 123 288.5t291 108.5q147 0 243.5 -83t96.5 -226z" />
<glyph unicode="&#xb1;" d="M618 1157h318l-66 -309h306l-62 -287h-305l-41 -194h-317l41 194h-306l64 287h303zM1057 287l-60 -287h-927l61 287h926z" />
<glyph unicode="&#xb2;" horiz-adv-x="696" d="M475 1374h-244q43 115 143.5 186.5t231.5 71.5q115 0 182.5 -54t67.5 -146q0 -66 -38 -130.5t-78 -102.5t-113 -99l-80 -66h227l-47 -211h-577l40 195l252 207q4 4 28 22.5t30 23.5l24 21q18 16 25 26l16 23q10 14 13.5 26.5t3.5 27.5q0 39 -37 39q-45 -1 -70 -60z" />
<glyph unicode="&#xb3;" horiz-adv-x="696" d="M487 1409h-239q106 223 348 223q106 0 178 -47t72 -137q0 -57 -40 -115.5t-108 -85.5q43 -14 74 -54t31 -99q0 -129 -101.5 -206t-250.5 -77q-129 0 -206 68.5t-77 173.5h248q0 -43 51 -43q31 0 49.5 23.5t18.5 60.5q0 51 -78 51h-49l41 186h61q29 0 50.5 20.5t21.5 57.5 q0 39 -41 39q-34 0 -54 -39z" />
<glyph unicode="&#xb4;" horiz-adv-x="741" d="M217 1184l289 315h409l-395 -315h-303z" />
<glyph unicode="&#xb5;" horiz-adv-x="1239" d="M233 1065h396l-142 -664q-6 -31 -6 -57q0 -49 27 -76.5t74 -27.5q66 0 112.5 54t65.5 142l133 629h395l-225 -1065h-336l-8 109q-123 -123 -324 -134l-71 -344h-396z" />
<glyph unicode="&#xb6;" horiz-adv-x="1445" d="M688 1475h311l-393 -1844h-375l213 1004q-119 14 -198.5 109.5t-79.5 261.5q0 248 146.5 358.5t375.5 110.5zM1182 1475h377l-394 -1844h-377z" />
<glyph unicode="&#xb7;" horiz-adv-x="606" d="M522 451h-416l78 358h416z" />
<glyph unicode="&#xb8;" horiz-adv-x="831" d="M459 -72q80 -20 122 -70.5t42 -119.5q0 -131 -100.5 -209t-262.5 -78q-152 0 -244 67.5t-92 180.5v18h260q0 -31 22.5 -53t67.5 -22q86 0 86 71q0 82 -178 82l74 250h223z" />
<glyph unicode="&#xb9;" horiz-adv-x="696" d="M721 823h-553l45 215h154l65 316l-170 -88l53 247l187 101h256l-123 -576h133z" />
<glyph unicode="&#xba;" horiz-adv-x="1069" d="M719 1505q76 0 141.5 -16t123.5 -54t92 -112t34 -174q0 -256 -133 -403.5t-371 -147.5q-166 0 -279.5 85t-113.5 280q0 248 131 395t375 147zM694 1276q-74 0 -108.5 -102.5t-34.5 -225.5q0 -121 80 -121q53 0 88 60.5t45 129t10 140.5q0 119 -80 119zM920 287l-60 -287 h-835l61 287h834z" />
<glyph unicode="&#xbb;" horiz-adv-x="1204" d="M1196 641l-346 -465h-303l268 455l-104 434h293zM692 641l-344 -465h-305l268 455l-102 434h291z" />
<glyph unicode="&#xbc;" horiz-adv-x="1777" d="M1690 1618l-1276 -1802h-301l1273 1802h304zM637 643h-553l45 215h154l65 316l-170 -89l53 248l187 101h256l-123 -576h133zM1321 516h207l-35 -164h68l-45 -213h-68l-31 -139h-237l28 139h-336l43 201l269 451h256l-252 -439h67l11 45z" />
<glyph unicode="&#xbd;" horiz-adv-x="1781" d="M1688 1618l-1276 -1802h-301l1273 1802h304zM643 643h-553l45 215h154l65 316l-170 -89l54 248l186 101h256l-123 -576h133zM1255 551h-243q43 115 143 186.5t231 71.5q115 0 182.5 -54.5t67.5 -146.5q0 -66 -37.5 -130t-77.5 -102t-114 -100l-80 -65h227l-47 -211h-577 l41 195l252 206q4 4 27.5 22.5l29.5 23.5l25 22q18 16 24 26l17 23q10 14 13 26.5t3 26.5q0 39 -37 39q-45 0 -70 -59z" />
<glyph unicode="&#xbe;" horiz-adv-x="1779" d="M1683 1618l-1275 -1802h-302l1274 1802h303zM1325 516h207l-35 -164h68l-45 -213h-68l-31 -139h-237l28 139h-335l43 201l268 451h256l-252 -439h68l10 45zM449 1241h-240q106 223 348 223q106 0 178 -47t72 -137q0 -57 -40 -115.5t-108 -85.5q43 -14 74 -54t31 -99 q0 -129 -101.5 -206t-250.5 -77q-129 0 -206 68.5t-77 173.5h248q0 -43 51 -43q31 0 49.5 23.5t18.5 60.5q0 51 -78 51h-49l41 186h61q29 0 50.5 20.5t21.5 57.5q0 39 -41 39q-35 0 -53 -39z" />
<glyph unicode="&#xbf;" horiz-adv-x="1136" d="M565 10h412q-57 -174 -217 -291.5t-367 -117.5q-201 0 -316.5 80.5t-115.5 214.5q0 137 70.5 235t267.5 277q72 63 107 210h382q-33 -156 -73.5 -233.5t-139.5 -169.5q-123 -117 -161.5 -167t-38.5 -95q0 -29 18.5 -45.5t46.5 -16.5q76 0 125 119zM481 1106h430l-75 -371 h-433z" />
<glyph unicode="&#xc0;" horiz-adv-x="1515" d="M1440 0h-443l-26 322h-457l-162 -322h-440l854 1475h442zM911 1104l-256 -500h295zM1120 1901l152 -316h-275l-262 316h385z" />
<glyph unicode="&#xc1;" horiz-adv-x="1515" d="M1440 0h-443l-26 322h-457l-162 -322h-440l854 1475h442zM911 1104l-256 -500h295zM723 1585l289 316h409l-395 -316h-303z" />
<glyph unicode="&#xc2;" horiz-adv-x="1515" d="M1440 0h-443l-26 322h-457l-162 -322h-440l854 1475h442zM911 1104l-256 -500h295zM1034 1714l-96 -117h-373l348 316h314l213 -316h-359z" />
<glyph unicode="&#xc3;" horiz-adv-x="1515" d="M1440 0h-443l-26 322h-457l-162 -322h-440l854 1475h442zM911 1104l-256 -500h295zM1143 1591q-63 0 -141 37t-121 37q-68 0 -201 -68l53 256q113 59 209 60q61 0 139 -38t123 -38q59 0 195 68l-56 -256q-108 -58 -200 -58z" />
<glyph unicode="&#xc4;" horiz-adv-x="1515" d="M1440 0h-443l-26 322h-457l-162 -322h-440l854 1475h442zM911 1104l-256 -500h295zM936 1599h-352l63 295h352zM1425 1599h-354l64 295h354z" />
<glyph unicode="&#xc5;" horiz-adv-x="1515" d="M1034 1894q145 0 225 -72.5t80 -179.5q0 -156 -120 -235l221 -1407h-441l-26 322h-457l-164 -322h-440l831 1436q-59 61 -59 159q0 129 91 214t259 85zM911 1104l-254 -500h295zM1018 1706q-35 0 -57.5 -25.5t-22.5 -72.5q0 -74 66 -74q82 0 81 100q1 72 -67 72z" />
<glyph unicode="&#xc6;" horiz-adv-x="2052" d="M973 322h-414l-217 -322h-442l1034 1475h1278l-64 -304h-567l-61 -286h508l-62 -283h-508l-63 -303h567l-64 -299h-995zM1161 1217l-413 -613h284z" />
<glyph unicode="&#xc7;" horiz-adv-x="1558" d="M793 -72q80 -20 121.5 -70.5t41.5 -119.5q0 -131 -100 -209t-264 -78q-152 0 -243 67.5t-91 180.5v18h260q0 -31 22.5 -53t67.5 -22q86 0 86 71q0 82 -180 82l57 191q-217 45 -334.5 201.5t-117.5 394.5q0 129 26.5 252.5t90 247.5t160 216.5t249 149.5t342.5 57 q270 0 445.5 -138t175.5 -382v-20h-426q0 127 -59.5 187t-159.5 60q-102 0 -184.5 -63.5t-127.5 -162.5t-67.5 -206.5t-22.5 -210.5q0 -154 61.5 -230.5t161.5 -76.5q119 0 195 73t123 230h432q-96 -289 -276.5 -435t-458.5 -159z" />
<glyph unicode="&#xc8;" horiz-adv-x="1257" d="M1231 885l-60 -283h-581l-64 -303h639l-61 -299h-1069l313 1475h1069l-65 -304h-639l-62 -286h580zM987 1901l152 -316h-275l-262 316h385z" />
<glyph unicode="&#xc9;" horiz-adv-x="1257" d="M1231 885l-60 -283h-581l-64 -303h639l-61 -299h-1069l313 1475h1069l-65 -304h-639l-62 -286h580zM696 1585l289 316h410l-396 -316h-303z" />
<glyph unicode="&#xca;" horiz-adv-x="1257" d="M1231 885l-60 -283h-581l-64 -303h639l-61 -299h-1069l313 1475h1069l-65 -304h-639l-62 -286h580zM946 1714l-96 -117h-373l348 316h314l213 -316h-359z" />
<glyph unicode="&#xcb;" horiz-adv-x="1257" d="M1231 885l-60 -283h-581l-64 -303h639l-61 -299h-1069l313 1475h1069l-65 -304h-639l-62 -286h580zM846 1599h-352l63 295h352zM1335 1599h-354l63 295h355z" />
<glyph unicode="&#xcc;" horiz-adv-x="661" d="M348 1475h428l-313 -1475h-428zM721 1901l151 -316h-274l-262 316h385z" />
<glyph unicode="&#xcd;" horiz-adv-x="661" d="M348 1475h428l-313 -1475h-428zM303 1585l289 316h409l-395 -316h-303z" />
<glyph unicode="&#xce;" horiz-adv-x="661" d="M348 1475h428l-313 -1475h-428zM621 1714l-97 -117h-372l348 316h313l213 -316h-358z" />
<glyph unicode="&#xcf;" horiz-adv-x="661" d="M348 1475h428l-313 -1475h-428zM522 1599h-352l63 295h353zM1012 1599h-355l64 295h354z" />
<glyph unicode="&#xd0;" horiz-adv-x="1546" d="M350 1475h545q322 0 502 -147.5t180 -422.5q0 -121 -20.5 -234.5t-81 -239.5t-156.5 -218t-262 -152.5t-383 -60.5h-637l133 631h-111l62 291h110zM852 1184h-135l-58 -262h199l-61 -291h-199l-72 -338h164q102 0 184 42t130.5 105.5t81 145.5t44 153.5t11.5 139.5 q0 150 -77 227.5t-212 77.5z" />
<glyph unicode="&#xd1;" horiz-adv-x="1531" d="M1282 1475h365l-314 -1475h-418l-323 918l-193 -918h-364l313 1475h445l303 -873zM1165 1591q-63 0 -141 37t-121 37q-68 0 -201 -68l54 256q113 59 209 60q63 0 141 -38t121 -38q59 0 194 68l-55 -256q-109 -58 -201 -58z" />
<glyph unicode="&#xd2;" horiz-adv-x="1638" d="M821 270q88 0 161 43t118 109.5t76.5 151.5t45 163t13.5 150q0 162 -78 240.5t-188 78.5q-113 0 -199 -67.5t-130 -170t-65.5 -200.5t-21.5 -182q0 -160 78.5 -238t189.5 -78zM786 -31q-131 0 -248.5 37t-213 110.5t-151.5 194.5t-56 275q0 115 22.5 229.5t84 242.5 t155.5 224t254 159.5t362 63.5q129 0 246 -36.5t214 -108.5t154.5 -194t57.5 -275q0 -117 -23.5 -234.5t-86 -244.5t-157.5 -222.5t-254 -158t-360 -62.5zM1135 1901l151 -316h-274l-262 316h385z" />
<glyph unicode="&#xd3;" horiz-adv-x="1638" d="M821 270q88 0 161 43t118 109.5t76.5 151.5t45 163t13.5 150q0 162 -78 240.5t-188 78.5q-113 0 -199 -67.5t-130 -170t-65.5 -200.5t-21.5 -182q0 -160 78.5 -238t189.5 -78zM786 -31q-131 0 -248.5 37t-213 110.5t-151.5 194.5t-56 275q0 115 22.5 229.5t84 242.5 t155.5 224t254 159.5t362 63.5q129 0 246 -36.5t214 -108.5t154.5 -194t57.5 -275q0 -117 -23.5 -234.5t-86 -244.5t-157.5 -222.5t-254 -158t-360 -62.5zM846 1585l289 316h409l-395 -316h-303z" />
<glyph unicode="&#xd4;" horiz-adv-x="1638" d="M821 270q88 0 161 43t118 109.5t76.5 151.5t45 163t13.5 150q0 162 -78 240.5t-188 78.5q-113 0 -199 -67.5t-130 -170t-65.5 -200.5t-21.5 -182q0 -160 78.5 -238t189.5 -78zM786 -31q-131 0 -248.5 37t-213 110.5t-151.5 194.5t-56 275q0 115 22.5 229.5t84 242.5 t155.5 224t254 159.5t362 63.5q129 0 246 -36.5t214 -108.5t154.5 -194t57.5 -275q0 -117 -23.5 -234.5t-86 -244.5t-157.5 -222.5t-254 -158t-360 -62.5zM1087 1714l-96 -117h-373l349 316h313l213 -316h-358z" />
<glyph unicode="&#xd5;" horiz-adv-x="1638" d="M821 270q88 0 161 43t118 109.5t76.5 151.5t45 163t13.5 150q0 162 -78 240.5t-188 78.5q-113 0 -199 -67.5t-130 -170t-65.5 -200.5t-21.5 -182q0 -160 78.5 -238t189.5 -78zM786 -31q-131 0 -248.5 37t-213 110.5t-151.5 194.5t-56 275q0 115 22.5 229.5t84 242.5 t155.5 224t254 159.5t362 63.5q129 0 246 -36.5t214 -108.5t154.5 -194t57.5 -275q0 -117 -23.5 -234.5t-86 -244.5t-157.5 -222.5t-254 -158t-360 -62.5zM1200 1591q-63 0 -141 37t-121 37q-68 0 -201 -68l54 256q113 59 208 60q61 0 139.5 -38t123.5 -38q59 0 194 68 l-55 -256q-109 -58 -201 -58z" />
<glyph unicode="&#xd6;" horiz-adv-x="1638" d="M821 270q88 0 161 43t118 109.5t76.5 151.5t45 163t13.5 150q0 162 -78 240.5t-188 78.5q-113 0 -199 -67.5t-130 -170t-65.5 -200.5t-21.5 -182q0 -160 78.5 -238t189.5 -78zM786 -31q-131 0 -248.5 37t-213 110.5t-151.5 194.5t-56 275q0 115 22.5 229.5t84 242.5 t155.5 224t254 159.5t362 63.5q129 0 246 -36.5t214 -108.5t154.5 -194t57.5 -275q0 -117 -23.5 -234.5t-86 -244.5t-157.5 -222.5t-254 -158t-360 -62.5zM1006 1599h-353l64 295h352zM1495 1599h-354l63 295h355z" />
<glyph unicode="&#xd7;" d="M297 881l246 202l172 -219l266 219l166 -209l-266 -219l174 -221l-246 -203l-174 220l-266 -220l-164 211l266 220z" />
<glyph unicode="&#xd8;" horiz-adv-x="1638" d="M786 -31q-121 0 -231 31l-149 -225h-306l230 338q-213 168 -213 473q0 115 22.5 229.5t84 242.5t155.5 224t254 159.5t362 63.5q133 0 252 -39l146 213h303l-228 -333q199 -168 199 -455q0 -117 -23.5 -234.5t-86 -244.5t-157.5 -222.5t-254 -158t-360 -62.5zM553 586 q0 -84 31 -146l487 744q-45 23 -102 22q-113 0 -199 -67.5t-130 -170t-65.5 -200.5t-21.5 -182zM821 270q88 0 161 43t118 109.5t76.5 151.5t45 163t13.5 150q0 76 -29 139l-485 -737q49 -19 100 -19z" />
<glyph unicode="&#xd9;" horiz-adv-x="1517" d="M334 1475h430l-211 -988q-8 -37 -8 -53q0 -80 54 -124t149 -44q221 0 268 213l211 996h415l-206 -971q-115 -535 -717 -535q-281 0 -441.5 117t-160.5 317q0 51 12 111zM1026 1901l152 -316h-275l-262 316h385z" />
<glyph unicode="&#xda;" horiz-adv-x="1517" d="M334 1475h430l-211 -988q-8 -37 -8 -53q0 -80 54 -124t149 -44q221 0 268 213l211 996h415l-206 -971q-115 -535 -717 -535q-281 0 -441.5 117t-160.5 317q0 51 12 111zM840 1585l288 316h410l-395 -316h-303z" />
<glyph unicode="&#xdb;" horiz-adv-x="1517" d="M334 1475h430l-211 -988q-8 -37 -8 -53q0 -80 54 -124t149 -44q221 0 268 213l211 996h415l-206 -971q-115 -535 -717 -535q-281 0 -441.5 117t-160.5 317q0 51 12 111zM1042 1714l-96 -117h-373l349 316h313l213 -316h-358z" />
<glyph unicode="&#xdc;" horiz-adv-x="1517" d="M334 1475h430l-211 -988q-8 -37 -8 -53q0 -80 54 -124t149 -44q221 0 268 213l211 996h415l-206 -971q-115 -535 -717 -535q-281 0 -441.5 117t-160.5 317q0 51 12 111zM944 1599h-352l63 295h353zM1434 1599h-355l64 295h354z" />
<glyph unicode="&#xdd;" horiz-adv-x="1482" d="M864 0h-409l125 590l-349 885h449l168 -562l432 562h434l-725 -885zM827 1585l289 316h410l-396 -316h-303z" />
<glyph unicode="&#xde;" horiz-adv-x="1359" d="M348 1475h426l-47 -222h74q299 0 446.5 -108.5t147.5 -306.5q0 -590 -758 -590h-123l-53 -248h-426zM748 965h-82l-91 -428h72q309 0 309 258q0 84 -54 127t-154 43z" />
<glyph unicode="&#xdf;" horiz-adv-x="1359" d="M870 -31q-201 0 -298 91.5t-97 250.5h340q-2 -12 -2 -32q0 -74 66 -74q37 0 61.5 37t24.5 100q0 98 -125 168q-154 86 -154 209q0 70 33 129t72.5 95t72.5 87t33 105q0 43 -30.5 68.5t-80.5 25.5q-68 0 -102.5 -48t-62.5 -175l-64 -293l-221 -713h-324l224 1057 q51 236 173.5 342t389.5 106q217 0 346 -84t129 -219q0 -63 -23.5 -114.5t-56.5 -84l-65.5 -61.5t-56 -61.5t-23.5 -67.5q0 -68 86 -121q199 -125 198.5 -297t-115.5 -299t-348 -127z" />
<glyph unicode="&#xe0;" horiz-adv-x="1189" d="M537 733h-396q154 362 590 363q213 0 330 -89t117 -247q0 -57 -11 -101l-139 -659h-307l-25 119q-57 -63 -154.5 -106.5t-211.5 -43.5q-147 0 -229.5 71t-82.5 196q0 166 120 262t407 143l229 37l6 29q4 16 4 38q0 92 -102 93q-108 -1 -145 -105zM512 227q68 0 124 43 t75 115l20 90q-195 -35 -253 -66.5t-58 -103.5q0 -78 92 -78zM846 1499l151 -315h-274l-262 315h385z" />
<glyph unicode="&#xe1;" horiz-adv-x="1189" d="M537 733h-396q154 362 590 363q213 0 330 -89t117 -247q0 -57 -11 -101l-139 -659h-307l-25 119q-57 -63 -154.5 -106.5t-211.5 -43.5q-147 0 -229.5 71t-82.5 196q0 166 120 262t407 143l229 37l6 29q4 16 4 38q0 92 -102 93q-108 -1 -145 -105zM512 227q68 0 124 43 t75 115l20 90q-195 -35 -253 -66.5t-58 -103.5q0 -78 92 -78zM594 1184l289 315h409l-395 -315h-303z" />
<glyph unicode="&#xe2;" horiz-adv-x="1189" d="M537 733h-396q154 362 590 363q213 0 330 -89t117 -247q0 -57 -11 -101l-139 -659h-307l-25 119q-57 -63 -154.5 -106.5t-211.5 -43.5q-147 0 -229.5 71t-82.5 196q0 166 120 262t407 143l229 37l6 29q4 16 4 38q0 92 -102 93q-108 -1 -145 -105zM512 227q68 0 124 43 t75 115l20 90q-195 -35 -253 -66.5t-58 -103.5q0 -78 92 -78zM801 1313l-96 -117h-373l348 315h313l213 -315h-358z" />
<glyph unicode="&#xe3;" horiz-adv-x="1189" d="M537 733h-396q154 362 590 363q213 0 330 -89t117 -247q0 -57 -11 -101l-139 -659h-307l-25 119q-57 -63 -154.5 -106.5t-211.5 -43.5q-147 0 -229.5 71t-82.5 196q0 166 120 262t407 143l229 37l6 29q4 16 4 38q0 92 -102 93q-108 -1 -145 -105zM512 227q68 0 124 43 t75 115l20 90q-195 -35 -253 -66.5t-58 -103.5q0 -78 92 -78zM903 1190q-63 0 -141 37t-121 37q-68 0 -201 -68l54 256q113 59 208 59q63 0 141.5 -37.5t121.5 -37.5q59 0 194 67l-55 -256q-109 -57 -201 -57z" />
<glyph unicode="&#xe4;" horiz-adv-x="1189" d="M537 733h-396q154 362 590 363q213 0 330 -89t117 -247q0 -57 -11 -101l-139 -659h-307l-25 119q-57 -63 -154.5 -106.5t-211.5 -43.5q-147 0 -229.5 71t-82.5 196q0 166 120 262t407 143l229 37l6 29q4 16 4 38q0 92 -102 93q-108 -1 -145 -105zM512 227q68 0 124 43 t75 115l20 90q-195 -35 -253 -66.5t-58 -103.5q0 -78 92 -78zM688 1198h-352l63 295h353zM1178 1198h-355l64 295h354z" />
<glyph unicode="&#xe5;" horiz-adv-x="1189" d="M537 733h-396q154 362 590 363q213 0 330 -89t117 -247q0 -57 -11 -101l-139 -659h-307l-25 119q-57 -63 -154.5 -106.5t-211.5 -43.5q-147 0 -229.5 71t-82.5 196q0 166 120 262t407 143l229 37l6 29q4 16 4 38q0 92 -102 93q-108 -1 -145 -105zM512 227q68 0 124 43 t75 115l20 90q-195 -35 -253 -66.5t-58 -103.5q0 -78 92 -78zM821 1530q-35 0 -57.5 -25.5t-22.5 -70.5q0 -76 66 -76q80 0 80 100q0 72 -66 72zM836 1720q147 0 227 -72.5t80 -181.5q0 -129 -91 -213t-259 -84q-147 0 -226.5 72t-79.5 180q0 129 91.5 214t257.5 85z" />
<glyph unicode="&#xe6;" horiz-adv-x="1923" d="M1444 338h403q-168 -369 -616 -369q-143 0 -254 55.5t-174 153.5q-172 -209 -457 -209q-158 0 -243 71t-85 193q0 166 120 263.5t407 144.5l229 37l8 37q4 20 4 30q0 92 -102 93q-113 0 -145 -105h-398q156 362 592 363q195 0 322 -97q154 96 334 97q229 0 368 -124 t139 -349q0 -84 -18 -177h-752q-2 -12 -2 -36q0 -172 164 -172q117 0 156 100zM1376 846q-137 0 -200 -193h342q4 18 4 45q-1 148 -146 148zM510 227q76 0 132 47.5t71 114.5l18 86q-193 -33 -252 -65.5t-59 -104.5q0 -35 23.5 -56.5t66.5 -21.5z" />
<glyph unicode="&#xe7;" horiz-adv-x="1241" d="M637 -72q80 -18 122 -69.5t42 -118.5q0 -131 -100.5 -209t-264.5 -78q-152 0 -243 67.5t-91 180.5v18h260q0 -33 22 -55t67 -22q88 0 88 73q0 80 -181 80l58 191q-170 31 -258 140.5t-88 279.5q0 94 20.5 185t70.5 184t124.5 163t193.5 114t269 44q225 0 361 -111 t140 -295h-407v17q0 55 -34 83.5t-85 28.5q-68 0 -120 -44t-76.5 -111.5t-37 -131t-12.5 -118.5q0 -86 39 -133.5t90 -47.5q119 0 176 166h408q-72 -180 -208 -292.5t-339 -131.5z" />
<glyph unicode="&#xe8;" horiz-adv-x="1267" d="M788 338h402q-74 -168 -225.5 -268.5t-378.5 -100.5q-231 0 -370.5 128t-139.5 339q0 123 41 237.5t118.5 210t206.5 154t291 58.5q229 0 368.5 -124t139.5 -349q0 -86 -20 -177h-750q-2 -12 -2 -36q0 -170 164 -170q116 0 155 98zM719 848q-137 0 -203 -193h342 q4 18 4 52q0 141 -143 141zM834 1499l151 -315h-274l-262 315h385z" />
<glyph unicode="&#xe9;" horiz-adv-x="1267" d="M788 338h402q-74 -168 -225.5 -268.5t-378.5 -100.5q-231 0 -370.5 128t-139.5 339q0 123 41 237.5t118.5 210t206.5 154t291 58.5q229 0 368.5 -124t139.5 -349q0 -86 -20 -177h-750q-2 -12 -2 -36q0 -170 164 -170q116 0 155 98zM719 848q-137 0 -203 -193h342 q4 18 4 52q0 141 -143 141zM580 1184l288 315h410l-395 -315h-303z" />
<glyph unicode="&#xea;" horiz-adv-x="1267" d="M788 338h402q-74 -168 -225.5 -268.5t-378.5 -100.5q-231 0 -370.5 128t-139.5 339q0 123 41 237.5t118.5 210t206.5 154t291 58.5q229 0 368.5 -124t139.5 -349q0 -86 -20 -177h-750q-2 -12 -2 -36q0 -170 164 -170q116 0 155 98zM719 848q-137 0 -203 -193h342 q4 18 4 52q0 141 -143 141zM819 1313l-96 -117h-373l348 315h314l213 -315h-359z" />
<glyph unicode="&#xeb;" horiz-adv-x="1267" d="M788 338h402q-74 -168 -225.5 -268.5t-378.5 -100.5q-231 0 -370.5 128t-139.5 339q0 123 41 237.5t118.5 210t206.5 154t291 58.5q229 0 368.5 -124t139.5 -349q0 -86 -20 -177h-750q-2 -12 -2 -36q0 -170 164 -170q116 0 155 98zM719 848q-137 0 -203 -193h342 q4 18 4 52q0 141 -143 141zM721 1198h-352l63 295h352zM1210 1198h-354l64 295h354z" />
<glyph unicode="&#xec;" horiz-adv-x="604" d="M588 1499l151 -315h-274l-262 315h385zM418 0h-395l225 1065h395z" />
<glyph unicode="&#xed;" horiz-adv-x="604" d="M190 1184l289 315h410l-395 -315h-304zM418 0h-395l225 1065h395z" />
<glyph unicode="&#xee;" horiz-adv-x="604" d="M418 0h-395l225 1065h395zM506 1313l-96 -117h-373l348 315h313l213 -315h-358z" />
<glyph unicode="&#xef;" horiz-adv-x="604" d="M406 1198h-353l64 295h352zM895 1198h-354l63 295h354zM418 0h-395l225 1065h395z" />
<glyph unicode="&#xf0;" horiz-adv-x="1206" d="M399 1278l58 264q229 -23 399 -110l51 43h310l-195 -162q203 -190 203 -504q0 -109 -20.5 -219.5t-72 -224t-126 -199.5t-193.5 -141.5t-264 -55.5q-213 0 -348 118t-135 325q0 258 157.5 418.5t403.5 160.5q49 0 105 -16.5t79 -40.5q-16 94 -57 153l-35 -28h-309 l184 153q-78 39 -195 66zM666 725q-66 0 -111 -59.5t-61.5 -132t-16.5 -144.5q0 -152 107 -151q82 0 135 106.5t53 210.5q0 170 -106 170z" />
<glyph unicode="&#xf1;" horiz-adv-x="1243" d="M12 0l226 1065h335l7 -119q70 70 162 110t178 40q150 0 232.5 -80t82.5 -225q0 -68 -14 -132l-142 -659h-397l141 659q8 37 8 62q0 49 -28.5 75.5t-73.5 26.5q-72 0 -122 -53t-66 -139l-133 -631h-396zM938 1190q-63 0 -141 37t-121 37q-68 0 -201 -68l53 256 q113 59 209 59q61 0 139 -37.5t123 -37.5q59 0 195 67l-55 -256q-109 -57 -201 -57z" />
<glyph unicode="&#xf2;" horiz-adv-x="1288" d="M739 1096q242 0 389.5 -118t147.5 -333q0 -133 -39 -251t-118 -215t-211 -153.5t-304 -56.5q-238 0 -384 119t-146 338q0 88 17.5 173t63.5 177t118.5 162t192 114t273.5 44zM719 834q-72 0 -123 -48.5t-73.5 -122t-33 -135t-10.5 -114.5q0 -182 158 -183q70 0 121 49.5 t73.5 124t32.5 138t10 119.5q1 172 -155 172zM856 1499l152 -315h-275l-262 315h385z" />
<glyph unicode="&#xf3;" horiz-adv-x="1288" d="M739 1096q242 0 389.5 -118t147.5 -333q0 -133 -39 -251t-118 -215t-211 -153.5t-304 -56.5q-238 0 -384 119t-146 338q0 88 17.5 173t63.5 177t118.5 162t192 114t273.5 44zM719 834q-72 0 -123 -48.5t-73.5 -122t-33 -135t-10.5 -114.5q0 -182 158 -183q70 0 121 49.5 t73.5 124t32.5 138t10 119.5q1 172 -155 172zM588 1184l289 315h409l-395 -315h-303z" />
<glyph unicode="&#xf4;" horiz-adv-x="1288" d="M739 1096q242 0 389.5 -118t147.5 -333q0 -133 -39 -251t-118 -215t-211 -153.5t-304 -56.5q-238 0 -384 119t-146 338q0 88 17.5 173t63.5 177t118.5 162t192 114t273.5 44zM719 834q-72 0 -123 -48.5t-73.5 -122t-33 -135t-10.5 -114.5q0 -182 158 -183q70 0 121 49.5 t73.5 124t32.5 138t10 119.5q1 172 -155 172zM819 1313l-96 -117h-373l348 315h314l213 -315h-359z" />
<glyph unicode="&#xf5;" horiz-adv-x="1288" d="M739 1096q242 0 389.5 -118t147.5 -333q0 -133 -39 -251t-118 -215t-211 -153.5t-304 -56.5q-238 0 -384 119t-146 338q0 88 17.5 173t63.5 177t118.5 162t192 114t273.5 44zM719 834q-72 0 -123 -48.5t-73.5 -122t-33 -135t-10.5 -114.5q0 -182 158 -183q70 0 121 49.5 t73.5 124t32.5 138t10 119.5q1 172 -155 172zM936 1190q-63 0 -141 37t-121 37q-68 0 -201 -68l53 256q113 59 209 59q63 0 141 -37.5t121 -37.5q59 0 195 67l-55 -256q-109 -57 -201 -57z" />
<glyph unicode="&#xf6;" horiz-adv-x="1288" d="M739 1096q242 0 389.5 -118t147.5 -333q0 -133 -39 -251t-118 -215t-211 -153.5t-304 -56.5q-238 0 -384 119t-146 338q0 88 17.5 173t63.5 177t118.5 162t192 114t273.5 44zM719 834q-72 0 -123 -48.5t-73.5 -122t-33 -135t-10.5 -114.5q0 -182 158 -183q70 0 121 49.5 t73.5 124t32.5 138t10 119.5q1 172 -155 172zM719 1198h-352l63 295h352zM1208 1198h-354l64 295h354z" />
<glyph unicode="&#xf7;" d="M745 123h-374l69 323h375zM901 864h-373l68 324h375zM1165 799l-61 -287h-926l60 287h927z" />
<glyph unicode="&#xf8;" horiz-adv-x="1288" d="M739 1096q96 0 187 -23l153 217h277l-226 -317q143 -119 144 -328q0 -133 -39 -251t-117 -215t-211 -153.5t-303 -56.5q-94 0 -178 23l-152 -217h-282l225 313q-145 125 -145 336q0 88 17 174t64.5 178t119 161t192 114t274.5 45zM719 831q-66 0 -116 -40.5t-75.5 -102 t-37 -121t-11.5 -110.5q0 -55 4 -78l310 440q-35 12 -74 12zM874 635q0 45 -2 57l-309 -448q31 -12 74 -13q68 0 118 48.5t73.5 120t34.5 132t11 103.5z" />
<glyph unicode="&#xf9;" d="M223 1065h395l-137 -653q-10 -51 -10 -68q0 -47 26.5 -74.5t73.5 -27.5q68 0 115 53t66 141l133 629h393l-225 -1065h-334l-8 109q-143 -139 -332 -140q-150 0 -230.5 79t-80.5 222q0 57 16 136zM782 1499l152 -315h-275l-262 315h385z" />
<glyph unicode="&#xfa;" d="M223 1065h395l-137 -653q-10 -51 -10 -68q0 -47 26.5 -74.5t73.5 -27.5q68 0 115 53t66 141l133 629h393l-225 -1065h-334l-8 109q-143 -139 -332 -140q-150 0 -230.5 79t-80.5 222q0 57 16 136zM612 1184l289 315h410l-396 -315h-303z" />
<glyph unicode="&#xfb;" d="M223 1065h395l-137 -653q-10 -51 -10 -68q0 -47 26.5 -74.5t73.5 -27.5q68 0 115 53t66 141l133 629h393l-225 -1065h-334l-8 109q-143 -139 -332 -140q-150 0 -230.5 79t-80.5 222q0 57 16 136zM805 1313l-96 -117h-373l348 315h313l213 -315h-358z" />
<glyph unicode="&#xfc;" d="M223 1065h395l-137 -653q-10 -51 -10 -68q0 -47 26.5 -74.5t73.5 -27.5q68 0 115 53t66 141l133 629h393l-225 -1065h-334l-8 109q-143 -139 -332 -140q-150 0 -230.5 79t-80.5 222q0 57 16 136zM711 1198h-353l64 295h352zM1200 1198h-354l63 295h355z" />
<glyph unicode="&#xfd;" horiz-adv-x="1216" d="M950 1065h412l-614 -1079q-129 -223 -231.5 -304t-258.5 -81q-106 0 -219 32l57 267q92 -29 146 -29q45 0 76.5 27.5t68.5 101.5h-74l-170 1065h410l27 -782zM627 1184l288 315h410l-395 -315h-303z" />
<glyph unicode="&#xfe;" horiz-adv-x="1312" d="M332 -369h-400l394 1844h397l-111 -519q143 139 328 140q170 0 269.5 -106.5t99.5 -295.5q0 -125 -35 -247.5t-104.5 -232.5t-188.5 -177.5t-268 -67.5q-182 0 -283 121zM755.5 813q-67.5 0 -120.5 -41t-80 -103.5t-40 -124t-13 -114.5q0 -178 151 -178q70 0 122 42 t79 106.5t39 123t12 107.5q0 90 -41 136t-108.5 46z" />
<glyph unicode="&#xff;" horiz-adv-x="1216" d="M950 1065h412l-614 -1079q-129 -223 -231.5 -304t-258.5 -81q-106 0 -219 32l57 267q92 -29 146 -29q45 0 76.5 27.5t68.5 101.5h-74l-170 1065h410l27 -782zM713 1198h-353l64 295h352zM1202 1198h-354l63 295h355z" />
<glyph unicode="&#x100;" horiz-adv-x="1515" d="M1440 0h-443l-26 322h-457l-162 -322h-440l854 1475h442zM911 1104l-256 -500h295zM1303 1612h-592l55 262h592z" />
<glyph unicode="&#x101;" horiz-adv-x="1189" d="M537 733h-396q154 362 590 363q213 0 330 -89t117 -247q0 -57 -11 -101l-139 -659h-307l-25 119q-57 -63 -154.5 -106.5t-211.5 -43.5q-147 0 -229.5 71t-82.5 196q0 166 120 262t407 143l229 37l6 29q4 16 4 38q0 92 -102 93q-108 -1 -145 -105zM512 227q68 0 124 43 t75 115l20 90q-195 -35 -253 -66.5t-58 -103.5q0 -78 92 -78zM1079 1210h-592l56 263h592z" />
<glyph unicode="&#x102;" horiz-adv-x="1515" d="M1440 0h-443l-26 322h-457l-162 -322h-440l854 1475h442zM911 1104l-256 -500h295zM1026 1583q-143 0 -225 66.5t-82 197.5q0 14 4 47h283q-4 -29 -5 -39q0 -63 52 -63q61 0 86 102h284q-100 -311 -397 -311z" />
<glyph unicode="&#x103;" horiz-adv-x="1189" d="M537 733h-396q154 362 590 363q213 0 330 -89t117 -247q0 -57 -11 -101l-139 -659h-307l-25 119q-57 -63 -154.5 -106.5t-211.5 -43.5q-147 0 -229.5 71t-82.5 196q0 166 120 262t407 143l229 37l6 29q4 16 4 38q0 92 -102 93q-108 -1 -145 -105zM512 227q68 0 124 43 t75 115l20 90q-195 -35 -253 -66.5t-58 -103.5q0 -78 92 -78zM778 1182q-143 0 -225 66.5t-82 197.5q0 14 4 47h283q-4 -29 -4 -39q0 -63 51 -63q61 0 86 102h285q-101 -311 -398 -311z" />
<glyph unicode="&#x104;" horiz-adv-x="1515" d="M1004 -539q-135 0 -215 62.5t-80 165t76.5 187.5t209.5 136l-24 310h-457l-162 -322h-440l854 1475h442l232 -1475h-217q-248 -123 -248 -268q0 -37 22.5 -58.5t53.5 -21.5q51 0 75 53h271q-117 -244 -393 -244zM911 1104l-256 -500h295z" />
<glyph unicode="&#x105;" horiz-adv-x="1189" d="M1104 -295q-121 -244 -393 -244q-135 0 -216 63.5t-81 164.5q0 104 80.5 191t222.5 138l-21 101q-57 -63 -154.5 -106.5t-211.5 -43.5q-147 0 -229.5 71t-82.5 196q0 166 120 262t407 143l229 37l4 18q6 29 6 49q0 92 -102 93q-109 0 -145 -105h-396q154 362 590 363 q213 0 330 -89t117 -247q0 -57 -11 -101l-139 -659h-100q-246 -123 -246 -266q0 -39 21.5 -59.5t52.5 -20.5q53 0 75 51h273zM512 227q68 0 124 43t75 115l20 90q-195 -35 -253 -66.5t-58 -103.5q0 -78 92 -78z" />
<glyph unicode="&#x106;" horiz-adv-x="1558" d="M784 262q119 0 195 73t123 230h432q-102 -303 -294.5 -449.5t-498.5 -146.5q-295 0 -458.5 165t-163.5 448q0 129 26.5 252.5t90 247.5t160 216.5t249 149.5t342.5 57q270 0 445.5 -138t175.5 -382v-20h-426q0 127 -59.5 187t-159.5 60q-102 0 -184.5 -63.5 t-127.5 -162.5t-67.5 -206.5t-22.5 -210.5q0 -154 61.5 -230.5t161.5 -76.5zM825 1585l289 316h410l-396 -316h-303z" />
<glyph unicode="&#x107;" horiz-adv-x="1241" d="M782 399h408q-78 -197 -232.5 -313.5t-388.5 -116.5q-244 0 -371.5 116t-127.5 321q0 94 20.5 185t70.5 184t124.5 163t193.5 114t269 44q225 0 361 -111t140 -295h-407q0 139 -123 139q-66 0 -116 -45t-75.5 -113.5t-38 -134t-12.5 -122.5q0 -86 36 -133.5t93 -47.5 q119 0 176 166zM588 1184l289 315h409l-395 -315h-303z" />
<glyph unicode="&#x108;" horiz-adv-x="1558" d="M784 262q119 0 195 73t123 230h432q-102 -303 -294.5 -449.5t-498.5 -146.5q-295 0 -458.5 165t-163.5 448q0 129 26.5 252.5t90 247.5t160 216.5t249 149.5t342.5 57q270 0 445.5 -138t175.5 -382v-20h-426q0 127 -59.5 187t-159.5 60q-102 0 -184.5 -63.5 t-127.5 -162.5t-67.5 -206.5t-22.5 -210.5q0 -154 61.5 -230.5t161.5 -76.5zM1073 1714l-96 -117h-373l348 316h314l213 -316h-359z" />
<glyph unicode="&#x109;" horiz-adv-x="1241" d="M782 399h408q-78 -197 -232.5 -313.5t-388.5 -116.5q-244 0 -371.5 116t-127.5 321q0 94 20.5 185t70.5 184t124.5 163t193.5 114t269 44q225 0 361 -111t140 -295h-407q0 139 -123 139q-66 0 -116 -45t-75.5 -113.5t-38 -134t-12.5 -122.5q0 -86 36 -133.5t93 -47.5 q119 0 176 166zM807 1313l-96 -117h-373l348 315h313l213 -315h-358z" />
<glyph unicode="&#x10a;" horiz-adv-x="1558" d="M784 262q119 0 195 73t123 230h432q-102 -303 -294.5 -449.5t-498.5 -146.5q-295 0 -458.5 165t-163.5 448q0 129 26.5 252.5t90 247.5t160 216.5t249 149.5t342.5 57q270 0 445.5 -138t175.5 -382v-20h-426q0 127 -59.5 187t-159.5 60q-102 0 -184.5 -63.5 t-127.5 -162.5t-67.5 -206.5t-22.5 -210.5q0 -154 61.5 -230.5t161.5 -76.5zM1251 1595h-417l65 299h418z" />
<glyph unicode="&#x10b;" horiz-adv-x="1241" d="M782 399h408q-78 -197 -232.5 -313.5t-388.5 -116.5q-244 0 -371.5 116t-127.5 321q0 94 20.5 185t70.5 184t124.5 163t193.5 114t269 44q225 0 361 -111t140 -295h-407q0 139 -123 139q-66 0 -116 -45t-75.5 -113.5t-38 -134t-12.5 -122.5q0 -86 36 -133.5t93 -47.5 q119 0 176 166zM991 1194h-418l66 299h418z" />
<glyph unicode="&#x10c;" horiz-adv-x="1558" d="M784 262q119 0 195 73t123 230h432q-102 -303 -294.5 -449.5t-498.5 -146.5q-295 0 -458.5 165t-163.5 448q0 129 26.5 252.5t90 247.5t160 216.5t249 149.5t342.5 57q270 0 445.5 -138t175.5 -382v-20h-426q0 127 -59.5 187t-159.5 60q-102 0 -184.5 -63.5 t-127.5 -162.5t-67.5 -206.5t-22.5 -210.5q0 -154 61.5 -230.5t161.5 -76.5zM1028 1913l47 -109l96 109h371l-348 -316h-313l-213 316h360z" />
<glyph unicode="&#x10d;" horiz-adv-x="1241" d="M782 399h408q-78 -197 -232.5 -313.5t-388.5 -116.5q-244 0 -371.5 116t-127.5 321q0 94 20.5 185t70.5 184t124.5 163t193.5 114t269 44q225 0 361 -111t140 -295h-407q0 139 -123 139q-66 0 -116 -45t-75.5 -113.5t-38 -134t-12.5 -122.5q0 -86 36 -133.5t93 -47.5 q119 0 176 166zM778 1511l47 -108l97 108h370l-348 -315h-313l-213 315h360z" />
<glyph unicode="&#x10e;" horiz-adv-x="1546" d="M348 1475h547q322 0 501 -147.5t179 -422.5q0 -121 -20.5 -234.5t-81 -239.5t-155.5 -218t-262 -152.5t-384 -60.5h-637zM850 1184h-135l-191 -891h164q127 0 221.5 61.5t141.5 157.5t67.5 188.5t20.5 178.5q0 150 -77 227.5t-212 77.5zM938 1913l47 -109l96 109h371 l-348 -316h-313l-213 316h360z" />
<glyph unicode="&#x10f;" horiz-adv-x="1748" d="M1143 0h-316l-34 129q-166 -160 -351 -160q-172 0 -273 113t-101 305q0 88 19 181.5t65.5 188.5t112 169.5t164.5 122t218 47.5q98 0 179 -36t124 -95l109 510h397zM725 813q-68 0 -120 -39t-78.5 -98.5t-39 -118.5t-12.5 -113q0 -92 42 -142t112 -50q86 0 146.5 73.5 t82 156.5t21.5 155q0 90 -43 133t-111 43zM1939 1475l-51 -244q-41 -195 -153.5 -286t-321.5 -114l35 168q158 29 188 172h-100l66 304h337z" />
<glyph unicode="&#x110;" horiz-adv-x="1546" d="M350 1475h545q322 0 502 -147.5t180 -422.5q0 -121 -20.5 -234.5t-81 -239.5t-156.5 -218t-262 -152.5t-383 -60.5h-637l133 631h-111l62 291h110zM852 1184h-135l-58 -262h199l-61 -291h-199l-72 -338h164q102 0 184 42t130.5 105.5t81 145.5t44 153.5t11.5 139.5 q0 150 -77 227.5t-212 77.5z" />
<glyph unicode="&#x111;" horiz-adv-x="1337" d="M1143 0h-316l-34 129q-166 -160 -351 -160q-172 0 -273 113t-101 305q0 88 19 181.5t65.5 188.5t112 169.5t164.5 122t218 47.5q98 0 179 -36t124 -95l37 176h-192l55 266h194l15 68h397l-16 -68h88l-55 -266h-89zM725 813q-68 0 -120 -39t-78.5 -98.5t-39 -118.5 t-12.5 -113q0 -92 42 -142t112 -50q66 0 118 42t78.5 105.5t40 125t13.5 112.5q0 90 -43 133t-111 43z" />
<glyph unicode="&#x112;" horiz-adv-x="1257" d="M1231 885l-60 -283h-581l-64 -303h639l-61 -299h-1069l313 1475h1069l-65 -304h-639l-62 -286h580zM1206 1612h-592l56 262h592z" />
<glyph unicode="&#x113;" horiz-adv-x="1267" d="M788 338h402q-74 -168 -225.5 -268.5t-378.5 -100.5q-231 0 -370.5 128t-139.5 339q0 123 41 237.5t118.5 210t206.5 154t291 58.5q229 0 368.5 -124t139.5 -349q0 -86 -20 -177h-750q-2 -12 -2 -36q0 -170 164 -170q116 0 155 98zM719 848q-137 0 -203 -193h342 q4 18 4 52q0 141 -143 141zM1104 1210h-592l55 263h592z" />
<glyph unicode="&#x114;" horiz-adv-x="1257" d="M926 1628q-143 0 -225 66.5t-82 197.5q0 14 4 47h283q-4 -29 -5 -39q0 -63 52 -63q61 0 86 102h284q-100 -311 -397 -311zM1231 885l-60 -283h-581l-64 -303h639l-61 -299h-1069l313 1475h1069l-65 -304h-639l-62 -286h580z" />
<glyph unicode="&#x115;" horiz-adv-x="1267" d="M770 1219q-143 0 -225 66.5t-82 197.5q0 14 4 47h283q-4 -29 -5 -39q0 -63 52 -63q61 0 86 102h284q-100 -311 -397 -311zM788 338h402q-74 -168 -225.5 -268.5t-378.5 -100.5q-231 0 -370.5 128t-139.5 339q0 123 41 237.5t118.5 210t206.5 154t291 58.5 q229 0 368.5 -124t139.5 -349q0 -86 -20 -177h-750q-2 -12 -2 -36q0 -170 164 -170q116 0 155 98zM719 848q-137 0 -203 -193h342q4 18 4 52q0 141 -143 141z" />
<glyph unicode="&#x116;" horiz-adv-x="1257" d="M1231 885l-60 -283h-581l-64 -303h639l-61 -299h-1069l313 1475h1069l-65 -304h-639l-62 -286h580zM1126 1595h-417l65 299h418z" />
<glyph unicode="&#x117;" horiz-adv-x="1267" d="M788 338h402q-74 -168 -225.5 -268.5t-378.5 -100.5q-231 0 -370.5 128t-139.5 339q0 123 41 237.5t118.5 210t206.5 154t291 58.5q229 0 368.5 -124t139.5 -349q0 -86 -20 -177h-750q-2 -12 -2 -36q0 -170 164 -170q116 0 155 98zM719 848q-137 0 -203 -193h342 q4 18 4 52q0 141 -143 141zM1004 1194h-418l65 299h418z" />
<glyph unicode="&#x118;" horiz-adv-x="1257" d="M614 -539q-135 0 -215 62.5t-80 165.5q0 96 69 177t190 134h-543l313 1475h1069l-65 -304h-639l-62 -286h580l-60 -283h-581l-64 -303h639l-61 -299h-270q-248 -123 -248 -268q0 -37 22.5 -58.5t53.5 -21.5q53 0 75 53h271q-118 -244 -394 -244z" />
<glyph unicode="&#x119;" horiz-adv-x="1267" d="M602 -539q-135 0 -215 62.5t-80 165.5q0 174 203 284q-201 23 -317.5 147t-116.5 316q0 123 41 237.5t118.5 210t206.5 154t291 58.5q229 0 368.5 -124t139.5 -349q0 -86 -20 -177h-750q-2 -12 -2 -36q0 -170 164 -170q117 0 155 98h402q-51 -117 -131 -193.5 t-209 -130.5q-106 -45 -191.5 -122.5t-85.5 -159.5q0 -37 22.5 -58.5t53.5 -21.5q53 0 76 53h270q-117 -244 -393 -244zM719 848q-137 0 -203 -193h342q4 18 4 45q0 148 -143 148z" />
<glyph unicode="&#x11a;" horiz-adv-x="1257" d="M1231 885l-60 -283h-581l-64 -303h639l-61 -299h-1069l313 1475h1069l-65 -304h-639l-62 -286h580zM926 1913l47 -109l96 109h371l-348 -316h-314l-213 316h361z" />
<glyph unicode="&#x11b;" horiz-adv-x="1267" d="M788 338h402q-74 -168 -225.5 -268.5t-378.5 -100.5q-231 0 -370.5 128t-139.5 339q0 123 41 237.5t118.5 210t206.5 154t291 58.5q229 0 368.5 -124t139.5 -349q0 -86 -20 -177h-750q-2 -12 -2 -36q0 -170 164 -170q116 0 155 98zM719 848q-137 0 -203 -193h342 q4 18 4 52q0 141 -143 141zM791 1511l47 -108l96 108h371l-349 -315h-313l-213 315h361z" />
<glyph unicode="&#x11c;" horiz-adv-x="1579" d="M1581 840l-178 -840h-293l-23 135q-176 -166 -421 -166q-238 0 -392.5 160t-154.5 434q0 115 21.5 230.5t84 248t157.5 231.5t258 165.5t372 66.5q287 0 446.5 -132t159.5 -353h-424q-2 96 -59.5 144t-155.5 48q-111 0 -196 -67.5t-130 -171t-67.5 -206.5t-22.5 -196 q0 -154 66.5 -232.5t171.5 -78.5q129 0 217 67.5t110 176.5l13 59h-314l60 277h694zM1057 1714l-96 -117h-373l348 316h313l213 -316h-358z" />
<glyph unicode="&#x11d;" horiz-adv-x="1296" d="M-6 -43h397q10 -47 44 -68.5t104 -21.5q104 0 145 62.5t76 236.5q-137 -121 -293 -121q-174 0 -280.5 111.5t-106.5 300.5q0 281 168 460t416 179q94 0 174 -37t120 -98l80 104h308l-211 -991q-100 -473 -633 -473q-508 0 -508 356zM881 643q0 84 -43 128t-115 44 q-109 0 -173.5 -91t-64.5 -214q0 -84 44 -132t118 -48q106 0 170 93t64 220zM850 1313l-96 -117h-373l348 315h313l213 -315h-358z" />
<glyph unicode="&#x11e;" horiz-adv-x="1579" d="M1581 840l-178 -840h-293l-23 135q-176 -166 -421 -166q-238 0 -392.5 160t-154.5 434q0 115 21.5 230.5t84 248t157.5 231.5t258 165.5t372 66.5q287 0 446.5 -132t159.5 -353h-424q-2 96 -59.5 144t-155.5 48q-111 0 -196 -67.5t-130 -171t-67.5 -206.5t-22.5 -196 q0 -154 66.5 -232.5t171.5 -78.5q129 0 217 67.5t110 176.5l13 59h-314l60 277h694zM1057 1583q-143 0 -225 66.5t-82 197.5q0 14 4 47h282q-4 -29 -4 -39q0 -63 51 -63q61 0 86 102h285q-100 -311 -397 -311z" />
<glyph unicode="&#x11f;" horiz-adv-x="1296" d="M-6 -43h397q10 -47 44 -68.5t104 -21.5q104 0 145 62.5t76 236.5q-137 -121 -293 -121q-174 0 -280.5 111.5t-106.5 300.5q0 281 168 460t416 179q94 0 174 -37t120 -98l80 104h308l-211 -991q-100 -473 -633 -473q-508 0 -508 356zM881 643q0 84 -43 128t-115 44 q-109 0 -173.5 -91t-64.5 -214q0 -84 44 -132t118 -48q106 0 170 93t64 220zM825 1182q-143 0 -225 66.5t-82 197.5q0 14 4 47h283q-4 -29 -4 -39q0 -63 51 -63q61 0 86 102h285q-101 -311 -398 -311z" />
<glyph unicode="&#x120;" horiz-adv-x="1579" d="M1581 840l-178 -840h-293l-23 135q-176 -166 -421 -166q-238 0 -392.5 160t-154.5 434q0 115 21.5 230.5t84 248t157.5 231.5t258 165.5t372 66.5q287 0 446.5 -132t159.5 -353h-424q-2 96 -59.5 144t-155.5 48q-111 0 -196 -67.5t-130 -171t-67.5 -206.5t-22.5 -196 q0 -154 66.5 -232.5t171.5 -78.5q129 0 217 67.5t110 176.5l13 59h-314l60 277h694zM1255 1595h-417l65 299h418z" />
<glyph unicode="&#x121;" horiz-adv-x="1296" d="M-6 -43h397q10 -47 44 -68.5t104 -21.5q104 0 145 62.5t76 236.5q-137 -121 -293 -121q-174 0 -280.5 111.5t-106.5 300.5q0 281 168 460t416 179q94 0 174 -37t120 -98l80 104h308l-211 -991q-100 -473 -633 -473q-508 0 -508 356zM881 643q0 84 -43 128t-115 44 q-109 0 -173.5 -91t-64.5 -214q0 -84 44 -132t118 -48q106 0 170 93t64 220zM1030 1194h-418l66 299h418z" />
<glyph unicode="&#x122;" horiz-adv-x="1579" d="M1581 840l-178 -840h-293l-23 135q-176 -166 -421 -166q-238 0 -392.5 160t-154.5 434q0 115 21.5 230.5t84 248t157.5 231.5t258 165.5t372 66.5q287 0 446.5 -132t159.5 -353h-424q-2 96 -59.5 144t-155.5 48q-111 0 -196 -67.5t-130 -171t-67.5 -206.5t-22.5 -196 q0 -154 66.5 -232.5t171.5 -78.5q129 0 217 67.5t110 176.5l13 59h-314l60 277h694zM895 -98l-51 -246q-41 -195 -153.5 -286t-321.5 -111l37 168q156 25 186 170h-100l65 305h338z" />
<glyph unicode="&#x123;" horiz-adv-x="1296" d="M-6 -43h397q10 -47 44 -68.5t104 -21.5q104 0 145 62.5t76 236.5q-137 -121 -293 -121q-174 0 -280.5 111.5t-106.5 300.5q0 281 168 460t416 179q94 0 174 -37t120 -98l80 104h308l-211 -991q-100 -473 -633 -473q-508 0 -508 356zM881 643q0 84 -43 128t-115 44 q-109 0 -173.5 -91t-64.5 -214q0 -84 44 -132t118 -48q106 0 170 93t64 220zM631 1180l55 256q43 195 151.5 280.5t321.5 106.5l-37 -168q-158 -29 -188 -170h100l-65 -305h-338z" />
<glyph unicode="&#x124;" horiz-adv-x="1536" d="M1225 1475h426l-314 -1475h-426l125 600h-448l-125 -600h-428l313 1475h428l-125 -584h449zM1051 1714l-97 -117h-372l348 316h313l213 -316h-358z" />
<glyph unicode="&#x125;" horiz-adv-x="1243" d="M12 0l314 1475h395l-107 -498q135 119 306 119q150 0 232.5 -80t82.5 -225q0 -70 -14 -132l-142 -659h-397l139 657q8 41 8 60q0 106 -100 106q-72 0 -122 -53t-66 -139l-133 -631h-396zM844 1714l-96 -117h-373l348 316h313l213 -316h-358z" />
<glyph unicode="&#x126;" horiz-adv-x="1548" d="M1231 1475h426l-33 -156h98l-61 -279h-98l-220 -1040h-425l124 600h-448l-125 -600h-428l219 1040h-98l61 279h99l32 156h428l-32 -156h446zM688 1040l-31 -149h449l31 149h-449z" />
<glyph unicode="&#x127;" horiz-adv-x="1243" d="M12 0l244 1143h-90l55 266h90l15 66h395l-14 -66h208l-57 -266h-207l-37 -166q135 119 306 119q150 0 232.5 -80t82.5 -225q0 -68 -14 -132l-142 -659h-397l141 664q6 25 6 53q0 106 -100 106q-72 0 -122 -53t-66 -139l-133 -631h-396z" />
<glyph unicode="&#x128;" horiz-adv-x="661" d="M348 1475h428l-313 -1475h-428zM723 1591q-63 0 -141 37t-121 37q-68 0 -201 -68l53 256q113 59 209 60q63 0 141 -38t121 -38q59 0 195 68l-55 -256q-109 -58 -201 -58z" />
<glyph unicode="&#x129;" horiz-adv-x="604" d="M612 1190q-63 0 -141 37t-121 37q-68 0 -200 -68l53 256q113 59 209 59q63 0 141 -37.5t121 -37.5q59 0 194 67l-55 -256q-109 -57 -201 -57zM418 0h-395l225 1065h395z" />
<glyph unicode="&#x12a;" horiz-adv-x="661" d="M348 1475h428l-313 -1475h-428zM885 1612h-592l55 262h592z" />
<glyph unicode="&#x12b;" horiz-adv-x="604" d="M774 1210h-592l56 263h591zM418 0h-395l225 1065h395z" />
<glyph unicode="&#x12c;" horiz-adv-x="661" d="M606 1628q-143 0 -225 66.5t-82 197.5q0 14 4 47h283q-4 -29 -5 -39q0 -63 52 -63q61 0 86 102h284q-100 -311 -397 -311zM348 1475h428l-313 -1475h-428z" />
<glyph unicode="&#x12d;" horiz-adv-x="604" d="M489 1219q-143 0 -225 66.5t-82 197.5q0 14 4 47h283q-4 -29 -5 -39q0 -63 52 -63q61 0 86 102h284q-100 -311 -397 -311zM418 0h-395l225 1065h395z" />
<glyph unicode="&#x12e;" horiz-adv-x="673" d="M66 -539q-135 0 -215 62.5t-80 165.5q0 98 71.5 181t198.5 134l313 1471h428l-313 -1475h-184q-248 -121 -248 -268q0 -37 21.5 -58.5t52.5 -21.5q53 0 77 53h271q-121 -244 -393 -244z" />
<glyph unicode="&#x12f;" horiz-adv-x="604" d="M33 -539q-135 0 -216 62.5t-81 165.5q0 100 76.5 185t212.5 138l223 1053h395l-225 -1065h-168q-246 -123 -246 -268q0 -37 21.5 -58.5t52.5 -21.5q53 0 76 53h272q-121 -244 -393 -244zM678 1176h-418l64 299h419z" />
<glyph unicode="&#x130;" horiz-adv-x="661" d="M348 1475h428l-313 -1475h-428zM793 1595h-418l65 299h418z" />
<glyph unicode="&#x131;" horiz-adv-x="604" d="M418 0h-395l225 1065h395z" />
<glyph unicode="&#x132;" horiz-adv-x="1875" d="M709 471h412q-6 -41 -6 -70q0 -72 31.5 -104.5t76.5 -32.5q53 0 88 38t56 134l221 1039h413l-217 -1014q-53 -250 -190 -371t-393 -121q-225 0 -361.5 107.5t-136.5 318.5q0 35 6 76zM348 1475h428l-313 -1475h-428z" />
<glyph unicode="&#x133;" horiz-adv-x="1200" d="M356 -365l60 279q55 -20 98 -20q45 0 69.5 20t34.5 72l230 1079h395l-231 -1100q-78 -365 -433 -364q-129 -1 -223 34zM1278 1169h-418l63 299h418zM678 1176h-418l64 299h419zM418 0h-395l225 1065h395z" />
<glyph unicode="&#x134;" horiz-adv-x="1214" d="M47 471h412q-6 -41 -6 -70q0 -72 31.5 -104.5t76.5 -32.5q53 0 88 38t56 134l221 1039h413l-217 -1014q-53 -250 -190 -371t-393 -121q-225 0 -361.5 107.5t-136.5 318.5q0 35 6 76zM1171 1714l-96 -117h-373l349 316h313l213 -316h-358z" />
<glyph unicode="&#x135;" horiz-adv-x="595" d="M-248 -369l60 279q53 -20 96 -21q47 0 70.5 20.5t33.5 72.5l232 1083h395l-233 -1102q-78 -362 -431 -362q-135 -1 -223 30zM483 1313l-96 -117h-373l348 315h314l213 -315h-359z" />
<glyph unicode="&#x136;" horiz-adv-x="1558" d="M1477 0h-510l-385 565l-119 -565h-428l313 1475h428l-114 -535l565 535h493l-786 -717zM813 -98l-51 -246q-41 -195 -153.5 -286t-321.5 -111l37 168q156 25 186 170h-100l65 305h338z" />
<glyph unicode="&#x137;" horiz-adv-x="1275" d="M408 0h-396l314 1475h395l-158 -740l373 330h461l-559 -473l364 -592h-481l-227 412zM694 -98l-51 -246q-41 -195 -153.5 -286t-321.5 -111l37 168q156 25 186 170h-100l65 305h338z" />
<glyph unicode="&#x138;" horiz-adv-x="1275" d="M408 0h-396l226 1065h395l-70 -336l377 336h457l-561 -475l366 -590h-471l-237 406z" />
<glyph unicode="&#x139;" horiz-adv-x="1288" d="M348 1475h428l-248 -1166h701l-64 -309h-1130zM326 1585l288 316h410l-395 -316h-303z" />
<glyph unicode="&#x13a;" horiz-adv-x="585" d="M723 1475l-313 -1475h-398l314 1475h397zM258 1585l289 316h409l-395 -316h-303z" />
<glyph unicode="&#x13b;" horiz-adv-x="1288" d="M348 1475h428l-248 -1166h701l-64 -309h-1130zM721 -98l-51 -246q-41 -195 -154 -286t-321 -111l36 168q156 25 187 170h-101l66 305h338z" />
<glyph unicode="&#x13c;" horiz-adv-x="585" d="M723 1475l-313 -1475h-398l314 1475h397zM360 -98l-51 -246q-41 -195 -153.5 -286t-321.5 -111l37 168q156 25 186 170h-100l66 305h337z" />
<glyph unicode="&#x13d;" horiz-adv-x="1288" d="M348 1475h428l-248 -1166h701l-64 -309h-1130zM1272 1475l-51 -244q-41 -195 -154 -286t-322 -114l35 168q158 29 189 172h-101l66 304h338z" />
<glyph unicode="&#x13e;" horiz-adv-x="991" d="M723 1475l-313 -1475h-398l314 1475h397zM1184 1475l-51 -244q-41 -195 -154 -286t-322 -114l35 168q158 29 189 172h-101l66 304h338z" />
<glyph unicode="&#x13f;" horiz-adv-x="1288" d="M913 574h-416l78 358h416zM348 1475h428l-248 -1166h701l-64 -309h-1130z" />
<glyph unicode="&#x140;" horiz-adv-x="1191" d="M1108 451h-416l78 358h416zM723 1475l-313 -1475h-398l314 1475h397z" />
<glyph unicode="&#x141;" horiz-adv-x="1296" d="M356 1475h428l-79 -375l188 100l-72 -342l-188 -100l-96 -451h700l-63 -307h-1131l107 504l-136 -72l72 342l135 72z" />
<glyph unicode="&#x142;" horiz-adv-x="620" d="M737 1475l-84 -388l105 58l-74 -342l-102 -58l-158 -745h-397l104 498l-94 -52l72 340l94 52l137 637h397z" />
<glyph unicode="&#x143;" horiz-adv-x="1531" d="M1282 1475h365l-314 -1475h-418l-323 918l-193 -918h-364l313 1475h445l303 -873zM858 1585l289 316h409l-395 -316h-303z" />
<glyph unicode="&#x144;" horiz-adv-x="1243" d="M12 0l226 1065h335l7 -119q70 70 162 110t178 40q150 0 232.5 -80t82.5 -225q0 -68 -14 -132l-142 -659h-397l141 659q8 37 8 62q0 49 -28.5 75.5t-73.5 26.5q-72 0 -122 -53t-66 -139l-133 -631h-396zM608 1184l289 315h410l-396 -315h-303z" />
<glyph unicode="&#x145;" horiz-adv-x="1531" d="M1282 1475h365l-314 -1475h-418l-323 918l-193 -918h-364l313 1475h445l303 -873zM846 -98l-51 -246q-41 -195 -154 -286t-322 -111l37 168q156 25 187 170h-101l66 305h338z" />
<glyph unicode="&#x146;" horiz-adv-x="1243" d="M12 0l226 1065h335l7 -119q70 70 162 110t178 40q150 0 232.5 -80t82.5 -225q0 -68 -14 -132l-142 -659h-397l141 659q8 37 8 62q0 49 -28.5 75.5t-73.5 26.5q-72 0 -122 -53t-66 -139l-133 -631h-396zM702 -98l-51 -246q-41 -195 -153.5 -286t-321.5 -111l37 168 q156 25 186 170h-100l66 305h337z" />
<glyph unicode="&#x147;" horiz-adv-x="1531" d="M1282 1475h365l-314 -1475h-418l-323 918l-193 -918h-364l313 1475h445l303 -873zM1022 1913l47 -109l96 109h371l-348 -316h-314l-212 316h360z" />
<glyph unicode="&#x148;" horiz-adv-x="1243" d="M12 0l226 1065h335l7 -119q70 70 162 110t178 40q150 0 232.5 -80t82.5 -225q0 -68 -14 -132l-142 -659h-397l141 659q8 37 8 62q0 49 -28.5 75.5t-73.5 26.5q-72 0 -122 -53t-66 -139l-133 -631h-396zM799 1511l47 -108l96 108h371l-348 -315h-314l-213 315h361z" />
<glyph unicode="&#x14a;" horiz-adv-x="1531" d="M1282 1475h365l-322 -1512q-78 -362 -432 -362q-127 0 -221 32l59 277q53 -20 100 -21q63 0 97.5 28t34.5 73v10h-48l-325 915l-193 -915h-362l313 1475h443l305 -873z" />
<glyph unicode="&#x14b;" horiz-adv-x="1243" d="M12 0l226 1065h335l7 -119q70 70 162 110t178 40q150 0 232.5 -80t82.5 -225q0 -68 -14 -132l-150 -698q-76 -360 -430 -360q-131 0 -223 30l59 279q55 -20 98 -21q45 0 69 20.5t34 70.5l145 679q8 37 8 62q0 49 -28.5 75.5t-73.5 26.5q-72 0 -122 -53t-66 -139 l-133 -631h-396z" />
<glyph unicode="&#x14c;" horiz-adv-x="1640" d="M821 270q88 0 161 43t118 109.5t76.5 151.5t45 163t13.5 150q0 162 -78 240.5t-188 78.5q-113 0 -199 -67.5t-130 -170t-65.5 -200.5t-21.5 -182q0 -160 78.5 -238t189.5 -78zM786 -31q-131 0 -248.5 37t-213 110.5t-151.5 194.5t-56 275q0 115 22.5 229.5t84 242.5 t155.5 224t254 159.5t362 63.5q129 0 246 -36.5t214 -108.5t154.5 -194t57.5 -275q0 -117 -23.5 -234.5t-86 -244.5t-157.5 -222.5t-254 -158t-360 -62.5zM1372 1612h-592l56 262h591z" />
<glyph unicode="&#x14d;" horiz-adv-x="1288" d="M739 1096q242 0 389.5 -118t147.5 -333q0 -133 -39 -251t-118 -215t-211 -153.5t-304 -56.5q-238 0 -384 119t-146 338q0 88 17.5 173t63.5 177t118.5 162t192 114t273.5 44zM719 834q-72 0 -123 -48.5t-73.5 -122t-33 -135t-10.5 -114.5q0 -182 158 -183q70 0 121 49.5 t73.5 124t32.5 138t10 119.5q1 172 -155 172zM1114 1210h-592l56 263h591z" />
<glyph unicode="&#x14e;" horiz-adv-x="1638" d="M1032 1628q-143 0 -225 66.5t-82 197.5q0 14 4 47h283q-4 -29 -5 -39q0 -63 52 -63q61 0 86 102h284q-100 -311 -397 -311zM821 270q88 0 161 43t118 109.5t76.5 151.5t45 163t13.5 150q0 162 -78 240.5t-188 78.5q-113 0 -199 -67.5t-130 -170t-65.5 -200.5t-21.5 -182 q0 -160 78.5 -238t189.5 -78zM786 -31q-131 0 -248.5 37t-213 110.5t-151.5 194.5t-56 275q0 115 22.5 229.5t84 242.5t155.5 224t254 159.5t362 63.5q129 0 246 -36.5t214 -108.5t154.5 -194t57.5 -275q0 -117 -23.5 -234.5t-86 -244.5t-157.5 -222.5t-254 -158t-360 -62.5 z" />
<glyph unicode="&#x14f;" horiz-adv-x="1288" d="M776 1219q-143 0 -225 66.5t-82 197.5q0 14 4 47h283q-4 -29 -5 -39q0 -63 52 -63q61 0 86 102h284q-100 -311 -397 -311zM739 1096q242 0 389.5 -118t147.5 -333q0 -133 -39 -251t-118 -215t-211 -153.5t-304 -56.5q-238 0 -384 119t-146 338q0 88 17.5 173t63.5 177 t118.5 162t192 114t273.5 44zM719 834q-72 0 -123 -48.5t-73.5 -122t-33 -135t-10.5 -114.5q0 -182 158 -183q70 0 121 49.5t73.5 124t32.5 138t10 119.5q1 172 -155 172z" />
<glyph unicode="&#x150;" horiz-adv-x="1638" d="M821 270q88 0 161 43t118 109.5t76.5 151.5t45 163t13.5 150q0 162 -78 240.5t-188 78.5q-113 0 -199 -67.5t-130 -170t-65.5 -200.5t-21.5 -182q0 -160 78.5 -238t189.5 -78zM786 -31q-131 0 -248.5 37t-213 110.5t-151.5 194.5t-56 275q0 115 22.5 229.5t84 242.5 t155.5 224t254 159.5t362 63.5q129 0 246 -36.5t214 -108.5t154.5 -194t57.5 -275q0 -117 -23.5 -234.5t-86 -244.5t-157.5 -222.5t-254 -158t-360 -62.5zM649 1585l287 316h407l-395 -316h-299zM1155 1585l287 316h407l-395 -316h-299z" />
<glyph unicode="&#x151;" horiz-adv-x="1288" d="M739 1096q242 0 389.5 -118t147.5 -333q0 -133 -39 -251t-118 -215t-211 -153.5t-304 -56.5q-238 0 -384 119t-146 338q0 88 17.5 173t63.5 177t118.5 162t192 114t273.5 44zM719 834q-72 0 -123 -48.5t-73.5 -122t-33 -135t-10.5 -114.5q0 -182 158 -183q70 0 121 49.5 t73.5 124t32.5 138t10 119.5q1 172 -155 172zM393 1184l287 315h407l-395 -315h-299zM899 1184l287 315h407l-395 -315h-299z" />
<glyph unicode="&#x152;" horiz-adv-x="2011" d="M1985 885l-62 -285h-514l-66 -301h576l-61 -299h-900q-123 -31 -235 -31q-262 0 -435 151.5t-173 444.5q0 145 32.5 280.5t105.5 256.5t177.5 210t257 141t338.5 52q137 0 254 -30h891l-66 -304h-575l-62 -286h517zM795 270q61 0 120 23l187 887q-45 25 -119 24 q-117 0 -206 -63.5t-136 -163.5t-69.5 -203.5t-22.5 -204.5q0 -152 68.5 -225.5t177.5 -73.5z" />
<glyph unicode="&#x153;" horiz-adv-x="2048" d="M1569 338h401q-76 -168 -228.5 -268.5t-377.5 -100.5q-217 0 -358 131q-166 -131 -408 -131q-236 0 -381 123t-145 340q0 270 177 467t494 197q227 0 377 -133q174 133 396 133q229 0 367 -123t138 -350q0 -70 -20 -177h-752q-2 -12 -2 -36q0 -172 164 -172 q115 0 158 100zM727 831q-72 0 -124 -41.5t-77.5 -107.5t-37 -129.5t-11.5 -124.5q0 -197 146 -197q111 0 181 114t70 314q0 172 -147 172zM1495 846q-137 0 -201 -193h344q4 37 4 52q0 70 -38.5 105.5t-108.5 35.5z" />
<glyph unicode="&#x154;" horiz-adv-x="1492" d="M1401 0h-492l-211 512h-127l-108 -512h-428l313 1475h563q287 0 438.5 -103.5t151.5 -290.5q0 -358 -385 -493zM858 1184h-143l-82 -381h178q104 0 174 61.5t70 169.5q0 72 -51.5 111t-145.5 39zM758 1585l289 316h409l-395 -316h-303z" />
<glyph unicode="&#x155;" horiz-adv-x="870" d="M410 0h-398l226 1065h340v-164q123 195 296 195q68 0 132 -17l-76 -352q-80 25 -150 25q-100 0 -174 -81t-106 -241zM446 1184l289 315h410l-395 -315h-304z" />
<glyph unicode="&#x156;" horiz-adv-x="1492" d="M1401 0h-492l-211 512h-127l-108 -512h-428l313 1475h563q287 0 438.5 -103.5t151.5 -290.5q0 -358 -385 -493zM858 1184h-143l-82 -381h178q104 0 174 61.5t70 169.5q0 72 -51.5 111t-145.5 39zM801 -98l-51 -246q-41 -195 -154 -286t-322 -111l37 168q156 25 187 170 h-101l66 305h338z" />
<glyph unicode="&#x157;" horiz-adv-x="870" d="M410 0h-398l226 1065h340v-164q123 195 296 195q68 0 132 -17l-76 -352q-80 25 -150 25q-100 0 -174 -81t-106 -241zM356 -98l-51 -246q-41 -195 -153.5 -286t-321.5 -111l37 168q156 25 186 170h-100l65 305h338z" />
<glyph unicode="&#x158;" horiz-adv-x="1492" d="M1401 0h-492l-211 512h-127l-108 -512h-428l313 1475h563q287 0 438.5 -103.5t151.5 -290.5q0 -358 -385 -493zM858 1184h-143l-82 -381h178q104 0 174 61.5t70 169.5q0 72 -51.5 111t-145.5 39zM899 1913l47 -109l96 109h371l-348 -316h-313l-213 316h360z" />
<glyph unicode="&#x159;" horiz-adv-x="870" d="M410 0h-398l226 1065h340v-164q123 195 296 195q68 0 132 -17l-76 -352q-80 25 -150 25q-100 0 -174 -81t-106 -241zM616 1511l48 -108l96 108h370l-348 -315h-313l-213 315h360z" />
<glyph unicode="&#x15a;" horiz-adv-x="1390" d="M670 -31q-305 0 -463 137.5t-158 335.5v23h414q0 -98 60.5 -151.5t181.5 -53.5q227 0 227 154q0 72 -64.5 116.5t-228.5 79.5q-197 41 -314.5 156t-117.5 278q0 461 641 461q272 0 436 -126t164 -337h-404q0 86 -61 129t-162 43q-170 0 -170 -120q0 -117 236 -170 q485 -113 485 -445q0 -510 -702 -510zM678 1585l289 316h409l-395 -316h-303z" />
<glyph unicode="&#x15b;" horiz-adv-x="1153" d="M569 229q127 0 127 76q0 41 -39 66.5t-143 44.5q-387 72 -387 321q0 358 524 359q219 0 360.5 -97.5t141.5 -250.5h-385q-10 90 -141 90q-96 0 -97 -64q0 -76 183 -110q391 -76 391 -310q0 -385 -551 -385q-229 0 -375.5 98.5t-146.5 254.5h387q4 -39 43.5 -66t107.5 -27 zM473 1184l289 315h409l-395 -315h-303z" />
<glyph unicode="&#x15c;" horiz-adv-x="1390" d="M670 -31q-305 0 -463 137.5t-158 335.5v23h414q0 -98 60.5 -151.5t181.5 -53.5q227 0 227 154q0 72 -64.5 116.5t-228.5 79.5q-197 41 -314.5 156t-117.5 278q0 461 641 461q272 0 436 -126t164 -337h-404q0 86 -61 129t-162 43q-170 0 -170 -120q0 -117 236 -170 q485 -113 485 -445q0 -510 -702 -510zM903 1714l-96 -117h-373l348 316h314l213 -316h-359z" />
<glyph unicode="&#x15d;" horiz-adv-x="1153" d="M569 229q127 0 127 76q0 41 -39 66.5t-143 44.5q-387 72 -387 321q0 358 524 359q219 0 360.5 -97.5t141.5 -250.5h-385q-10 90 -141 90q-96 0 -97 -64q0 -76 183 -110q391 -76 391 -310q0 -385 -551 -385q-229 0 -375.5 98.5t-146.5 254.5h387q4 -39 43.5 -66t107.5 -27 zM737 1313l-96 -117h-373l348 315h314l213 -315h-359z" />
<glyph unicode="&#x15e;" horiz-adv-x="1390" d="M770 -72q80 -18 122 -69.5t42 -118.5q0 -131 -100.5 -209t-264.5 -78q-152 0 -242.5 67.5t-90.5 180.5v18h260q0 -33 22.5 -55t67.5 -22q86 0 86 73q0 80 -180 80l55 182q-246 27 -372 158t-126 307v23h414q0 -205 242 -205q227 0 227 154q0 72 -64.5 116.5t-228.5 79.5 q-197 41 -314.5 156t-117.5 278q0 461 641 461q272 0 436 -126t164 -337h-404q0 86 -61 129t-162 43q-170 0 -170 -120q0 -117 236 -170q485 -113 485 -445q0 -469 -596 -506z" />
<glyph unicode="&#x15f;" horiz-adv-x="1153" d="M647 -27l-6 -45q80 -18 122 -69.5t42 -118.5q0 -131 -100.5 -209t-264.5 -78q-152 0 -244 67.5t-92 180.5v18h261q0 -33 22.5 -55t67.5 -22q88 0 88 73q0 80 -181 80l54 187q-176 25 -280.5 116.5t-104.5 223.5h387q4 -39 44 -66t107 -27q127 0 127 76q0 41 -39 66.5 t-143 44.5q-387 72 -387 321q0 358 524 359q219 0 360.5 -97.5t141.5 -250.5h-385q-10 90 -141 90q-96 0 -97 -64q0 -76 183 -110q391 -76 391 -310q0 -348 -457 -381z" />
<glyph unicode="&#x160;" horiz-adv-x="1390" d="M670 -31q-305 0 -463 137.5t-158 335.5v23h414q0 -98 60.5 -151.5t181.5 -53.5q227 0 227 154q0 72 -64.5 116.5t-228.5 79.5q-197 41 -314.5 156t-117.5 278q0 461 641 461q272 0 436 -126t164 -337h-404q0 86 -61 129t-162 43q-170 0 -170 -120q0 -117 236 -170 q485 -113 485 -445q0 -510 -702 -510zM874 1913l48 -109l96 109h371l-349 -316h-313l-213 316h360z" />
<glyph unicode="&#x161;" horiz-adv-x="1153" d="M569 229q127 0 127 76q0 41 -39 66.5t-143 44.5q-387 72 -387 321q0 358 524 359q219 0 360.5 -97.5t141.5 -250.5h-385q-10 90 -141 90q-96 0 -97 -64q0 -76 183 -110q391 -76 391 -310q0 -385 -551 -385q-229 0 -375.5 98.5t-146.5 254.5h387q4 -39 43.5 -66t107.5 -27 zM686 1511l47 -108l96 108h371l-348 -315h-313l-213 315h360z" />
<glyph unicode="&#x162;" horiz-adv-x="1302" d="M1524 1475l-66 -310h-432l-246 -1165h-428l246 1165h-422l66 310h1282zM715 -98l-51 -246q-41 -195 -154 -286t-322 -111l37 168q156 25 187 170h-101l66 305h338z" />
<glyph unicode="&#x163;" horiz-adv-x="813" d="M758 268l-56 -266q-131 -33 -227 -33q-154 0 -238.5 72t-84.5 199q0 37 10 88l100 469h-156l58 268h153l78 256h373l-53 -256h211l-58 -268h-211l-98 -463q-4 -16 -4 -33q0 -55 76 -55q47 -1 127 22zM485 -98l-51 -246q-41 -195 -153.5 -286t-321.5 -111l37 168 q156 25 186 170h-100l65 305h338z" />
<glyph unicode="&#x164;" horiz-adv-x="1302" d="M1524 1475l-66 -310h-432l-246 -1165h-428l246 1165h-422l66 310h1282zM895 1913l47 -109l96 109h371l-348 -316h-313l-213 316h360z" />
<glyph unicode="&#x165;" horiz-adv-x="1021" d="M1309 1501l-39 -178q-47 -215 -352 -227l26 121q76 6 92 67h-59l45 217h287zM758 268l-56 -266q-131 -33 -227 -33q-154 0 -238.5 72t-84.5 199q0 37 10 88l100 469h-156l58 268h153l78 256h373l-53 -256h211l-58 -268h-211l-98 -463q-4 -16 -4 -33q0 -55 76 -55 q47 -1 127 22z" />
<glyph unicode="&#x166;" horiz-adv-x="1302" d="M1137 688h-211l-148 -688h-428l148 688h-211l57 279h211l43 198h-424l68 310h1282l-68 -310h-430l-43 -198h211z" />
<glyph unicode="&#x167;" horiz-adv-x="813" d="M758 268l-56 -266q-131 -33 -227 -33q-154 0 -238.5 72t-84.5 199q0 37 10 88l28 141h-106l57 264h107l14 64h-156l58 268h153l78 256h373l-53 -256h211l-58 -268h-211l-14 -64h160l-58 -264h-155l-31 -137q-4 -16 -4 -31q0 -55 76 -55q47 -1 127 22z" />
<glyph unicode="&#x168;" horiz-adv-x="1517" d="M334 1475h430l-211 -988q-8 -37 -8 -53q0 -80 54 -124t149 -44q221 0 268 213l211 996h415l-206 -971q-115 -535 -717 -535q-281 0 -441.5 117t-160.5 317q0 51 12 111zM1163 1591q-63 0 -141 37t-121 37q-68 0 -201 -68l54 256q113 59 209 60q61 0 139 -38t123 -38 q59 0 194 68l-55 -256q-109 -58 -201 -58z" />
<glyph unicode="&#x169;" d="M223 1065h395l-137 -653q-10 -51 -10 -68q0 -47 26.5 -74.5t73.5 -27.5q68 0 115 53t66 141l133 629h393l-225 -1065h-334l-8 109q-143 -139 -332 -140q-150 0 -230.5 79t-80.5 222q0 57 16 136zM924 1190q-63 0 -141 37t-121 37q-68 0 -201 -68l53 256q113 59 209 59 q63 0 141 -37.5t121 -37.5q59 0 195 67l-56 -256q-108 -57 -200 -57z" />
<glyph unicode="&#x16a;" horiz-adv-x="1517" d="M334 1475h430l-211 -988q-8 -37 -8 -53q0 -80 54 -124t149 -44q221 0 268 213l211 996h415l-206 -971q-115 -535 -717 -535q-281 0 -441.5 117t-160.5 317q0 51 12 111zM1311 1612h-592l55 262h592z" />
<glyph unicode="&#x16b;" d="M223 1065h395l-137 -653q-10 -51 -10 -68q0 -47 26.5 -74.5t73.5 -27.5q68 0 115 53t66 141l133 629h393l-225 -1065h-334l-8 109q-143 -139 -332 -140q-150 0 -230.5 79t-80.5 222q0 57 16 136zM1077 1210h-592l56 263h592z" />
<glyph unicode="&#x16c;" horiz-adv-x="1517" d="M334 1475h430l-211 -988q-8 -37 -8 -53q0 -80 54 -124t149 -44q221 0 268 213l211 996h415l-206 -971q-115 -535 -717 -535q-281 0 -441.5 117t-160.5 317q0 51 12 111zM1034 1583q-143 0 -225 66.5t-82 197.5q0 14 4 47h283q-4 -29 -4 -39q0 -63 51 -63q61 0 86 102h285 q-101 -311 -398 -311z" />
<glyph unicode="&#x16d;" d="M223 1065h395l-137 -653q-10 -51 -10 -68q0 -47 26.5 -74.5t73.5 -27.5q68 0 115 53t66 141l133 629h393l-225 -1065h-334l-8 109q-143 -139 -332 -140q-150 0 -230.5 79t-80.5 222q0 57 16 136zM791 1182q-143 0 -225.5 66.5t-82.5 197.5q0 14 4 47h283q-4 -29 -4 -39 q0 -63 51 -63q61 0 86 102h285q-100 -311 -397 -311z" />
<glyph unicode="&#x16e;" horiz-adv-x="1517" d="M334 1475h430l-211 -988q-8 -37 -8 -53q0 -80 54 -124t149 -44q221 0 268 213l211 996h415l-206 -971q-115 -535 -717 -535q-281 0 -441.5 117t-160.5 317q0 51 12 111zM1051 1858q-35 0 -57.5 -26t-22.5 -71q0 -76 65 -75q80 0 80 100q1 72 -65 72zM1065 2048 q147 0 227 -72.5t80 -181.5q0 -129 -91 -213t-259 -84q-147 0 -226 71.5t-79 180.5q0 129 91 214t257 85z" />
<glyph unicode="&#x16f;" d="M223 1065h395l-137 -653q-10 -51 -10 -68q0 -47 26.5 -74.5t73.5 -27.5q68 0 115 53t66 141l133 629h393l-225 -1065h-334l-8 109q-143 -139 -332 -140q-150 0 -230.5 79t-80.5 222q0 57 16 136zM831 1530q-35 0 -57 -25.5t-22 -70.5q0 -76 65 -76q80 0 80 100 q0 72 -66 72zM846 1720q147 0 227 -72.5t80 -181.5q0 -129 -91 -213t-259 -84q-147 0 -226 72t-79 180q0 129 91 214t257 85z" />
<glyph unicode="&#x170;" horiz-adv-x="1517" d="M334 1475h430l-211 -988q-8 -37 -8 -53q0 -80 54 -124t149 -44q221 0 268 213l211 996h415l-206 -971q-115 -535 -717 -535q-281 0 -441.5 117t-160.5 317q0 51 12 111zM598 1585l287 316h407l-395 -316h-299zM1104 1585l287 316h407l-395 -316h-299z" />
<glyph unicode="&#x171;" d="M223 1065h395l-137 -653q-10 -51 -10 -68q0 -47 26.5 -74.5t73.5 -27.5q68 0 115 53t66 141l133 629h393l-225 -1065h-334l-8 109q-143 -139 -332 -140q-150 0 -230.5 79t-80.5 222q0 57 16 136zM360 1184l287 315h408l-396 -315h-299zM866 1184l287 315h408l-396 -315 h-299z" />
<glyph unicode="&#x172;" horiz-adv-x="1517" d="M780 -539q-135 0 -215 62.5t-80 165.5q0 170 197 282q-264 8 -414.5 123t-150.5 309q0 51 12 111l205 961h430l-211 -988q-8 -37 -8 -53q0 -80 54 -124t149 -44q221 0 268 213l211 996h415l-206 -971q-39 -178 -131.5 -296t-260.5 -188q-113 -47 -202.5 -123.5 t-89.5 -164.5q0 -37 21.5 -58.5t51.5 -21.5q53 0 78 53h271q-122 -244 -394 -244z" />
<glyph unicode="&#x173;" d="M723 -539q-135 0 -215 62.5t-80 165t77 187.5t212 136l-6 97q-143 -139 -332 -140q-150 0 -230.5 79t-80.5 222q0 57 16 136l139 659h395l-143 -676q-4 -20 -4 -45q0 -47 26.5 -74.5t73.5 -27.5q66 0 114 53t67 141l131 629h395l-225 -1065h-111q-248 -121 -248 -268 q0 -37 22.5 -58.5t53.5 -21.5q51 0 76 53h270q-117 -244 -393 -244z" />
<glyph unicode="&#x174;" horiz-adv-x="2086" d="M1898 1475h420l-641 -1475h-473l-26 1024l-449 -1024h-459l-39 1475h426l-26 -957l420 957h450l25 -965zM1329 1714l-96 -117h-373l348 316h314l213 -316h-359z" />
<glyph unicode="&#x175;" horiz-adv-x="1759" d="M1497 1065h397l-518 -1065h-450l14 682l-293 -682h-438l-57 1065h397l-29 -678l297 678h420l-10 -674zM1081 1313l-96 -117h-373l349 315h313l213 -315h-359z" />
<glyph unicode="&#x176;" horiz-adv-x="1482" d="M1034 1745l-96 -117h-373l349 315h313l213 -315h-358zM864 0h-409l125 590l-349 885h449l168 -562l432 562h434l-725 -885z" />
<glyph unicode="&#x177;" horiz-adv-x="1216" d="M815 1336l-96 -117h-373l349 315h313l213 -315h-358zM950 1065h412l-614 -1079q-129 -223 -231.5 -304t-258.5 -81q-106 0 -219 32l57 267q92 -29 146 -29q45 0 76.5 27.5t68.5 101.5h-74l-170 1065h410l27 -782z" />
<glyph unicode="&#x178;" horiz-adv-x="1482" d="M864 0h-409l125 590l-349 885h449l168 -562l432 562h434l-725 -885zM938 1599h-352l63 295h352zM1427 1599h-354l64 295h354z" />
<glyph unicode="&#x179;" horiz-adv-x="1325" d="M1452 1200l-883 -903h678l-61 -297h-1223l60 279l882 899h-653l63 297h1196zM737 1585l289 316h410l-396 -316h-303z" />
<glyph unicode="&#x17a;" horiz-adv-x="1079" d="M1128 788l-596 -505h472l-60 -283h-991l57 276l606 506h-462l59 283h975zM567 1184l289 315h410l-396 -315h-303z" />
<glyph unicode="&#x17b;" horiz-adv-x="1325" d="M1452 1200l-883 -903h678l-61 -297h-1223l60 279l882 899h-653l63 297h1196zM1137 1595h-418l65 299h418z" />
<glyph unicode="&#x17c;" horiz-adv-x="1079" d="M1128 788l-596 -505h472l-60 -283h-991l57 276l606 506h-462l59 283h975zM948 1194h-418l66 299h418z" />
<glyph unicode="&#x17d;" horiz-adv-x="1325" d="M1452 1200l-883 -903h678l-61 -297h-1223l60 279l882 899h-653l63 297h1196zM911 1913l47 -109l97 109h370l-348 -316h-313l-213 316h360z" />
<glyph unicode="&#x17e;" horiz-adv-x="1079" d="M1128 788l-596 -505h472l-60 -283h-991l57 276l606 506h-462l59 283h975zM725 1511l47 -108l96 108h371l-348 -315h-313l-213 315h360z" />
<glyph unicode="&#x2c6;" horiz-adv-x="997" d="M700 1313l-96 -117h-373l349 315h313l213 -315h-358z" />
<glyph unicode="&#x2d8;" horiz-adv-x="823" d="M600 1182q-143 0 -225 66.5t-82 197.5q0 14 4 47h283q-4 -29 -5 -39q0 -63 52 -63q61 0 86 102h284q-100 -311 -397 -311z" />
<glyph unicode="&#x2da;" horiz-adv-x="757" d="M608 1530q-35 0 -57.5 -25.5t-22.5 -70.5q0 -76 66 -76q80 0 80 100q0 72 -66 72zM623 1720q147 0 227 -72.5t80 -181.5q0 -129 -91 -213t-259 -84q-147 0 -226.5 72t-79.5 180q0 129 91.5 214t257.5 85z" />
<glyph unicode="&#x2dc;" horiz-adv-x="776" d="M696 1190q-63 0 -141 37t-121 37q-68 0 -201 -68l54 256q113 59 209 59q61 0 139 -37.5t123 -37.5q59 0 194 67l-55 -256q-109 -57 -201 -57z" />
<glyph unicode="&#x2000;" horiz-adv-x="1024" />
<glyph unicode="&#x2001;" horiz-adv-x="2048" />
<glyph unicode="&#x2002;" horiz-adv-x="1024" />
<glyph unicode="&#x2003;" horiz-adv-x="2048" />
<glyph unicode="&#x2004;" horiz-adv-x="681" />
<glyph unicode="&#x2005;" horiz-adv-x="512" />
<glyph unicode="&#x2006;" horiz-adv-x="339" />
<glyph unicode="&#x2007;" horiz-adv-x="339" />
<glyph unicode="&#x2008;" horiz-adv-x="256" />
<glyph unicode="&#x2009;" horiz-adv-x="409" />
<glyph unicode="&#x200a;" horiz-adv-x="112" />
<glyph unicode="&#x2010;" horiz-adv-x="1105" d="M1032 799l-61 -287h-809l61 287h809z" />
<glyph unicode="&#x2011;" horiz-adv-x="1105" d="M1032 799l-61 -287h-809l61 287h809z" />
<glyph unicode="&#x2012;" horiz-adv-x="1105" d="M1032 799l-61 -287h-809l61 287h809z" />
<glyph unicode="&#x2013;" horiz-adv-x="921" d="M973 799l-62 -287h-848l60 287h850z" />
<glyph unicode="&#x2014;" horiz-adv-x="1312" d="M1364 799l-61 -287h-1240l60 287h1241z" />
<glyph unicode="&#x2018;" horiz-adv-x="552" d="M125 743l63 301q84 397 564 431l-41 -183q-184 -23 -217 -178h143l-80 -371h-432z" />
<glyph unicode="&#x2019;" horiz-adv-x="552" d="M733 1475l-69 -326q-45 -203 -182.5 -296t-372.5 -110l38 181q184 23 218 180h-142l78 371h432z" />
<glyph unicode="&#x201a;" horiz-adv-x="552" d="M498 371l-70 -326q-45 -203 -181 -296t-372 -109l37 180q186 23 219 180h-143l78 371h432z" />
<glyph unicode="&#x201c;" horiz-adv-x="1091" d="M139 743l70 326q45 203 181 296t376 110l-41 -183q-184 -23 -217 -178h143l-80 -371h-432zM664 743l69 326q43 203 180.5 296t376.5 110l-41 -183q-184 -23 -217 -178h144l-80 -371h-432z" />
<glyph unicode="&#x201d;" horiz-adv-x="1091" d="M733 1475l-69 -326q-43 -203 -180.5 -296t-374.5 -110l38 181q184 23 218 180h-142l78 371h432zM1257 1475l-69 -326q-45 -203 -182.5 -296t-372.5 -110l39 181q184 23 217 180h-141l77 371h432z" />
<glyph unicode="&#x201e;" horiz-adv-x="1077" d="M1022 371l-70 -326q-43 -203 -180 -296t-375 -109l39 180q186 23 219 180h-143l78 371h432zM498 371l-70 -326q-45 -203 -181 -296t-372 -109l37 180q186 23 219 180h-143l78 371h432z" />
<glyph unicode="&#x2022;" horiz-adv-x="686" d="M600 403h-524l102 488h527z" />
<glyph unicode="&#x2026;" horiz-adv-x="1861" d="M1686 0h-433l78 371h432zM444 0h-432l78 371h432zM1065 0h-432l78 371h432z" />
<glyph unicode="&#x202f;" horiz-adv-x="409" />
<glyph unicode="&#x2039;" horiz-adv-x="700" d="M279 176l-164 465l356 424h307l-284 -434l71 -455h-286z" />
<glyph unicode="&#x203a;" horiz-adv-x="700" d="M692 641l-344 -465h-305l268 455l-102 434h291z" />
<glyph unicode="&#x205f;" horiz-adv-x="512" />
<glyph unicode="&#x20ac;" d="M698 262q113 0 170 123h379q-72 -199 -222.5 -307.5t-371.5 -108.5q-205 0 -351 128t-163 376h-137l90 209h55q4 35 17 86h-98l90 209h67q176 487 658 487q219 0 359 -108.5t140 -284.5v-24h-379q-2 63 -44 93.5t-103 30.5q-147 0 -231 -194h362l-90 -209h-338 q-8 -29 -16 -86h321l-90 -209h-244q14 -211 170 -211z" />
<glyph unicode="&#x2122;" horiz-adv-x="1748" d="M1440 653h-209l-113 363v-363h-262v596h-141v-596h-277v596h-233v226h1009l125 -408l117 408h363v-822h-267v363z" />
<glyph unicode="&#xe000;" horiz-adv-x="1065" d="M0 1065h1065v-1065h-1065v1065z" />
<glyph unicode="&#xfb01;" horiz-adv-x="1292" d="M1169 1462l-57 -276q-145 33 -250 33q-72 0 -104.5 -26t-42.5 -83l-8 -45h634l-225 -1065h-397l168 797h-238l-168 -797h-395l168 797h-156l58 268h155l13 65q39 209 150.5 292t334.5 83q188 0 360 -43z" />
<glyph unicode="&#xfb02;" horiz-adv-x="1304" d="M1124 0h-397l254 1202q-78 16 -123 17q-125 0 -143 -109l-6 -45h139l-57 -268h-140l-170 -797h-395l170 797h-156l56 268h155l15 65q45 207 151.5 291t315.5 84q139 0 270 -30l379 18z" />
<glyph unicode="&#xfb03;" horiz-adv-x="1921" d="M713 1098l-6 -33h241l27 117q-78 16 -135 16q-61 0 -89 -22.5t-38 -77.5zM788 1485q215 0 373 -55q123 76 301 75q160 0 344 -41l-57 -274q-143 29 -246 29q-84 0 -115.5 -35t-44.5 -119h627l-225 -1065h-387l168 797h-240l-168 -797h-395l168 797h-242l-168 -797h-395 l168 797h-156l58 268h155l8 45q37 207 146.5 291t322.5 84z" />
<glyph unicode="&#xfb04;" horiz-adv-x="1941" d="M713 1098l-6 -33h241l27 117q-78 16 -135 16q-61 0 -89 -22.5t-38 -77.5zM788 1485q209 0 365 -53q115 74 301 73q127 0 248 -28l377 16l-318 -1493h-397l256 1206q-74 12 -127 13q-78 0 -102.5 -31t-47.5 -123h148l-55 -268h-150l-168 -797h-395l168 797h-242l-168 -797 h-395l168 797h-156l58 268h155l8 45q37 207 146.5 291t322.5 84z" />
</font>
</defs>
</svg>
