<?xml version="1.0" standalone="no"?>
<!DOCTYPE svg PUBLIC "-//W3C//DTD SVG 1.1//EN" "http://www.w3.org/Graphics/SVG/1.1/DTD/svg11.dtd" >
<svg xmlns="http://www.w3.org/2000/svg">
<metadata>
This is a custom SVG webfont generated by Font Squirrel.
Copyright   : Copyright c 2010 by Ralph du Carrois Erik Spiekermann  Botio Nikoltchev All rights reserved
Designer    : Ralph du Carrois Erik Spiekermann  Botio Nikoltchev
Foundry     : Ralph du Carrois Erik Spiekermann  Botio Nikoltchev
Foundry URL : httpedenspiekermanncom
</metadata>
<defs>
<font id="webfont2l378Jfz" horiz-adv-x="1228" >
<font-face units-per-em="2048" ascent="1618" descent="-430" />
<missing-glyph horiz-adv-x="458" />
<glyph unicode=" "  horiz-adv-x="458" />
<glyph unicode="&#x09;" horiz-adv-x="458" />
<glyph unicode="&#xa0;" horiz-adv-x="458" />
<glyph unicode="!" horiz-adv-x="661" d="M514 496h-369l-51 991h471zM545 0h-430v371h430v-371z" />
<glyph unicode="&#x22;" d="M422 1282l-33 -321h-254l-33 321v205h320v-205zM836 1282l-33 -321h-254l-33 321v205h320v-205z" />
<glyph unicode="#" d="M117 858v262h121l26 314h318l-29 -314h190l27 314h317l-28 -314h92v-262h-113l-28 -283h100v-262h-121l-26 -313h-316l25 313h-187l-28 -313h-316l25 313h-90v262h112l25 283h-96zM532 858l-28 -283h190l25 283h-187z" />
<glyph unicode="$" d="M1235 432q0 -168 -107.5 -294t-347.5 -158v-256h-340v262q-387 76 -448 467h411q33 -193 224 -193q180 0 180 123q0 74 -57.5 109.5t-225.5 76.5q-252 63 -366.5 172t-114.5 293q0 158 99.5 269.5t297.5 146.5v248h340v-248q195 -31 294.5 -139.5t129.5 -282.5h-399 q-16 86 -63.5 120t-125.5 34q-68 0 -106.5 -29t-38.5 -82q0 -68 44 -98.5t183 -61.5q287 -66 412 -176t125 -303z" />
<glyph unicode="%" horiz-adv-x="1740" d="M1372 1434l-702 -1434h-305l702 1434h305zM770 1110q0 -162 -97.5 -258t-267 -96t-267 96t-97.5 258t97.5 258t267 96t267 -96t97.5 -258zM500 1110q0 156 -94 156q-92 0 -92.5 -156t92.5 -156q94 0 94 156zM1700 323.5q0 -161.5 -97.5 -258t-267.5 -96.5t-267 96.5 t-97 258t97 258t267 96.5t267.5 -96.5t97.5 -258zM1427 323.5q0 155.5 -92 155.5q-94 0 -94 -155.5t94 -155.5q92 0 92 155.5z" />
<glyph unicode="&#x26;" horiz-adv-x="1402" d="M965 745l346 -47q-25 -190 -121 -354l178 -168l-238 -219l-149 141q-150 -129 -383 -129q-258 0 -395 107.5t-137 290.5q0 229 239 368q-88 88 -130 170t-42 187q0 154 111.5 263t339.5 109q225 0 334.5 -103.5t109.5 -248.5q0 -123 -62.5 -213t-183.5 -180l144 -129 q25 59 39 155zM633 240q84 0 143 53l-244 223q-63 -63 -63 -129q0 -72 47 -109.5t117 -37.5zM485 1100q0 -82 82 -166q113 88 113 178q0 115 -94 115q-101 0 -101 -127z" />
<glyph unicode="'" horiz-adv-x="552" d="M430 1282l-31 -321h-256l-32 321v205h319v-205z" />
<glyph unicode="(" horiz-adv-x="696" d="M397 657q0 -471 295 -1005h-325q-129 188 -225.5 457.5t-96.5 547.5q0 274 99.5 542.5t230.5 459.5h325q-303 -549 -303 -1002z" />
<glyph unicode=")" horiz-adv-x="696" d="M285 657q0 453 -303 1002h325q131 -193 230.5 -461t99.5 -541q0 -279 -96.5 -548t-225.5 -457h-325q295 534 295 1005z" />
<glyph unicode="*" horiz-adv-x="1017" d="M604 662l-98 235l-98 -235l-279 204l188 168l-254 21l109 327l217 -127l-59 250h344l-53 -252l223 129l106 -327l-256 -21l191 -170z" />
<glyph unicode="+" d="M455 1106h315v-307h307v-289h-307v-311h-315v311h-303v289h303v307z" />
<glyph unicode="," horiz-adv-x="552" d="M502 371v-285q0 -414 -469 -446v180q86 10 133 56t47 124h-143v371h432z" />
<glyph unicode="-" horiz-adv-x="1105" d="M946 799v-287h-809v287h809z" />
<glyph unicode="." horiz-adv-x="620" d="M526 0h-432v371h432v-371z" />
<glyph unicode="/" horiz-adv-x="696" d="M717 1505l-414 -1689h-336l414 1689h336z" />
<glyph unicode="0" d="M612 236q84 0 125 105t41 373.5t-42 378t-124 109.5q-80 0 -119.5 -109.5t-39.5 -378t39.5 -373.5t119.5 -105zM612 -31q-266 0 -415.5 186.5t-149.5 559.5q0 379 147.5 564t417.5 185q272 0 421 -184t149 -565q0 -373 -151 -559.5t-419 -186.5z" />
<glyph unicode="1" d="M489 0v1067l-317 -158v346l350 179h363v-1434h-396z" />
<glyph unicode="2" d="M475 1008h-405q29 209 187.5 332.5t383.5 123.5q236 0 376 -115.5t140 -297.5q0 -152 -79 -269.5t-308 -335.5l-149 -141h534v-305h-1044v305l346 316q176 160 237.5 247.5t61.5 178.5q0 66 -34 99.5t-91 33.5q-55 0 -97.5 -43t-58.5 -129z" />
<glyph unicode="3" d="M604.5 248q65.5 0 108.5 44t43 126q0 102 -54.5 149t-140.5 47h-166v260h168q76 0 121 45.5t45 131.5q0 68 -32.5 102.5t-88.5 34.5q-113 0 -141 -133h-383q29 193 174 301t371 108q229 0 364 -101t135 -280q0 -119 -65.5 -203.5t-179.5 -117.5q121 -33 198.5 -130 t77.5 -220q0 -213 -160.5 -328t-384.5 -115q-242 0 -392 122t-169 315h393q10 -74 51.5 -116t107 -42z" />
<glyph unicode="4" d="M485 1434h553v-893h148v-281h-148v-260h-381v260h-606v295zM657 541v34l31 525l-256 -559h225z" />
<glyph unicode="5" d="M63 401h383q33 -154 158 -153q72 0 116 58.5t44 170.5q0 229 -168 230q-94 0 -158 -78h-315l39 805h913v-273h-551l-14 -252q98 55 223 56q193 0 315.5 -126t122.5 -350q0 -238 -156.5 -379t-402.5 -141q-221 0 -368.5 111.5t-180.5 320.5z" />
<glyph unicode="6" d="M629 702q-76 0 -124 -64.5t-48 -172.5q0 -90 43 -153.5t116.5 -63.5t120.5 63.5t47 167.5q1 223 -155 223zM643 1196q-80 0 -135 -84t-70 -266q111 129 301 129q205 0 324 -126t119 -349q0 -231 -154 -381t-401 -150q-268 0 -424 181.5t-156 511.5q0 408 167 605t437 197 q207 0 341 -96t182 -256h-416q-27 84 -115 84z" />
<glyph unicode="7" d="M1137 1159l-525 -1159h-415l534 1145h-639v289h1045v-275z" />
<glyph unicode="8" d="M1139 1090q0 -201 -211 -328q258 -131 258 -354q0 -193 -150.5 -316t-419.5 -123q-266 0 -420.5 121t-154.5 307q0 127 61.5 210t186.5 141q-98 55 -148.5 130.5t-50.5 190.5q0 188 142.5 291.5t383.5 103.5q221 0 372 -97t151 -277zM774 408q0 82 -49 130t-131 83 q-139 -74 -139 -213q0 -76 46 -119t109 -43q68 0 116 43t48 119zM479 1067q0 -133 156 -188q113 57 113 184q0 76 -39 111.5t-92.5 35.5t-95.5 -32.5t-42 -110.5z" />
<glyph unicode="9" d="M604 727q76 0 122 64.5t46 173.5q0 227 -160 227q-168 0 -168 -225q0 -240 160 -240zM606 236q164 0 182 344q-109 -127 -288 -127q-217 0 -335 134t-118 363q0 233 159 373.5t402 140.5q270 0 422 -174t152 -514q0 -418 -154 -612.5t-430 -194.5q-215 0 -354.5 99.5 t-184.5 271.5h420q23 -104 127 -104z" />
<glyph unicode=":" horiz-adv-x="620" d="M526 694h-432v371h432v-371zM526 0h-432v371h432v-371z" />
<glyph unicode=";" horiz-adv-x="620" d="M526 694h-432v371h432v-371zM526 371v-285q0 -414 -469 -446v180q86 10 133.5 56t47.5 124h-144v371h432z" />
<glyph unicode="&#x3c;" d="M152 530v252l925 443v-344l-532 -230l532 -219v-344z" />
<glyph unicode="=" d="M1077 997v-286h-925v286h925zM1077 596v-287h-925v287h925z" />
<glyph unicode="&#x3e;" d="M1077 782v-252l-925 -442v344l530 219l-530 230v344z" />
<glyph unicode="?" horiz-adv-x="1138" d="M492 1096h-412q20 172 165.5 290.5t356.5 118.5q225 0 351 -98t126 -262q0 -115 -48 -199t-187 -248q-61 -72 -62 -211h-385q0 154 23.5 231t103.5 173q92 109 120 152.5t28 84.5q0 86 -78 86q-79 1 -102 -118zM809 0h-432v371h432v-371z" />
<glyph unicode="@" horiz-adv-x="1886" d="M1350 176q-104 0 -171 61.5t-71 135.5q-27 -70 -105.5 -123t-181.5 -53q-154 0 -236.5 104.5t-82.5 267.5q0 264 127 404.5t295 140.5q55 0 100 -23.5t61 -58.5l31 51h250l-61 -469q-12 -82 -13 -114q0 -106 70 -107q72 0 105.5 115t33.5 280q0 242 -125 358t-397 116 q-80 0 -157 -15.5t-158.5 -58.5t-142 -110.5t-99.5 -179.5t-39 -255q0 -172 50 -295t141.5 -188.5t197 -94t234.5 -28.5q139 0 317 55l61 -233q-178 -66 -395 -66q-182 0 -346 53.5t-292 155.5t-203.5 268t-75.5 373q0 186 57 336.5t148.5 247t212 161t242.5 91t247 26.5 q375 0 604 -189.5t229 -524.5q0 -260 -125.5 -437.5t-336.5 -177.5zM891 416q59 0 93 121.5t34 271.5q0 80 -63.5 80t-101.5 -99.5t-38 -232.5v-45q6 -96 76 -96z" />
<glyph unicode="A" horiz-adv-x="1515" d="M1522 0h-453l-94 322h-457l-94 -322h-430l541 1475h442zM750 1104l-150 -500h295z" />
<glyph unicode="B" horiz-adv-x="1406" d="M117 1475h538q332 0 482.5 -95.5t150.5 -294.5q0 -104 -69.5 -186t-178.5 -115q137 -27 221.5 -122t84.5 -232q0 -211 -154 -320.5t-492 -109.5h-583v1475zM723 639h-178v-360h168q203 0 202 174q0 88 -52 137t-140 49zM686 1196h-141v-297h147q168 0 168 154 q0 68 -47 105.5t-127 37.5z" />
<glyph unicode="C" horiz-adv-x="1564" d="M795 262q248 0 272 303h432q-76 -596 -711 -596q-326 0 -522 201t-196 571q0 367 195.5 565.5t539.5 198.5q274 0 457.5 -141t226.5 -399h-426q-51 248 -258 247q-135 0 -214 -114.5t-79 -356.5q0 -244 78 -361.5t205 -117.5z" />
<glyph unicode="D" horiz-adv-x="1548" d="M117 1475h590q772 0 772 -737.5t-768 -737.5h-594v1475zM707 1184h-162v-891h166q158 0 248 109.5t90 335t-91 336t-251 110.5z" />
<glyph unicode="E" horiz-adv-x="1257" d="M1126 885v-283h-581v-303h641v-299h-1069v1475h1069v-304h-641v-286h581z" />
<glyph unicode="F" horiz-adv-x="1189" d="M1065 856v-283h-520v-573h-428v1475h1011v-299h-583v-320h520z" />
<glyph unicode="G" horiz-adv-x="1581" d="M1485 840v-840h-291l-51 135q-141 -166 -412 -166q-285 0 -473 203t-188 569q0 369 199.5 566.5t547.5 197.5q256 0 437.5 -121.5t230.5 -363.5h-424q-47 193 -244 192q-137 0 -221 -113.5t-84 -357.5q0 -242 87 -361.5t222 -119.5q123 0 204 68.5t81 175.5v59h-315v277 h694z" />
<glyph unicode="H" horiz-adv-x="1536" d="M993 1475h426v-1475h-426v600h-448v-600h-428v1475h428v-584h448v584z" />
<glyph unicode="I" horiz-adv-x="661" d="M117 1475h428v-1475h-428v1475z" />
<glyph unicode="J" horiz-adv-x="1214" d="M29 469h411q12 -205 133 -205q119 0 119 180v1031h416v-996q0 -242 -134 -376t-394 -134q-231 0 -378.5 126t-172.5 374z" />
<glyph unicode="K" horiz-adv-x="1558" d="M1559 0h-545l-469 553v-553h-428v1475h428v-535l452 535h492l-621 -693z" />
<glyph unicode="L" horiz-adv-x="1288" d="M117 1475h428v-1166h702v-309h-1130v1475z" />
<glyph unicode="M" horiz-adv-x="1875" d="M1104 0h-344l-281 831v-831h-362v1475h456l365 -1072l356 1072h465v-1475h-383v813z" />
<glyph unicode="N" horiz-adv-x="1531" d="M1051 1475h364v-1475h-424l-510 909v-909h-364v1475h450l484 -867v867z" />
<glyph unicode="O" horiz-adv-x="1644" d="M821 270q137 0 229.5 111t92.5 356.5t-92.5 357t-229.5 111.5q-139 0 -229 -111.5t-90 -359.5q0 -244 92 -354.5t227 -110.5zM821.5 -31q-147.5 0 -276.5 41t-238.5 127t-173 239.5t-63.5 358.5q0 201 63.5 354.5t172 241.5t238.5 131t277 43q150 0 279 -41t238.5 -128 t173 -240.5t63.5 -358.5q0 -201 -63.5 -354.5t-173 -240.5t-239.5 -130t-277.5 -43z" />
<glyph unicode="P" horiz-adv-x="1415" d="M117 1475h567q352 0 512 -124t160 -380q0 -254 -161 -378t-499 -124h-153v-469h-426v1475zM688 1186h-145v-430h155q106 0 166 56t60 159q0 215 -236 215z" />
<glyph unicode="Q" horiz-adv-x="1673" d="M821 -31q-147 0 -276 41t-238.5 127t-173 239.5t-63.5 358.5q0 201 63.5 354.5t172 241.5t238.5 131t277 43q150 0 279 -41t238.5 -128t173 -240.5t63.5 -358.5q0 -369 -215 -573l244 -258l-347 -234l-198 328q-113 -31 -238 -31zM821 270q137 0 229.5 111t92.5 356.5 t-92.5 357t-229.5 111.5q-139 0 -229 -111.5t-90 -359.5q0 -244 92 -354.5t227 -110.5z" />
<glyph unicode="R" horiz-adv-x="1476" d="M1466 0h-503l-318 512h-117v-512h-428v1475h580q330 0 496.5 -123t166.5 -357q0 -289 -278 -407zM684 1184h-156v-381h170q90 0 147.5 52t57.5 140q0 189 -219 189z" />
<glyph unicode="S" horiz-adv-x="1443" d="M729 -31q-319 0 -487 141.5t-199 354.5h414q18 -96 86.5 -150.5t189.5 -54.5q113 0 171.5 37t58.5 98q0 80 -69 118t-263 81q-272 59 -402.5 164.5t-130.5 304.5q0 203 155 322.5t462 119.5q272 0 442 -121.5t205 -339.5h-404q-31 172 -247 173q-90 0 -136.5 -31 t-46.5 -84q0 -63 56.5 -94t208.5 -62q293 -59 446.5 -183t153.5 -331q0 -199 -167 -331t-497 -132z" />
<glyph unicode="T" horiz-adv-x="1302" d="M1292 1475v-310h-430v-1165h-428v1165h-424v310h1282z" />
<glyph unicode="U" horiz-adv-x="1521" d="M106 1475h429v-992q0 -104 59 -160.5t167.5 -56.5t173 57.5t64.5 159.5v992h416v-967q0 -252 -171 -395.5t-484.5 -143.5t-483.5 144.5t-170 394.5v967z" />
<glyph unicode="V" horiz-adv-x="1441" d="M1024 1475h418l-481 -1475h-476l-485 1475h442l289 -1110z" />
<glyph unicode="W" horiz-adv-x="2086" d="M1677 1475h410l-328 -1475h-473l-244 1049l-231 -1049h-459l-352 1475h440l174 -981l222 981h438l237 -990z" />
<glyph unicode="X" horiz-adv-x="1536" d="M1491 1475l-492 -695l527 -780h-506l-275 463l-270 -463h-465l527 762l-492 713h498l252 -406l247 406h449z" />
<glyph unicode="Y" horiz-adv-x="1482" d="M946 0h-409v590l-537 885h461l289 -562l313 562h420l-537 -885v-590z" />
<glyph unicode="Z" horiz-adv-x="1325" d="M1280 1200l-719 -903h707v-297h-1223v279l717 899h-678v297h1196v-275z" />
<glyph unicode="[" horiz-adv-x="696" d="M647 -100v-248h-553v2007h553v-248h-223v-1511h223z" />
<glyph unicode="\" horiz-adv-x="696" d="M379 -184l-414 1689h334l414 -1689h-334z" />
<glyph unicode="]" horiz-adv-x="696" d="M33 -348v248h223v1511h-223v248h555v-2007h-555z" />
<glyph unicode="^" horiz-adv-x="1064" d="M535 1118l-144 -334h-362l333 674h340l334 -674h-360z" />
<glyph unicode="_" horiz-adv-x="1204" d="M1167 -6v-285h-1130v285h1130z" />
<glyph unicode="`" horiz-adv-x="741" d="M459 1499l221 -315h-291l-328 315h398z" />
<glyph unicode="a" horiz-adv-x="1196" d="M465 733h-395q94 362 534 363q233 0 369.5 -107.5t136.5 -296.5v-692h-305q-33 74 -47 113q-127 -143 -338 -144q-172 0 -272.5 90.5t-100.5 243.5q0 137 100.5 219t350.5 121l217 35v41q0 57 -32 88t-89 31q-106 -1 -129 -105zM543 227q82 0 127 56.5t45 152.5v39 q-172 -35 -225.5 -62.5t-53.5 -88.5q1 -97 107 -97z" />
<glyph unicode="b" horiz-adv-x="1316" d="M408 0h-314v1475h398v-508q119 129 305 129q211 0 335.5 -138.5t124.5 -402.5q0 -279 -132 -432.5t-353 -153.5q-184 0 -307 146zM860 541q0 272 -186 272q-88 0 -140.5 -67.5t-52.5 -200.5q0 -293 187 -293q86 0 139 72t53 217z" />
<glyph unicode="c" horiz-adv-x="1243" d="M778 399h410q-43 -195 -184.5 -312.5t-376.5 -117.5q-274 0 -421 144.5t-147 408.5q0 266 154 420t420 154q221 0 372.5 -112t182.5 -294h-410q-10 63 -50 102t-89 39q-172 0 -172 -311q0 -147 45 -217t115 -70q57 0 98 44t53 122z" />
<glyph unicode="d" horiz-adv-x="1318" d="M1225 0h-316l-61 129q-131 -160 -318 -160q-211 0 -341 145.5t-130 407.5q0 272 131.5 423t344.5 151q182 0 292 -121v500h398v-1475zM459 524q0 -137 51 -204.5t141 -67.5q84 0 134.5 67.5t50.5 206.5q0 287 -183 287q-88 0 -141 -74t-53 -215z" />
<glyph unicode="e" horiz-adv-x="1271" d="M801 338h401q-39 -164 -185.5 -266.5t-375.5 -102.5q-264 0 -423 156t-159 416q0 258 156 406.5t420 148.5q268 0 421.5 -168t153.5 -482h-749q12 -113 61 -159.5t133 -46.5q59 0 97.5 26.5t48.5 71.5zM631 848q-145 0 -170 -193h344q-18 193 -174 193z" />
<glyph unicode="f" horiz-adv-x="794" d="M821 1468v-274q-100 25 -153 25q-104 0 -105 -99v-55h203v-268h-203v-797h-395v797h-156v268h156v68q0 182 101.5 277t295.5 95q129 0 256 -37z" />
<glyph unicode="g" horiz-adv-x="1298" d="M88 -45h397q18 -47 55.5 -67.5t106.5 -20.5q162 0 162 178v109q-113 -106 -279 -107q-209 0 -340 136t-131 380t134.5 388.5t345.5 144.5q190 0 301 -131l57 100h307v-979q0 -223 -144.5 -354t-412.5 -131q-496 0 -559 354zM459 565q0 -117 52 -176t140 -59 q84 0 134.5 60.5t50.5 172.5q0 252 -187 252q-84 0 -137 -64.5t-53 -185.5z" />
<glyph unicode="h" horiz-adv-x="1245" d="M94 0v1475h395v-498q109 119 293 119q180 0 279.5 -105.5t99.5 -308.5v-682h-397v682q0 141 -119 141q-72 0 -114 -56t-42 -142v-625h-395z" />
<glyph unicode="i" horiz-adv-x="587" d="M504 1176h-420v299h420v-299zM492 0h-396v1065h396v-1065z" />
<glyph unicode="j" horiz-adv-x="595" d="M-88 -373v277q57 -14 100 -15q47 0 67.5 20.5t20.5 72.5v1083h396v-1098q0 -172 -95.5 -269t-279.5 -97q-117 -1 -209 26zM508 1176h-418v299h418v-299z" />
<glyph unicode="k" horiz-adv-x="1275" d="M489 0h-395v1475h395v-740l308 330h456l-462 -455l493 -610h-500l-295 412v-412z" />
<glyph unicode="l" horiz-adv-x="585" d="M492 1475v-1475h-398v1475h398z" />
<glyph unicode="m" horiz-adv-x="1875" d="M492 0h-398v1065h322l41 -119q111 150 305 150q217 0 313 -152q117 152 332 152q180 0 282.5 -102.5t102.5 -311.5v-682h-395v690q0 133 -119 133q-70 0 -103.5 -57t-33.5 -148v-618h-396v690q0 133 -116 133q-68 0 -102.5 -56t-34.5 -142v-625z" />
<glyph unicode="n" horiz-adv-x="1245" d="M489 0h-395v1065h336l31 -119q117 150 321 150q180 0 279.5 -105.5t99.5 -308.5v-682h-397v682q0 141 -119 141q-74 0 -115 -56t-41 -144v-623z" />
<glyph unicode="o" horiz-adv-x="1292" d="M59 536.5q0 278.5 159 419t427 140.5t428 -141.5t160 -417.5q0 -279 -160 -423.5t-428 -144.5q-264 0 -425 144.5t-161 423zM465 537q0 -305 182 -306q94 0 138 70t44 236q0 164 -45 230.5t-139 66.5t-137 -67.5t-43 -229.5z" />
<glyph unicode="p" horiz-adv-x="1316" d="M780 -31q-166 0 -288 119v-457h-398v1434h307l66 -127q125 158 330 158q211 0 335.5 -142.5t124.5 -406.5q0 -272 -132 -425t-345 -153zM860 541q0 274 -186 274q-88 0 -140.5 -68.5t-52.5 -201.5q0 -295 187 -295q86 0 139 73t53 218z" />
<glyph unicode="q" horiz-adv-x="1318" d="M915 1065h310v-1434h-398v475q-123 -137 -297 -137q-211 0 -341 145.5t-130 407.5q0 272 131.5 423t344.5 151q203 0 317 -152zM459 524q0 -137 51 -204.5t141 -67.5q84 0 134.5 67.5t50.5 206.5q0 287 -183 287q-88 0 -141 -74t-53 -215z" />
<glyph unicode="r" horiz-adv-x="870" d="M492 0h-398v1065h338l37 -164q86 195 256 195q68 0 133 -17v-352q-82 25 -147 25q-98 0 -158.5 -84t-60.5 -242v-426z" />
<glyph unicode="s" horiz-adv-x="1198" d="M598 229q141 0 141 76q0 37 -40 57.5t-156 40.5q-244 43 -352.5 122t-108.5 227q0 158 131 251t379 93q215 0 358.5 -94.5t173.5 -251.5h-385q-27 88 -153 88q-111 0 -111 -66q0 -35 39 -55.5t156 -40.5q236 -43 349.5 -117t113.5 -217q0 -170 -136.5 -271.5 t-396.5 -101.5q-227 0 -374.5 97.5t-180.5 257.5h387q10 -41 54 -68t112 -27z" />
<glyph unicode="t" horiz-adv-x="813" d="M782 266v-266q-117 -31 -227 -31q-180 0 -280.5 89t-100.5 253v486h-154v268h154l25 270h372v-270h211v-268h-211v-473q0 -78 88 -78q45 0 123 20z" />
<glyph unicode="u" horiz-adv-x="1232" d="M84 1065h395v-694q0 -129 121 -129q70 0 106.5 53t36.5 141v629h396v-1065h-334l-31 109q-113 -139 -311 -140q-184 0 -281.5 104.5t-97.5 307.5v684z" />
<glyph unicode="v" horiz-adv-x="1210" d="M799 1065h413l-381 -1065h-454l-379 1065h428l188 -743z" />
<glyph unicode="w" horiz-adv-x="1759" d="M1366 1065h385l-293 -1065h-448l-131 694l-150 -694h-438l-283 1065h410l114 -690l156 690h414l137 -686z" />
<glyph unicode="x" horiz-adv-x="1249" d="M1198 1065l-358 -502l411 -563h-475l-172 291l-176 -291h-430l401 559l-383 506h465l152 -256l141 256h424z" />
<glyph unicode="y" horiz-adv-x="1220" d="M823 1065h400l-385 -1063q-82 -225 -176.5 -313t-247.5 -88q-86 0 -211 28v267q100 -25 145 -25q43 0 66.5 27.5t46.5 101.5h-66l-397 1065h422l194 -782z" />
<glyph unicode="z" horiz-adv-x="1079" d="M1044 788l-503 -505h485v-283h-991v276l510 506h-475v283h974v-277z" />
<glyph unicode="{" horiz-adv-x="696" d="M4 514v272q166 0 166 150v334q0 127 31.5 206.5t102.5 118.5t151 51.5t211 12.5v-248q-92 0 -126 -24.5t-34 -106.5v-340q0 -213 -158 -289q158 -76 158 -291v-327q0 -84 33.5 -107.5t126.5 -25.5v-248q-131 0 -211 12t-151 51t-102.5 119t-31.5 207v324q0 149 -166 149z " />
<glyph unicode="|" horiz-adv-x="696" d="M176 1608h330v-1895h-330v1895z" />
<glyph unicode="}" horiz-adv-x="696" d="M676 786v-272q-164 0 -164 -149v-324q0 -127 -31.5 -207t-102.5 -119t-152 -51t-212 -12v248q94 2 128 25.5t34 107.5v327q0 215 158 291q-158 76 -158 289v340q0 82 -35 106.5t-127 24.5v248q131 0 212 -12.5t152 -51.5t102.5 -118.5t31.5 -206.5v-334q0 -150 164 -150z " />
<glyph unicode="~" d="M791 465q-84 0 -201 53t-172 53q-106 0 -266 -98v293q139 82 286 82q84 0 201 -54.5t172 -54.5q109 0 266 101v-293q-130 -82 -286 -82z" />
<glyph unicode="&#xa1;" horiz-adv-x="661" d="M145 623h369l51 -992h-471zM115 1118h430v-370h-430v370z" />
<glyph unicode="&#xa2;" d="M442 -276v266q-190 39 -289.5 176t-99.5 356q0 215 102.5 358.5t286.5 190.5v279h342v-273q160 -35 264.5 -138t129.5 -249h-406q-18 131 -141 131q-170 0 -170 -303q0 -145 45 -215t115 -70q57 0 98 44.5t55 121.5h410q-37 -158 -137.5 -267t-262.5 -144v-264h-342z" />
<glyph unicode="&#xa3;" d="M588 995v-170h340v-245h-340v-82q0 -125 -105 -189h647v-309h-1044v299q59 16 76.5 53t17.5 111v117h-108v245h108v174q0 229 122 347t360 118q215 0 349 -118.5t144 -303.5h-369q-16 129 -104 129q-94 0 -94 -176z" />
<glyph unicode="&#xa4;" d="M29 326l121 120q-57 109 -57.5 240t57.5 240l-121 123l217 219l127 -127q111 57 239 57q125 0 240 -57l127 127l219 -219l-40 -39l-46 -45q-20 -20 -37 -39q59 -113 59.5 -240t-59.5 -240l123 -120l-219 -220q-41 43 -127 125q-117 -55 -240 -55q-125 0 -241 55 l-125 -125zM840 686q0 109 -64.5 172.5t-163 63.5t-162 -63.5t-63.5 -172.5q0 -106 63.5 -169.5t162 -63.5t163 63.5t64.5 169.5z" />
<glyph unicode="&#xa5;" d="M805 0h-383v213h-258v238h258v86h-258v237h158l-367 660h448l220 -553l243 553h408l-371 -660h162v-237h-260v-86h260v-238h-260v-213z" />
<glyph unicode="&#xa6;" horiz-adv-x="696" d="M176 1606h330v-822h-330v822zM176 526h330v-813h-330v813z" />
<glyph unicode="&#xa7;" d="M131 625q0 80 49 151.5t135 110.5q-135 100 -135 252q0 156 119 239.5t313 83.5q193 0 315 -109.5t130 -232.5h-326q-25 94 -110 94q-33 0 -55.5 -17t-22.5 -48q0 -47 84 -78l94 -35q27 -10 90 -36.5t92 -46t74 -53.5t65.5 -66.5t37 -78.5t16.5 -98q0 -168 -183 -254 q127 -88 127 -229q0 -160 -113.5 -253t-310.5 -93q-203 0 -323.5 102.5t-134.5 237.5h325q20 -92 113 -92q35 0 59.5 17.5t24.5 47.5q0 27 -19.5 42.5t-64.5 33.5l-90 35q-86 33 -143.5 61.5t-116 72.5t-87 103.5t-28.5 135.5zM496 649q0 -53 37.5 -86t132.5 -65 q63 59 63 108q0 53 -38 87t-132 67q-63 -64 -63 -111z" />
<glyph unicode="&#xa8;" horiz-adv-x="964" d="M416 1198h-355v295h355v-295zM903 1198h-354v295h354v-295z" />
<glyph unicode="&#xa9;" horiz-adv-x="1726" d="M279 743.5q0 -282.5 163.5 -439.5t401 -157t401.5 157t164 439.5t-164 439t-401.5 156.5t-401 -156.5t-163.5 -439zM1618 743.5q0 -184.5 -65.5 -334t-176 -240.5t-247 -139t-286 -48t-285.5 48t-246.5 139t-176 240.5t-65.5 334t65.5 334t176 240.5t246.5 139t285.5 48 t286 -48t247 -139t176 -240.5t65.5 -334zM967 651h301q-33 -143 -137.5 -231t-278.5 -88q-201 0 -310.5 105.5t-109.5 304t113.5 312t312.5 113.5q162 0 272.5 -83t135.5 -216h-299q-8 47 -38 76t-67 29q-131 0 -131 -234q0 -109 34 -160t87 -51q92 0 115 123z" />
<glyph unicode="&#xaa;" horiz-adv-x="1044" d="M463 1225h-330q27 123 140.5 201.5t269.5 78.5q176 0 280.5 -89t104.5 -247v-548h-246l-29 71q-84 -96 -221 -96t-227 68.5t-90 205.5q0 123 95 197t277 92l101 10v43q0 74 -56 74q-61 0 -69 -61zM936 287v-287h-811v287h811zM514 825q35 0 54.5 26t19.5 62v70l-43 -8 q-98 -18 -99 -88q0 -29 19.5 -45.5t48.5 -16.5z" />
<glyph unicode="&#xab;" horiz-adv-x="1204" d="M307 176l-246 465l267 424h307l-195 -434l170 -455h-303zM811 176l-246 465l266 424h308l-195 -434l170 -455h-303z" />
<glyph unicode="&#xac;" d="M152 799h925v-598h-317v311h-608v287z" />
<glyph unicode="&#xad;" horiz-adv-x="1105" d="M946 799v-287h-809v287h809z" />
<glyph unicode="&#xae;" horiz-adv-x="1286" d="M1143 1022q0 -123 -44 -218t-117 -151.5t-160 -85t-181 -28.5t-180 28.5t-159 85t-117 151.5t-44 218t43 219t117 151.5t160 84t180 28.5t181 -28.5t160 -84t117 -151.5t44 -219zM641 657q147 0 251.5 90.5t104.5 274.5q0 186 -104.5 276.5t-251.5 90.5 q-150 0 -253 -90.5t-103 -276.5t103 -275.5t253 -89.5zM891 795h-162l-104 168h-39v-168h-137v479h188q215 0 215 -156q0 -92 -92 -133zM637 1180h-51v-125h55q70 0 70 63q0 62 -74 62z" />
<glyph unicode="&#xaf;" horiz-adv-x="714" d="M653 1210h-592v263h592v-263z" />
<glyph unicode="&#xb0;" d="M387 1116q0 -117 78 -117t78 117q0 115 -78 115t-78 -115zM840 1116q0 -164 -107.5 -258t-267.5 -94q-158 0 -266.5 95t-108.5 257t108.5 257t266.5 95q160 0 267.5 -94t107.5 -258z" />
<glyph unicode="&#xb1;" d="M455 1157h317v-309h305v-287h-305v-194h-317v194h-303v287h303v309zM1077 287v-287h-925v287h925z" />
<glyph unicode="&#xb2;" horiz-adv-x="696" d="M266 1374h-243q18 117 105 187.5t218 70.5t213 -68.5t82 -185.5q0 -49 -25.5 -101t-50 -82t-82 -86t-73.5 -75h227v-211h-580v195l209 207l52 52q17 17 34 47t17 58q0 51 -45.5 51t-57.5 -59z" />
<glyph unicode="&#xb3;" horiz-adv-x="696" d="M270 1409h-239q27 98 110.5 160.5t210.5 62.5q119 0 196 -56t77 -167q0 -106 -101 -162q131 -47 131 -184q0 -113 -89 -182.5t-226 -69.5q-125 0 -210 69.5t-103 172.5h249q4 -43 54 -43q57 0 57 63q0 72 -86 72h-53v186h65q23 0 38.5 17.5t15.5 44.5q0 55 -45 55 q-40 0 -52 -39z" />
<glyph unicode="&#xb4;" horiz-adv-x="741" d="M61 1184l222 315h397l-330 -315h-289z" />
<glyph unicode="&#xb5;" horiz-adv-x="1243" d="M94 1065h395v-694q0 -129 125 -129q68 0 104 49t36 133v641h395v-1065h-309l-27 84q-88 -115 -248 -115q-39 0 -76 11v-349h-395v1434z" />
<glyph unicode="&#xb6;" horiz-adv-x="1445" d="M436 1475h332v-1842h-375v1002q-55 6 -108.5 26.5t-113.5 64.5t-97 128t-37 197q0 209 120.5 316.5t278.5 107.5zM950 1475h377v-1842h-377v1842z" />
<glyph unicode="&#xb7;" horiz-adv-x="606" d="M510 451h-416v358h416v-358z" />
<glyph unicode="&#xb8;" horiz-adv-x="831" d="M764 -291q0 -115 -89 -186.5t-253 -71.5q-154 0 -246 71.5t-108 194.5h260q12 -76 90 -75q41 0 63.5 20.5t22.5 48.5q0 84 -195 84l21 250h223l4 -117q207 -45 207 -219z" />
<glyph unicode="&#xb9;" horiz-adv-x="696" d="M631 823h-555v215h153v318l-153 -86v243l166 101h256v-576h133v-215z" />
<glyph unicode="&#xba;" horiz-adv-x="1069" d="M82 1055q0 129 38 221t104.5 139t139 67.5t158.5 20.5t158 -19.5t139.5 -66.5t105.5 -139t38 -223q0 -133 -38 -227.5t-104.5 -142.5t-139.5 -68.5t-159 -20.5t-158.5 21.5t-139 69.5t-104.5 142.5t-38 225.5zM420 1055q0 -125 25.5 -177.5t79 -52.5t78 52.5t24.5 177.5 q0 123 -26 171t-79 48t-77.5 -48t-24.5 -171zM942 287v-287h-836v287h836z" />
<glyph unicode="&#xbb;" horiz-adv-x="1204" d="M1143 641l-248 -465h-303l170 455l-195 434h307zM639 641l-246 -465h-303l170 455l-194 434h307z" />
<glyph unicode="&#xbc;" horiz-adv-x="1802" d="M1530 1618l-895 -1802h-301l893 1802h303zM684 643h-555v215h154v318l-154 -86v243l166 101h256v-576h133v-215zM1393 516h209v-164h69v-213h-69v-139h-240v139h-336v201l174 451h252l-158 -439h68v45z" />
<glyph unicode="&#xbd;" horiz-adv-x="1802" d="M1511 1618l-895 -1802h-301l893 1802h303zM674 643h-555v215h153v318l-153 -86v243l166 101h256v-576h133v-215zM1307 551h-244q18 117 105 187.5t218.5 70.5t213 -68.5t81.5 -185.5q0 -49 -25.5 -101.5t-50 -82t-82 -86t-73.5 -74.5h227v-211h-579v195l209 206l52 53 q17 17 33.5 46.5t16.5 58.5q0 51 -45 51t-57 -59z" />
<glyph unicode="&#xbe;" horiz-adv-x="1802" d="M1526 1618l-895 -1802h-301l893 1802h303zM1399 516h209v-164h69v-213h-69v-139h-240v139h-336v201l174 451h252l-158 -439h68v45zM369 1241h-240q27 98 111 160.5t211 62.5q119 0 195.5 -56t76.5 -167q0 -106 -100 -162q131 -47 131 -184q0 -113 -89.5 -182.5 t-226.5 -69.5q-125 0 -210 69.5t-103 172.5h250q4 -43 53 -43q57 0 57 63q0 72 -86 72h-53v186h66q23 0 38 17.5t15 44.5q0 55 -45 55q-39 0 -51 -39z" />
<glyph unicode="&#xbf;" horiz-adv-x="1138" d="M647 10h412q-20 -170 -165.5 -289.5t-354.5 -119.5q-227 0 -353.5 98t-126.5 262q0 115 48.5 199t187.5 248q61 72 61 210h385q0 -156 -23.5 -231.5t-103.5 -171.5q-96 -115 -121.5 -156t-25.5 -82q0 -86 78 -86q79 0 102 119zM330 1106h432v-371h-432v371z" />
<glyph unicode="&#xc0;" horiz-adv-x="1515" d="M1522 0h-453l-94 322h-457l-94 -322h-430l541 1475h442zM750 1104l-150 -500h295zM805 1901l221 -316h-291l-327 316h397z" />
<glyph unicode="&#xc1;" horiz-adv-x="1515" d="M1522 0h-453l-94 322h-457l-94 -322h-430l541 1475h442zM750 1104l-150 -500h295zM483 1585l222 316h397l-330 -316h-289z" />
<glyph unicode="&#xc2;" horiz-adv-x="1515" d="M1522 0h-453l-94 322h-457l-94 -322h-430l541 1475h442zM750 1104l-150 -500h295zM748 1708l-72 -117h-365l279 316h315l279 -316h-365z" />
<glyph unicode="&#xc3;" horiz-adv-x="1515" d="M1522 0h-453l-94 322h-457l-94 -322h-430l541 1475h442zM750 1104l-150 -500h295zM889 1581q-66 0 -152 37t-129 37q-66 0 -186 -68v256q100 59 194 60q63 0 149.5 -38t131.5 -38q57 0 178 67v-256q-98 -57 -186 -57z" />
<glyph unicode="&#xc4;" horiz-adv-x="1515" d="M1522 0h-453l-94 322h-457l-94 -322h-430l541 1475h442zM750 1104l-150 -500h295zM682 1599h-354v295h354v-295zM1169 1599h-354v295h354v-295z" />
<glyph unicode="&#xc5;" horiz-adv-x="1515" d="M1075 1620q0 -117 -80 -195l527 -1425h-453l-94 322h-457l-94 -322h-430l518 1417q-86 78 -86 203q0 119 84 196.5t240 77.5q158 0 241.5 -78.5t83.5 -195.5zM750 1104l-150 -500h295zM678 1620q0 -86 71.5 -86t71.5 86t-71.5 86t-71.5 -86z" />
<glyph unicode="&#xc6;" horiz-adv-x="2064" d="M1993 299v-299h-996v322h-411l-148 -322h-444l729 1475h1270v-304h-568v-286h508v-285h-508v-301h568zM713 604h284v613z" />
<glyph unicode="&#xc7;" horiz-adv-x="1564" d="M1110 -291q0 -115 -90 -186.5t-254 -71.5q-154 0 -246 71.5t-106 194.5h260q8 -76 90 -75q41 0 63.5 20.5t22.5 48.5q0 84 -197 84l17 182q-276 35 -438 233t-162 531q0 367 195.5 565.5t539.5 198.5q274 0 457.5 -141t226.5 -399h-426q-51 248 -258 247 q-135 0 -214 -114.5t-79 -356.5q0 -244 78 -361.5t205 -117.5q248 0 272 303h432q-70 -539 -598 -590l2 -47q207 -45 207 -219z" />
<glyph unicode="&#xc8;" horiz-adv-x="1257" d="M1126 885v-283h-581v-303h641v-299h-1069v1475h1069v-304h-641v-286h581zM659 1901l222 -316h-291l-328 316h397z" />
<glyph unicode="&#xc9;" horiz-adv-x="1257" d="M1126 885v-283h-581v-303h641v-299h-1069v1475h1069v-304h-641v-286h581zM451 1585l221 316h397l-330 -316h-288z" />
<glyph unicode="&#xca;" horiz-adv-x="1257" d="M1126 885v-283h-581v-303h641v-299h-1069v1475h1069v-304h-641v-286h581zM653 1708l-71 -117h-365l279 316h315l279 -316h-365z" />
<glyph unicode="&#xcb;" horiz-adv-x="1257" d="M1126 885v-283h-581v-303h641v-299h-1069v1475h1069v-304h-641v-286h581zM586 1599h-355v295h355v-295zM1073 1599h-354v295h354v-295z" />
<glyph unicode="&#xcc;" horiz-adv-x="661" d="M117 1475h428v-1475h-428v1475zM401 1901l222 -316h-291l-328 316h397z" />
<glyph unicode="&#xcd;" horiz-adv-x="661" d="M117 1475h428v-1475h-428v1475zM63 1585l222 316h397l-330 -316h-289z" />
<glyph unicode="&#xce;" horiz-adv-x="661" d="M117 1475h428v-1475h-428v1475zM330 1708l-72 -117h-364l278 316h315l279 -316h-365z" />
<glyph unicode="&#xcf;" horiz-adv-x="661" d="M117 1475h428v-1475h-428v1475zM266 1599h-354v295h354v-295zM754 1599h-355v295h355v-295z" />
<glyph unicode="&#xd0;" horiz-adv-x="1554" d="M123 0v629h-109v293h109v553h590q379 0 575.5 -184.5t196.5 -553.5q0 -367 -193.5 -552t-574.5 -185h-594zM750 629h-199v-338h166q158 0 247 109.5t89 336.5q0 223 -91.5 335t-248.5 112h-162v-262h199v-293z" />
<glyph unicode="&#xd1;" horiz-adv-x="1531" d="M1051 1475h364v-1475h-424l-510 909v-909h-364v1475h450l484 -867v867zM911 1581q-66 0 -151.5 37t-128.5 37q-66 0 -187 -68v256q100 59 195 60q61 0 149.5 -38t131.5 -38q57 0 178 67v-256q-99 -57 -187 -57z" />
<glyph unicode="&#xd2;" horiz-adv-x="1644" d="M821 270q137 0 229.5 111t92.5 356.5t-92.5 357t-229.5 111.5q-139 0 -229 -111.5t-90 -359.5q0 -244 92 -354.5t227 -110.5zM821.5 -31q-147.5 0 -276.5 41t-238.5 127t-173 239.5t-63.5 358.5q0 201 63.5 354.5t172 241.5t238.5 131t277 43q150 0 279 -41t238.5 -128 t173 -240.5t63.5 -358.5q0 -201 -63.5 -354.5t-173 -240.5t-239.5 -130t-277.5 -43zM823 1901l221 -316h-290l-328 316h397z" />
<glyph unicode="&#xd3;" horiz-adv-x="1644" d="M821 270q137 0 229.5 111t92.5 356.5t-92.5 357t-229.5 111.5q-139 0 -229 -111.5t-90 -359.5q0 -244 92 -354.5t227 -110.5zM821.5 -31q-147.5 0 -276.5 41t-238.5 127t-173 239.5t-63.5 358.5q0 201 63.5 354.5t172 241.5t238.5 131t277 43q150 0 279 -41t238.5 -128 t173 -240.5t63.5 -358.5q0 -201 -63.5 -354.5t-173 -240.5t-239.5 -130t-277.5 -43zM608 1585l221 316h398l-330 -316h-289z" />
<glyph unicode="&#xd4;" horiz-adv-x="1644" d="M821 270q137 0 229.5 111t92.5 356.5t-92.5 357t-229.5 111.5q-139 0 -229 -111.5t-90 -359.5q0 -244 92 -354.5t227 -110.5zM821.5 -31q-147.5 0 -276.5 41t-238.5 127t-173 239.5t-63.5 358.5q0 201 63.5 354.5t172 241.5t238.5 131t277 43q150 0 279 -41t238.5 -128 t173 -240.5t63.5 -358.5q0 -201 -63.5 -354.5t-173 -240.5t-239.5 -130t-277.5 -43zM819 1708l-71 -117h-365l279 316h315l278 -316h-364z" />
<glyph unicode="&#xd5;" horiz-adv-x="1644" d="M821 270q137 0 229.5 111t92.5 356.5t-92.5 357t-229.5 111.5q-139 0 -229 -111.5t-90 -359.5q0 -244 92 -354.5t227 -110.5zM821.5 -31q-147.5 0 -276.5 41t-238.5 127t-173 239.5t-63.5 358.5q0 201 63.5 354.5t172 241.5t238.5 131t277 43q150 0 279 -41t238.5 -128 t173 -240.5t63.5 -358.5q0 -201 -63.5 -354.5t-173 -240.5t-239.5 -130t-277.5 -43zM963 1581q-66 0 -152 37t-129 37q-66 0 -186 -68v256q100 59 194 60q63 0 149.5 -38t131.5 -38q57 0 178 67v-256q-98 -57 -186 -57z" />
<glyph unicode="&#xd6;" horiz-adv-x="1644" d="M821 270q137 0 229.5 111t92.5 356.5t-92.5 357t-229.5 111.5q-139 0 -229 -111.5t-90 -359.5q0 -244 92 -354.5t227 -110.5zM821.5 -31q-147.5 0 -276.5 41t-238.5 127t-173 239.5t-63.5 358.5q0 201 63.5 354.5t172 241.5t238.5 131t277 43q150 0 279 -41t238.5 -128 t173 -240.5t63.5 -358.5q0 -201 -63.5 -354.5t-173 -240.5t-239.5 -130t-277.5 -43zM754 1599h-355v295h355v-295zM1241 1599h-354v295h354v-295z" />
<glyph unicode="&#xd7;" d="M184 874l209 209l219 -219l222 219l208 -209l-219 -219l219 -221l-208 -209l-222 219l-219 -219l-209 209l219 221z" />
<glyph unicode="&#xd8;" horiz-adv-x="1644" d="M821 -31q-90 0 -184 17l-94 -211h-305l143 309q-311 190 -311 651q0 201 63.5 354.5t172 241.5t238.5 131t277 43q106 0 211 -24l92 198h303l-141 -305q289 -195 289 -637q0 -201 -63.5 -354.5t-173 -240.5t-240 -130t-277.5 -43zM502 735q0 -203 71 -309l340 766 q-53 14 -92 14q-139 0 -229 -111.5t-90 -359.5zM821 270q137 0 229.5 111t92.5 356q0 182 -66 293l-332 -749q31 -11 76 -11z" />
<glyph unicode="&#xd9;" horiz-adv-x="1521" d="M106 1475h429v-992q0 -104 59 -160.5t167.5 -56.5t173 57.5t64.5 159.5v992h416v-967q0 -252 -171 -395.5t-484.5 -143.5t-483.5 144.5t-170 394.5v967zM707 1901l221 -316h-291l-328 316h398z" />
<glyph unicode="&#xda;" horiz-adv-x="1521" d="M106 1475h429v-992q0 -104 59 -160.5t167.5 -56.5t173 57.5t64.5 159.5v992h416v-967q0 -252 -171 -395.5t-484.5 -143.5t-483.5 144.5t-170 394.5v967zM604 1585l221 316h398l-330 -316h-289z" />
<glyph unicode="&#xdb;" horiz-adv-x="1521" d="M106 1475h429v-992q0 -104 59 -160.5t167.5 -56.5t173 57.5t64.5 159.5v992h416v-967q0 -252 -171 -395.5t-484.5 -143.5t-483.5 144.5t-170 394.5v967zM758 1708l-72 -117h-364l278 316h315l279 -316h-365z" />
<glyph unicode="&#xdc;" horiz-adv-x="1521" d="M106 1475h429v-992q0 -104 59 -160.5t167.5 -56.5t173 57.5t64.5 159.5v992h416v-967q0 -252 -171 -395.5t-484.5 -143.5t-483.5 144.5t-170 394.5v967zM694 1599h-354v295h354v-295zM1182 1599h-355v295h355v-295z" />
<glyph unicode="&#xdd;" horiz-adv-x="1482" d="M946 0h-409v590l-537 885h461l289 -562l313 562h420l-537 -885v-590zM588 1585l221 316h397l-329 -316h-289z" />
<glyph unicode="&#xde;" horiz-adv-x="1359" d="M117 1475h428v-222h90q330 0 501 -115.5t171 -385.5q0 -264 -169 -383t-491 -119h-102v-250h-428v1475zM639 965h-94v-428h106q96 0 159.5 52t63.5 163q1 213 -235 213z" />
<glyph unicode="&#xdf;" horiz-adv-x="1359" d="M922 -29q-193 0 -299.5 91.5t-130.5 250.5h339q6 -109 70 -108q33 0 54.5 28.5t21.5 79.5q0 55 -39 97.5t-125 89.5q-113 61 -158 126.5t-45 149.5q0 82 65.5 175t65.5 159q0 57 -31.5 88t-84.5 31q-70 0 -103 -51.5t-33 -169.5v-295l-71 -713h-324v1049q0 205 130 330.5 t378 125.5q240 0 371 -91t131 -249q0 -63 -23.5 -116.5t-50 -81t-50.5 -61.5t-24 -64q0 -76 113 -135q139 -74 202.5 -160t63.5 -201q0 -158 -105 -266.5t-308 -108.5z" />
<glyph unicode="&#xe0;" horiz-adv-x="1196" d="M465 733h-395q94 362 534 363q233 0 369.5 -107.5t136.5 -296.5v-692h-305q-33 74 -47 113q-127 -143 -338 -144q-172 0 -272.5 90.5t-100.5 243.5q0 137 100.5 219t350.5 121l217 35v41q0 57 -32 88t-89 31q-106 -1 -129 -105zM543 227q82 0 127 56.5t45 152.5v39 q-172 -35 -225.5 -62.5t-53.5 -88.5q1 -97 107 -97zM608 1499l221 -315h-290l-328 315h397z" />
<glyph unicode="&#xe1;" horiz-adv-x="1196" d="M465 733h-395q94 362 534 363q233 0 369.5 -107.5t136.5 -296.5v-692h-305q-33 74 -47 113q-127 -143 -338 -144q-172 0 -272.5 90.5t-100.5 243.5q0 137 100.5 219t350.5 121l217 35v41q0 57 -32 88t-89 31q-106 -1 -129 -105zM543 227q82 0 127 56.5t45 152.5v39 q-172 -35 -225.5 -62.5t-53.5 -88.5q1 -97 107 -97zM440 1184l222 315h397l-330 -315h-289z" />
<glyph unicode="&#xe2;" horiz-adv-x="1196" d="M465 733h-395q94 362 534 363q233 0 369.5 -107.5t136.5 -296.5v-692h-305q-33 74 -47 113q-127 -143 -338 -144q-172 0 -272.5 90.5t-100.5 243.5q0 137 100.5 219t350.5 121l217 35v41q0 57 -32 88t-89 31q-106 -1 -129 -105zM543 227q82 0 127 56.5t45 152.5v39 q-172 -35 -225.5 -62.5t-53.5 -88.5q1 -97 107 -97zM600 1307l-72 -117h-364l278 315h316l278 -315h-364z" />
<glyph unicode="&#xe3;" horiz-adv-x="1196" d="M465 733h-395q94 362 534 363q233 0 369.5 -107.5t136.5 -296.5v-692h-305q-33 74 -47 113q-127 -143 -338 -144q-172 0 -272.5 90.5t-100.5 243.5q0 137 100.5 219t350.5 121l217 35v41q0 57 -32 88t-89 31q-106 -1 -129 -105zM543 227q82 0 127 56.5t45 152.5v39 q-172 -35 -225.5 -62.5t-53.5 -88.5q1 -97 107 -97zM737 1180q-66 0 -151.5 36.5t-128.5 36.5q-66 0 -187 -67v256q100 59 195 59q63 0 149 -38t131 -38q57 0 179 68v-256q-99 -57 -187 -57z" />
<glyph unicode="&#xe4;" horiz-adv-x="1196" d="M465 733h-395q94 362 534 363q233 0 369.5 -107.5t136.5 -296.5v-692h-305q-33 74 -47 113q-127 -143 -338 -144q-172 0 -272.5 90.5t-100.5 243.5q0 137 100.5 219t350.5 121l217 35v41q0 57 -32 88t-89 31q-106 -1 -129 -105zM543 227q82 0 127 56.5t45 152.5v39 q-172 -35 -225.5 -62.5t-53.5 -88.5q1 -97 107 -97zM520 1198h-354v295h354v-295zM1008 1198h-355v295h355v-295z" />
<glyph unicode="&#xe5;" horiz-adv-x="1196" d="M465 733h-395q94 362 534 363q233 0 369.5 -107.5t136.5 -296.5v-692h-305q-33 74 -47 113q-127 -143 -338 -144q-172 0 -272.5 90.5t-100.5 243.5q0 137 100.5 219t350.5 121l217 35v41q0 57 -32 88t-89 31q-106 -1 -129 -105zM543 227q82 0 127 56.5t45 152.5v39 q-172 -35 -225.5 -62.5t-53.5 -88.5q1 -97 107 -97zM520 1444q0 -86 72 -86t72 86t-72 86t-72 -86zM915 1444q0 -119 -82.5 -197t-240.5 -78t-242 78t-84 197t84 197.5t242 78.5t240.5 -78.5t82.5 -197.5z" />
<glyph unicode="&#xe6;" horiz-adv-x="1916" d="M1444 338h401q-37 -158 -173 -263.5t-380 -105.5q-281 0 -444 205q-139 -205 -418 -205q-178 0 -280.5 88t-102.5 246q0 141 101.5 227t349.5 125l217 35v29q0 57 -32 88t-89 31q-106 0 -129 -105h-395q94 362 534 363q193 0 336 -109q147 109 344 109q272 0 420.5 -166 t148.5 -494h-737q14 -109 61.5 -153.5t127.5 -44.5q116 0 139 100zM1278 846q-70 0 -110 -44t-52 -147h330q-14 191 -168 191zM715 416v59l-150 -33q-72 -16 -100.5 -44.5t-28.5 -73.5q0 -96 107 -97q74 0 123 52.5t49 136.5z" />
<glyph unicode="&#xe7;" horiz-adv-x="1243" d="M948 -291q0 -115 -90 -186.5t-254 -71.5q-154 0 -246 71.5t-106 194.5h260q8 -76 90 -75q41 0 63.5 20.5t22.5 48.5q0 84 -196 84l16 182q-217 29 -333 169.5t-116 375.5q0 266 154 420t420 154q221 0 372.5 -112t182.5 -294h-410q-10 63 -50 102t-89 39 q-172 0 -172 -311q0 -147 45 -217t115 -70q57 0 98 44.5t53 121.5h410q-39 -170 -151.5 -282.5t-297.5 -139.5l2 -49q207 -45 207 -219z" />
<glyph unicode="&#xe8;" horiz-adv-x="1271" d="M801 338h401q-39 -164 -185.5 -266.5t-375.5 -102.5q-264 0 -423 156t-159 416q0 258 156 406.5t420 148.5q268 0 421.5 -168t153.5 -482h-749q12 -113 61 -159.5t133 -46.5q59 0 97.5 26.5t48.5 71.5zM631 848q-145 0 -170 -193h344q-18 193 -174 193zM623 1499 l221 -315h-291l-328 315h398z" />
<glyph unicode="&#xe9;" horiz-adv-x="1271" d="M801 338h401q-39 -164 -185.5 -266.5t-375.5 -102.5q-264 0 -423 156t-159 416q0 258 156 406.5t420 148.5q268 0 421.5 -168t153.5 -482h-749q12 -113 61 -159.5t133 -46.5q59 0 97.5 26.5t48.5 71.5zM631 848q-145 0 -170 -193h344q-18 193 -174 193zM424 1184l221 315 h397l-329 -315h-289z" />
<glyph unicode="&#xea;" horiz-adv-x="1271" d="M801 338h401q-39 -164 -185.5 -266.5t-375.5 -102.5q-264 0 -423 156t-159 416q0 258 156 406.5t420 148.5q268 0 421.5 -168t153.5 -482h-749q12 -113 61 -159.5t133 -46.5q59 0 97.5 26.5t48.5 71.5zM631 848q-145 0 -170 -193h344q-18 193 -174 193zM618 1307 l-71 -117h-365l279 315h315l279 -315h-365z" />
<glyph unicode="&#xeb;" horiz-adv-x="1271" d="M801 338h401q-39 -164 -185.5 -266.5t-375.5 -102.5q-264 0 -423 156t-159 416q0 258 156 406.5t420 148.5q268 0 421.5 -168t153.5 -482h-749q12 -113 61 -159.5t133 -46.5q59 0 97.5 26.5t48.5 71.5zM631 848q-145 0 -170 -193h344q-18 193 -174 193zM553 1198h-354 v295h354v-295zM1040 1198h-354v295h354v-295z" />
<glyph unicode="&#xec;" horiz-adv-x="587" d="M342 1499l221 -315h-291l-327 315h397zM492 0h-396v1065h396v-1065z" />
<glyph unicode="&#xed;" horiz-adv-x="587" d="M27 1184l221 315h397l-330 -315h-288zM492 0h-396v1065h396v-1065z" />
<glyph unicode="&#xee;" horiz-adv-x="587" d="M492 0h-396v1065h396v-1065zM295 1307l-72 -117h-364l278 315h316l278 -315h-364z" />
<glyph unicode="&#xef;" horiz-adv-x="587" d="M227 1198h-354v295h354v-295zM715 1198h-355v295h355v-295zM492 0h-396v1065h396v-1065z" />
<glyph unicode="&#xf0;" horiz-adv-x="1206" d="M209 1280l2 262q240 -23 426 -106l41 41h307l-154 -158q315 -244 316 -657q0 -692 -533 -693q-250 0 -402.5 128t-152.5 382q0 231 126 372.5t333 141.5q117 0 176 -55q-29 90 -86 154l-30 -31h-310l152 153q-82 37 -211 66zM600 725q-68 0 -97.5 -59.5t-29.5 -186.5 q0 -242 137 -241q125 0 125 284q0 203 -135 203z" />
<glyph unicode="&#xf1;" horiz-adv-x="1245" d="M489 0h-395v1065h336l31 -119q117 150 321 150q180 0 279.5 -105.5t99.5 -308.5v-682h-397v682q0 141 -119 141q-74 0 -115 -56t-41 -144v-623zM770 1180q-66 0 -152 36.5t-129 36.5q-66 0 -186 -67v256q100 59 195 59q63 0 149 -38t131 -38q57 0 178 68v-256 q-98 -57 -186 -57z" />
<glyph unicode="&#xf2;" horiz-adv-x="1292" d="M59 536.5q0 278.5 159 419t427 140.5t428 -141.5t160 -417.5q0 -279 -160 -423.5t-428 -144.5q-264 0 -425 144.5t-161 423zM465 537q0 -305 182 -306q94 0 138 70t44 236q0 164 -45 230.5t-139 66.5t-137 -67.5t-43 -229.5zM639 1499l221 -315h-291l-327 315h397z" />
<glyph unicode="&#xf3;" horiz-adv-x="1292" d="M59 536.5q0 278.5 159 419t427 140.5t428 -141.5t160 -417.5q0 -279 -160 -423.5t-428 -144.5q-264 0 -425 144.5t-161 423zM465 537q0 -305 182 -306q94 0 138 70t44 236q0 164 -45 230.5t-139 66.5t-137 -67.5t-43 -229.5zM442 1184l222 315h397l-330 -315h-289z" />
<glyph unicode="&#xf4;" horiz-adv-x="1292" d="M59 536.5q0 278.5 159 419t427 140.5t428 -141.5t160 -417.5q0 -279 -160 -423.5t-428 -144.5q-264 0 -425 144.5t-161 423zM465 537q0 -305 182 -306q94 0 138 70t44 236q0 164 -45 230.5t-139 66.5t-137 -67.5t-43 -229.5zM645 1307l-72 -117h-364l278 315h316 l278 -315h-364z" />
<glyph unicode="&#xf5;" horiz-adv-x="1292" d="M59 536.5q0 278.5 159 419t427 140.5t428 -141.5t160 -417.5q0 -279 -160 -423.5t-428 -144.5q-264 0 -425 144.5t-161 423zM465 537q0 -305 182 -306q94 0 138 70t44 236q0 164 -45 230.5t-139 66.5t-137 -67.5t-43 -229.5zM786 1180q-66 0 -151.5 36.5t-128.5 36.5 q-66 0 -187 -67v256q100 59 195 59q63 0 149.5 -38t131.5 -38q57 0 178 68v-256q-99 -57 -187 -57z" />
<glyph unicode="&#xf6;" horiz-adv-x="1292" d="M59 536.5q0 278.5 159 419t427 140.5t428 -141.5t160 -417.5q0 -279 -160 -423.5t-428 -144.5q-264 0 -425 144.5t-161 423zM465 537q0 -305 182 -306q94 0 138 70t44 236q0 164 -45 230.5t-139 66.5t-137 -67.5t-43 -229.5zM580 1198h-355v295h355v-295zM1067 1198h-354 v295h354v-295z" />
<glyph unicode="&#xf7;" d="M801 123h-373v323h373v-323zM801 864h-373v324h373v-324zM1077 799v-287h-925v287h925z" />
<glyph unicode="&#xf8;" horiz-adv-x="1292" d="M59 537q0 279 159 419t427 140q76 0 141 -13l105 207h276l-147 -295q213 -141 213 -458q0 -279 -160 -423.5t-428 -144.5q-63 0 -135 11l-102 -205h-283l147 295q-213 148 -213 467zM465 537q0 -88 20 -160l220 448q-37 8 -60 9q-94 0 -137 -67.5t-43 -229.5zM829 537 q0 84 -20 149l-217 -446q25 -8 55 -9q94 0 138 70t44 236z" />
<glyph unicode="&#xf9;" horiz-adv-x="1232" d="M84 1065h395v-694q0 -129 121 -129q70 0 106.5 53t36.5 141v629h396v-1065h-334l-31 109q-113 -139 -311 -140q-184 0 -281.5 104.5t-97.5 307.5v684zM549 1499l221 -315h-291l-327 315h397z" />
<glyph unicode="&#xfa;" horiz-adv-x="1232" d="M84 1065h395v-694q0 -129 121 -129q70 0 106.5 53t36.5 141v629h396v-1065h-334l-31 109q-113 -139 -311 -140q-184 0 -281.5 104.5t-97.5 307.5v684zM461 1184l221 315h397l-329 -315h-289z" />
<glyph unicode="&#xfb;" horiz-adv-x="1232" d="M84 1065h395v-694q0 -129 121 -129q70 0 106.5 53t36.5 141v629h396v-1065h-334l-31 109q-113 -139 -311 -140q-184 0 -281.5 104.5t-97.5 307.5v684zM606 1307l-71 -117h-365l279 315h315l278 -315h-364z" />
<glyph unicode="&#xfc;" horiz-adv-x="1232" d="M84 1065h395v-694q0 -129 121 -129q70 0 106.5 53t36.5 141v629h396v-1065h-334l-31 109q-113 -139 -311 -140q-184 0 -281.5 104.5t-97.5 307.5v684zM545 1198h-355v295h355v-295zM1032 1198h-354v295h354v-295z" />
<glyph unicode="&#xfd;" horiz-adv-x="1220" d="M823 1065h400l-385 -1063q-82 -225 -176.5 -313t-247.5 -88q-86 0 -211 28v267q100 -25 145 -25q43 0 66.5 27.5t46.5 101.5h-66l-397 1065h422l194 -782zM471 1184l221 315h398l-330 -315h-289z" />
<glyph unicode="&#xfe;" horiz-adv-x="1316" d="M494 -367h-400v1842h398v-500q125 121 303 121q213 0 337.5 -142.5t124.5 -406.5q0 -281 -137 -429.5t-346 -148.5q-164 0 -280 107v-443zM860 541q0 272 -186 272q-88 0 -140.5 -67.5t-52.5 -200.5q0 -293 187 -293q86 0 139 72t53 217z" />
<glyph unicode="&#xff;" horiz-adv-x="1220" d="M823 1065h400l-385 -1063q-82 -225 -176.5 -313t-247.5 -88q-86 0 -211 28v267q100 -25 145 -25q43 0 66.5 27.5t46.5 101.5h-66l-397 1065h422l194 -782zM543 1198h-355v295h355v-295zM1030 1198h-354v295h354v-295z" />
<glyph unicode="&#x100;" horiz-adv-x="1515" d="M1522 0h-453l-94 322h-457l-94 -322h-430l541 1475h442zM750 1104l-150 -500h295zM1042 1612h-591v262h591v-262z" />
<glyph unicode="&#x101;" horiz-adv-x="1196" d="M465 733h-395q94 362 534 363q233 0 369.5 -107.5t136.5 -296.5v-692h-305q-33 74 -47 113q-127 -143 -338 -144q-172 0 -272.5 90.5t-100.5 243.5q0 137 100.5 219t350.5 121l217 35v41q0 57 -32 88t-89 31q-106 -1 -129 -105zM543 227q82 0 127 56.5t45 152.5v39 q-172 -35 -225.5 -62.5t-53.5 -88.5q1 -97 107 -97zM905 1210h-592v263h592v-263z" />
<glyph unicode="&#x102;" horiz-adv-x="1515" d="M1522 0h-453l-94 322h-457l-94 -322h-430l541 1475h442zM750 1104l-150 -500h295zM762 1595q-313 0 -350 312h282q2 -102 68 -103q63 0 65 103h285q-35 -312 -350 -312z" />
<glyph unicode="&#x103;" horiz-adv-x="1196" d="M465 733h-395q94 362 534 363q233 0 369.5 -107.5t136.5 -296.5v-692h-305q-33 74 -47 113q-127 -143 -338 -144q-172 0 -272.5 90.5t-100.5 243.5q0 137 100.5 219t350.5 121l217 35v41q0 57 -32 88t-89 31q-106 -1 -129 -105zM543 227q82 0 127 56.5t45 152.5v39 q-172 -35 -225.5 -62.5t-53.5 -88.5q1 -97 107 -97zM590 1194q-313 0 -350 311h282q2 -102 68 -102q63 0 65 102h285q-35 -311 -350 -311z" />
<glyph unicode="&#x104;" horiz-adv-x="1515" d="M1167 -539q-154 0 -239.5 68t-85.5 188q0 88 59.5 167t163.5 128l-90 310h-457l-94 -322h-430l541 1475h442l545 -1475h-228q-195 -117 -194 -246q0 -49 25.5 -75.5t62.5 -26.5q57 0 69 53h273q-74 -244 -363 -244zM750 1104l-150 -500h295z" />
<glyph unicode="&#x105;" horiz-adv-x="1196" d="M1249 -295q-74 -244 -362 -244q-154 0 -240 68t-86 190q0 90 63.5 171t172.5 126l-39 97q-127 -143 -338 -144q-172 0 -272.5 90.5t-100.5 243.5q0 137 100.5 219t350.5 121l217 35v41q0 57 -32 88t-89 31q-106 0 -129 -105h-395q94 362 534 363q233 0 369.5 -107.5 t136.5 -296.5v-692h-96q-195 -117 -195 -246q0 -49 25.5 -74.5t62.5 -25.5q57 0 70 51h272zM715 416v59q-170 -35 -224.5 -62.5t-54.5 -88.5q0 -96 107 -97q74 0 123 52.5t49 136.5z" />
<glyph unicode="&#x106;" horiz-adv-x="1564" d="M795 262q248 0 272 303h432q-76 -596 -711 -596q-326 0 -522 201t-196 571q0 367 195.5 565.5t539.5 198.5q274 0 457.5 -141t226.5 -399h-426q-51 248 -258 247q-135 0 -214 -114.5t-79 -356.5q0 -244 78 -361.5t205 -117.5zM588 1585l221 316h397l-329 -316h-289z" />
<glyph unicode="&#x107;" horiz-adv-x="1243" d="M778 399h410q-43 -195 -184.5 -312.5t-376.5 -117.5q-274 0 -421 144.5t-147 408.5q0 266 154 420t420 154q221 0 372.5 -112t182.5 -294h-410q-10 63 -50 102t-89 39q-172 0 -172 -311q0 -147 45 -217t115 -70q57 0 98 44t53 122zM432 1184l221 315h398l-330 -315h-289z " />
<glyph unicode="&#x108;" horiz-adv-x="1564" d="M795 262q248 0 272 303h432q-76 -596 -711 -596q-326 0 -522 201t-196 571q0 367 195.5 565.5t539.5 198.5q274 0 457.5 -141t226.5 -399h-426q-51 248 -258 247q-135 0 -214 -114.5t-79 -356.5q0 -244 78 -361.5t205 -117.5zM791 1708l-72 -117h-365l279 316h315 l279 -316h-365z" />
<glyph unicode="&#x109;" horiz-adv-x="1243" d="M778 399h410q-43 -195 -184.5 -312.5t-376.5 -117.5q-274 0 -421 144.5t-147 408.5q0 266 154 420t420 154q221 0 372.5 -112t182.5 -294h-410q-10 63 -50 102t-89 39q-172 0 -172 -311q0 -147 45 -217t115 -70q57 0 98 44t53 122zM604 1307l-72 -117h-364l278 315h316 l278 -315h-364z" />
<glyph unicode="&#x10a;" horiz-adv-x="1564" d="M795 262q248 0 272 303h432q-76 -596 -711 -596q-326 0 -522 201t-196 571q0 367 195.5 565.5t539.5 198.5q274 0 457.5 -141t226.5 -399h-426q-51 248 -258 247q-135 0 -214 -114.5t-79 -356.5q0 -244 78 -361.5t205 -117.5zM1001 1577h-417v299h417v-299z" />
<glyph unicode="&#x10b;" horiz-adv-x="1243" d="M778 399h410q-43 -195 -184.5 -312.5t-376.5 -117.5q-274 0 -421 144.5t-147 408.5q0 266 154 420t420 154q221 0 372.5 -112t182.5 -294h-410q-10 63 -50 102t-89 39q-172 0 -172 -311q0 -147 45 -217t115 -70q57 0 98 44t53 122zM821 1176h-418v299h418v-299z" />
<glyph unicode="&#x10c;" horiz-adv-x="1564" d="M795 262q248 0 272 303h432q-76 -596 -711 -596q-326 0 -522 201t-196 571q0 367 195.5 565.5t539.5 198.5q274 0 457.5 -141t226.5 -399h-426q-51 248 -258 247q-135 0 -214 -114.5t-79 -356.5q0 -244 78 -361.5t205 -117.5zM713 1907l71 -109l72 109h365l-279 -316 h-315l-279 316h365z" />
<glyph unicode="&#x10d;" horiz-adv-x="1243" d="M778 399h410q-43 -195 -184.5 -312.5t-376.5 -117.5q-274 0 -421 144.5t-147 408.5q0 266 154 420t420 154q221 0 372.5 -112t182.5 -294h-410q-10 63 -50 102t-89 39q-172 0 -172 -311q0 -147 45 -217t115 -70q57 0 98 44t53 122zM545 1505l71 -108l72 108h365 l-279 -315h-315l-279 315h365z" />
<glyph unicode="&#x10e;" horiz-adv-x="1548" d="M117 1475h590q772 0 772 -737.5t-768 -737.5h-594v1475zM707 1184h-162v-891h166q158 0 248 109.5t90 335t-91 336t-251 110.5zM621 1907l71 -109l72 109h364l-278 -316h-315l-279 316h365z" />
<glyph unicode="&#x10f;" horiz-adv-x="1716" d="M1225 0h-316l-61 129q-131 -160 -318 -160q-211 0 -341 145.5t-130 407.5q0 272 131.5 423t344.5 151q182 0 292 -121v500h398v-1475zM459 524q0 -137 51 -204.5t141 -67.5q84 0 134.5 67.5t50.5 206.5q0 287 -183 287q-88 0 -141 -74t-53 -215zM1708 1475v-203 q0 -201 -94 -310.5t-295 -130.5v168q152 29 151 172h-100v304h338z" />
<glyph unicode="&#x110;" horiz-adv-x="1554" d="M123 0v629h-109v293h109v553h590q379 0 575.5 -184.5t196.5 -553.5q0 -367 -193.5 -552t-574.5 -185h-594zM750 629h-199v-338h166q158 0 247 109.5t89 336.5q0 223 -91.5 335t-248.5 112h-162v-262h199v-293z" />
<glyph unicode="&#x111;" horiz-adv-x="1337" d="M1225 0h-316l-61 129q-131 -160 -318 -160q-211 0 -341 145.5t-130 407.5q0 272 131.5 423t344.5 151q182 0 292 -121v166h-192v266h192v68h398v-68h88v-266h-88v-1141zM459 524q0 -137 51 -204.5t141 -67.5q84 0 134.5 67.5t50.5 206.5q0 287 -183 287q-88 0 -141 -74 t-53 -215z" />
<glyph unicode="&#x112;" horiz-adv-x="1257" d="M1126 885v-283h-581v-303h641v-299h-1069v1475h1069v-304h-641v-286h581zM942 1612h-592v262h592v-262z" />
<glyph unicode="&#x113;" horiz-adv-x="1271" d="M801 338h401q-39 -164 -185.5 -266.5t-375.5 -102.5q-264 0 -423 156t-159 416q0 258 156 406.5t420 148.5q268 0 421.5 -168t153.5 -482h-749q12 -113 61 -159.5t133 -46.5q59 0 97.5 26.5t48.5 71.5zM631 848q-145 0 -170 -193h344q-18 193 -174 193zM932 1210h-592 v263h592v-263z" />
<glyph unicode="&#x114;" horiz-adv-x="1257" d="M652 1628q-313 0 -351 311h283q2 -102 68 -102q63 0 65 102h285q-35 -311 -350 -311zM1126 885v-283h-581v-303h641v-299h-1069v1475h1069v-304h-641v-286h581z" />
<glyph unicode="&#x115;" horiz-adv-x="1271" d="M635 1219q-313 0 -351 311h283q2 -102 68 -102q63 0 65 102h285q-35 -311 -350 -311zM801 338h401q-39 -164 -185.5 -266.5t-375.5 -102.5q-264 0 -423 156t-159 416q0 258 156 406.5t420 148.5q268 0 421.5 -168t153.5 -482h-749q12 -113 61 -159.5t133 -46.5 q59 0 97.5 26.5t48.5 71.5zM631 848q-145 0 -170 -193h344q-18 193 -174 193z" />
<glyph unicode="&#x116;" horiz-adv-x="1257" d="M1126 885v-283h-581v-303h641v-299h-1069v1475h1069v-304h-641v-286h581zM866 1577h-417v299h417v-299z" />
<glyph unicode="&#x117;" horiz-adv-x="1271" d="M801 338h401q-39 -164 -185.5 -266.5t-375.5 -102.5q-264 0 -423 156t-159 416q0 258 156 406.5t420 148.5q268 0 421.5 -168t153.5 -482h-749q12 -113 61 -159.5t133 -46.5q59 0 97.5 26.5t48.5 71.5zM631 848q-145 0 -170 -193h344q-18 193 -174 193zM834 1176h-418 v299h418v-299z" />
<glyph unicode="&#x118;" horiz-adv-x="1257" d="M1126 885v-283h-581v-303h641v-299h-283q-195 -117 -194 -246q0 -49 26.5 -75.5t61.5 -26.5q55 0 71 53h271q-70 -244 -363 -244q-152 0 -237.5 68t-85.5 188q0 84 52 159t144 124h-532v1475h1069v-304h-641v-286h581z" />
<glyph unicode="&#x119;" horiz-adv-x="1271" d="M762 -539q-154 0 -240 68t-86 188q0 152 152 254q-242 16 -385.5 169t-143.5 401q0 258 156 406.5t420 148.5q268 0 421.5 -168t153.5 -482h-749q12 -113 61 -159.5t133 -46.5q59 0 97.5 26.5t48.5 71.5h401q-49 -209 -262 -309q-98 -47 -173 -120t-75 -155 q0 -49 26.5 -75.5t61.5 -26.5q59 0 72 53h270q-69 -244 -360 -244zM631 848q-145 0 -170 -193h344q-18 193 -174 193z" />
<glyph unicode="&#x11a;" horiz-adv-x="1257" d="M1126 885v-283h-581v-303h641v-299h-1069v1475h1069v-304h-641v-286h581zM600 1907l72 -109l71 109h365l-279 -316h-315l-278 316h364z" />
<glyph unicode="&#x11b;" horiz-adv-x="1271" d="M801 338h401q-39 -164 -185.5 -266.5t-375.5 -102.5q-264 0 -423 156t-159 416q0 258 156 406.5t420 148.5q268 0 421.5 -168t153.5 -482h-749q12 -113 61 -159.5t133 -46.5q59 0 97.5 26.5t48.5 71.5zM631 848q-145 0 -170 -193h344q-18 193 -174 193zM559 1505l72 -108 l71 108h365l-279 -315h-315l-278 315h364z" />
<glyph unicode="&#x11c;" horiz-adv-x="1581" d="M1485 840v-840h-291l-51 135q-141 -166 -412 -166q-285 0 -473 203t-188 569q0 369 199.5 566.5t547.5 197.5q256 0 437.5 -121.5t230.5 -363.5h-424q-47 193 -244 192q-137 0 -221 -113.5t-84 -357.5q0 -242 87 -361.5t222 -119.5q123 0 204 68.5t81 175.5v59h-315v277 h694zM772 1708l-72 -117h-364l278 316h316l278 -316h-364z" />
<glyph unicode="&#x11d;" horiz-adv-x="1298" d="M88 -45h397q18 -47 55.5 -67.5t106.5 -20.5q162 0 162 178v109q-113 -106 -279 -107q-209 0 -340 136t-131 380t134.5 388.5t345.5 144.5q190 0 301 -131l57 100h307v-979q0 -223 -144.5 -354t-412.5 -131q-496 0 -559 354zM459 565q0 -117 52 -176t140 -59 q84 0 134.5 60.5t50.5 172.5q0 252 -187 252q-84 0 -137 -64.5t-53 -185.5zM649 1307l-71 -117h-365l279 315h315l278 -315h-364z" />
<glyph unicode="&#x11e;" horiz-adv-x="1581" d="M1485 840v-840h-291l-51 135q-141 -166 -412 -166q-285 0 -473 203t-188 569q0 369 199.5 566.5t547.5 197.5q256 0 437.5 -121.5t230.5 -363.5h-424q-47 193 -244 192q-137 0 -221 -113.5t-84 -357.5q0 -242 87 -361.5t222 -119.5q123 0 204 68.5t81 175.5v59h-315v277 h694zM784 1595q-313 0 -350 312h283q2 -102 67 -103q63 0 66 103h285q-36 -312 -351 -312z" />
<glyph unicode="&#x11f;" horiz-adv-x="1298" d="M88 -45h397q18 -47 55.5 -67.5t106.5 -20.5q162 0 162 178v109q-113 -106 -279 -107q-209 0 -340 136t-131 380t134.5 388.5t345.5 144.5q190 0 301 -131l57 100h307v-979q0 -223 -144.5 -354t-412.5 -131q-496 0 -559 354zM459 565q0 -117 52 -176t140 -59 q84 0 134.5 60.5t50.5 172.5q0 252 -187 252q-84 0 -137 -64.5t-53 -185.5zM647 1194q-313 0 -350 311h283q2 -102 67 -102q63 0 66 102h284q-35 -311 -350 -311z" />
<glyph unicode="&#x120;" horiz-adv-x="1581" d="M1485 840v-840h-291l-51 135q-141 -166 -412 -166q-285 0 -473 203t-188 569q0 369 199.5 566.5t547.5 197.5q256 0 437.5 -121.5t230.5 -363.5h-424q-47 193 -244 192q-137 0 -221 -113.5t-84 -357.5q0 -242 87 -361.5t222 -119.5q123 0 204 68.5t81 175.5v59h-315v277 h694zM1004 1577h-418v299h418v-299z" />
<glyph unicode="&#x121;" horiz-adv-x="1298" d="M88 -45h397q18 -47 55.5 -67.5t106.5 -20.5q162 0 162 178v109q-113 -106 -279 -107q-209 0 -340 136t-131 380t134.5 388.5t345.5 144.5q190 0 301 -131l57 100h307v-979q0 -223 -144.5 -354t-412.5 -131q-496 0 -559 354zM459 565q0 -117 52 -176t140 -59 q84 0 134.5 60.5t50.5 172.5q0 252 -187 252q-84 0 -137 -64.5t-53 -185.5zM868 1176h-417v299h417v-299z" />
<glyph unicode="&#x122;" horiz-adv-x="1581" d="M1485 840v-840h-291l-51 135q-141 -166 -412 -166q-285 0 -473 203t-188 569q0 369 199.5 566.5t547.5 197.5q256 0 437.5 -121.5t230.5 -363.5h-424q-47 193 -244 192q-137 0 -221 -113.5t-84 -357.5q0 -242 87 -361.5t222 -119.5q123 0 204 68.5t81 175.5v59h-315v277 h694zM936 -98v-205q0 -399 -391 -438v168q152 27 151 170h-98v305h338z" />
<glyph unicode="&#x123;" horiz-adv-x="1298" d="M88 -45h397q18 -47 55.5 -67.5t106.5 -20.5q162 0 162 178v109q-113 -106 -279 -107q-209 0 -340 136t-131 380t134.5 388.5t345.5 144.5q190 0 301 -131l57 100h307v-979q0 -223 -144.5 -354t-412.5 -131q-496 0 -559 354zM459 565q0 -117 52 -176t140 -59 q84 0 134.5 60.5t50.5 172.5q0 252 -187 252q-84 0 -137 -64.5t-53 -185.5zM473 1180v202q0 203 95.5 311.5t295.5 129.5v-168q-152 -29 -151 -170h98v-305h-338z" />
<glyph unicode="&#x124;" horiz-adv-x="1536" d="M993 1475h426v-1475h-426v600h-448v-600h-428v1475h428v-584h448v584zM764 1708l-72 -117h-364l278 316h316l278 -316h-364z" />
<glyph unicode="&#x125;" horiz-adv-x="1245" d="M94 0v1475h395v-498q109 119 293 119q180 0 279.5 -105.5t99.5 -308.5v-682h-397v682q0 141 -119 141q-72 0 -114 -56t-42 -142v-625h-395zM545 1708l-72 -117h-364l278 316h315l279 -316h-365z" />
<glyph unicode="&#x126;" horiz-adv-x="1548" d="M999 1475h426v-156h99v-279h-99v-1040h-426v600h-448v-600h-428v1040h-98v279h98v156h428v-156h448v156zM551 1040v-149h448v149h-448z" />
<glyph unicode="&#x127;" horiz-adv-x="1245" d="M94 0v1143h-88v266h88v66h395v-66h209v-266h-209v-166q109 119 293 119q180 0 279.5 -105.5t99.5 -308.5v-682h-397v682q0 141 -119 141q-72 0 -114 -55t-42 -141v-627h-395z" />
<glyph unicode="&#x128;" horiz-adv-x="661" d="M117 1475h428v-1475h-428v1475zM473 1581q-66 0 -151.5 37t-128.5 37q-66 0 -187 -68v256q100 59 195 60q61 0 149 -38t131 -38q57 0 178 67v-256q-98 -57 -186 -57z" />
<glyph unicode="&#x129;" horiz-adv-x="587" d="M436 1180q-66 0 -151.5 36.5t-128.5 36.5q-66 0 -187 -67v256q100 59 195 59q61 0 149 -38t131 -38q57 0 179 68v-256q-99 -57 -187 -57zM492 0h-396v1065h396v-1065z" />
<glyph unicode="&#x12a;" horiz-adv-x="661" d="M117 1475h428v-1475h-428v1475zM629 1612h-592v262h592v-262z" />
<glyph unicode="&#x12b;" horiz-adv-x="587" d="M592 1210h-592v263h592v-263zM492 0h-396v1065h396v-1065z" />
<glyph unicode="&#x12c;" horiz-adv-x="661" d="M330 1628q-313 0 -351 311h283q2 -102 68 -102q63 0 65 102h285q-35 -311 -350 -311zM117 1475h428v-1475h-428v1475z" />
<glyph unicode="&#x12d;" horiz-adv-x="587" d="M293 1219q-313 0 -351 311h283q2 -102 68 -102q63 0 65 102h285q-35 -311 -350 -311zM492 0h-396v1065h396v-1065z" />
<glyph unicode="&#x12e;" horiz-adv-x="661" d="M227 -539q-152 0 -237.5 68t-85.5 188q0 86 56 164t157 125v1469h428v-1475h-191q-195 -117 -194 -246q0 -49 26.5 -75.5t61.5 -26.5q55 0 71 53h271q-70 -244 -363 -244z" />
<glyph unicode="&#x12f;" horiz-adv-x="587" d="M195 -539q-154 0 -240 68t-86 188q0 88 61.5 168t165.5 127v1053h396v-1065h-170q-195 -117 -195 -246q0 -49 25.5 -75.5t60.5 -26.5q59 0 72 53h270q-69 -244 -360 -244zM504 1176h-420v299h420v-299z" />
<glyph unicode="&#x130;" horiz-adv-x="661" d="M117 1475h428v-1475h-428v1475zM539 1577h-418v299h418v-299z" />
<glyph unicode="&#x131;" horiz-adv-x="587" d="M492 0h-396v1065h396v-1065z" />
<glyph unicode="&#x132;" horiz-adv-x="1875" d="M691 469h411q12 -205 133 -205q119 0 119 180v1031h416v-996q0 -242 -134 -376t-394 -134q-231 0 -378.5 126t-172.5 374zM117 1475h428v-1475h-428v1475z" />
<glyph unicode="&#x133;" horiz-adv-x="1183" d="M500 -373v277q57 -14 100 -15q47 0 67.5 20.5t20.5 72.5v1083h396v-1098q0 -172 -95.5 -269t-279.5 -97q-117 -1 -209 26zM1096 1176h-418v299h418v-299zM504 1176h-420v299h420v-299zM492 0h-396v1065h396v-1065z" />
<glyph unicode="&#x134;" horiz-adv-x="1214" d="M29 469h411q12 -205 133 -205q119 0 119 180v1031h416v-996q0 -242 -134 -376t-394 -134q-231 0 -378.5 126t-172.5 374zM883 1708l-72 -117h-365l279 316h315l279 -316h-365z" />
<glyph unicode="&#x135;" horiz-adv-x="595" d="M-88 -373v277q57 -14 100 -15q47 0 67.5 20.5t20.5 72.5v1083h396v-1098q0 -172 -95.5 -269t-279.5 -97q-117 -1 -209 26zM281 1307l-72 -117h-365l279 315h315l279 -315h-365z" />
<glyph unicode="&#x136;" horiz-adv-x="1558" d="M1559 0h-545l-469 553v-553h-428v1475h428v-535l452 535h492l-621 -693zM918 -98v-205q0 -399 -392 -438v168q152 27 152 170h-98v305h338z" />
<glyph unicode="&#x137;" horiz-adv-x="1275" d="M489 0h-395v1475h395v-740l308 330h456l-462 -455l493 -610h-500l-295 412v-412zM799 -98v-205q0 -399 -391 -438v168q152 27 151 170h-98v305h338z" />
<glyph unicode="&#x138;" horiz-adv-x="1275" d="M489 0h-395v1065h395v-336l308 336h456l-462 -465l493 -600h-500l-295 406v-406z" />
<glyph unicode="&#x139;" horiz-adv-x="1288" d="M117 1475h428v-1166h702v-309h-1130v1475zM82 1585l221 316h397l-329 -316h-289z" />
<glyph unicode="&#x13a;" horiz-adv-x="585" d="M492 1475v-1475h-398v1475h398zM18 1585l222 316h397l-330 -316h-289z" />
<glyph unicode="&#x13b;" horiz-adv-x="1288" d="M117 1475h428v-1166h702v-309h-1130v1475zM825 -98v-205q0 -399 -391 -438v168q152 27 152 170h-99v305h338z" />
<glyph unicode="&#x13c;" horiz-adv-x="585" d="M492 1475v-1475h-398v1475h398zM465 -98v-205q0 -399 -391 -438v168q152 27 151 170h-98v305h338z" />
<glyph unicode="&#x13d;" horiz-adv-x="1288" d="M117 1475h428v-1166h702v-309h-1130v1475zM1040 1475v-203q0 -201 -94 -310.5t-295 -130.5v168q152 29 152 172h-101v304h338z" />
<glyph unicode="&#x13e;" horiz-adv-x="952" d="M492 1475v-1475h-398v1475h398zM952 1475v-203q0 -201 -94 -310.5t-295 -130.5v168q152 29 152 172h-101v304h338z" />
<glyph unicode="&#x13f;" horiz-adv-x="1288" d="M891 574h-416v358h416v-358zM117 1475h428v-1166h702v-309h-1130v1475z" />
<glyph unicode="&#x140;" horiz-adv-x="1191" d="M1096 451h-416v358h416v-358zM492 1475v-1475h-398v1475h398z" />
<glyph unicode="&#x141;" horiz-adv-x="1302" d="M131 1475h428v-375l168 100v-342l-168 -100v-451h703v-307h-1131v504l-121 -72v342l121 72v629z" />
<glyph unicode="&#x142;" horiz-adv-x="620" d="M506 1475v-388l90 58v-342l-90 -58v-745h-397v498l-84 -52v340l84 52v637h397z" />
<glyph unicode="&#x143;" horiz-adv-x="1531" d="M1051 1475h364v-1475h-424l-510 909v-909h-364v1475h450l484 -867v867zM618 1585l222 316h397l-330 -316h-289z" />
<glyph unicode="&#x144;" horiz-adv-x="1245" d="M489 0h-395v1065h336l31 -119q117 150 321 150q180 0 279.5 -105.5t99.5 -308.5v-682h-397v682q0 141 -119 141q-74 0 -115 -56t-41 -144v-623zM453 1184l221 315h397l-330 -315h-288z" />
<glyph unicode="&#x145;" horiz-adv-x="1531" d="M1051 1475h364v-1475h-424l-510 909v-909h-364v1475h450l484 -867v867zM950 -98v-205q0 -399 -391 -438v168q152 27 152 170h-99v305h338z" />
<glyph unicode="&#x146;" horiz-adv-x="1245" d="M489 0h-395v1065h336l31 -119q117 150 321 150q180 0 279.5 -105.5t99.5 -308.5v-682h-397v682q0 141 -119 141q-74 0 -115 -56t-41 -144v-623zM807 -98v-205q0 -399 -391 -438v168q152 27 151 170h-98v305h338z" />
<glyph unicode="&#x147;" horiz-adv-x="1531" d="M1051 1475h364v-1475h-424l-510 909v-909h-364v1475h450l484 -867v867zM702 1907l72 -109l72 109h364l-278 -316h-316l-278 316h364z" />
<glyph unicode="&#x148;" horiz-adv-x="1245" d="M489 0h-395v1065h336l31 -119q117 150 321 150q180 0 279.5 -105.5t99.5 -308.5v-682h-397v682q0 141 -119 141q-74 0 -115 -56t-41 -144v-623zM565 1505l72 -108l72 108h364l-278 -315h-316l-278 315h364z" />
<glyph unicode="&#x14a;" horiz-adv-x="1531" d="M831 -373v277q68 -14 99 -15q121 0 121 91v20h-54l-518 907v-907h-362v1475h454l480 -867v867h364v-1518q0 -166 -97 -261t-280 -95q-105 -1 -207 26z" />
<glyph unicode="&#x14b;" horiz-adv-x="1245" d="M1161 -45q0 -160 -100 -257t-285 -97q-100 0 -211 28v277q76 -16 111 -17q47 0 67.5 19.5t20.5 64.5v709q0 141 -119 141q-72 0 -114 -55t-42 -141v-627h-395v1065h336l31 -119q117 150 321 150q180 0 279.5 -105.5t99.5 -308.5v-727z" />
<glyph unicode="&#x14c;" horiz-adv-x="1644" d="M821 270q137 0 229.5 111t92.5 356.5t-92.5 357t-229.5 111.5q-139 0 -229 -111.5t-90 -359.5q0 -244 92 -354.5t227 -110.5zM821.5 -31q-147.5 0 -276.5 41t-238.5 127t-173 239.5t-63.5 358.5q0 201 63.5 354.5t172 241.5t238.5 131t277 43q150 0 279 -41t238.5 -128 t173 -240.5t63.5 -358.5q0 -201 -63.5 -354.5t-173 -240.5t-239.5 -130t-277.5 -43zM1116 1612h-592v262h592v-262z" />
<glyph unicode="&#x14d;" horiz-adv-x="1292" d="M59 536.5q0 278.5 159 419t427 140.5t428 -141.5t160 -417.5q0 -279 -160 -423.5t-428 -144.5q-264 0 -425 144.5t-161 423zM465 537q0 -305 182 -306q94 0 138 70t44 236q0 164 -45 230.5t-139 66.5t-137 -67.5t-43 -229.5zM940 1210h-592v263h592v-263z" />
<glyph unicode="&#x14e;" horiz-adv-x="1644" d="M822 1628q-313 0 -351 311h283q2 -102 68 -102q63 0 65 102h285q-35 -311 -350 -311zM821 270q137 0 229.5 111t92.5 356.5t-92.5 357t-229.5 111.5q-139 0 -229 -111.5t-90 -359.5q0 -244 92 -354.5t227 -110.5zM821.5 -31q-147.5 0 -276.5 41t-238.5 127t-173 239.5 t-63.5 358.5q0 201 63.5 354.5t172 241.5t238.5 131t277 43q150 0 279 -41t238.5 -128t173 -240.5t63.5 -358.5q0 -201 -63.5 -354.5t-173 -240.5t-239.5 -130t-277.5 -43z" />
<glyph unicode="&#x14f;" horiz-adv-x="1292" d="M645 1219q-313 0 -351 311h283q2 -102 68 -102q63 0 65 102h285q-35 -311 -350 -311zM59 536.5q0 278.5 159 419t427 140.5t428 -141.5t160 -417.5q0 -279 -160 -423.5t-428 -144.5q-264 0 -425 144.5t-161 423zM465 537q0 -305 182 -306q94 0 138 70t44 236 q0 164 -45 230.5t-139 66.5t-137 -67.5t-43 -229.5z" />
<glyph unicode="&#x150;" horiz-adv-x="1644" d="M821 270q137 0 229.5 111t92.5 356.5t-92.5 357t-229.5 111.5q-139 0 -229 -111.5t-90 -359.5q0 -244 92 -354.5t227 -110.5zM821.5 -31q-147.5 0 -276.5 41t-238.5 127t-173 239.5t-63.5 358.5q0 201 63.5 354.5t172 241.5t238.5 131t277 43q150 0 279 -41t238.5 -128 t173 -240.5t63.5 -358.5q0 -201 -63.5 -354.5t-173 -240.5t-239.5 -130t-277.5 -43zM408 1591l221 316h397l-330 -316h-288zM913 1591l222 316h397l-330 -316h-289z" />
<glyph unicode="&#x151;" horiz-adv-x="1292" d="M59 536.5q0 278.5 159 419t427 140.5t428 -141.5t160 -417.5q0 -279 -160 -423.5t-428 -144.5q-264 0 -425 144.5t-161 423zM465 537q0 -305 182 -306q94 0 138 70t44 236q0 164 -45 230.5t-139 66.5t-137 -67.5t-43 -229.5zM233 1190l222 315h397l-330 -315h-289z M739 1190l222 315h397l-330 -315h-289z" />
<glyph unicode="&#x152;" horiz-adv-x="2013" d="M1882 885v-285h-516v-301h576v-299h-898q-117 -31 -229 -31q-150 0 -277.5 41t-235 127t-170 239.5t-62.5 358.5q0 201 63.5 354.5t172 241.5t237.5 131t274 43q109 0 236 -30h889v-304h-576v-286h516zM817 270q68 0 121 23v887q-53 25 -117 24q-137 0 -229 -110.5 t-92 -358.5t89 -356.5t228 -108.5z" />
<glyph unicode="&#x153;" horiz-adv-x="2037" d="M1565 338h401q-35 -158 -173 -263.5t-384 -105.5q-227 0 -381 142q-164 -141 -383 -142q-119 0 -220 32t-185 96.5t-132.5 177t-48.5 262.5q0 147 47.5 257.5t131.5 175t185 95.5t222 31q215 0 379 -138q154 137 375 138q274 0 424.5 -166t150.5 -494h-747 q27 -199 192 -198q59 0 98.5 28.5t47.5 71.5zM465 537q0 -305 182 -306q88 0 134 67t46 230v9q0 166 -46 230t-136 64t-135 -64t-45 -230zM1393 846q-143 0 -166 -191h340q-14 191 -174 191z" />
<glyph unicode="&#x154;" horiz-adv-x="1476" d="M1466 0h-503l-318 512h-117v-512h-428v1475h580q330 0 496.5 -123t166.5 -357q0 -289 -278 -407zM684 1184h-156v-381h170q90 0 147.5 52t57.5 140q0 189 -219 189zM502 1585l221 316h397l-329 -316h-289z" />
<glyph unicode="&#x155;" horiz-adv-x="870" d="M492 0h-398v1065h338l37 -164q86 195 256 195q68 0 133 -17v-352q-82 25 -147 25q-98 0 -158.5 -84t-60.5 -242v-426zM291 1184l221 315h397l-329 -315h-289z" />
<glyph unicode="&#x156;" horiz-adv-x="1476" d="M1466 0h-503l-318 512h-117v-512h-428v1475h580q330 0 496.5 -123t166.5 -357q0 -289 -278 -407zM684 1184h-156v-381h170q90 0 147.5 52t57.5 140q0 189 -219 189zM889 -98v-205q0 -399 -391 -438v168q152 27 151 170h-98v305h338z" />
<glyph unicode="&#x157;" horiz-adv-x="870" d="M492 0h-398v1065h338l37 -164q86 195 256 195q68 0 133 -17v-352q-82 25 -147 25q-98 0 -158.5 -84t-60.5 -242v-426zM461 -98v-205q0 -399 -391 -438v168q152 27 151 170h-98v305h338z" />
<glyph unicode="&#x158;" horiz-adv-x="1476" d="M1466 0h-503l-318 512h-117v-512h-428v1475h580q330 0 496.5 -123t166.5 -357q0 -289 -278 -407zM684 1184h-156v-381h170q90 0 147.5 52t57.5 140q0 189 -219 189zM563 1907l72 -109l72 109h364l-278 -316h-316l-278 316h364z" />
<glyph unicode="&#x159;" horiz-adv-x="870" d="M492 0h-398v1065h338l37 -164q86 195 256 195q68 0 133 -17v-352q-82 25 -147 25q-98 0 -158.5 -84t-60.5 -242v-426zM383 1505l72 -108l71 108h365l-279 -315h-315l-279 315h365z" />
<glyph unicode="&#x15a;" horiz-adv-x="1443" d="M729 -31q-319 0 -487 141.5t-199 354.5h414q18 -96 86.5 -150.5t189.5 -54.5q113 0 171.5 37t58.5 98q0 80 -69 118t-263 81q-272 59 -402.5 164.5t-130.5 304.5q0 203 155 322.5t462 119.5q272 0 442 -121.5t205 -339.5h-404q-31 172 -247 173q-90 0 -136.5 -31 t-46.5 -84q0 -63 56.5 -94t208.5 -62q293 -59 446.5 -183t153.5 -331q0 -199 -167 -331t-497 -132zM526 1585l222 316h397l-330 -316h-289z" />
<glyph unicode="&#x15b;" horiz-adv-x="1198" d="M598 229q141 0 141 76q0 37 -40 57.5t-156 40.5q-244 43 -352.5 122t-108.5 227q0 158 131 251t379 93q215 0 358.5 -94.5t173.5 -251.5h-385q-27 88 -153 88q-111 0 -111 -66q0 -35 39 -55.5t156 -40.5q236 -43 349.5 -117t113.5 -217q0 -170 -136.5 -271.5 t-396.5 -101.5q-227 0 -374.5 97.5t-180.5 257.5h387q10 -41 54 -68t112 -27zM365 1184l221 315h397l-330 -315h-288z" />
<glyph unicode="&#x15c;" horiz-adv-x="1443" d="M729 -31q-319 0 -487 141.5t-199 354.5h414q18 -96 86.5 -150.5t189.5 -54.5q113 0 171.5 37t58.5 98q0 80 -69 118t-263 81q-272 59 -402.5 164.5t-130.5 304.5q0 203 155 322.5t462 119.5q272 0 442 -121.5t205 -339.5h-404q-31 172 -247 173q-90 0 -136.5 -31 t-46.5 -84q0 -63 56.5 -94t208.5 -62q293 -59 446.5 -183t153.5 -331q0 -199 -167 -331t-497 -132zM694 1708l-71 -117h-365l279 316h315l278 -316h-364z" />
<glyph unicode="&#x15d;" horiz-adv-x="1198" d="M598 229q141 0 141 76q0 37 -40 57.5t-156 40.5q-244 43 -352.5 122t-108.5 227q0 158 131 251t379 93q215 0 358.5 -94.5t173.5 -251.5h-385q-27 88 -153 88q-111 0 -111 -66q0 -35 39 -55.5t156 -40.5q236 -43 349.5 -117t113.5 -217q0 -170 -136.5 -271.5 t-396.5 -101.5q-227 0 -374.5 97.5t-180.5 257.5h387q10 -41 54 -68t112 -27zM588 1307l-72 -117h-364l278 315h315l279 -315h-365z" />
<glyph unicode="&#x15e;" horiz-adv-x="1443" d="M1069 -291q0 -115 -90 -186.5t-254 -71.5q-154 0 -246 71.5t-106 194.5h260q8 -76 90 -75q41 0 62.5 20.5t21.5 48.5q0 84 -195 84l15 180q-270 23 -413.5 160t-170.5 330h414q18 -96 86.5 -150.5t189.5 -54.5q111 0 170.5 37t59.5 94q0 84 -68 122t-264 81 q-272 59 -402.5 164.5t-130.5 304.5q0 203 155 322.5t462 119.5q272 0 442 -121.5t205 -339.5h-404q-31 172 -247 173q-90 0 -136.5 -31t-46.5 -84q0 -63 56.5 -94t208.5 -62q293 -59 446.5 -183t153.5 -331q0 -178 -134.5 -304t-400.5 -153l4 -47q207 -45 207 -219z" />
<glyph unicode="&#x15f;" horiz-adv-x="1198" d="M934 -291q0 -115 -89 -186.5t-253 -71.5q-154 0 -246 71.5t-108 194.5h260q12 -76 92 -75q39 0 61.5 20.5t22.5 48.5q0 84 -195 84l15 180q-184 20 -303 114.5t-146 234.5h387q10 -41 54 -68t112 -27q141 0 141 76q0 37 -40 57.5t-156 40.5q-244 43 -352.5 122 t-108.5 227q0 158 131 251t379 93q215 0 358.5 -94.5t173.5 -251.5h-385q-27 88 -153 88q-111 0 -111 -66q0 -35 39 -55.5t156 -40.5q236 -43 349.5 -117t113.5 -217q0 -147 -103.5 -243.5t-304.5 -121.5l2 -49q207 -45 207 -219z" />
<glyph unicode="&#x160;" horiz-adv-x="1443" d="M729 -31q-319 0 -487 141.5t-199 354.5h414q18 -96 86.5 -150.5t189.5 -54.5q113 0 171.5 37t58.5 98q0 80 -69 118t-263 81q-272 59 -402.5 164.5t-130.5 304.5q0 203 155 322.5t462 119.5q272 0 442 -121.5t205 -339.5h-404q-31 172 -247 173q-90 0 -136.5 -31 t-46.5 -84q0 -63 56.5 -94t208.5 -62q293 -59 446.5 -183t153.5 -331q0 -199 -167 -331t-497 -132zM631 1907l71 -109l72 109h365l-279 -316h-315l-279 316h365z" />
<glyph unicode="&#x161;" horiz-adv-x="1198" d="M598 229q141 0 141 76q0 37 -40 57.5t-156 40.5q-244 43 -352.5 122t-108.5 227q0 158 131 251t379 93q215 0 358.5 -94.5t173.5 -251.5h-385q-27 88 -153 88q-111 0 -111 -66q0 -35 39 -55.5t156 -40.5q236 -43 349.5 -117t113.5 -217q0 -170 -136.5 -271.5 t-396.5 -101.5q-227 0 -374.5 97.5t-180.5 257.5h387q10 -41 54 -68t112 -27zM510 1505l72 -108l71 108h365l-279 -315h-315l-279 315h365z" />
<glyph unicode="&#x162;" horiz-adv-x="1302" d="M1292 1475v-310h-430v-1165h-428v1165h-424v310h1282zM819 -98v-205q0 -399 -391 -438v168q152 27 152 170h-99v305h338z" />
<glyph unicode="&#x163;" horiz-adv-x="813" d="M782 266v-266q-117 -31 -227 -31q-180 0 -280.5 89t-100.5 253v486h-154v268h154l25 270h372v-270h211v-268h-211v-473q0 -78 88 -78q45 0 123 20zM590 -98v-205q0 -399 -391 -438v168q152 27 151 170h-98v305h338z" />
<glyph unicode="&#x164;" horiz-adv-x="1302" d="M1292 1475v-310h-430v-1165h-428v1165h-424v310h1282zM578 1907l71 -109l72 109h364l-278 -316h-315l-279 316h365z" />
<glyph unicode="&#x165;" horiz-adv-x="1021" d="M1022 1501v-149q0 -104 -80 -177t-225 -79v121q37 2 57.5 22.5t20.5 44.5h-60v217h287zM782 266v-266q-117 -31 -227 -31q-180 0 -280.5 89t-100.5 253v486h-154v268h154l25 270h372v-270h211v-268h-211v-473q0 -78 88 -78q45 0 123 20z" />
<glyph unicode="&#x166;" horiz-adv-x="1302" d="M1071 688h-211v-688h-428v688h-211v279h211v198h-422v310h1282v-310h-432v-198h211v-279z" />
<glyph unicode="&#x167;" horiz-adv-x="813" d="M782 266v-266q-117 -31 -229 -31q-379 0 -379 367v131h-108v266h108v64h-154v268h154l25 268h372v-268h211v-268h-211v-64h158v-266h-158v-143q0 -78 86 -78q47 0 125 20z" />
<glyph unicode="&#x168;" horiz-adv-x="1521" d="M106 1475h429v-992q0 -104 59 -160.5t167.5 -56.5t173 57.5t64.5 159.5v992h416v-967q0 -252 -171 -395.5t-484.5 -143.5t-483.5 144.5t-170 394.5v967zM913 1581q-66 0 -151.5 37t-128.5 37q-66 0 -187 -68v256q100 59 195 60q63 0 149.5 -38t131.5 -38q57 0 178 67 v-256q-99 -57 -187 -57z" />
<glyph unicode="&#x169;" horiz-adv-x="1232" d="M84 1065h395v-694q0 -129 121 -129q70 0 106.5 53t36.5 141v629h396v-1065h-334l-31 109q-113 -139 -311 -140q-184 0 -281.5 104.5t-97.5 307.5v684zM760 1180q-66 0 -152 36.5t-129 36.5q-66 0 -186 -67v256q100 59 194 59q61 0 149.5 -38t131.5 -38q57 0 178 68v-256 q-98 -57 -186 -57z" />
<glyph unicode="&#x16a;" horiz-adv-x="1521" d="M106 1475h429v-992q0 -104 59 -160.5t167.5 -56.5t173 57.5t64.5 159.5v992h416v-967q0 -252 -171 -395.5t-484.5 -143.5t-483.5 144.5t-170 394.5v967zM1055 1612h-592v262h592v-262z" />
<glyph unicode="&#x16b;" horiz-adv-x="1232" d="M84 1065h395v-694q0 -129 121 -129q70 0 106.5 53t36.5 141v629h396v-1065h-334l-31 109q-113 -139 -311 -140q-184 0 -281.5 104.5t-97.5 307.5v684zM907 1210h-592v263h592v-263z" />
<glyph unicode="&#x16c;" horiz-adv-x="1521" d="M106 1475h429v-992q0 -104 59 -160.5t167.5 -56.5t173 57.5t64.5 159.5v992h416v-967q0 -252 -171 -395.5t-484.5 -143.5t-483.5 144.5t-170 394.5v967zM766 1595q-313 0 -350 312h282q2 -102 68 -103q63 0 65 103h285q-35 -312 -350 -312z" />
<glyph unicode="&#x16d;" horiz-adv-x="1232" d="M84 1065h395v-694q0 -129 121 -129q70 0 106.5 53t36.5 141v629h396v-1065h-334l-31 109q-113 -139 -311 -140q-184 0 -281.5 104.5t-97.5 307.5v684zM604 1194q-313 0 -350 311h283q2 -102 67 -102q63 0 66 102h284q-35 -311 -350 -311z" />
<glyph unicode="&#x16e;" horiz-adv-x="1521" d="M106 1475h429v-992q0 -104 59 -160.5t167.5 -56.5t173 57.5t64.5 159.5v992h416v-967q0 -252 -171 -395.5t-484.5 -143.5t-483.5 144.5t-170 394.5v967zM688 1772q0 -86 71.5 -86t71.5 86t-71.5 86t-71.5 -86zM1083 1771.5q0 -118.5 -82.5 -196.5t-240.5 -78t-242 78 t-84 196.5t84 197.5t242 79t240.5 -79t82.5 -197.5z" />
<glyph unicode="&#x16f;" horiz-adv-x="1232" d="M84 1065h395v-694q0 -129 121 -129q70 0 106.5 53t36.5 141v629h396v-1065h-334l-31 109q-113 -139 -311 -140q-184 0 -281.5 104.5t-97.5 307.5v684zM535 1444q0 -86 71.5 -86t71.5 86t-71.5 86t-71.5 -86zM930 1444q0 -119 -83 -197t-240.5 -78t-241.5 78t-84 197 t84 197.5t241.5 78.5t240.5 -78.5t83 -197.5z" />
<glyph unicode="&#x170;" horiz-adv-x="1521" d="M106 1475h429v-992q0 -104 59 -160.5t167.5 -56.5t173 57.5t64.5 159.5v992h416v-967q0 -252 -171 -395.5t-484.5 -143.5t-483.5 144.5t-170 394.5v967zM356 1591l222 316h397l-330 -316h-289zM862 1591l221 316h398l-330 -316h-289z" />
<glyph unicode="&#x171;" horiz-adv-x="1232" d="M84 1065h395v-694q0 -129 121 -129q70 0 106.5 53t36.5 141v629h396v-1065h-334l-31 109q-113 -139 -311 -140q-184 0 -281.5 104.5t-97.5 307.5v684zM205 1190l221 315h397l-329 -315h-289zM711 1190l221 315h397l-330 -315h-288z" />
<glyph unicode="&#x172;" horiz-adv-x="1521" d="M1278 -295q-70 -244 -360 -244q-154 0 -240 68t-86 190q0 147 149 250q-307 14 -471 151.5t-164 387.5v967h429v-992q0 -102 62 -160.5t165 -58.5q109 0 173 57.5t64 161.5v992h416v-967q0 -182 -83 -298t-249 -187q-102 -45 -167.5 -118t-65.5 -151q0 -49 25.5 -74.5 t60.5 -25.5q59 0 72 51h270z" />
<glyph unicode="&#x173;" horiz-adv-x="1232" d="M84 1065h395v-694q0 -129 121 -129q68 0 105.5 53t37.5 139v631h396v-1065h-113q-195 -117 -195 -246q0 -49 27 -75.5t62 -26.5q59 0 71 53h271q-70 -244 -361 -244q-154 0 -240 68t-86 188q0 88 60.5 168t165.5 127l-27 97q-113 -139 -311 -140q-184 0 -281.5 104.5 t-97.5 307.5v684z" />
<glyph unicode="&#x174;" horiz-adv-x="2086" d="M1677 1475h410l-328 -1475h-473l-244 1049l-231 -1049h-459l-352 1475h440l174 -981l222 981h438l237 -990zM1042 1708l-71 -117h-365l279 316h315l279 -316h-365z" />
<glyph unicode="&#x175;" horiz-adv-x="1759" d="M1366 1065h385l-293 -1065h-448l-131 694l-150 -694h-438l-283 1065h410l114 -690l156 690h414l137 -686zM879 1307l-72 -117h-365l279 315h315l279 -315h-365z" />
<glyph unicode="&#x176;" horiz-adv-x="1482" d="M742 1745l-72 -117h-365l279 315h315l279 -315h-365zM946 0h-409v590l-537 885h461l289 -562l313 562h420l-537 -885v-590z" />
<glyph unicode="&#x177;" horiz-adv-x="1220" d="M611 1336l-72 -117h-365l279 315h315l279 -315h-365zM823 1065h400l-385 -1063q-82 -225 -176.5 -313t-247.5 -88q-86 0 -211 28v267q100 -25 145 -25q43 0 66.5 27.5t46.5 101.5h-66l-397 1065h422l194 -782z" />
<glyph unicode="&#x178;" horiz-adv-x="1482" d="M946 0h-409v590l-537 885h461l289 -562l313 562h420l-537 -885v-590zM684 1599h-354v295h354v-295zM1171 1599h-354v295h354v-295z" />
<glyph unicode="&#x179;" horiz-adv-x="1325" d="M1280 1200l-719 -903h707v-297h-1223v279l717 899h-678v297h1196v-275zM498 1585l221 316h397l-330 -316h-288z" />
<glyph unicode="&#x17a;" horiz-adv-x="1079" d="M1044 788l-503 -505h485v-283h-991v276l510 506h-475v283h974v-277zM412 1184l221 315h397l-330 -315h-288z" />
<glyph unicode="&#x17b;" horiz-adv-x="1325" d="M1280 1200l-719 -903h707v-297h-1223v279l717 899h-678v297h1196v-275zM883 1577h-418v299h418v-299z" />
<glyph unicode="&#x17c;" horiz-adv-x="1079" d="M1044 788l-503 -505h485v-283h-991v276l510 506h-475v283h974v-277zM778 1176h-418v299h418v-299z" />
<glyph unicode="&#x17d;" horiz-adv-x="1325" d="M1280 1200l-719 -903h707v-297h-1223v279l717 899h-678v297h1196v-275zM594 1907l72 -109l71 109h365l-279 -316h-315l-279 316h365z" />
<glyph unicode="&#x17e;" horiz-adv-x="1079" d="M1044 788l-503 -505h485v-283h-991v276l510 506h-475v283h974v-277zM492 1505l71 -108l72 108h364l-278 -315h-315l-279 315h365z" />
<glyph unicode="&#x2c6;" horiz-adv-x="997" d="M498 1307l-72 -117h-365l279 315h315l279 -315h-365z" />
<glyph unicode="&#x2d8;" horiz-adv-x="823" d="M412 1194q-313 0 -351 311h283q2 -102 68 -102q63 0 65 102h285q-35 -311 -350 -311z" />
<glyph unicode="&#x2da;" horiz-adv-x="757" d="M307 1444q0 -86 72 -86t72 86t-72 86t-72 -86zM702 1444q0 -119 -82.5 -197t-240.5 -78t-242 78t-84 197t84 197.5t242 78.5t240.5 -78.5t82.5 -197.5z" />
<glyph unicode="&#x2dc;" horiz-adv-x="776" d="M528 1180q-66 0 -151.5 36.5t-128.5 36.5q-66 0 -187 -67v256q100 59 195 59q63 0 149.5 -38t131.5 -38q57 0 178 68v-256q-99 -57 -187 -57z" />
<glyph unicode="&#x2000;" horiz-adv-x="1024" />
<glyph unicode="&#x2001;" horiz-adv-x="2048" />
<glyph unicode="&#x2002;" horiz-adv-x="1024" />
<glyph unicode="&#x2003;" horiz-adv-x="2048" />
<glyph unicode="&#x2004;" horiz-adv-x="681" />
<glyph unicode="&#x2005;" horiz-adv-x="512" />
<glyph unicode="&#x2006;" horiz-adv-x="339" />
<glyph unicode="&#x2007;" horiz-adv-x="339" />
<glyph unicode="&#x2008;" horiz-adv-x="256" />
<glyph unicode="&#x2009;" horiz-adv-x="409" />
<glyph unicode="&#x200a;" horiz-adv-x="112" />
<glyph unicode="&#x2010;" horiz-adv-x="1105" d="M946 799v-287h-809v287h809z" />
<glyph unicode="&#x2011;" horiz-adv-x="1105" d="M946 799v-287h-809v287h809z" />
<glyph unicode="&#x2012;" horiz-adv-x="1105" d="M946 799v-287h-809v287h809z" />
<glyph unicode="&#x2013;" horiz-adv-x="921" d="M885 799v-287h-848v287h848z" />
<glyph unicode="&#x2014;" horiz-adv-x="1312" d="M1276 799v-287h-1239v287h1239z" />
<glyph unicode="&#x2018;" horiz-adv-x="552" d="M51 743v285q0 414 469 447v-183q-86 -10 -133 -56t-47 -122h143v-371h-432z" />
<glyph unicode="&#x2019;" horiz-adv-x="552" d="M502 1475v-285q0 -414 -469 -447v181q86 10 133 56t47 124h-143v371h432z" />
<glyph unicode="&#x201a;" horiz-adv-x="552" d="M502 371v-285q0 -414 -469 -446v180q86 10 133 56t47 124h-143v371h432z" />
<glyph unicode="&#x201c;" horiz-adv-x="1091" d="M66 743v285q0 414 469 447v-183q-180 -23 -181 -178h142v-371h-430zM590 743v285q0 414 469 447v-183q-180 -23 -180 -178h141v-371h-430z" />
<glyph unicode="&#x201d;" horiz-adv-x="1091" d="M502 1475v-285q0 -414 -469 -447v181q86 10 133 56t47 124h-143v371h432zM1026 1475v-285q0 -414 -469 -447v181q86 10 133 56t47 124h-143v371h432z" />
<glyph unicode="&#x201e;" horiz-adv-x="1077" d="M1026 371v-285q0 -414 -469 -446v180q86 10 133 56t47 124h-143v371h432zM502 371v-285q0 -414 -469 -446v180q86 10 133 56t47 124h-143v371h432z" />
<glyph unicode="&#x2022;" horiz-adv-x="686" d="M598 403h-524v488h524v-488z" />
<glyph unicode="&#x2026;" horiz-adv-x="1861" d="M1767 0h-432v371h432v-371zM526 0h-432v371h432v-371zM1147 0h-432v371h432v-371z" />
<glyph unicode="&#x202f;" horiz-adv-x="409" />
<glyph unicode="&#x2039;" horiz-adv-x="700" d="M307 176l-246 465l267 424h307l-195 -434l170 -455h-303z" />
<glyph unicode="&#x203a;" horiz-adv-x="700" d="M639 641l-246 -465h-303l170 455l-194 434h307z" />
<glyph unicode="&#x205f;" horiz-adv-x="512" />
<glyph unicode="&#x20ac;" d="M709 262q133 0 159 123h381q-31 -195 -176 -305.5t-368 -110.5q-213 0 -373 123t-213 381h-133l45 209h65q-2 14 -2 39q0 33 2 47h-110l45 209h86q100 487 577 487q225 0 371.5 -112.5t175.5 -304.5h-379q-31 125 -160 124q-150 0 -194 -194h352l-45 -209h-330 q-2 -14 -2 -47q0 -25 2 -39h314l-45 -209h-246q47 -211 201 -211z" />
<glyph unicode="&#x2122;" horiz-adv-x="1748" d="M1257 653h-210l-111 363v-363h-262v596h-144v-596h-274v596h-233v226h1009l125 -408l115 408h364v-822h-266v363z" />
<glyph unicode="&#xe000;" horiz-adv-x="1065" d="M0 1065h1065v-1065h-1065v1065z" />
<glyph unicode="&#xfb01;" horiz-adv-x="1292" d="M942 1464v-274q-152 29 -252 29q-72 0 -99.5 -26t-27.5 -83v-45h635v-1065h-397v797h-238v-797h-395v797h-156v268h156v57q0 190 108.5 286.5t311.5 96.5q153 0 354 -41z" />
<glyph unicode="&#xfb02;" horiz-adv-x="1300" d="M1206 0h-397v1206q-76 12 -125 13q-68 0 -94.5 -26t-26.5 -83v-45h139v-268h-139v-797h-395v797h-156v268h156v57q0 188 107.5 285.5t306.5 97.5q123 0 252 -28q242 12 372 16v-1493z" />
<glyph unicode="&#xfb03;" horiz-adv-x="1921" d="M1225 1505q160 0 354 -41v-274q-150 29 -252 29q-72 0 -99.5 -26t-27.5 -83v-45h627v-1065h-387v797h-240v-797h-395v797h-242v-797h-395v797h-156v268h156v45q0 184 103.5 279.5t299.5 95.5q203 0 371 -55q107 75 283 75zM563 1098v-33h242v41q0 51 2 76q-86 16 -133 16 q-61 0 -86 -22.5t-25 -77.5z" />
<glyph unicode="&#xfb04;" horiz-adv-x="1937" d="M1219 1505q123 0 251 -28l373 16v-1493h-397v1206q-78 12 -125 13q-121 0 -121 -103v-51h148v-268h-148v-797h-395v797h-242v-797h-395v797h-156v268h156v45q0 188 105.5 281.5t299.5 93.5q190 0 361 -51q97 71 285 71zM807 1182q-86 16 -131 16q-59 0 -84 -19.5 t-29 -62.5v-51h242v41q0 51 2 76z" />
</font>
</defs>
</svg>
