<?xml version="1.0" standalone="no"?>
<!DOCTYPE svg PUBLIC "-//W3C//DTD SVG 1.1//EN" "http://www.w3.org/Graphics/SVG/1.1/DTD/svg11.dtd" >
<svg xmlns="http://www.w3.org/2000/svg">
<metadata>
This is a custom SVG webfont generated by Font Squirrel.
Copyright   : Copyright c 2010 by Ralph du Carrois Erik Spiekermann  Botio Nikoltchev All rights reserved
Designer    : Ralph du Carrois Erik Spiekermann  Botio Nikoltchev
Foundry     : Ralph du Carrois Erik Spiekermann  Botio Nikoltchev
Foundry URL : httpedenspiekermanncom
</metadata>
<defs>
<font id="webfont8pkvgkxE" horiz-adv-x="1228" >
<font-face units-per-em="2048" ascent="1618" descent="-430" />
<missing-glyph horiz-adv-x="532" />
<glyph unicode=" "  horiz-adv-x="532" />
<glyph unicode="&#x09;" horiz-adv-x="532" />
<glyph unicode="&#xa0;" horiz-adv-x="532" />
<glyph unicode="!" horiz-adv-x="634" d="M469 492h-303l-51 1013h405zM498 0h-363v322h363v-322z" />
<glyph unicode="&#x22;" d="M420 1317l-31 -313h-205l-30 313v188h266v-188zM788 1317l-30 -313h-205l-31 313v188h266v-188z" />
<glyph unicode="#" d="M123 881v225h143l29 328h264l-29 -328h236l29 328h264l-29 -328h117v-225h-137l-29 -328h125v-225h-143l-29 -328h-264l28 328h-235l-29 -328h-264l29 328h-117v225h135l29 328h-123zM510 881l-29 -328h236l28 328h-235z" />
<glyph unicode="$" d="M1229 418q0 -174 -117 -297t-369 -148v-249h-264v253q-422 57 -479 455h326q39 -225 301 -225q256 0 256 162q0 100 -75 144t-276 87q-111 25 -182 49.5t-146 72.5t-113 127t-38 189q0 176 107.5 282.5t318.5 133.5v246h264v-242q391 -47 447 -403h-322q-31 174 -252 174 q-217 0 -217 -150q0 -82 55.5 -113.5t223.5 -68.5q96 -20 166.5 -41.5t147.5 -60.5t125 -87.5t80 -122t32 -167.5z" />
<glyph unicode="%" horiz-adv-x="1636" d="M1296 1434l-700 -1434h-254l700 1434h254zM758 1118q0 -160 -94.5 -253t-264.5 -93t-264 93t-94 253t94 253t264 93t264.5 -93t94.5 -253zM541 1118.5q0 186.5 -141.5 186.5t-141.5 -186.5t141.5 -186.5t141.5 186.5zM1595 313.5q0 -159.5 -94 -253t-264 -93.5t-264 93.5 t-94 253t94 252.5t264 93t264 -93t94 -252.5zM1378 313.5q0 186.5 -141 186.5t-141 -186.5t141 -186.5t141 186.5z" />
<glyph unicode="&#x26;" horiz-adv-x="1402" d="M1022 725l299 -39q-25 -197 -113 -362l174 -164l-206 -191l-142 133q-160 -133 -401 -133q-276 0 -413.5 106.5t-137.5 282.5q0 125 63.5 210t198.5 175q-104 90 -152.5 175.5t-48.5 195.5q0 141 112 245.5t339 104.5q225 0 333.5 -98t108.5 -231q0 -129 -69.5 -220.5 t-208.5 -185.5l225 -192q27 86 39 188zM647 201q125 0 203 78l-311 276q-61 -51 -85 -89t-24 -85q0 -88 60.5 -134t156.5 -46zM451 1114q0 -98 120 -203q96 70 130 116t34 101q0 135 -139 136q-145 0 -145 -150z" />
<glyph unicode="'" horiz-adv-x="552" d="M410 1317l-31 -313h-205l-31 313v188h267v-188z" />
<glyph unicode="(" horiz-adv-x="696" d="M373 655q0 -473 293 -1003h-271q-133 193 -228 456t-95 547.5t95 547.5t228 456h271q-293 -531 -293 -1004z" />
<glyph unicode=")" horiz-adv-x="696" d="M324 655q0 473 -293 1004h270q133 -193 228.5 -456t95.5 -547.5t-95.5 -548t-228.5 -455.5h-270q293 530 293 1003z" />
<glyph unicode="*" horiz-adv-x="962" d="M582 729l-103 244l-102 -244l-230 168l189 180l-266 21l90 270l229 -123l-61 260h282l-47 -264l236 127l90 -270l-268 -21l190 -180z" />
<glyph unicode="+" d="M481 1110h264v-324h320v-251h-320v-326h-264v326h-317v251h317v324z" />
<glyph unicode="," horiz-adv-x="552" d="M477 322v-261q0 -113 -37 -197.5t-99 -132.5t-128 -73t-139 -33v160q170 37 170 215h-129v322h362z" />
<glyph unicode="-" horiz-adv-x="1105" d="M942 786v-251h-778v251h778z" />
<glyph unicode="." horiz-adv-x="591" d="M477 0h-362v322h362v-322z" />
<glyph unicode="/" horiz-adv-x="696" d="M696 1505l-413 -1689h-283l414 1689h282z" />
<glyph unicode="0" d="M614.5 186q108.5 0 161.5 116t53 411q0 297 -53 416.5t-161.5 119.5t-162 -119.5t-53.5 -416.5q0 -295 53.5 -411t162 -116zM614 -31q-258 0 -401 183.5t-143 560.5q0 752 544.5 751.5t544.5 -751.5q0 -377 -143.5 -560.5t-401.5 -183.5z" />
<glyph unicode="1" d="M530 0v1139l-327 -168v289l329 174h318v-1434h-320z" />
<glyph unicode="2" d="M424 1040h-334q29 199 186.5 311.5t364.5 112.5q215 0 354.5 -113.5t139.5 -295.5q0 -68 -15.5 -125.5t-37 -102.5t-78 -111.5t-104.5 -114.5l-150 -148l-199 -193h573v-260h-993v260l346 340q211 209 271.5 287t60.5 168q0 80 -48 126t-130 46q-74 0 -130.5 -47.5 t-76.5 -139.5z" />
<glyph unicode="3" d="M590 201q92 0 148.5 54t56.5 155q0 236 -248 235h-125v219h141q84 0 144.5 53.5t60.5 143.5q0 80 -48 127t-122 47q-152 0 -182 -141h-312q27 170 164.5 270t347.5 100q205 0 340.5 -96t135.5 -281q0 -117 -86 -206.5t-211 -110.5q137 -16 233 -117.5t96 -236.5 q0 -201 -145 -324t-385 -123q-221 0 -363.5 113t-158.5 285h317q10 -76 62.5 -121t138.5 -45z" />
<glyph unicode="4" d="M686 1434h322v-928h161v-236h-161v-270h-303v270h-621v271zM381 506h324v500z" />
<glyph unicode="5" d="M92 369h311q37 -168 197 -168q96 0 155.5 69.5t59.5 204.5q0 270 -219 270q-111 0 -195 -88h-251l36 777h856v-226h-569l-18 -321q109 68 241 67q201 0 325 -124.5t124 -342.5q0 -238 -157 -378t-394 -140q-205 0 -339 105t-163 295z" />
<glyph unicode="6" d="M713 979q205 0 324.5 -127t119.5 -352q0 -231 -145.5 -381t-384.5 -150q-260 0 -406.5 180.5t-146.5 520.5q0 186 33.5 328.5t87 229.5t131 141t154.5 74.5t167 20.5q188 0 316.5 -82t175.5 -231h-346q-35 98 -148 98q-211 0 -248 -430q51 70 133.5 115t182.5 45z M412 473q0 -100 49 -189t157 -89q96 0 157 79.5t61 204.5q0 274 -203 275q-104 0 -162.5 -80t-58.5 -201z" />
<glyph unicode="7" d="M1116 1184l-530 -1184h-336l553 1192h-680v242h993v-250z" />
<glyph unicode="8" d="M1120 1100q0 -213 -233 -336q270 -145 270 -371q0 -193 -142.5 -308.5t-396.5 -115.5q-256 0 -401 113t-145 299q0 139 64.5 223t197.5 141q-113 61 -170.5 135t-57.5 199q0 135 75 224.5t185.5 125t251.5 35.5q88 0 171 -18.5t161 -57t124 -113.5t46 -175zM819 393 q0 59 -21.5 103.5t-62.5 73t-74.5 44t-87.5 31.5q-164 -80 -163 -252q0 -100 62.5 -150t140 -50t142 50t64.5 150zM420 1090q0 -160 219 -228q168 84 168 228q0 90 -60.5 132t-128.5 42q-43 0 -82.5 -11.5t-77.5 -53t-38 -109.5z" />
<glyph unicode="9" d="M535 455q-229 0 -347 136t-118 367q0 236 157.5 371t376.5 135q260 0 405.5 -171t145.5 -529q0 -180 -30.5 -320.5t-82 -228.5t-125 -144.5t-152.5 -79t-171 -22.5q-197 0 -330 92.5t-176 251.5h346q29 -129 162 -129q94 0 153.5 93.5t79.5 326.5q-106 -149 -294 -149z M817 961q0 72 -16.5 130t-64.5 103t-126 45q-111 0 -165 -77t-54 -193q0 -289 211 -289q106 0 160.5 78t54.5 203z" />
<glyph unicode=":" horiz-adv-x="591" d="M477 0h-362v322h362v-322zM477 743h-362v322h362v-322z" />
<glyph unicode=";" horiz-adv-x="591" d="M477 743h-362v322h362v-322zM477 322v-261q0 -113 -37 -197.5t-99 -132.5t-128 -73t-139 -33v160q170 37 170 215h-129v322h362z" />
<glyph unicode="&#x3c;" d="M164 543v239l901 430v-303l-578 -239v-15l578 -239v-303z" />
<glyph unicode="=" d="M1065 995v-252h-901v252h901zM1065 575v-251h-901v251h901z" />
<glyph unicode="&#x3e;" d="M1065 782v-239l-901 -430v303l577 239v15l-577 239v303z" />
<glyph unicode="?" horiz-adv-x="1122" d="M440 1096h-346q10 172 152.5 290.5t347.5 118.5q217 0 338 -95t121 -253q0 -117 -46 -200t-196 -267q-59 -74 -59 -219h-322q0 147 19.5 218t103.5 173q100 125 128 174t28 103q0 127 -119 127q-117 0 -150 -170zM774 0h-362v322h362v-322z" />
<glyph unicode="@" horiz-adv-x="1873" d="M1348 195q-96 0 -159 52t-71 126q-29 -59 -107.5 -108.5t-176.5 -49.5q-160 0 -243 108.5t-83 280.5q0 238 128 383.5t306 145.5q57 0 104.5 -25t61.5 -64l37 74h209l-70 -540q-10 -72 -10 -101q0 -53 17.5 -72.5t51.5 -19.5q168 0 168 424q0 489 -532 489 q-111 0 -213 -33.5t-196.5 -105.5t-151 -205t-56.5 -311q0 -166 50.5 -290t138.5 -193.5t195.5 -102t234.5 -32.5q145 0 324 55l55 -201q-178 -66 -395 -65q-170 0 -326 53t-282 152.5t-200.5 262t-74.5 363.5q0 184 54 333.5t142.5 246t207 161t241.5 92t252 27.5 q356 0 584.5 -184t228.5 -510q0 -285 -125.5 -450.5t-318.5 -165.5zM887 408q51 0 90 48t51 146l19 143q4 27 4 70q0 129 -93 129q-84 0 -132 -94t-48 -279q0 -163 109 -163z" />
<glyph unicode="A" horiz-adv-x="1435" d="M1436 0h-363l-104 338h-525l-104 -338h-340l524 1475h383zM709 1192l-195 -629h387z" />
<glyph unicode="B" horiz-adv-x="1325" d="M123 1475h491q309 0 450.5 -95.5t141.5 -296.5q0 -113 -76.5 -192.5t-191.5 -110.5q152 -31 239 -121t87 -233q0 -217 -144.5 -321.5t-468.5 -104.5h-528v1475zM676 664h-209v-439h199q133 0 190 50.5t57 161t-61 169t-176 58.5zM639 1249h-172v-372h178q102 0 159.5 50 t57.5 146q0 86 -60.5 131t-162.5 45z" />
<glyph unicode="C" horiz-adv-x="1517" d="M774 211q299 0 322 332h350q-33 -283 -206 -428.5t-472 -145.5q-307 0 -496.5 200t-189.5 572q0 369 187.5 566.5t514.5 197.5q262 0 437.5 -134t214.5 -378h-344q-57 272 -308 273q-162 0 -253 -128t-91 -397q0 -274 92 -402t242 -128z" />
<glyph unicode="D" horiz-adv-x="1492" d="M123 1475h553q735 0 735 -737.5t-731 -737.5h-557v1475zM676 1237h-209v-997h213q385 0 385 497q0 254 -102.5 377t-286.5 123z" />
<glyph unicode="E" horiz-adv-x="1189" d="M1059 862v-237h-592v-377h651v-248h-995v1475h995v-252h-651v-361h592z" />
<glyph unicode="F" horiz-adv-x="1120" d="M995 834v-238h-528v-596h-344v1475h936v-248h-592v-393h528z" />
<glyph unicode="G" horiz-adv-x="1533" d="M1432 821v-821h-222l-49 137q-150 -168 -424 -168q-285 0 -470 199t-185 575q0 369 192.5 565.5t526.5 196.5q250 0 417.5 -119.5t213.5 -332.5h-342q-57 213 -289 213q-166 0 -263.5 -127t-97.5 -396q0 -270 99.5 -401t263.5 -131q143 0 237.5 80t94.5 203v104h-349v223 h646z" />
<glyph unicode="H" horiz-adv-x="1480" d="M1016 1475h342v-1475h-342v623h-549v-623h-344v1475h344v-607h549v607z" />
<glyph unicode="I" horiz-adv-x="589" d="M123 1475h344v-1475h-344v1475z" />
<glyph unicode="J" horiz-adv-x="1157" d="M41 436h328q6 -117 57 -170t121 -53q168 0 168 231v1031h329v-1008q0 -236 -122.5 -367t-366.5 -131q-203 0 -347 112.5t-167 354.5z" />
<glyph unicode="K" horiz-adv-x="1466" d="M1466 0h-450l-549 643v-643h-344v1475h344v-619l520 619h402l-617 -691z" />
<glyph unicode="L" horiz-adv-x="1224" d="M123 1475h344v-1217h717v-258h-1061v1475z" />
<glyph unicode="M" horiz-adv-x="1828" d="M1049 0h-281l-354 1014v-1014h-291v1475h393l399 -1151l388 1151h403v-1475h-311v1016z" />
<glyph unicode="N" horiz-adv-x="1476" d="M1061 1475h293v-1475h-355l-581 1047v-1047h-295v1475h381l557 -1008v1008z" />
<glyph unicode="O" horiz-adv-x="1605" d="M803 213q160 0 266.5 124t106.5 400.5t-107.5 401.5t-265.5 125q-162 0 -267.5 -125t-105.5 -404q0 -276 107.5 -399t265.5 -123zM803 -31q-143 0 -266 41t-228.5 127t-166 239.5t-60.5 358.5q0 164 41 295t108.5 219t160.5 146.5t195.5 84t215 25.5t214 -24.5t196 -82 t162 -143.5t108.5 -219t41 -299q0 -203 -60.5 -355.5t-166 -240.5t-229.5 -130t-265 -42z" />
<glyph unicode="P" horiz-adv-x="1363" d="M123 1475h532q334 0 485.5 -120t151.5 -372t-154.5 -370.5t-469.5 -118.5h-201v-494h-344v1475zM659 1239h-192v-510h205q266 0 266 254q0 256 -279 256z" />
<glyph unicode="Q" horiz-adv-x="1619" d="M803 -31q-143 0 -266 41t-228.5 127t-166 239.5t-60.5 358.5q0 164 41 295t108.5 219t160.5 146.5t195.5 84t215 25.5t214 -24.5t196 -82t162 -143.5t108.5 -219t41 -299q0 -393 -228 -596l242 -270l-276 -195l-199 332q-119 -39 -260 -39zM803 213q160 0 266.5 124 t106.5 400.5t-107.5 401.5t-265.5 125q-162 0 -267.5 -125t-105.5 -404q0 -276 107.5 -399t265.5 -123z" />
<glyph unicode="R" horiz-adv-x="1357" d="M1348 0h-408l-326 539h-188v-539h-344v1475h543q307 0 465.5 -120t158.5 -347q0 -301 -293 -410zM629 1237h-203v-461h215q113 0 182.5 60.5t69.5 171.5q0 229 -264 229z" />
<glyph unicode="S" horiz-adv-x="1380" d="M705 -31q-279 0 -446 124t-198 341h326q18 -102 100 -163.5t222 -61.5q274 0 274 170q0 45 -19.5 80t-47 56.5t-83 43t-98.5 32.5l-121 30q-86 20 -147 39.5t-133 56.5t-116 83t-73.5 117.5t-29.5 161.5q0 199 151.5 312.5t440.5 113.5q256 0 406.5 -107.5t178.5 -301.5 h-321q-12 82 -86 128t-187 46q-238 0 -237 -150q0 -86 66.5 -126t232.5 -76q119 -27 210 -61t178 -90t134 -144t47 -205q0 -193 -156.5 -321t-467.5 -128z" />
<glyph unicode="T" horiz-adv-x="1234" d="M1225 1475v-258h-439v-1217h-344v1217h-432v258h1215z" />
<glyph unicode="U" horiz-adv-x="1466" d="M113 1475h344v-1004q0 -125 71.5 -191.5t206.5 -66.5t212 67.5t77 190.5v1004h330v-981q0 -248 -163 -386.5t-458 -138.5t-457.5 138.5t-162.5 386.5v981z" />
<glyph unicode="V" horiz-adv-x="1353" d="M1022 1475h332l-471 -1475h-412l-471 1475h354l332 -1207z" />
<glyph unicode="W" horiz-adv-x="2017" d="M1692 1475h325l-329 -1475h-406l-274 1139l-263 -1139h-391l-354 1475h356l224 -1090l247 1090h383l269 -1096z" />
<glyph unicode="X" horiz-adv-x="1435" d="M1384 1475l-481 -689l522 -786h-415l-318 500l-315 -500h-367l522 764l-489 711h408l290 -441l291 441h352z" />
<glyph unicode="Y" horiz-adv-x="1368" d="M846 0h-324v588l-522 887h369l323 -601l348 601h328l-522 -887v-588z" />
<glyph unicode="Z" horiz-adv-x="1269" d="M1219 1233l-779 -989h766v-244h-1155v248l776 983h-737v244h1129v-242z" />
<glyph unicode="[" horiz-adv-x="696" d="M635 -137v-211h-512v2007h512v-211h-234v-1585h234z" />
<glyph unicode="\" horiz-adv-x="696" d="M414 -184l-414 1689h283l413 -1689h-282z" />
<glyph unicode="]" horiz-adv-x="696" d="M61 -348v211h234v1585h-234v211h512v-2007h-512z" />
<glyph unicode="^" horiz-adv-x="1064" d="M532 1227l-174 -408h-305l326 656h307l326 -656h-305z" />
<glyph unicode="_" horiz-adv-x="1114" d="M1114 -53v-252h-1114v252h1114z" />
<glyph unicode="`" horiz-adv-x="675" d="M408 1475l206 -281h-247l-306 281h347z" />
<glyph unicode="a" horiz-adv-x="1187" d="M420 758h-328q39 162 171 250t343 88q221 0 350 -104.5t129 -286.5v-705h-249l-39 111q-123 -141 -353 -142q-168 0 -270 89t-102 249q0 129 99 212t331 122l264 43v47q0 76 -44 117t-126 41q-149 0 -176 -131zM537 188q104 0 166.5 59.5t62.5 145.5v117l-182 -37 q-109 -23 -151 -58.5t-42 -92.5q1 -134 146 -134z" />
<glyph unicode="b" horiz-adv-x="1300" d="M362 0h-249v1475h319v-510q127 131 322 131q219 0 347 -134.5t128 -392.5q0 -285 -139.5 -442.5t-364.5 -157.5q-190 0 -311 142zM907 541q0 322 -237 321q-113 0 -180.5 -81t-67.5 -236q0 -342 237 -342q113 0 180.5 85t67.5 253z" />
<glyph unicode="c" horiz-adv-x="1208" d="M811 354h336q-41 -176 -174 -280.5t-361 -104.5q-262 0 -401 143.5t-139 409.5q0 268 146.5 421t399.5 153q209 0 351.5 -98.5t175.5 -260.5h-336q-18 63 -68.5 102.5t-111.5 39.5q-225 0 -226 -363q0 -164 59.5 -247t153.5 -83q146 0 195 168z" />
<glyph unicode="d" horiz-adv-x="1300" d="M1188 0h-250l-53 117q-127 -147 -326 -148q-219 0 -353 148.5t-134 404.5q0 266 134 420t349 154q199 0 313 -131v510h320v-1475zM393 524q0 -164 65.5 -242.5t180.5 -78.5q240 0 240 327q0 332 -240 332q-115 0 -180.5 -87t-65.5 -251z" />
<glyph unicode="e" horiz-adv-x="1232" d="M834 309h325q-37 -158 -167 -249t-359 -91q-252 0 -406.5 150.5t-154.5 412.5q0 268 148.5 416t402.5 148q260 0 404 -161t144 -480h-776q31 -262 254 -262q74 0 122.5 31.5t62.5 84.5zM616 895q-195 0 -221 -254h449q-13 254 -228 254z" />
<glyph unicode="f" horiz-adv-x="778" d="M799 1470v-225q-106 27 -160 27q-127 0 -127 -117v-90h233v-221h-233v-844h-319v844h-162v221h162v78q0 176 93 269t269 93q109 0 244 -35z" />
<glyph unicode="g" horiz-adv-x="1280" d="M98 -66h326q29 -63 76 -86.5t141 -23.5q207 0 207 213v94q-123 -100 -289 -100q-211 0 -349 139t-138 383q0 254 136 398.5t353 144.5q190 0 309 -129l56 98h241v-1008q0 -211 -141 -333.5t-391 -122.5q-484 -1 -537 333zM393 555q0 -145 66.5 -218t179.5 -73 q115 0 177.5 74t62.5 217q0 154 -62.5 230.5t-177.5 76.5q-111 0 -178.5 -78.5t-67.5 -228.5z" />
<glyph unicode="h" horiz-adv-x="1230" d="M113 0v1475h319v-506q113 127 303 127q186 0 289.5 -105.5t103.5 -302.5v-688h-319v676q0 195 -164 194q-92 0 -152.5 -62.5t-60.5 -166.5v-641h-319z" />
<glyph unicode="i" horiz-adv-x="544" d="M444 1202h-344v273h344v-273zM432 0h-319v1065h319v-1065z" />
<glyph unicode="j" horiz-adv-x="567" d="M-111 -369v224q68 -18 127 -19q55 0 81 25.5t26 85.5v1118h319v-1124q0 -158 -92 -249t-262 -91q-111 -1 -199 30zM455 1202h-344v273h344v-273z" />
<glyph unicode="k" horiz-adv-x="1198" d="M432 0h-319v1475h319v-793l361 383h372l-434 -444l488 -621h-410l-377 489v-489z" />
<glyph unicode="l" horiz-adv-x="544" d="M432 1475v-1475h-319v1475h319z" />
<glyph unicode="m" horiz-adv-x="1884" d="M432 0h-319v1065h225l53 -117q123 147 326 148q223 0 323 -148q131 147 353 148q180 0 284.5 -98.5t104.5 -305.5v-692h-320v700q0 84 -45 127t-125 43q-90 0 -138 -62.5t-48 -156.5v-651h-320v700q0 84 -45 127t-125 43q-84 0 -134 -60t-50 -144v-666z" />
<glyph unicode="n" horiz-adv-x="1230" d="M432 0h-319v1065h264l31 -117q117 147 325 148q186 0 290.5 -107.5t104.5 -300.5v-688h-319v676q0 195 -164 194q-94 0 -153.5 -65.5t-59.5 -173.5v-631z" />
<glyph unicode="o" horiz-adv-x="1269" d="M72 537q0 272 146.5 415.5t416.5 143.5t416.5 -143.5t146.5 -415.5q0 -274 -146.5 -421t-416.5 -147q-264 0 -413.5 147t-149.5 421zM401 537q0 -186 59.5 -269.5t176.5 -83.5q121 0 177 81t56 272q0 188 -57 266t-178 78t-177.5 -78t-56.5 -266z" />
<glyph unicode="p" horiz-adv-x="1300" d="M725 -31q-174 0 -293 123v-461h-319v1434h241l62 -119q129 150 338 150q217 0 346 -143.5t129 -403.5q0 -268 -142.5 -424t-361.5 -156zM907 541q0 322 -237 321q-113 0 -180.5 -81t-67.5 -236q0 -342 237 -342q113 0 180.5 85t67.5 253z" />
<glyph unicode="q" horiz-adv-x="1300" d="M946 1065h242v-1434h-320v467q-125 -129 -309 -129q-219 0 -353 148.5t-134 404.5q0 266 134 420t349 154q213 0 330 -152zM393 524q0 -164 65.5 -242.5t180.5 -78.5q240 0 240 327q0 332 -240 332q-115 0 -180.5 -87t-65.5 -251z" />
<glyph unicode="r" horiz-adv-x="813" d="M432 0h-319v1065h266l35 -162q88 193 278 193q70 0 121 -15v-297q-66 20 -137 21q-100 0 -172 -96.5t-72 -266.5v-442z" />
<glyph unicode="s" horiz-adv-x="1132" d="M559 186q178 0 178 101q0 51 -45 72.5t-209 60.5q-88 20 -148.5 42.5t-119.5 61.5t-89 98.5t-30 141.5q0 154 121 243t350 89q205 0 333 -86t157 -240h-322q-25 109 -176 109q-143 0 -143 -88q0 -43 42 -67t179 -58q59 -14 75.5 -19.5t71 -21t75 -26.5t62.5 -31.5 t59 -42.5l41 -50q24 -29 32 -65.5t8 -79.5q0 -164 -127 -262.5t-373 -98.5q-213 0 -348 90.5t-162 241.5h322q10 -51 61 -83t125 -32z" />
<glyph unicode="t" horiz-adv-x="753" d="M723 215v-217q-100 -29 -195 -29q-164 0 -255 85t-91 243v547h-162v221h162l21 256h299v-256h219v-221h-219v-557q0 -43 28.5 -66.5t75.5 -23.5q39 0 117 18z" />
<glyph unicode="u" horiz-adv-x="1220" d="M102 1065h320v-705q0 -80 44 -122.5t126 -42.5q86 0 141 61t55 170v639h320v-1065h-264l-31 113q-117 -143 -321 -144q-184 0 -287 104.5t-103 299.5v692z" />
<glyph unicode="v" horiz-adv-x="1159" d="M819 1065h330l-369 -1065h-403l-367 1065h346l234 -829z" />
<glyph unicode="w" horiz-adv-x="1761" d="M1438 1065h303l-293 -1065h-395l-168 778l-191 -778h-387l-287 1065h330l166 -801l189 801h385l165 -805z" />
<glyph unicode="x" horiz-adv-x="1175" d="M1110 1065l-352 -500l407 -565h-385l-209 330l-221 -330h-340l398 561l-377 504h372l187 -279l186 279h334z" />
<glyph unicode="y" horiz-adv-x="1169" d="M840 1065h319l-381 -1088q-72 -207 -163 -291.5t-236 -84.5q-82 0 -172 22v223q74 -18 131 -18q55 0 90 41t55 131h-90l-383 1065h340l236 -832z" />
<glyph unicode="z" horiz-adv-x="1038" d="M997 817l-553 -581h533v-236h-936v248l559 581h-522v236h919v-248z" />
<glyph unicode="{" horiz-adv-x="696" d="M31 537v237q172 0 172 180v322q0 125 28.5 202.5t93 116.5t138.5 51.5t192 12.5v-211q-96 -2 -132 -30.5t-36 -131.5v-328q0 -135 -49 -202.5t-143 -100.5q94 -33 143 -100.5t49 -202.5v-327q0 -102 36 -131t132 -31v-211q-119 0 -192.5 12t-138 51t-93 117t-28.5 203 v321q0 181 -172 181z" />
<glyph unicode="|" horiz-adv-x="696" d="M209 1608h278v-1895h-278v1895z" />
<glyph unicode="}" horiz-adv-x="696" d="M666 774v-237q-172 0 -172 -181v-321q0 -125 -29 -203t-93.5 -117t-138 -51t-192.5 -12v211q96 2 132 30.5t36 131.5v327q0 135 49 203t143 100q-94 33 -143 100.5t-49 202.5v328q0 102 -36 131t-132 31v211q119 0 192.5 -12.5t138 -51.5t93.5 -116.5t29 -202.5v-322 q0 -180 172 -180z" />
<glyph unicode="~" d="M799 485q-88 0 -206 56.5t-177 56.5q-133 0 -252 -102v260q102 82 266 82q88 0 206 -56.5t177 -56.5q133 0 252 102v-260q-102 -82 -266 -82z" />
<glyph unicode="&#xa1;" horiz-adv-x="634" d="M166 645h303l51 -1014h-405zM135 1137h363v-322h-363v322z" />
<glyph unicode="&#xa2;" d="M492 -276v256q-203 33 -308.5 172t-105.5 370q0 229 109.5 375.5t304.5 185.5v269h264v-269q160 -27 263 -119t132 -227h-336q-18 63 -68.5 102.5t-111.5 39.5q-225 0 -225 -363q0 -164 59 -247t154 -83q145 0 194 168h336q-35 -147 -134 -245.5t-263 -126.5v-258h-264z " />
<glyph unicode="&#xa3;" d="M522 999v-190h414v-191h-416v-147q0 -133 -94 -213h690v-258h-1022v258q59 18 77.5 63.5t18.5 137.5v159h-112v191h112v195q0 225 120 342.5t349 117.5q207 0 337 -103.5t155 -264.5h-307q-33 129 -164 129q-158 -1 -158 -226z" />
<glyph unicode="&#xa4;" d="M53 322l121 120q-57 109 -57 254q0 137 55 248l-119 119l180 180l113 -115q121 72 266 72q147 0 269 -72l114 115l181 -180l-119 -119q55 -111 55 -248q0 -141 -59 -254l123 -120l-181 -181l-118 119q-119 -68 -265 -67q-143 0 -260 67l-119 -119zM860 696.5 q0 116.5 -68.5 187t-177.5 70.5q-111 0 -178 -70.5t-67 -187t67.5 -187.5t177.5 -71q109 0 177.5 71t68.5 187.5z" />
<glyph unicode="&#xa5;" d="M776 0h-323v266h-256v191h256v96h-256v190h163l-409 691h368l304 -580l327 580h328l-410 -691h164v-190h-256v-96h256v-191h-256v-266z" />
<glyph unicode="&#xa6;" horiz-adv-x="696" d="M209 1608h278v-789h-278v789zM209 502h278v-789h-278v789z" />
<glyph unicode="&#xa7;" d="M145 625q0 88 48.5 150.5t158.5 113.5q-156 100 -155 264q0 156 114.5 232.5t300.5 76.5q195 0 309.5 -107.5t120.5 -232.5h-284q-12 55 -47 91t-93 36q-47 0 -78.5 -23.5t-31.5 -64.5q0 -14 3 -26.5t12 -22.5t18.5 -16t27.5 -15l33 -14q14 -6 43 -16.5t49 -18.5l114 -47 t101.5 -54t92 -72t57 -90t24.5 -118q0 -170 -204 -264q150 -90 149 -237q0 -162 -121 -249t-305 -87q-201 0 -315.5 94t-124.5 242h284q12 -53 51.5 -88t100.5 -35q49 0 84 24.5t35 63.5q0 18 -6 31.5t-14.5 22.5t-29 19.5t-35 15.5t-47.5 18l-57 22q-88 35 -141 61.5 t-116.5 71.5t-94.5 106.5t-31 141.5zM459 659q0 -70 42 -106.5t179 -81.5q90 76 90 145.5t-44 106.5t-179 82q-88 -74 -88 -146z" />
<glyph unicode="&#xa8;" horiz-adv-x="897" d="M365 1212h-304v263h304v-263zM836 1212h-304v263h304v-263z" />
<glyph unicode="&#xa9;" horiz-adv-x="1726" d="M289 737.5q0 -286.5 170 -443.5t403.5 -157t403.5 157t170 443.5t-170 443t-403.5 156.5t-403.5 -156.5t-170 -443zM1645 737.5q0 -194.5 -69 -346t-183.5 -241t-249.5 -135.5t-280.5 -46t-281 46t-250 135.5t-183 241t-68.5 346t68.5 346t183 240.5t250 135t281 46 t280.5 -46t249.5 -135t183.5 -240.5t69 -346zM1026 600h262q-33 -135 -136 -216t-282 -81q-201 0 -311 108.5t-110 321.5q0 209 114.5 328t310.5 119q164 0 275 -76t137 -203h-262q-12 49 -51 80t-90 31q-174 0 -174 -283q0 -129 45 -193.5t120 -64.5q109 0 152 129z" />
<glyph unicode="&#xaa;" horiz-adv-x="1075" d="M449 1235h-279q18 125 123.5 197.5t263.5 72.5q170 0 272.5 -84t102.5 -229v-563h-199l-43 88q-90 -113 -241 -113q-119 0 -212.5 65.5t-93.5 204.5q0 125 102.5 195t258.5 86l141 16v43q0 53 -26.5 79t-63.5 26q-88 0 -106 -84zM940 252v-252h-786v252h786zM535 801 q51 0 80.5 32.5t29.5 77.5v99l-84 -13q-131 -18 -131 -114q0 -39 29 -60.5t76 -21.5z" />
<glyph unicode="&#xab;" horiz-adv-x="1116" d="M336 184l-244 461l264 420h240l-190 -426l169 -455h-239zM764 184l-244 461l264 420h240l-190 -426l170 -455h-240z" />
<glyph unicode="&#xac;" d="M164 786h901v-577h-264v326h-637v251z" />
<glyph unicode="&#xad;" horiz-adv-x="1105" d="M942 786v-251h-778v251h778z" />
<glyph unicode="&#xae;" horiz-adv-x="1277" d="M1176 975q0 -135 -48.5 -240.5t-127 -167t-172 -92.5t-191.5 -31t-190.5 31t-171 92.5t-126 167t-47.5 240.5t47.5 240.5t126 167t171 92t190.5 30.5t191.5 -30.5t172 -92t127 -167t48.5 -240.5zM260 975q0 -205 109.5 -305.5t267.5 -100.5t269.5 100.5t111.5 305.5 t-111.5 305t-269.5 100t-267.5 -100t-109.5 -305zM903 719h-151l-119 199h-70v-199h-127v541h201q229 0 229 -170q0 -113 -108 -152zM639 1171h-76v-167h80q37 0 64.5 20t27.5 66q0 81 -96 81z" />
<glyph unicode="&#xaf;" horiz-adv-x="675" d="M614 1245h-553v230h553v-230z" />
<glyph unicode="&#xb0;" d="M346 1130.5q0 -145.5 114.5 -145.5t114.5 145.5t-114.5 145.5t-114.5 -145.5zM819 1130.5q0 -157.5 -103.5 -251t-255 -93.5t-255 93.5t-103.5 251t103.5 251t255 93.5t255 -93.5t103.5 -251z" />
<glyph unicode="&#xb1;" d="M481 1110h264v-324h320v-251h-320v-203h-264v203h-317v251h317v324zM1065 252v-252h-901v252h901z" />
<glyph unicode="&#xb2;" horiz-adv-x="696" d="M264 1423h-211q55 236 303 236q125 0 199 -66.5t74 -175.5q0 -57 -34 -118.5t-65 -93.5l-94 -93l-82 -78h271v-174h-539v174l201 197l62 63q19 20 40 56t21 71q0 74 -66 74q-62 0 -80 -72z" />
<glyph unicode="&#xb3;" horiz-adv-x="696" d="M272 1452h-209q12 88 91 147.5t198 59.5q111 0 185.5 -54.5t74.5 -160.5q0 -55 -36.5 -101.5t-98.5 -66.5q166 -35 166 -189q0 -106 -83 -172.5t-212 -66.5q-121 0 -201.5 60.5t-91.5 160.5h221q10 -59 70 -59q70 0 70 88q0 94 -109 94h-47v158h57q37 0 57.5 22.5 t20.5 59.5q0 63 -61 63q-48 0 -62 -43z" />
<glyph unicode="&#xb4;" horiz-adv-x="675" d="M61 1194l207 281h346l-305 -281h-248z" />
<glyph unicode="&#xb5;" horiz-adv-x="1230" d="M113 1065h319v-705q0 -80 44 -122.5t126 -42.5q84 0 140.5 59t56.5 160v651h319v-1065h-264l-31 113q-117 -143 -321 -144q-33 0 -70 11v-347h-319v1432z" />
<glyph unicode="&#xb6;" horiz-adv-x="1382" d="M432 1475h299v-1844h-299v1014q-37 0 -79 8.5t-96 36t-95 69.5t-71 120.5t-30 179t30 179.5t72 122t95 70.5t95 36t79 8.5zM971 1475h299v-1844h-299v1844z" />
<glyph unicode="&#xb7;" horiz-adv-x="552" d="M438 508h-323v291h323v-291z" />
<glyph unicode="&#xb8;" horiz-adv-x="733" d="M672 -285q0 -102 -82 -172.5t-213 -70.5q-139 0 -220 66.5t-96 180.5h205q10 -84 105 -84q43 0 67.5 21.5t24.5 52.5q0 88 -168 88l24 254h177v-133q84 -18 130 -70.5t46 -132.5z" />
<glyph unicode="&#xb9;" horiz-adv-x="696" d="M616 860h-512v180h160v404l-160 -92v194l152 92h221v-598h139v-180z" />
<glyph unicode="&#xba;" horiz-adv-x="1073" d="M102 1059q0 104 26 184t67 129t99 80t116.5 42t126.5 11q434 0 434 -446q0 -131 -37 -224.5t-102.5 -141.5t-137 -68.5t-157.5 -20.5t-158 21.5t-137.5 69.5t-102.5 141.5t-37 222.5zM397 1059q0 -137 33 -199.5t109 -62.5q72 0 105.5 62.5t33.5 199.5q0 135 -34 194.5 t-107.5 59.5t-106.5 -59.5t-33 -194.5zM946 252v-252h-817v252h817z" />
<glyph unicode="&#xbb;" horiz-adv-x="1116" d="M1024 645l-244 -461h-239l170 455l-191 426h240zM596 645l-244 -461h-239l170 455l-191 426h240z" />
<glyph unicode="&#xbc;" horiz-adv-x="1802" d="M698 655h-512v181h160v403l-160 -92v194l152 93h221v-598h139v-181zM1350 492h180v-170h84v-177h-84v-145h-207v145h-301v185l172 448h217l-168 -456h80v47zM1485 1618l-895 -1802h-244l893 1802h246z" />
<glyph unicode="&#xbd;" horiz-adv-x="1802" d="M1262 563h-211q55 236 303 236q125 0 198.5 -66.5t73.5 -175.5q0 -57 -33.5 -118.5t-64.5 -93.5l-94 -93l-82 -78h270v-174h-539v174l201 197l63 63q19 20 39.5 56t20.5 71q0 74 -66 74q-61 0 -79 -72zM688 655h-512v181h160v403l-160 -92v194l152 93h221v-598h139v-181z M1475 1618l-895 -1802h-244l893 1802h246z" />
<glyph unicode="&#xbe;" horiz-adv-x="1802" d="M389 1257h-209q12 88 91 147.5t198 59.5q111 0 185.5 -54t74.5 -161q0 -55 -37 -101t-98 -67q166 -35 166 -188q0 -106 -83 -173t-212 -67q-121 0 -202 60.5t-91 160.5h221q10 -59 70 -59q70 0 69 88q0 94 -108 94h-47v158h57q37 0 57.5 22.5t20.5 59.5q0 63 -61 63 q-46 0 -62 -43zM1364 492h180v-170h84v-177h-84v-145h-207v145h-301v185l172 448h217l-168 -456h80v47zM1499 1618l-895 -1802h-244l893 1802h246z" />
<glyph unicode="&#xbf;" horiz-adv-x="1122" d="M684 10h346q-10 -172 -152.5 -290.5t-347.5 -118.5q-217 0 -337.5 95t-120.5 253q0 117 46 199.5t195 267.5q59 74 60 219h321q0 -147 -19.5 -218t-103.5 -173q-100 -125 -127.5 -174.5t-27.5 -102.5q0 -127 119 -127q116 0 149 170zM350 1106h363v-322h-363v322z" />
<glyph unicode="&#xc0;" horiz-adv-x="1435" d="M1436 0h-363l-104 338h-525l-104 -338h-340l524 1475h383zM709 1192l-195 -629h387zM758 1864l207 -281h-248l-305 281h346z" />
<glyph unicode="&#xc1;" horiz-adv-x="1435" d="M1436 0h-363l-104 338h-525l-104 -338h-340l524 1475h383zM709 1192l-195 -629h387zM473 1583l207 281h346l-305 -281h-248z" />
<glyph unicode="&#xc2;" horiz-adv-x="1435" d="M1436 0h-363l-104 338h-525l-104 -338h-340l524 1475h383zM709 1192l-195 -629h387zM709 1735l-93 -121h-327l276 280h287l276 -280h-325z" />
<glyph unicode="&#xc3;" horiz-adv-x="1435" d="M1436 0h-363l-104 338h-525l-104 -338h-340l524 1475h383zM709 1192l-195 -629h387zM842 1602q-63 0 -143.5 38.5t-123.5 38.5q-76 0 -174 -77v225q94 68 183 67q63 0 143 -38.5t123 -38.5q68 0 166 77v-225q-94 -67 -174 -67z" />
<glyph unicode="&#xc4;" horiz-adv-x="1435" d="M1436 0h-363l-104 338h-525l-104 -338h-340l524 1475h383zM709 1192l-195 -629h387zM625 1602h-303v262h303v-262zM1096 1602h-303v262h303v-262z" />
<glyph unicode="&#xc5;" horiz-adv-x="1435" d="M993 1595q0 -104 -67 -172l510 -1423h-363l-104 338h-525l-104 -338h-340l502 1413q-78 68 -78 182q0 106 77 179t208 73t207.5 -73t76.5 -179zM709 1192l-195 -629h387zM625 1595q0 -51 23.5 -77.5t60 -26.5t60.5 26.5t24 77.5q0 104 -84 104t-84 -104z" />
<glyph unicode="&#xc6;" horiz-adv-x="1968" d="M1896 248v-248h-933v338h-453l-162 -338h-348l723 1475h1173v-252h-589v-361h530v-237h-530v-377h589zM618 563h345v709z" />
<glyph unicode="&#xc7;" horiz-adv-x="1517" d="M836 -291q0 88 -168 88l16 176q-272 25 -437 223.5t-165 544.5q0 369 187.5 566.5t514.5 197.5q262 0 437.5 -134t214.5 -378h-344q-57 272 -308 273q-162 0 -253 -128t-91 -397q0 -274 92.5 -402t241.5 -128q299 0 322 332h350q-31 -258 -178.5 -402.5t-399.5 -167.5 v-55q84 -18 130 -70.5t46 -132.5q0 -102 -81.5 -172.5t-212.5 -70.5q-139 0 -220 66.5t-96 180.5h205q10 -84 104 -84q43 0 68 21.5t25 52.5z" />
<glyph unicode="&#xc8;" horiz-adv-x="1189" d="M1059 862v-237h-592v-377h651v-248h-995v1475h995v-252h-651v-361h592zM625 1864l206 -281h-247l-305 281h346z" />
<glyph unicode="&#xc9;" horiz-adv-x="1189" d="M1059 862v-237h-592v-377h651v-248h-995v1475h995v-252h-651v-361h592zM438 1583l207 281h346l-305 -281h-248z" />
<glyph unicode="&#xca;" horiz-adv-x="1189" d="M1059 862v-237h-592v-377h651v-248h-995v1475h995v-252h-651v-361h592zM618 1735l-92 -121h-327l276 280h287l276 -280h-325z" />
<glyph unicode="&#xcb;" horiz-adv-x="1189" d="M1059 862v-237h-592v-377h651v-248h-995v1475h995v-252h-651v-361h592zM532 1602h-303v262h303v-262zM1004 1602h-304v262h304v-262z" />
<glyph unicode="&#xcc;" horiz-adv-x="589" d="M123 1475h344v-1475h-344v1475zM332 1864l207 -281h-248l-305 281h346z" />
<glyph unicode="&#xcd;" horiz-adv-x="589" d="M123 1475h344v-1475h-344v1475zM51 1583l207 281h346l-305 -281h-248z" />
<glyph unicode="&#xce;" horiz-adv-x="589" d="M123 1475h344v-1475h-344v1475zM295 1735l-92 -121h-328l277 280h286l277 -280h-326z" />
<glyph unicode="&#xcf;" horiz-adv-x="589" d="M123 1475h344v-1475h-344v1475zM211 1602h-303v262h303v-262zM682 1602h-303v262h303v-262z" />
<glyph unicode="&#xd0;" horiz-adv-x="1492" d="M123 0v645h-103v258h103v572h553q735 0 735 -737.5t-731 -737.5h-557zM731 645h-264v-405h213q385 0 385 497q0 254 -102.5 377t-286.5 123h-209v-334h264v-258z" />
<glyph unicode="&#xd1;" horiz-adv-x="1476" d="M1061 1475h293v-1475h-355l-581 1047v-1047h-295v1475h381l557 -1008v1008zM870 1602q-63 0 -143 38.5t-123 38.5q-76 0 -174 -77v225q94 68 182 67q63 0 143.5 -38.5t123.5 -38.5q68 0 165 77v-225q-94 -67 -174 -67z" />
<glyph unicode="&#xd2;" horiz-adv-x="1605" d="M803 213q160 0 266.5 124t106.5 400.5t-107.5 401.5t-265.5 125q-162 0 -267.5 -125t-105.5 -404q0 -276 107.5 -399t265.5 -123zM803 -31q-143 0 -266 41t-228.5 127t-166 239.5t-60.5 358.5q0 164 41 295t108.5 219t160.5 146.5t195.5 84t215 25.5t214 -24.5t196 -82 t162 -143.5t108.5 -219t41 -299q0 -203 -60.5 -355.5t-166 -240.5t-229.5 -130t-265 -42zM797 1864l207 -281h-248l-305 281h346z" />
<glyph unicode="&#xd3;" horiz-adv-x="1605" d="M803 213q160 0 266.5 124t106.5 400.5t-107.5 401.5t-265.5 125q-162 0 -267.5 -125t-105.5 -404q0 -276 107.5 -399t265.5 -123zM803 -31q-143 0 -266 41t-228.5 127t-166 239.5t-60.5 358.5q0 164 41 295t108.5 219t160.5 146.5t195.5 84t215 25.5t214 -24.5t196 -82 t162 -143.5t108.5 -219t41 -299q0 -203 -60.5 -355.5t-166 -240.5t-229.5 -130t-265 -42zM614 1583l207 281h346l-305 -281h-248z" />
<glyph unicode="&#xd4;" horiz-adv-x="1605" d="M803 213q160 0 266.5 124t106.5 400.5t-107.5 401.5t-265.5 125q-162 0 -267.5 -125t-105.5 -404q0 -276 107.5 -399t265.5 -123zM803 -31q-143 0 -266 41t-228.5 127t-166 239.5t-60.5 358.5q0 164 41 295t108.5 219t160.5 146.5t195.5 84t215 25.5t214 -24.5t196 -82 t162 -143.5t108.5 -219t41 -299q0 -203 -60.5 -355.5t-166 -240.5t-229.5 -130t-265 -42zM803 1735l-92 -121h-328l276 280h287l277 -280h-326z" />
<glyph unicode="&#xd5;" horiz-adv-x="1605" d="M803 213q160 0 266.5 124t106.5 400.5t-107.5 401.5t-265.5 125q-162 0 -267.5 -125t-105.5 -404q0 -276 107.5 -399t265.5 -123zM803 -31q-143 0 -266 41t-228.5 127t-166 239.5t-60.5 358.5q0 164 41 295t108.5 219t160.5 146.5t195.5 84t215 25.5t214 -24.5t196 -82 t162 -143.5t108.5 -219t41 -299q0 -203 -60.5 -355.5t-166 -240.5t-229.5 -130t-265 -42zM936 1602q-63 0 -143 38.5t-123 38.5q-76 0 -174 -77v225q94 68 182 67q63 0 143 -38.5t123 -38.5q68 0 166 77v-225q-94 -67 -174 -67z" />
<glyph unicode="&#xd6;" horiz-adv-x="1605" d="M803 213q160 0 266.5 124t106.5 400.5t-107.5 401.5t-265.5 125q-162 0 -267.5 -125t-105.5 -404q0 -276 107.5 -399t265.5 -123zM803 -31q-143 0 -266 41t-228.5 127t-166 239.5t-60.5 358.5q0 164 41 295t108.5 219t160.5 146.5t195.5 84t215 25.5t214 -24.5t196 -82 t162 -143.5t108.5 -219t41 -299q0 -203 -60.5 -355.5t-166 -240.5t-229.5 -130t-265 -42zM719 1602h-303v262h303v-262zM1190 1602h-303v262h303v-262z" />
<glyph unicode="&#xd7;" d="M207 889l178 178l229 -229l230 229l178 -178l-229 -230l229 -229l-178 -178l-230 229l-229 -229l-178 178l229 229z" />
<glyph unicode="&#xd8;" horiz-adv-x="1605" d="M803 -31q-88 0 -166 15l-72 -209h-243l98 284q-338 182 -338 676q0 164 41 295t108.5 219t160.5 146.5t195.5 84t215.5 25.5q80 0 166 -16l71 190h244l-98 -264q338 -188 338 -678q0 -203 -60.5 -355.5t-166 -240.5t-229.5 -130t-265 -42zM430 735q0 -289 127 -422 l338 938q-47 12 -92 13q-162 0 -267.5 -125t-105.5 -404zM803 213q160 0 266.5 124t106.5 400q0 287 -127 424l-338 -938q39 -10 92 -10z" />
<glyph unicode="&#xd9;" horiz-adv-x="1466" d="M113 1475h344v-1004q0 -125 71.5 -191.5t206.5 -66.5t212 67.5t77 190.5v1004h330v-981q0 -248 -163 -386.5t-458 -138.5t-457.5 138.5t-162.5 386.5v981zM684 1864l207 -281h-248l-305 281h346z" />
<glyph unicode="&#xda;" horiz-adv-x="1466" d="M113 1475h344v-1004q0 -125 71.5 -191.5t206.5 -66.5t212 67.5t77 190.5v1004h330v-981q0 -248 -163 -386.5t-458 -138.5t-457.5 138.5t-162.5 386.5v981zM606 1583l207 281h346l-305 -281h-248z" />
<glyph unicode="&#xdb;" horiz-adv-x="1466" d="M113 1475h344v-1004q0 -125 71.5 -191.5t206.5 -66.5t212 67.5t77 190.5v1004h330v-981q0 -248 -163 -386.5t-458 -138.5t-457.5 138.5t-162.5 386.5v981zM733 1735l-92 -121h-328l277 280h287l276 -280h-326z" />
<glyph unicode="&#xdc;" horiz-adv-x="1466" d="M113 1475h344v-1004q0 -125 71.5 -191.5t206.5 -66.5t212 67.5t77 190.5v1004h330v-981q0 -248 -163 -386.5t-458 -138.5t-457.5 138.5t-162.5 386.5v981zM649 1602h-303v262h303v-262zM1120 1602h-303v262h303v-262z" />
<glyph unicode="&#xdd;" horiz-adv-x="1368" d="M846 0h-324v588l-522 887h369l323 -601l348 601h328l-522 -887v-588zM541 1583l207 281h346l-306 -281h-247z" />
<glyph unicode="&#xde;" horiz-adv-x="1363" d="M123 1475h344v-236h188q137 0 241.5 -20.5t199 -70.5t145.5 -151.5t51 -248.5q0 -119 -35.5 -207t-93 -141.5t-141.5 -86t-168 -44t-186 -11.5h-201v-258h-344v1475zM659 1004h-192v-510h205q266 0 266 254q0 256 -279 256z" />
<glyph unicode="&#xdf;" horiz-adv-x="1325" d="M885 -31q-371 0 -430 332h321q14 -113 90 -113q43 0 69 35t26 96.5t-29 102.5t-96 82q-119 70 -161 135.5t-42 153.5q0 90 79 185t79 175q0 55 -47.5 91t-122.5 36q-188 0 -189 -227v-351l-41 -702h-278v1049q0 197 133 326.5t381 129.5q215 0 350 -91t135 -240 q0 -68 -32.5 -125.5t-72.5 -88t-73 -68.5t-33 -73q0 -72 109 -135q152 -88 218 -165t66 -183q0 -172 -107 -269.5t-302 -97.5z" />
<glyph unicode="&#xe0;" horiz-adv-x="1187" d="M420 758h-328q39 162 171 250t343 88q221 0 350 -104.5t129 -286.5v-705h-249l-39 111q-123 -141 -353 -142q-168 0 -270 89t-102 249q0 129 99 212t331 122l264 43v47q0 76 -44 117t-126 41q-149 0 -176 -131zM537 188q104 0 166.5 59.5t62.5 145.5v117l-182 -37 q-109 -23 -151 -58.5t-42 -92.5q1 -134 146 -134zM555 1475l207 -281h-248l-305 281h346z" />
<glyph unicode="&#xe1;" horiz-adv-x="1187" d="M420 758h-328q39 162 171 250t343 88q221 0 350 -104.5t129 -286.5v-705h-249l-39 111q-123 -141 -353 -142q-168 0 -270 89t-102 249q0 129 99 212t331 122l264 43v47q0 76 -44 117t-126 41q-149 0 -176 -131zM537 188q104 0 166.5 59.5t62.5 145.5v117l-182 -37 q-109 -23 -151 -58.5t-42 -92.5q1 -134 146 -134zM465 1194l207 281h346l-305 -281h-248z" />
<glyph unicode="&#xe2;" horiz-adv-x="1187" d="M420 758h-328q39 162 171 250t343 88q221 0 350 -104.5t129 -286.5v-705h-249l-39 111q-123 -141 -353 -142q-168 0 -270 89t-102 249q0 129 99 212t331 122l264 43v47q0 76 -44 117t-126 41q-149 0 -176 -131zM537 188q104 0 166.5 59.5t62.5 145.5v117l-182 -37 q-109 -23 -151 -58.5t-42 -92.5q1 -134 146 -134zM602 1346l-92 -121h-328l277 280h286l277 -280h-326z" />
<glyph unicode="&#xe3;" horiz-adv-x="1187" d="M420 758h-328q39 162 171 250t343 88q221 0 350 -104.5t129 -286.5v-705h-249l-39 111q-123 -141 -353 -142q-168 0 -270 89t-102 249q0 129 99 212t331 122l264 43v47q0 76 -44 117t-126 41q-149 0 -176 -131zM537 188q104 0 166.5 59.5t62.5 145.5v117l-182 -37 q-109 -23 -151 -58.5t-42 -92.5q1 -134 146 -134zM713 1212q-63 0 -143.5 39t-123.5 39q-76 0 -174 -78v226q94 68 183 67q63 0 143 -39t123 -39q68 0 166 78v-225q-94 -68 -174 -68z" />
<glyph unicode="&#xe4;" horiz-adv-x="1187" d="M420 758h-328q39 162 171 250t343 88q221 0 350 -104.5t129 -286.5v-705h-249l-39 111q-123 -141 -353 -142q-168 0 -270 89t-102 249q0 129 99 212t331 122l264 43v47q0 76 -44 117t-126 41q-149 0 -176 -131zM537 188q104 0 166.5 59.5t62.5 145.5v117l-182 -37 q-109 -23 -151 -58.5t-42 -92.5q1 -134 146 -134zM500 1212h-303v263h303v-263zM971 1212h-303v263h303v-263z" />
<glyph unicode="&#xe5;" horiz-adv-x="1187" d="M420 758h-328q39 162 171 250t343 88q221 0 350 -104.5t129 -286.5v-705h-249l-39 111q-123 -141 -353 -142q-168 0 -270 89t-102 249q0 129 99 212t331 122l264 43v47q0 76 -44 117t-126 41q-149 0 -176 -131zM537 188q104 0 166.5 59.5t62.5 145.5v117l-182 -37 q-109 -23 -151 -58.5t-42 -92.5q1 -134 146 -134zM510 1434q0 -51 23.5 -78t60.5 -27t60.5 26.5t23.5 78.5q0 104 -84 104t-84 -104zM879 1434q0 -109 -76 -180.5t-209 -71.5t-209 71.5t-76 180.5q0 106 77 179t208 73t208 -73t77 -179z" />
<glyph unicode="&#xe6;" horiz-adv-x="1927" d="M1528 309h325q-37 -158 -167 -249t-359 -91q-295 0 -455 224q-121 -223 -407 -224q-180 0 -286.5 87t-106.5 251q0 129 99 212t331 122l264 43v47q0 76 -44 117t-126 41q-150 0 -176 -131h-328q39 162 171 250t343 88q213 0 352 -123q145 123 359 123q260 0 404.5 -161 t144.5 -480h-776q31 -262 253 -262q74 0 122.5 31.5t62.5 84.5zM1311 895q-195 0 -221 -254h448q-12 254 -227 254zM766 401v109l-182 -37q-109 -23 -151 -58.5t-42 -92.5q0 -133 146 -134q106 0 167.5 62.5t61.5 150.5z" />
<glyph unicode="&#xe7;" horiz-adv-x="1208" d="M674 -291q0 88 -168 88l16 178q-221 23 -335.5 163.5t-114.5 383.5q0 268 146.5 421t399.5 153q209 0 351.5 -98.5t175.5 -260.5h-336q-18 63 -68.5 102.5t-111.5 39.5q-225 0 -226 -363q0 -164 59.5 -247t153.5 -83q145 0 195 168h336q-37 -156 -146.5 -257t-293.5 -122 v-57q84 -18 130 -70.5t46 -132.5q0 -102 -82 -172.5t-213 -70.5q-139 0 -220 66.5t-96 180.5h205q10 -84 105 -84q43 0 67.5 21.5t24.5 52.5z" />
<glyph unicode="&#xe8;" horiz-adv-x="1232" d="M834 309h325q-37 -158 -167 -249t-359 -91q-252 0 -406.5 150.5t-154.5 412.5q0 268 148.5 416t402.5 148q260 0 404 -161t144 -480h-776q31 -262 254 -262q74 0 122.5 31.5t62.5 84.5zM616 895q-195 0 -221 -254h449q-13 254 -228 254zM565 1475l207 -281h-248l-305 281 h346z" />
<glyph unicode="&#xe9;" horiz-adv-x="1232" d="M834 309h325q-37 -158 -167 -249t-359 -91q-252 0 -406.5 150.5t-154.5 412.5q0 268 148.5 416t402.5 148q260 0 404 -161t144 -480h-776q31 -262 254 -262q74 0 122.5 31.5t62.5 84.5zM616 895q-195 0 -221 -254h449q-13 254 -228 254zM479 1194l207 281h346l-305 -281 h-248z" />
<glyph unicode="&#xea;" horiz-adv-x="1232" d="M834 309h325q-37 -158 -167 -249t-359 -91q-252 0 -406.5 150.5t-154.5 412.5q0 268 148.5 416t402.5 148q260 0 404 -161t144 -480h-776q31 -262 254 -262q74 0 122.5 31.5t62.5 84.5zM616 895q-195 0 -221 -254h449q-13 254 -228 254zM606 1346l-92 -121h-328l277 280 h287l276 -280h-326z" />
<glyph unicode="&#xeb;" horiz-adv-x="1232" d="M834 309h325q-37 -158 -167 -249t-359 -91q-252 0 -406.5 150.5t-154.5 412.5q0 268 148.5 416t402.5 148q260 0 404 -161t144 -480h-776q31 -262 254 -262q74 0 122.5 31.5t62.5 84.5zM616 895q-195 0 -221 -254h449q-13 254 -228 254zM520 1212h-303v263h303v-263z M991 1212h-303v263h303v-263z" />
<glyph unicode="&#xec;" horiz-adv-x="544" d="M432 0h-319v1065h319v-1065zM279 1475l206 -281h-247l-306 281h347z" />
<glyph unicode="&#xed;" horiz-adv-x="544" d="M432 0h-319v1065h319v-1065zM63 1194l207 281h346l-305 -281h-248z" />
<glyph unicode="&#xee;" horiz-adv-x="544" d="M432 0h-319v1065h319v-1065zM272 1346l-92 -121h-327l276 280h287l276 -280h-325z" />
<glyph unicode="&#xef;" horiz-adv-x="544" d="M432 0h-319v1065h319v-1065zM188 1212h-303v263h303v-263zM659 1212h-303v263h303v-263z" />
<glyph unicode="&#xf0;" horiz-adv-x="1208" d="M205 1331v211q244 -31 442 -127l60 60h292l-170 -170q307 -238 308 -635q0 -348 -124 -524.5t-397 -176.5q-102 0 -194 27t-173 83t-129 161.5t-48 246.5q0 231 120.5 366.5t331.5 135.5q76 0 151 -30.5t107 -79.5q-29 154 -123 254l-36 -37h-293l153 153q-94 43 -278 82 zM600 758q-102 0 -152.5 -75t-50.5 -206q0 -276 215 -276q94 0 146.5 84t52.5 237q0 111 -56.5 173.5t-154.5 62.5z" />
<glyph unicode="&#xf1;" horiz-adv-x="1230" d="M432 0h-319v1065h264l31 -117q117 147 325 148q186 0 290.5 -107.5t104.5 -300.5v-688h-319v676q0 195 -164 194q-94 0 -153.5 -65.5t-59.5 -173.5v-631zM760 1212q-63 0 -143 39t-123 39q-76 0 -175 -78v226q94 68 183 67q63 0 143 -39t123 -39q68 0 166 78v-225 q-94 -68 -174 -68z" />
<glyph unicode="&#xf2;" horiz-adv-x="1269" d="M72 537q0 272 146.5 415.5t416.5 143.5t416.5 -143.5t146.5 -415.5q0 -274 -146.5 -421t-416.5 -147q-264 0 -413.5 147t-149.5 421zM401 537q0 -186 59.5 -269.5t176.5 -83.5q121 0 177 81t56 272q0 188 -57 266t-178 78t-177.5 -78t-56.5 -266zM598 1475l207 -281h-248 l-305 281h346z" />
<glyph unicode="&#xf3;" horiz-adv-x="1269" d="M72 537q0 272 146.5 415.5t416.5 143.5t416.5 -143.5t146.5 -415.5q0 -274 -146.5 -421t-416.5 -147q-264 0 -413.5 147t-149.5 421zM401 537q0 -186 59.5 -269.5t176.5 -83.5q121 0 177 81t56 272q0 188 -57 266t-178 78t-177.5 -78t-56.5 -266zM453 1194l206 281h347 l-306 -281h-247z" />
<glyph unicode="&#xf4;" horiz-adv-x="1269" d="M72 537q0 272 146.5 415.5t416.5 143.5t416.5 -143.5t146.5 -415.5q0 -274 -146.5 -421t-416.5 -147q-264 0 -413.5 147t-149.5 421zM401 537q0 -186 59.5 -269.5t176.5 -83.5q121 0 177 81t56 272q0 188 -57 266t-178 78t-177.5 -78t-56.5 -266zM635 1346l-92 -121h-328 l277 280h286l277 -280h-326z" />
<glyph unicode="&#xf5;" horiz-adv-x="1269" d="M72 537q0 272 146.5 415.5t416.5 143.5t416.5 -143.5t146.5 -415.5q0 -274 -146.5 -421t-416.5 -147q-264 0 -413.5 147t-149.5 421zM401 537q0 -186 59.5 -269.5t176.5 -83.5q121 0 177 81t56 272q0 188 -57 266t-178 78t-177.5 -78t-56.5 -266zM768 1212q-63 0 -143 39 t-123 39q-76 0 -174 -78v226q94 68 182 67q63 0 143 -39t123 -39q68 0 166 78v-225q-94 -68 -174 -68z" />
<glyph unicode="&#xf6;" horiz-adv-x="1269" d="M72 537q0 272 146.5 415.5t416.5 143.5t416.5 -143.5t146.5 -415.5q0 -274 -146.5 -421t-416.5 -147q-264 0 -413.5 147t-149.5 421zM401 537q0 -186 59.5 -269.5t176.5 -83.5q121 0 177 81t56 272q0 188 -57 266t-178 78t-177.5 -78t-56.5 -266zM551 1212h-303v263h303 v-263zM1022 1212h-303v263h303v-263z" />
<glyph unicode="&#xf7;" d="M776 127h-323v291h323v-291zM776 903h-323v291h323v-291zM1065 786v-251h-901v251h901z" />
<glyph unicode="&#xf8;" horiz-adv-x="1269" d="M72 537q0 272 146.5 415.5t416.5 143.5q66 0 141 -15l96 209h244l-133 -284q215 -139 215 -469q0 -274 -146.5 -421t-416.5 -147q-74 0 -139 13l-95 -207h-247l133 286q-215 146 -215 476zM401 537q0 -158 43 -244l263 579q-45 8 -72 9q-121 0 -177.5 -78t-56.5 -266z M870 537q0 152 -41 233l-260 -577q27 -8 68 -9q121 0 177 81.5t56 271.5z" />
<glyph unicode="&#xf9;" horiz-adv-x="1220" d="M102 1065h320v-705q0 -80 44 -122.5t126 -42.5q86 0 141 61t55 170v639h320v-1065h-264l-31 113q-117 -143 -321 -144q-184 0 -287 104.5t-103 299.5v692zM539 1475l206 -281h-247l-305 281h346z" />
<glyph unicode="&#xfa;" horiz-adv-x="1220" d="M102 1065h320v-705q0 -80 44 -122.5t126 -42.5q86 0 141 61t55 170v639h320v-1065h-264l-31 113q-117 -143 -321 -144q-184 0 -287 104.5t-103 299.5v692zM467 1194l207 281h346l-305 -281h-248z" />
<glyph unicode="&#xfb;" horiz-adv-x="1220" d="M102 1065h320v-705q0 -80 44 -122.5t126 -42.5q86 0 141 61t55 170v639h320v-1065h-264l-31 113q-117 -143 -321 -144q-184 0 -287 104.5t-103 299.5v692zM604 1346l-92 -121h-328l277 280h287l276 -280h-326z" />
<glyph unicode="&#xfc;" horiz-adv-x="1220" d="M102 1065h320v-705q0 -80 44 -122.5t126 -42.5q86 0 141 61t55 170v639h320v-1065h-264l-31 113q-117 -143 -321 -144q-184 0 -287 104.5t-103 299.5v692zM522 1212h-303v263h303v-263zM993 1212h-303v263h303v-263z" />
<glyph unicode="&#xfd;" horiz-adv-x="1169" d="M840 1065h319l-381 -1088q-72 -207 -163 -291.5t-236 -84.5q-82 0 -172 22v223q74 -18 131 -18q55 0 90 41t55 131h-90l-383 1065h340l236 -832zM432 1194l207 281h346l-305 -281h-248z" />
<glyph unicode="&#xfe;" horiz-adv-x="1300" d="M432 -369h-319v1844h319v-510q127 131 322 131q217 0 346 -143.5t129 -403.5q0 -150 -45 -266.5t-120 -182t-160 -98.5t-177 -33q-176 0 -295 123v-461zM907 541q0 322 -237 321q-113 0 -180.5 -81t-67.5 -236q0 -342 237 -342q113 0 180.5 85t67.5 253z" />
<glyph unicode="&#xff;" horiz-adv-x="1169" d="M840 1065h319l-381 -1088q-72 -207 -163 -291.5t-236 -84.5q-82 0 -172 22v223q74 -18 131 -18q55 0 90 41t55 131h-90l-383 1065h340l236 -832zM502 1212h-303v263h303v-263zM973 1212h-303v263h303v-263z" />
<glyph unicode="&#x100;" horiz-adv-x="1435" d="M1436 0h-363l-104 338h-525l-104 -338h-340l524 1475h383zM709 1192l-195 -629h387zM983 1634h-553v230h553v-230z" />
<glyph unicode="&#x101;" horiz-adv-x="1187" d="M420 758h-328q39 162 171 250t343 88q221 0 350 -104.5t129 -286.5v-705h-249l-39 111q-123 -141 -353 -142q-168 0 -270 89t-102 249q0 129 99 212t331 122l264 43v47q0 76 -44 117t-126 41q-149 0 -176 -131zM537 188q104 0 166.5 59.5t62.5 145.5v117l-182 -37 q-109 -23 -151 -58.5t-42 -92.5q1 -134 146 -134zM881 1245h-553v230h553v-230z" />
<glyph unicode="&#x102;" horiz-adv-x="1435" d="M1436 0h-363l-104 338h-525l-104 -338h-340l524 1475h383zM709 1192l-195 -629h387zM391 1894h254q2 -100 63.5 -100t63.5 100h254q-16 -141 -101 -206.5t-216 -65.5q-137 0 -219.5 71.5t-98.5 200.5z" />
<glyph unicode="&#x103;" horiz-adv-x="1187" d="M420 758h-328q39 162 171 250t343 88q221 0 350 -104.5t129 -286.5v-705h-249l-39 111q-123 -141 -353 -142q-168 0 -270 89t-102 249q0 129 99 212t331 122l264 43v47q0 76 -44 117t-126 41q-149 0 -176 -131zM537 188q104 0 166.5 59.5t62.5 145.5v117l-182 -37 q-109 -23 -151 -58.5t-42 -92.5q1 -134 146 -134zM283 1505h254q2 -100 63.5 -100t63.5 100h254q-16 -141 -101.5 -206.5t-216.5 -65.5q-137 0 -219 71.5t-98 200.5z" />
<glyph unicode="&#x104;" horiz-adv-x="1435" d="M1442 -281q-70 -225 -330 -225q-123 0 -198.5 62.5t-75.5 171.5q0 178 231 284l-100 326h-525l-104 -338h-340l524 1475h383l529 -1475h-183q-195 -104 -194 -227q0 -45 26.5 -72t63.5 -27q57 0 74 45h219zM709 1192l-195 -629h387z" />
<glyph unicode="&#x105;" horiz-adv-x="1187" d="M1188 -281q-70 -225 -330 -225q-123 0 -198.5 62.5t-75.5 171.5q0 92 66.5 167.5t178.5 122.5l-32 93q-123 -141 -353 -142q-168 0 -270 89t-102 249q0 129 99 212t331 122l264 43v47q0 76 -44 117t-126 41q-150 0 -176 -131h-328q39 162 171 250t343 88 q221 0 350 -104.5t129 -286.5v-705h-86q-195 -104 -194 -227q0 -45 26.5 -72t63.5 -27q57 0 74 45h219zM766 401v109l-182 -37q-109 -23 -151 -58.5t-42 -92.5q0 -133 146 -134q106 0 167.5 62.5t61.5 150.5z" />
<glyph unicode="&#x106;" horiz-adv-x="1517" d="M774 211q299 0 322 332h350q-33 -283 -206 -428.5t-472 -145.5q-307 0 -496.5 200t-189.5 572q0 369 187.5 566.5t514.5 197.5q262 0 437.5 -134t214.5 -378h-344q-57 272 -308 273q-162 0 -253 -128t-91 -397q0 -274 92 -402t242 -128zM643 1583l207 281h346l-305 -281 h-248z" />
<glyph unicode="&#x107;" horiz-adv-x="1208" d="M811 354h336q-41 -176 -174 -280.5t-361 -104.5q-262 0 -401 143.5t-139 409.5q0 268 146.5 421t399.5 153q209 0 351.5 -98.5t175.5 -260.5h-336q-18 63 -68.5 102.5t-111.5 39.5q-225 0 -226 -363q0 -164 59.5 -247t153.5 -83q146 0 195 168zM481 1194l207 281h346 l-305 -281h-248z" />
<glyph unicode="&#x108;" horiz-adv-x="1517" d="M774 211q299 0 322 332h350q-33 -283 -206 -428.5t-472 -145.5q-307 0 -496.5 200t-189.5 572q0 369 187.5 566.5t514.5 197.5q262 0 437.5 -134t214.5 -378h-344q-57 272 -308 273q-162 0 -253 -128t-91 -397q0 -274 92 -402t242 -128zM786 1735l-92 -121h-327l276 280 h287l276 -280h-325z" />
<glyph unicode="&#x109;" horiz-adv-x="1208" d="M811 354h336q-41 -176 -174 -280.5t-361 -104.5q-262 0 -401 143.5t-139 409.5q0 268 146.5 421t399.5 153q209 0 351.5 -98.5t175.5 -260.5h-336q-18 63 -68.5 102.5t-111.5 39.5q-225 0 -226 -363q0 -164 59.5 -247t153.5 -83q146 0 195 168zM598 1346l-92 -121h-328 l277 280h286l277 -280h-326z" />
<glyph unicode="&#x10a;" horiz-adv-x="1517" d="M774 211q299 0 322 332h350q-33 -283 -206 -428.5t-472 -145.5q-307 0 -496.5 200t-189.5 572q0 369 187.5 566.5t514.5 197.5q262 0 437.5 -134t214.5 -378h-344q-57 272 -308 273q-162 0 -253 -128t-91 -397q0 -274 92 -402t242 -128zM948 1591h-344v273h344v-273z" />
<glyph unicode="&#x10b;" horiz-adv-x="1208" d="M811 354h336q-41 -176 -174 -280.5t-361 -104.5q-262 0 -401 143.5t-139 409.5q0 268 146.5 421t399.5 153q209 0 351.5 -98.5t175.5 -260.5h-336q-18 63 -68.5 102.5t-111.5 39.5q-225 0 -226 -363q0 -164 59.5 -247t153.5 -83q146 0 195 168zM782 1202h-344v273h344 v-273z" />
<glyph unicode="&#x10c;" horiz-adv-x="1517" d="M774 211q299 0 322 332h350q-33 -283 -206 -428.5t-472 -145.5q-307 0 -496.5 200t-189.5 572q0 369 187.5 566.5t514.5 197.5q262 0 437.5 -134t214.5 -378h-344q-57 272 -308 273q-162 0 -253 -128t-91 -397q0 -274 92 -402t242 -128zM668 1894l92 -120l94 120h326 l-277 -280h-287l-276 280h328z" />
<glyph unicode="&#x10d;" horiz-adv-x="1208" d="M811 354h336q-41 -176 -174 -280.5t-361 -104.5q-262 0 -401 143.5t-139 409.5q0 268 146.5 421t399.5 153q209 0 351.5 -98.5t175.5 -260.5h-336q-18 63 -68.5 102.5t-111.5 39.5q-225 0 -226 -363q0 -164 59.5 -247t153.5 -83q146 0 195 168zM512 1505l92 -121l94 121 h326l-276 -280h-287l-277 280h328z" />
<glyph unicode="&#x10e;" horiz-adv-x="1492" d="M123 1475h553q735 0 735 -737.5t-731 -737.5h-557v1475zM676 1237h-209v-997h213q385 0 385 497q0 254 -102.5 377t-286.5 123zM590 1894l92 -120l94 120h326l-277 -280h-286l-277 280h328z" />
<glyph unicode="&#x10f;" horiz-adv-x="1609" d="M1188 0h-250l-53 117q-127 -147 -326 -148q-219 0 -353 148.5t-134 404.5q0 266 134 420t349 154q199 0 313 -131v510h320v-1475zM393 524q0 -164 65.5 -242.5t180.5 -78.5q240 0 240 327q0 332 -240 332q-115 0 -180.5 -87t-65.5 -251zM1626 1475v-213q0 -330 -350 -402 v139q147 49 147 195h-98v281h301z" />
<glyph unicode="&#x110;" horiz-adv-x="1492" d="M123 0v645h-103v258h103v572h553q735 0 735 -737.5t-731 -737.5h-557zM731 645h-264v-405h213q385 0 385 497q0 254 -102.5 377t-286.5 123h-209v-334h264v-258z" />
<glyph unicode="&#x111;" horiz-adv-x="1300" d="M1188 0h-250l-53 117q-127 -147 -326 -148q-219 0 -353 148.5t-134 404.5q0 266 134 420t349 154q199 0 313 -131v202h-250v217h250v91h320v-91h82v-217h-82v-1167zM393 524q0 -164 65.5 -242.5t180.5 -78.5q240 0 240 327q0 332 -240 332q-115 0 -180.5 -87t-65.5 -251z " />
<glyph unicode="&#x112;" horiz-adv-x="1189" d="M1059 862v-237h-592v-377h651v-248h-995v1475h995v-252h-651v-361h592zM897 1634h-553v230h553v-230z" />
<glyph unicode="&#x113;" horiz-adv-x="1232" d="M834 309h325q-37 -158 -167 -249t-359 -91q-252 0 -406.5 150.5t-154.5 412.5q0 268 148.5 416t402.5 148q260 0 404 -161t144 -480h-776q31 -262 254 -262q74 0 122.5 31.5t62.5 84.5zM616 895q-195 0 -221 -254h449q-13 254 -228 254zM897 1245h-553v230h553v-230z" />
<glyph unicode="&#x114;" horiz-adv-x="1189" d="M303 1900h254q2 -100 63.5 -100t63.5 100h254q-16 -141 -101 -206.5t-216 -65.5q-137 0 -219.5 71.5t-98.5 200.5zM1059 862v-237h-592v-377h651v-248h-995v1475h995v-252h-651v-361h592z" />
<glyph unicode="&#x115;" horiz-adv-x="1232" d="M305 1491h254q2 -100 63.5 -100t63.5 100h254q-16 -141 -101 -206.5t-216 -65.5q-137 0 -219.5 71.5t-98.5 200.5zM834 309h325q-37 -158 -167 -249t-359 -91q-252 0 -406.5 150.5t-154.5 412.5q0 268 148.5 416t402.5 148q260 0 404 -161t144 -480h-776 q31 -262 254 -262q74 0 122.5 31.5t62.5 84.5zM616 895q-195 0 -221 -254h449q-13 254 -228 254z" />
<glyph unicode="&#x116;" horiz-adv-x="1189" d="M1059 862v-237h-592v-377h651v-248h-995v1475h995v-252h-651v-361h592zM803 1591h-344v273h344v-273z" />
<glyph unicode="&#x117;" horiz-adv-x="1232" d="M834 309h325q-37 -158 -167 -249t-359 -91q-252 0 -406.5 150.5t-154.5 412.5q0 268 148.5 416t402.5 148q260 0 404 -161t144 -480h-776q31 -262 254 -262q74 0 122.5 31.5t62.5 84.5zM616 895q-195 0 -221 -254h449q-13 254 -228 254zM791 1202h-345v273h345v-273z" />
<glyph unicode="&#x118;" horiz-adv-x="1189" d="M1059 862v-237h-592v-377h651v-248h-252q-195 -104 -194 -227q0 -45 26.5 -72t63.5 -27q57 0 74 45h219q-70 -225 -330 -225q-123 0 -198.5 62.5t-75.5 171.5q0 166 206 272h-534v1475h995v-252h-651v-361h592z" />
<glyph unicode="&#x119;" horiz-adv-x="1232" d="M1065 -281q-70 -225 -330 -225q-123 0 -198.5 62.5t-75.5 171.5q0 141 153 241q-246 6 -394 155.5t-148 407.5q0 268 148.5 416t402.5 148q260 0 404 -161t144 -480h-776q31 -262 254 -262q74 0 122 31.5t63 84.5h325q-47 -205 -254 -295q-223 -98 -223 -241 q0 -45 26.5 -72t63.5 -27q57 0 74 45h219zM616 895q-195 0 -221 -254h449q-13 254 -228 254z" />
<glyph unicode="&#x11a;" horiz-adv-x="1189" d="M1059 862v-237h-592v-377h651v-248h-995v1475h995v-252h-651v-361h592zM543 1894l92 -120l94 120h326l-277 -280h-286l-277 280h328z" />
<glyph unicode="&#x11b;" horiz-adv-x="1232" d="M834 309h325q-37 -158 -167 -249t-359 -91q-252 0 -406.5 150.5t-154.5 412.5q0 268 148.5 416t402.5 148q260 0 404 -161t144 -480h-776q31 -262 254 -262q74 0 122.5 31.5t62.5 84.5zM616 895q-195 0 -221 -254h449q-13 254 -228 254zM530 1505l93 -121l94 121h325 l-276 -280h-287l-276 280h327z" />
<glyph unicode="&#x11c;" horiz-adv-x="1533" d="M1432 821v-821h-222l-49 137q-150 -168 -424 -168q-285 0 -470 199t-185 575q0 369 192.5 565.5t526.5 196.5q250 0 417.5 -119.5t213.5 -332.5h-342q-57 213 -289 213q-166 0 -263.5 -127t-97.5 -396q0 -270 99.5 -401t263.5 -131q143 0 237.5 80t94.5 203v104h-349v223 h646zM754 1735l-92 -121h-328l276 280h287l277 -280h-326z" />
<glyph unicode="&#x11d;" horiz-adv-x="1280" d="M98 -66h326q29 -63 76 -86.5t141 -23.5q207 0 207 213v94q-123 -100 -289 -100q-211 0 -349 139t-138 383q0 254 136 398.5t353 144.5q190 0 309 -129l56 98h241v-1008q0 -211 -141 -333.5t-391 -122.5q-484 -1 -537 333zM393 555q0 -145 66.5 -218t179.5 -73 q115 0 177.5 74t62.5 217q0 154 -62.5 230.5t-177.5 76.5q-111 0 -178.5 -78.5t-67.5 -228.5zM637 1346l-92 -121h-328l277 280h286l277 -280h-326z" />
<glyph unicode="&#x11e;" horiz-adv-x="1533" d="M1432 821v-821h-222l-49 137q-150 -168 -424 -168q-285 0 -470 199t-185 575q0 369 192.5 565.5t526.5 196.5q250 0 417.5 -119.5t213.5 -332.5h-342q-57 213 -289 213q-166 0 -263.5 -127t-97.5 -396q0 -270 99.5 -401t263.5 -131q143 0 237.5 80t94.5 203v104h-349v223 h646zM451 1894h254q2 -100 63 -100t63 100h254q-16 -141 -101 -206.5t-216 -65.5q-137 0 -219 71.5t-98 200.5z" />
<glyph unicode="&#x11f;" horiz-adv-x="1280" d="M98 -66h326q29 -63 76 -86.5t141 -23.5q207 0 207 213v94q-123 -100 -289 -100q-211 0 -349 139t-138 383q0 254 136 398.5t353 144.5q190 0 309 -129l56 98h241v-1008q0 -211 -141 -333.5t-391 -122.5q-484 -1 -537 333zM393 555q0 -145 66.5 -218t179.5 -73 q115 0 177.5 74t62.5 217q0 154 -62.5 230.5t-177.5 76.5q-111 0 -178.5 -78.5t-67.5 -228.5zM328 1505h254q2 -100 63.5 -100t63.5 100h254q-16 -141 -101.5 -206.5t-216.5 -65.5q-137 0 -219 71.5t-98 200.5z" />
<glyph unicode="&#x120;" horiz-adv-x="1533" d="M1432 821v-821h-222l-49 137q-150 -168 -424 -168q-285 0 -470 199t-185 575q0 369 192.5 565.5t526.5 196.5q250 0 417.5 -119.5t213.5 -332.5h-342q-57 213 -289 213q-166 0 -263.5 -127t-97.5 -396q0 -270 99.5 -401t263.5 -131q143 0 237.5 80t94.5 203v104h-349v223 h646zM967 1591h-344v273h344v-273z" />
<glyph unicode="&#x121;" horiz-adv-x="1280" d="M98 -66h326q29 -63 76 -86.5t141 -23.5q207 0 207 213v94q-123 -100 -289 -100q-211 0 -349 139t-138 383q0 254 136 398.5t353 144.5q190 0 309 -129l56 98h241v-1008q0 -211 -141 -333.5t-391 -122.5q-484 -1 -537 333zM393 555q0 -145 66.5 -218t179.5 -73 q115 0 177.5 74t62.5 217q0 154 -62.5 230.5t-177.5 76.5q-111 0 -178.5 -78.5t-67.5 -228.5zM805 1202h-344v273h344v-273z" />
<glyph unicode="&#x122;" horiz-adv-x="1533" d="M1432 821v-821h-222l-49 137q-150 -168 -424 -168q-285 0 -470 199t-185 575q0 369 192.5 565.5t526.5 196.5q250 0 417.5 -119.5t213.5 -332.5h-342q-57 213 -289 213q-166 0 -263.5 -127t-97.5 -396q0 -270 99.5 -401t263.5 -131q143 0 237.5 80t94.5 203v104h-349v223 h646zM911 -125v-213q0 -330 -350 -401v139q147 49 148 194h-99v281h301z" />
<glyph unicode="&#x123;" horiz-adv-x="1280" d="M98 -66h326q29 -63 76 -86.5t141 -23.5q207 0 207 213v94q-123 -100 -289 -100q-211 0 -349 139t-138 383q0 254 136 398.5t353 144.5q190 0 309 -129l56 98h241v-1008q0 -211 -141 -333.5t-391 -122.5q-484 -1 -537 333zM393 555q0 -145 66.5 -218t179.5 -73 q115 0 177.5 74t62.5 217q0 154 -62.5 230.5t-177.5 76.5q-111 0 -178.5 -78.5t-67.5 -228.5zM492 1165v213q0 330 350 402v-140q-147 -49 -148 -194h99v-281h-301z" />
<glyph unicode="&#x124;" horiz-adv-x="1480" d="M1016 1475h342v-1475h-342v623h-549v-623h-344v1475h344v-607h549v607zM739 1735l-92 -121h-328l277 280h287l276 -280h-325z" />
<glyph unicode="&#x125;" horiz-adv-x="1230" d="M113 0v1475h319v-506q113 127 303 127q186 0 289.5 -105.5t103.5 -302.5v-688h-319v676q0 195 -164 194q-92 0 -152.5 -62.5t-60.5 -166.5v-641h-319zM545 1735l-92 -121h-328l276 280h287l277 -280h-326z" />
<glyph unicode="&#x126;" horiz-adv-x="1480" d="M1016 1475h342v-172h92v-228h-92v-1075h-342v623h-549v-623h-344v1075h-92v228h92v172h344v-172h549v172zM467 1075v-207h549v207h-549z" />
<glyph unicode="&#x127;" horiz-adv-x="1230" d="M113 0v1167h-82v217h82v91h319v-91h270v-217h-270v-198q113 127 303 127q186 0 289.5 -105.5t103.5 -302.5v-688h-319v676q0 195 -164 194q-92 0 -152.5 -62.5t-60.5 -166.5v-641h-319z" />
<glyph unicode="&#x128;" horiz-adv-x="589" d="M123 1475h344v-1475h-344v1475zM428 1602q-63 0 -143 38.5t-123 38.5q-76 0 -174 -77v225q94 68 182 67q63 0 143 -38.5t123 -38.5q68 0 166 77v-225q-94 -67 -174 -67z" />
<glyph unicode="&#x129;" horiz-adv-x="544" d="M432 0h-319v1065h319v-1065zM406 1212q-63 0 -143.5 39t-123.5 39q-76 0 -174 -78v226q94 68 182 67q63 0 143.5 -39t123.5 -39q68 0 166 78v-225q-94 -68 -174 -68z" />
<glyph unicode="&#x12a;" horiz-adv-x="589" d="M123 1475h344v-1475h-344v1475zM573 1634h-553v230h553v-230z" />
<glyph unicode="&#x12b;" horiz-adv-x="544" d="M432 0h-319v1065h319v-1065zM549 1245h-553v230h553v-230z" />
<glyph unicode="&#x12c;" horiz-adv-x="589" d="M-23 1900h254q2 -100 63.5 -100t63.5 100h254q-16 -141 -101 -206.5t-216 -65.5q-137 0 -219.5 71.5t-98.5 200.5zM123 1475h344v-1475h-344v1475z" />
<glyph unicode="&#x12d;" horiz-adv-x="544" d="M-45 1491h254q2 -100 63.5 -100t63.5 100h254q-16 -141 -101 -206.5t-216 -65.5q-137 0 -219.5 71.5t-98.5 200.5zM432 0h-319v1065h319v-1065z" />
<glyph unicode="&#x12e;" horiz-adv-x="589" d="M506 -281q-70 -225 -330 -225q-123 0 -198.5 62.5t-75.5 171.5q0 174 221 278v1469h344v-1475h-150q-195 -104 -194 -227q0 -45 26.5 -72t63.5 -27q57 0 74 45h219z" />
<glyph unicode="&#x12f;" horiz-adv-x="544" d="M477 -281q-70 -225 -330 -225q-123 0 -198.5 62.5t-75.5 171.5q0 90 64.5 165.5t175.5 122.5v1049h319v-1065h-143q-195 -104 -195 -227q0 -45 26.5 -72t63.5 -27q57 0 74 45h219zM444 1202h-344v273h344v-273z" />
<glyph unicode="&#x130;" horiz-adv-x="589" d="M123 1475h344v-1475h-344v1475zM467 1591h-344v273h344v-273z" />
<glyph unicode="&#x131;" horiz-adv-x="544" d="M432 0h-319v1065h319v-1065z" />
<glyph unicode="&#x132;" horiz-adv-x="1746" d="M631 436h328q6 -117 57 -170t121 -53q168 0 168 231v1031h329v-1008q0 -236 -122.5 -367t-366.5 -131q-203 0 -347 112.5t-167 354.5zM123 1475h344v-1475h-344v1475z" />
<glyph unicode="&#x133;" horiz-adv-x="1112" d="M434 -369v224q68 -18 127 -19q55 0 81 25.5t26 85.5v1118h319v-1124q0 -158 -92 -249t-262 -91q-111 -1 -199 30zM1000 1202h-344v273h344v-273zM444 1202h-344v273h344v-273zM432 0h-319v1065h319v-1065z" />
<glyph unicode="&#x134;" horiz-adv-x="1157" d="M41 436h328q6 -117 57 -170t121 -53q168 0 168 231v1031h329v-1008q0 -236 -122.5 -367t-366.5 -131q-203 0 -347 112.5t-167 354.5zM870 1735l-92 -121h-327l276 280h287l276 -280h-325z" />
<glyph unicode="&#x135;" horiz-adv-x="567" d="M-111 -369v224q68 -18 127 -19q55 0 81 25.5t26 85.5v1118h319v-1124q0 -158 -92 -249t-262 -91q-111 -1 -199 30zM260 1346l-92 -121h-328l277 280h286l277 -280h-326z" />
<glyph unicode="&#x136;" horiz-adv-x="1466" d="M1466 0h-450l-549 643v-643h-344v1475h344v-619l520 619h402l-617 -691zM817 -125v-213q0 -330 -350 -401v139q147 49 147 194h-98v281h301z" />
<glyph unicode="&#x137;" horiz-adv-x="1198" d="M432 0h-319v1475h319v-793l361 383h372l-434 -444l488 -621h-410l-377 489v-489zM731 -125v-213q0 -330 -350 -401v139q147 49 147 194h-98v281h301z" />
<glyph unicode="&#x138;" horiz-adv-x="1198" d="M432 0h-319v1065h319v-399l361 399h372l-434 -465l488 -600h-410l-377 473v-473z" />
<glyph unicode="&#x139;" horiz-adv-x="1224" d="M123 1475h344v-1217h717v-258h-1061v1475zM129 1583l207 281h346l-305 -281h-248z" />
<glyph unicode="&#x13a;" horiz-adv-x="544" d="M432 1475v-1475h-319v1475h319zM45 1583l207 281h346l-305 -281h-248z" />
<glyph unicode="&#x13b;" horiz-adv-x="1224" d="M123 1475h344v-1217h717v-258h-1061v1475zM774 -125v-213q0 -330 -350 -401v139q147 49 147 194h-98v281h301z" />
<glyph unicode="&#x13c;" horiz-adv-x="544" d="M432 1475v-1475h-319v1475h319zM422 -125v-213q0 -330 -350 -401v139q147 49 147 194h-98v281h301z" />
<glyph unicode="&#x13d;" horiz-adv-x="1224" d="M123 1475h344v-1217h717v-258h-1061v1475zM915 1475v-213q0 -330 -350 -402v139q147 49 148 195h-99v281h301z" />
<glyph unicode="&#x13e;" horiz-adv-x="794" d="M432 1475v-1475h-319v1475h319zM825 1475v-213q0 -330 -350 -402v139q147 49 148 195h-99v281h301z" />
<glyph unicode="&#x13f;" horiz-adv-x="1224" d="M815 606h-323v291h323v-291zM123 1475h344v-1217h717v-258h-1061v1475z" />
<glyph unicode="&#x140;" horiz-adv-x="1097" d="M983 508h-323v291h323v-291zM432 1475v-1475h-319v1475h319z" />
<glyph unicode="&#x141;" horiz-adv-x="1247" d="M145 1475h344v-439l228 135v-290l-228 -136v-487h717v-258h-1061v541l-125 -74v291l125 73v644z" />
<glyph unicode="&#x142;" horiz-adv-x="567" d="M434 1475v-428l103 63v-295l-103 -63v-752h-319v551l-84 -51v295l84 51v629h319z" />
<glyph unicode="&#x143;" horiz-adv-x="1476" d="M1061 1475h293v-1475h-355l-581 1047v-1047h-295v1475h381l557 -1008v1008zM606 1583l207 281h346l-305 -281h-248z" />
<glyph unicode="&#x144;" horiz-adv-x="1230" d="M432 0h-319v1065h264l31 -117q117 147 325 148q186 0 290.5 -107.5t104.5 -300.5v-688h-319v676q0 195 -164 194q-94 0 -153.5 -65.5t-59.5 -173.5v-631zM512 1194l207 281h346l-305 -281h-248z" />
<glyph unicode="&#x145;" horiz-adv-x="1476" d="M1061 1475h293v-1475h-355l-581 1047v-1047h-295v1475h381l557 -1008v1008zM891 -125v-213q0 -330 -350 -401v139q147 49 147 194h-98v281h301z" />
<glyph unicode="&#x146;" horiz-adv-x="1230" d="M432 0h-319v1065h264l31 -117q117 147 325 148q186 0 290.5 -107.5t104.5 -300.5v-688h-319v676q0 195 -164 194q-94 0 -153.5 -65.5t-59.5 -173.5v-631zM772 -125v-213q0 -330 -350 -401v139q147 49 147 194h-98v281h301z" />
<glyph unicode="&#x147;" horiz-adv-x="1476" d="M1061 1475h293v-1475h-355l-581 1047v-1047h-295v1475h381l557 -1008v1008zM676 1894l92 -120l94 120h326l-277 -280h-286l-277 280h328z" />
<glyph unicode="&#x148;" horiz-adv-x="1230" d="M432 0h-319v1065h264l31 -117q117 147 325 148q186 0 290.5 -107.5t104.5 -300.5v-688h-319v676q0 195 -164 194q-94 0 -153.5 -65.5t-59.5 -173.5v-631zM557 1505l92 -121l94 121h326l-276 -280h-287l-277 280h328z" />
<glyph unicode="&#x14a;" horiz-adv-x="1476" d="M801 -369v224q68 -18 127 -19q72 0 102.5 25.5t30.5 85.5v53h-62l-581 1047v-1047h-295v1475h381l557 -1008v1008h293v-1534q0 -158 -92.5 -249t-262.5 -91q-110 -1 -198 30z" />
<glyph unicode="&#x14b;" horiz-adv-x="1230" d="M432 0h-319v1065h264l31 -117q117 147 325 148q186 0 290.5 -107.5t104.5 -300.5v-747q0 -158 -92 -249t-262 -91q-111 0 -199 30v224q68 -18 127 -19q55 0 81 25.5t26 85.5v729q0 195 -164 194q-92 0 -152.5 -65.5t-60.5 -169.5v-635z" />
<glyph unicode="&#x14c;" horiz-adv-x="1605" d="M803 213q160 0 266.5 124t106.5 400.5t-107.5 401.5t-265.5 125q-162 0 -267.5 -125t-105.5 -404q0 -276 107.5 -399t265.5 -123zM803 -31q-143 0 -266 41t-228.5 127t-166 239.5t-60.5 358.5q0 164 41 295t108.5 219t160.5 146.5t195.5 84t215 25.5t214 -24.5t196 -82 t162 -143.5t108.5 -219t41 -299q0 -203 -60.5 -355.5t-166 -240.5t-229.5 -130t-265 -42zM1079 1634h-553v230h553v-230z" />
<glyph unicode="&#x14d;" horiz-adv-x="1269" d="M72 537q0 272 146.5 415.5t416.5 143.5t416.5 -143.5t146.5 -415.5q0 -274 -146.5 -421t-416.5 -147q-264 0 -413.5 147t-149.5 421zM401 537q0 -186 59.5 -269.5t176.5 -83.5q121 0 177 81t56 272q0 188 -57 266t-178 78t-177.5 -78t-56.5 -266zM911 1245h-553v230h553 v-230z" />
<glyph unicode="&#x14e;" horiz-adv-x="1605" d="M485 1900h254q2 -100 63.5 -100t63.5 100h254q-16 -141 -101 -206.5t-216 -65.5q-137 0 -219.5 71.5t-98.5 200.5zM803 213q160 0 266.5 124t106.5 400.5t-107.5 401.5t-265.5 125q-162 0 -267.5 -125t-105.5 -404q0 -276 107.5 -399t265.5 -123zM803 -31q-143 0 -266 41 t-228.5 127t-166 239.5t-60.5 358.5q0 164 41 295t108.5 219t160.5 146.5t195.5 84t215 25.5t214 -24.5t196 -82t162 -143.5t108.5 -219t41 -299q0 -203 -60.5 -355.5t-166 -240.5t-229.5 -130t-265 -42z" />
<glyph unicode="&#x14f;" horiz-adv-x="1269" d="M317 1491h254q2 -100 63.5 -100t63.5 100h254q-16 -141 -101 -206.5t-216 -65.5q-137 0 -219.5 71.5t-98.5 200.5zM72 537q0 272 146.5 415.5t416.5 143.5t416.5 -143.5t146.5 -415.5q0 -274 -146.5 -421t-416.5 -147q-264 0 -413.5 147t-149.5 421zM401 537 q0 -186 59.5 -269.5t176.5 -83.5q121 0 177 81t56 272q0 188 -57 266t-178 78t-177.5 -78t-56.5 -266z" />
<glyph unicode="&#x150;" horiz-adv-x="1605" d="M803 213q160 0 266.5 124t106.5 400.5t-107.5 401.5t-265.5 125q-162 0 -267.5 -125t-105.5 -404q0 -276 107.5 -399t265.5 -123zM803 -31q-143 0 -266 41t-228.5 127t-166 239.5t-60.5 358.5q0 164 41 295t108.5 219t160.5 146.5t195.5 84t215 25.5t214 -24.5t196 -82 t162 -143.5t108.5 -219t41 -299q0 -203 -60.5 -355.5t-166 -240.5t-229.5 -130t-265 -42zM457 1614l207 280h346l-305 -280h-248zM907 1614l207 280h346l-305 -280h-248z" />
<glyph unicode="&#x151;" horiz-adv-x="1269" d="M72 537q0 272 146.5 415.5t416.5 143.5t416.5 -143.5t146.5 -415.5q0 -274 -146.5 -421t-416.5 -147q-264 0 -413.5 147t-149.5 421zM401 537q0 -186 59.5 -269.5t176.5 -83.5q121 0 177 81t56 272q0 188 -57 266t-178 78t-177.5 -78t-56.5 -266zM283 1225l206 280h347 l-306 -280h-247zM733 1225l207 280h346l-305 -280h-248z" />
<glyph unicode="&#x152;" horiz-adv-x="1935" d="M1804 862v-237h-551v-377h611v-248h-875q-88 -31 -198 -31q-143 0 -266.5 41t-224.5 127t-159.5 238.5t-58.5 359.5q0 203 61.5 356.5t165 240.5t225 130t259.5 43q102 0 208 -30h863v-252h-611v-361h551zM797 213q63 0 112 16v1018q-61 16 -102 17q-162 0 -269.5 -126 t-107.5 -402.5t105.5 -399.5t261.5 -123z" />
<glyph unicode="&#x153;" horiz-adv-x="2021" d="M1622 309h326q-37 -158 -167 -249t-360 -91q-236 0 -387 152q-147 -152 -399 -152q-264 0 -413.5 146.5t-149.5 421.5q0 272 146.5 415.5t416.5 143.5q246 0 395 -146q150 145 381 146q260 0 404.5 -161t144.5 -480h-776q31 -262 254 -262q74 0 122 31.5t62 84.5z M401 537q0 -186 59.5 -269.5t176.5 -83.5q119 0 176 80t57 273q0 188 -57 266t-178 78t-177.5 -78t-56.5 -266zM1405 895q-195 0 -221 -254h448q-12 254 -227 254z" />
<glyph unicode="&#x154;" horiz-adv-x="1357" d="M1348 0h-408l-326 539h-188v-539h-344v1475h543q307 0 465.5 -120t158.5 -347q0 -301 -293 -410zM629 1237h-203v-461h215q113 0 182.5 60.5t69.5 171.5q0 229 -264 229zM442 1583l207 281h346l-305 -281h-248z" />
<glyph unicode="&#x155;" horiz-adv-x="813" d="M432 0h-319v1065h266l35 -162q88 193 278 193q70 0 121 -15v-297q-66 20 -137 21q-100 0 -172 -96.5t-72 -266.5v-442zM315 1194l207 281h346l-305 -281h-248z" />
<glyph unicode="&#x156;" horiz-adv-x="1357" d="M1348 0h-408l-326 539h-188v-539h-344v1475h543q307 0 465.5 -120t158.5 -347q0 -301 -293 -410zM629 1237h-203v-461h215q113 0 182.5 60.5t69.5 171.5q0 229 -264 229zM791 -125v-213q0 -330 -351 -401v139q147 49 148 194h-99v281h302z" />
<glyph unicode="&#x157;" horiz-adv-x="813" d="M432 0h-319v1065h266l35 -162q88 193 278 193q70 0 121 -15v-297q-66 20 -137 21q-100 0 -172 -96.5t-72 -266.5v-442zM420 -125v-213q0 -330 -350 -401v139q147 49 147 194h-98v281h301z" />
<glyph unicode="&#x158;" horiz-adv-x="1357" d="M1348 0h-408l-326 539h-188v-539h-344v1475h543q307 0 465.5 -120t158.5 -347q0 -301 -293 -410zM629 1237h-203v-461h215q113 0 182.5 60.5t69.5 171.5q0 229 -264 229zM494 1894l92 -120l94 120h326l-277 -280h-287l-276 280h328z" />
<glyph unicode="&#x159;" horiz-adv-x="813" d="M432 0h-319v1065h266l35 -162q88 193 278 193q70 0 121 -15v-297q-66 20 -137 21q-100 0 -172 -96.5t-72 -266.5v-442zM358 1505l93 -121l94 121h325l-276 -280h-287l-276 280h327z" />
<glyph unicode="&#x15a;" horiz-adv-x="1380" d="M705 -31q-279 0 -446 124t-198 341h326q18 -102 100 -163.5t222 -61.5q274 0 274 170q0 45 -19.5 80t-47 56.5t-83 43t-98.5 32.5l-121 30q-86 20 -147 39.5t-133 56.5t-116 83t-73.5 117.5t-29.5 161.5q0 199 151.5 312.5t440.5 113.5q256 0 406.5 -107.5t178.5 -301.5 h-321q-12 82 -86 128t-187 46q-238 0 -237 -150q0 -86 66.5 -126t232.5 -76q119 -27 210 -61t178 -90t134 -144t47 -205q0 -193 -156.5 -321t-467.5 -128zM541 1583l207 281h346l-306 -281h-247z" />
<glyph unicode="&#x15b;" horiz-adv-x="1132" d="M559 186q178 0 178 101q0 51 -45 72.5t-209 60.5q-88 20 -148.5 42.5t-119.5 61.5t-89 98.5t-30 141.5q0 154 121 243t350 89q205 0 333 -86t157 -240h-322q-25 109 -176 109q-143 0 -143 -88q0 -43 42 -67t179 -58q59 -14 75.5 -19.5t71 -21t75 -26.5t62.5 -31.5 t59 -42.5l41 -50q24 -29 32 -65.5t8 -79.5q0 -164 -127 -262.5t-373 -98.5q-213 0 -348 90.5t-162 241.5h322q10 -51 61 -83t125 -32zM393 1194l207 281h346l-305 -281h-248z" />
<glyph unicode="&#x15c;" horiz-adv-x="1380" d="M705 -31q-279 0 -446 124t-198 341h326q18 -102 100 -163.5t222 -61.5q274 0 274 170q0 45 -19.5 80t-47 56.5t-83 43t-98.5 32.5l-121 30q-86 20 -147 39.5t-133 56.5t-116 83t-73.5 117.5t-29.5 161.5q0 199 151.5 312.5t440.5 113.5q256 0 406.5 -107.5t178.5 -301.5 h-321q-12 82 -86 128t-187 46q-238 0 -237 -150q0 -86 66.5 -126t232.5 -76q119 -27 210 -61t178 -90t134 -144t47 -205q0 -193 -156.5 -321t-467.5 -128zM688 1735l-92 -121h-328l277 280h286l277 -280h-326z" />
<glyph unicode="&#x15d;" horiz-adv-x="1132" d="M559 186q178 0 178 101q0 51 -45 72.5t-209 60.5q-88 20 -148.5 42.5t-119.5 61.5t-89 98.5t-30 141.5q0 154 121 243t350 89q205 0 333 -86t157 -240h-322q-25 109 -176 109q-143 0 -143 -88q0 -43 42 -67t179 -58q59 -14 75.5 -19.5t71 -21t75 -26.5t62.5 -31.5 t59 -42.5l41 -50q24 -29 32 -65.5t8 -79.5q0 -164 -127 -262.5t-373 -98.5q-213 0 -348 90.5t-162 241.5h322q10 -51 61 -83t125 -32zM565 1346l-92 -121h-328l277 280h287l276 -280h-326z" />
<glyph unicode="&#x15e;" horiz-adv-x="1380" d="M772 -291q0 88 -168 88l17 176q-242 18 -386.5 140.5t-173.5 320.5h326q18 -102 100 -163.5t222 -61.5q137 0 205.5 43t68.5 117q0 47 -19.5 83.5t-47 60.5t-83 45.5t-98.5 32.5l-121 30q-86 20 -147 39.5t-133 56.5t-116 83t-73.5 117.5t-29.5 161.5q0 199 151.5 312.5 t440.5 113.5q256 0 406.5 -107.5t178.5 -301.5h-321q-12 82 -86 128t-187 46q-238 0 -237 -150q0 -86 66.5 -126t232.5 -76q119 -27 210 -61t178 -90t134 -144t47 -205q0 -176 -132 -300t-392 -145v-55q84 -18 130 -70.5t46 -132.5q0 -102 -82 -172.5t-213 -70.5 q-139 0 -220 66.5t-95 180.5h204q10 -84 105 -84q43 0 67.5 21.5t24.5 52.5z" />
<glyph unicode="&#x15f;" horiz-adv-x="1132" d="M647 -291q0 88 -168 88l17 174q-188 14 -305 102.5t-140 227.5h322q10 -51 61 -83t125 -32q178 0 178 101q0 51 -45 72.5t-209 60.5q-88 20 -148.5 42.5t-119.5 61.5t-89 98.5t-30 141.5q0 154 121 243t350 89q205 0 333 -86t157 -240h-322q-25 109 -176 109 q-143 0 -143 -88q0 -43 42 -67t179 -58q59 -14 75.5 -19.5t71 -21t75 -26.5t62.5 -31.5t59 -42.5l41 -50q24 -29 32 -65.5t8 -79.5q0 -143 -96.5 -236.5t-284.5 -116.5v-59q84 -18 130 -70.5t46 -132.5q0 -102 -82 -172.5t-213 -70.5q-139 0 -220 66.5t-95 180.5h205 q10 -84 104 -84q43 0 67.5 21.5t24.5 52.5z" />
<glyph unicode="&#x160;" horiz-adv-x="1380" d="M705 -31q-279 0 -446 124t-198 341h326q18 -102 100 -163.5t222 -61.5q274 0 274 170q0 45 -19.5 80t-47 56.5t-83 43t-98.5 32.5l-121 30q-86 20 -147 39.5t-133 56.5t-116 83t-73.5 117.5t-29.5 161.5q0 199 151.5 312.5t440.5 113.5q256 0 406.5 -107.5t178.5 -301.5 h-321q-12 82 -86 128t-187 46q-238 0 -237 -150q0 -86 66.5 -126t232.5 -76q119 -27 210 -61t178 -90t134 -144t47 -205q0 -193 -156.5 -321t-467.5 -128zM608 1894l92 -120l95 120h325l-276 -280h-287l-276 280h327z" />
<glyph unicode="&#x161;" horiz-adv-x="1132" d="M559 186q178 0 178 101q0 51 -45 72.5t-209 60.5q-88 20 -148.5 42.5t-119.5 61.5t-89 98.5t-30 141.5q0 154 121 243t350 89q205 0 333 -86t157 -240h-322q-25 109 -176 109q-143 0 -143 -88q0 -43 42 -67t179 -58q59 -14 75.5 -19.5t71 -21t75 -26.5t62.5 -31.5 t59 -42.5l41 -50q24 -29 32 -65.5t8 -79.5q0 -164 -127 -262.5t-373 -98.5q-213 0 -348 90.5t-162 241.5h322q10 -51 61 -83t125 -32zM455 1505l92 -121l94 121h326l-277 -280h-287l-276 280h328z" />
<glyph unicode="&#x162;" horiz-adv-x="1234" d="M1225 1475v-258h-439v-1217h-344v1217h-432v258h1215zM764 -125v-213q0 -330 -350 -401v139q147 49 147 194h-98v281h301z" />
<glyph unicode="&#x163;" horiz-adv-x="753" d="M723 215v-217q-100 -29 -195 -29q-164 0 -255 85t-91 243v547h-162v221h162l21 256h299v-256h219v-221h-219v-557q0 -43 28.5 -66.5t75.5 -23.5q39 0 117 18zM535 -125v-213q0 -330 -351 -401v139q147 49 148 194h-99v281h302z" />
<glyph unicode="&#x164;" horiz-adv-x="1234" d="M1225 1475v-258h-439v-1217h-344v1217h-432v258h1215zM524 1894l92 -120l95 120h325l-276 -280h-287l-276 280h327z" />
<glyph unicode="&#x165;" horiz-adv-x="876" d="M877 1493v-131q0 -102 -72 -172t-203 -78v113q78 14 78 69h-59v199h256zM723 215v-217q-100 -29 -195 -29q-164 0 -255 85t-91 243v547h-162v221h162l21 256h299v-256h219v-221h-219v-557q0 -43 28.5 -66.5t75.5 -23.5q39 0 117 18z" />
<glyph unicode="&#x166;" horiz-adv-x="1234" d="M1016 725h-230v-725h-344v725h-229v227h229v265h-432v258h1215v-258h-439v-265h230v-227z" />
<glyph unicode="&#x167;" horiz-adv-x="753" d="M723 215v-217q-100 -29 -195 -29q-164 0 -255 85t-91 243v266h-137v215h137v66h-162v221h162l21 256h299v-256h219v-221h-219v-66h178v-215h-178v-276q0 -43 28.5 -66.5t75.5 -23.5q39 0 117 18z" />
<glyph unicode="&#x168;" horiz-adv-x="1466" d="M113 1475h344v-1004q0 -125 71.5 -191.5t206.5 -66.5t212 67.5t77 190.5v1004h330v-981q0 -248 -163 -386.5t-458 -138.5t-457.5 138.5t-162.5 386.5v981zM866 1602q-63 0 -143 38.5t-123 38.5q-76 0 -174 -77v225q94 68 182 67q63 0 143 -38.5t123 -38.5q68 0 166 77 v-225q-94 -67 -174 -67z" />
<glyph unicode="&#x169;" horiz-adv-x="1220" d="M102 1065h320v-705q0 -80 44 -122.5t126 -42.5q86 0 141 61t55 170v639h320v-1065h-264l-31 113q-117 -143 -321 -144q-184 0 -287 104.5t-103 299.5v692zM745 1212q-63 0 -143 39t-123 39q-76 0 -174 -78v226q94 68 182 67q63 0 143.5 -39t123.5 -39q68 0 166 78v-225 q-95 -68 -175 -68z" />
<glyph unicode="&#x16a;" horiz-adv-x="1466" d="M113 1475h344v-1004q0 -125 71.5 -191.5t206.5 -66.5t212 67.5t77 190.5v1004h330v-981q0 -248 -163 -386.5t-458 -138.5t-457.5 138.5t-162.5 386.5v981zM1010 1634h-553v230h553v-230z" />
<glyph unicode="&#x16b;" horiz-adv-x="1220" d="M102 1065h320v-705q0 -80 44 -122.5t126 -42.5q86 0 141 61t55 170v639h320v-1065h-264l-31 113q-117 -143 -321 -144q-184 0 -287 104.5t-103 299.5v692zM885 1245h-553v230h553v-230z" />
<glyph unicode="&#x16c;" horiz-adv-x="1466" d="M113 1475h344v-1004q0 -125 71.5 -191.5t206.5 -66.5t212 67.5t77 190.5v1004h330v-981q0 -248 -163 -386.5t-458 -138.5t-457.5 138.5t-162.5 386.5v981zM416 1894h254q2 -100 63.5 -100t63.5 100h254q-16 -141 -101.5 -206.5t-216.5 -65.5q-137 0 -219 71.5t-98 200.5z " />
<glyph unicode="&#x16d;" horiz-adv-x="1220" d="M102 1065h320v-705q0 -80 44 -122.5t126 -42.5q86 0 141 61t55 170v639h320v-1065h-264l-31 113q-117 -143 -321 -144q-184 0 -287 104.5t-103 299.5v692zM276 1505h254q2 -100 63.5 -100t63.5 100h254q-16 -141 -101 -206.5t-216 -65.5q-137 0 -219.5 71.5t-98.5 200.5z " />
<glyph unicode="&#x16e;" horiz-adv-x="1466" d="M113 1475h344v-1004q0 -125 71.5 -191.5t206.5 -66.5t212 67.5t77 190.5v1004h330v-981q0 -248 -163 -386.5t-458 -138.5t-457.5 138.5t-162.5 386.5v981zM649 1761q0 -51 23.5 -77.5t60.5 -26.5t60.5 26.5t23.5 77.5q0 104 -84 104t-84 -104zM1018 1761 q0 -109 -76 -180.5t-209 -71.5t-208.5 72t-75.5 180q0 106 76.5 179t207.5 73t208 -73t77 -179z" />
<glyph unicode="&#x16f;" horiz-adv-x="1220" d="M102 1065h320v-705q0 -80 44 -122.5t126 -42.5q86 0 141 61t55 170v639h320v-1065h-264l-31 113q-117 -143 -321 -144q-184 0 -287 104.5t-103 299.5v692zM514 1434q0 -51 23.5 -78t60.5 -27t60.5 26.5t23.5 78.5q0 104 -84 104t-84 -104zM883 1434q0 -109 -76 -180.5 t-209 -71.5t-209 71.5t-76 180.5q0 106 77 179t208 73t208 -73t77 -179z" />
<glyph unicode="&#x170;" horiz-adv-x="1466" d="M113 1475h344v-1004q0 -125 71.5 -191.5t206.5 -66.5t212 67.5t77 190.5v1004h330v-981q0 -248 -163 -386.5t-458 -138.5t-457.5 138.5t-162.5 386.5v981zM356 1614l207 280h346l-305 -280h-248zM807 1614l207 280h346l-305 -280h-248z" />
<glyph unicode="&#x171;" horiz-adv-x="1220" d="M102 1065h320v-705q0 -80 44 -122.5t126 -42.5q86 0 141 61t55 170v639h320v-1065h-264l-31 113q-117 -143 -321 -144q-184 0 -287 104.5t-103 299.5v692zM229 1225l207 280h346l-305 -280h-248zM680 1225l207 280h346l-305 -280h-248z" />
<glyph unicode="&#x172;" horiz-adv-x="1466" d="M1196 -281q-70 -225 -330 -225q-123 0 -198.5 62.5t-75.5 171.5q0 141 153 241h-12q-295 0 -457.5 138.5t-162.5 386.5v981h344v-1004q0 -125 71.5 -191.5t206.5 -66.5t212 67.5t77 190.5v1004h330v-981q0 -334 -291 -465q-250 -111 -250 -256q0 -45 26.5 -72t63.5 -27 q57 0 74 45h219z" />
<glyph unicode="&#x173;" horiz-adv-x="1220" d="M102 1065h320v-705q0 -80 44 -122.5t126 -42.5q84 0 140 59t56 160v651h320v-1065h-80q-195 -104 -194 -227q0 -45 26.5 -72t63.5 -27q57 0 73 45h220q-70 -225 -330 -225q-123 0 -199 62.5t-76 171.5q0 90 61.5 162.5t166.5 119.5l-27 103q-117 -143 -321 -144 q-184 0 -287 104.5t-103 299.5v692z" />
<glyph unicode="&#x174;" horiz-adv-x="2017" d="M1692 1475h325l-329 -1475h-406l-274 1139l-263 -1139h-391l-354 1475h356l224 -1090l247 1090h383l269 -1096zM1008 1735l-93 -121h-327l276 280h287l276 -280h-325z" />
<glyph unicode="&#x175;" horiz-adv-x="1761" d="M1438 1065h303l-293 -1065h-395l-168 778l-191 -778h-387l-287 1065h330l166 -801l189 801h385l165 -805zM885 1346l-92 -121h-328l276 280h287l277 -280h-326z" />
<glyph unicode="&#x176;" horiz-adv-x="1368" d="M684 1749l-92 -121h-328l277 280h287l276 -280h-326zM846 0h-324v588l-522 887h369l323 -601l348 601h328l-522 -887v-588z" />
<glyph unicode="&#x177;" horiz-adv-x="1169" d="M583 1340l-92 -121h-328l277 280h287l276 -280h-326zM840 1065h319l-381 -1088q-72 -207 -163 -291.5t-236 -84.5q-82 0 -172 22v223q74 -18 131 -18q55 0 90 41t55 131h-90l-383 1065h340l236 -832z" />
<glyph unicode="&#x178;" horiz-adv-x="1368" d="M846 0h-324v588l-522 887h369l323 -601l348 601h328l-522 -887v-588zM608 1602h-303v262h303v-262zM1079 1602h-303v262h303v-262z" />
<glyph unicode="&#x179;" horiz-adv-x="1269" d="M1219 1233l-779 -989h766v-244h-1155v248l776 983h-737v244h1129v-242zM498 1583l207 281h346l-306 -281h-247z" />
<glyph unicode="&#x17a;" horiz-adv-x="1038" d="M997 817l-553 -581h533v-236h-936v248l559 581h-522v236h919v-248zM406 1194l206 281h346l-305 -281h-247z" />
<glyph unicode="&#x17b;" horiz-adv-x="1269" d="M1219 1233l-779 -989h766v-244h-1155v248l776 983h-737v244h1129v-242zM815 1591h-344v273h344v-273z" />
<glyph unicode="&#x17c;" horiz-adv-x="1038" d="M997 817l-553 -581h533v-236h-936v248l559 581h-522v236h919v-248zM705 1202h-345v273h345v-273z" />
<glyph unicode="&#x17d;" horiz-adv-x="1269" d="M1219 1233l-779 -989h766v-244h-1155v248l776 983h-737v244h1129v-242zM555 1894l92 -120l94 120h326l-276 -280h-287l-277 280h328z" />
<glyph unicode="&#x17e;" horiz-adv-x="1038" d="M997 817l-553 -581h533v-236h-936v248l559 581h-522v236h919v-248zM461 1505l92 -121l94 121h326l-277 -280h-286l-277 280h328z" />
<glyph unicode="&#x2c6;" horiz-adv-x="962" d="M481 1346l-92 -121h-328l277 280h287l276 -280h-326z" />
<glyph unicode="&#x2d8;" horiz-adv-x="757" d="M61 1505h254q2 -100 63.5 -100t63.5 100h254q-16 -141 -101 -206.5t-216 -65.5q-137 0 -219.5 71.5t-98.5 200.5z" />
<glyph unicode="&#x2da;" horiz-adv-x="655" d="M244 1434q0 -51 23.5 -78t60.5 -27t60.5 26.5t23.5 78.5q0 104 -84 104t-84 -104zM612 1434q0 -109 -75.5 -180.5t-208.5 -71.5t-209 71.5t-76 180.5q0 106 77 179t208 73t207.5 -73t76.5 -179z" />
<glyph unicode="&#x2dc;" horiz-adv-x="737" d="M502 1212q-63 0 -143 39t-123 39q-76 0 -175 -78v226q94 68 183 67q63 0 143 -39t123 -39q68 0 166 78v-225q-94 -68 -174 -68z" />
<glyph unicode="&#x2000;" horiz-adv-x="1005" />
<glyph unicode="&#x2001;" horiz-adv-x="2013" />
<glyph unicode="&#x2002;" horiz-adv-x="1005" />
<glyph unicode="&#x2003;" horiz-adv-x="2013" />
<glyph unicode="&#x2004;" horiz-adv-x="669" />
<glyph unicode="&#x2005;" horiz-adv-x="501" />
<glyph unicode="&#x2006;" horiz-adv-x="333" />
<glyph unicode="&#x2007;" horiz-adv-x="333" />
<glyph unicode="&#x2008;" horiz-adv-x="249" />
<glyph unicode="&#x2009;" horiz-adv-x="401" />
<glyph unicode="&#x200a;" horiz-adv-x="110" />
<glyph unicode="&#x2010;" horiz-adv-x="1105" d="M942 786v-251h-778v251h778z" />
<glyph unicode="&#x2011;" horiz-adv-x="1105" d="M942 786v-251h-778v251h778z" />
<glyph unicode="&#x2012;" horiz-adv-x="1105" d="M942 786v-251h-778v251h778z" />
<glyph unicode="&#x2013;" horiz-adv-x="819" d="M819 786v-251h-819v251h819z" />
<glyph unicode="&#x2014;" d="M1229 786v-251h-1229v251h1229z" />
<glyph unicode="&#x2018;" horiz-adv-x="552" d="M76 778v260q0 113 37 198t99 133t128 72.5t139 33.5v-160q-170 -37 -170 -215h129v-322h-362z" />
<glyph unicode="&#x2019;" horiz-adv-x="552" d="M477 1475v-261q0 -113 -37 -197.5t-99 -132.5t-128 -73t-139 -33v160q170 37 170 215h-129v322h362z" />
<glyph unicode="&#x201a;" horiz-adv-x="552" d="M477 322v-261q0 -113 -37 -197.5t-99 -132.5t-128 -73t-139 -33v160q170 37 170 215h-129v322h362z" />
<glyph unicode="&#x201c;" horiz-adv-x="1038" d="M561 778v260q0 113 37 198t99.5 133t128 72.5t139.5 33.5v-160q-170 -37 -170 -215h129v-322h-363zM111 778v260q0 113 36.5 198t99 133t128 72.5t139.5 33.5v-160q-170 -37 -170 -215h129v-322h-362z" />
<glyph unicode="&#x201d;" horiz-adv-x="1038" d="M928 1475v-261q0 -113 -37 -197.5t-99.5 -132.5t-128 -73t-139.5 -33v160q170 37 170 215h-129v322h363zM477 1475v-261q0 -113 -37 -197.5t-99 -132.5t-128 -73t-139 -33v160q170 37 170 215h-129v322h362z" />
<glyph unicode="&#x201e;" horiz-adv-x="1003" d="M928 322v-261q0 -113 -37 -197.5t-99.5 -132.5t-128 -73t-139.5 -33v160q170 37 170 215h-129v322h363zM477 322v-261q0 -113 -37 -197.5t-99 -132.5t-128 -73t-139 -33v160q170 37 170 215h-129v322h362z" />
<glyph unicode="&#x2022;" horiz-adv-x="686" d="M584 422h-482v461h482v-461z" />
<glyph unicode="&#x2026;" horiz-adv-x="1775" d="M1069 0h-362v322h362v-322zM477 0h-362v322h362v-322zM1661 0h-363v322h363v-322z" />
<glyph unicode="&#x202f;" horiz-adv-x="401" />
<glyph unicode="&#x2039;" horiz-adv-x="688" d="M336 184l-244 461l264 420h240l-190 -426l169 -455h-239z" />
<glyph unicode="&#x203a;" horiz-adv-x="688" d="M596 645l-244 -461h-239l170 455l-191 426h240z" />
<glyph unicode="&#x205f;" horiz-adv-x="501" />
<glyph unicode="&#x20ac;" d="M453 668h348l-39 -193h-293q27 -147 91.5 -205.5t164.5 -58.5q78 0 130 37t67 106h311q-27 -172 -165 -278.5t-347 -106.5q-61 0 -122.5 12.5t-134.5 47t-133.5 89t-112.5 146.5t-77 211h-133l39 193h72q-2 33 -2 53q0 25 2 61h-111l39 193h92q49 240 196.5 364.5 t369.5 124.5q209 0 349 -109.5t167 -281.5h-312q-16 72 -66 112t-126 40q-188 0 -242 -250h389l-39 -193h-372q-2 -37 -2 -61q0 -20 2 -53z" />
<glyph unicode="&#x2122;" horiz-adv-x="1720" d="M1276 664h-203l-153 491v-491h-228v614h-196v-614h-240v614h-246v197h1014l154 -512l133 512h348v-811h-232v491z" />
<glyph unicode="&#xe000;" horiz-adv-x="1065" d="M0 1065h1065v-1065h-1065v1065z" />
<glyph unicode="&#xfb01;" horiz-adv-x="1282" d="M942 1468v-225q-115 29 -244 29q-106 0 -146 -32t-40 -105v-70h657v-1065h-319v844h-338v-844h-319v844h-162v221h162v57q0 193 110.5 288t310.5 95q185 0 328 -37z" />
<glyph unicode="&#xfb02;" horiz-adv-x="1302" d="M1190 0h-320v1255q-94 16 -186 17q-96 0 -134 -34t-38 -103v-72h203v-221h-203v-842h-319v842h-162v221h162v59q0 190 109.5 286.5t297.5 96.5q145 0 277 -24l313 12v-1493z" />
<glyph unicode="&#xfb03;" horiz-adv-x="1941" d="M1274 1505q184 0 328 -37v-225q-115 29 -244 29q-111 0 -149 -34t-38 -103v-70h658v-1065h-320v844h-338v-844h-319v844h-340v-844h-319v844h-162v221h162v57q0 178 98 270.5t282 92.5q213 0 396 -70q108 90 305 90zM512 1135v-70h340v57q0 59 8 101q-115 29 -203 28 q-84 0 -114.5 -25t-30.5 -91z" />
<glyph unicode="&#xfb04;" horiz-adv-x="1961" d="M1260 1505q145 0 276 -24l313 12v-1493h-319v1255q-94 16 -187 17q-172 0 -172 -123v-84h224v-221h-224v-844h-319v844h-340v-844h-319v844h-162v221h162v57q0 186 104 274.5t283 88.5q190 0 368 -64q87 84 312 84zM852 1143q0 29 4 82q-121 27 -192 26q-86 0 -119 -25.5 t-33 -90.5v-70h340v78z" />
</font>
</defs>
</svg>
