<?xml version="1.0" standalone="no"?>
<!DOCTYPE svg PUBLIC "-//W3C//DTD SVG 1.1//EN" "http://www.w3.org/Graphics/SVG/1.1/DTD/svg11.dtd" >
<svg xmlns="http://www.w3.org/2000/svg">
<metadata>
This is a custom SVG webfont generated by Font Squirrel.
Copyright   : Copyright c 2010 by Ralph du Carrois Erik Spiekermann  Botio Nikoltchev All rights reserved
Designer    : Ralph du Carrois Erik Spiekermann  Botio Nikoltchev
Foundry     : Ralph du Carrois Erik Spiekermann  Botio Nikoltchev
Foundry URL : httpedenspiekermanncom
</metadata>
<defs>
<font id="webfontYV2ijA8e" horiz-adv-x="1228" >
<font-face units-per-em="2048" ascent="1618" descent="-430" />
<missing-glyph horiz-adv-x="614" />
<glyph unicode=" "  horiz-adv-x="614" />
<glyph unicode="&#x09;" horiz-adv-x="614" />
<glyph unicode="&#xa0;" horiz-adv-x="614" />
<glyph unicode="!" horiz-adv-x="512" d="M289 451h-80v1024h80v-1024zM311 0h-110v131h110v-131z" />
<glyph unicode="&#x22;" d="M317 1317l-14 -313h-51l-16 313v188h81v-188zM584 1317l-15 -313h-51l-16 313v188h82v-188z" />
<glyph unicode="#" d="M154 954v68h190l37 412h74l-37 -412h444l37 412h74l-37 -412h180v-68h-186l-41 -475h186v-67h-192l-35 -412h-74l35 412h-444l-35 -412h-74l35 412h-178v67h184l41 475h-184zM412 954l-41 -475h444l41 475h-444z" />
<glyph unicode="$" d="M588 -276v258q-199 8 -335 109.5t-173 279.5h80q33 -158 161 -240t306 -82q205 0 322.5 87t117.5 233q0 137 -101.5 220t-379.5 144q-238 53 -338.5 139t-100.5 232q0 150 117 250t324 108v238h71v-238q186 -8 320.5 -102t171.5 -250h-78q-33 133 -153.5 210t-288.5 77 q-193 0 -299.5 -81t-106.5 -206q0 -127 85 -194.5t327 -120.5q276 -61 392 -160.5t116 -261.5q0 -164 -130 -274.5t-356 -118.5v-256h-71z" />
<glyph unicode="%" horiz-adv-x="1687" d="M1198 1434l-641 -1434h-72l641 1434h72zM190 1118.5q0 -141.5 74 -214.5t185 -73q109 0 184.5 73t75.5 214.5t-75 214t-185.5 72.5t-184.5 -72.5t-74 -214zM778 1118q0 -166 -94 -256t-235.5 -90t-234.5 90t-93 256t94 256t234 90q141 0 235 -90t94 -256zM979 315.5 q0 -141.5 73.5 -214t184.5 -72.5q109 0 184.5 72.5t75.5 214t-74.5 214t-185.5 72.5t-184.5 -72.5t-73.5 -214zM1567 315.5q0 -165.5 -94.5 -256t-235.5 -90.5t-234.5 90.5t-93.5 256t94.5 256t233.5 90.5q141 0 235.5 -90.5t94.5 -256z" />
<glyph unicode="&#x26;" horiz-adv-x="1239" d="M1087 684l68 -8q-31 -250 -162 -440l226 -226l-52 -41l-213 213q-176 -213 -438 -213q-215 0 -331.5 95.5t-116.5 257.5q0 133 79.5 227t245.5 194l-141 148q-43 47 -86 123t-43 141q0 127 93 218t269 91q180 0 276.5 -92t96.5 -221q0 -106 -99.5 -215t-262.5 -205 l450 -448q114 174 141 401zM522 31q223 0 385 198l-467 469q-150 -90 -223.5 -173t-73.5 -197q0 -139 100.5 -218t278.5 -79zM193 1155q0 -78 56 -154.5t202 -224.5q338 199 337 375q0 100 -75.5 176t-227.5 76q-145 0 -218.5 -71t-73.5 -177z" />
<glyph unicode="'" horiz-adv-x="552" d="M317 1317l-14 -313h-51l-16 313v188h81v-188z" />
<glyph unicode="(" horiz-adv-x="696" d="M258 655q0 -301 86 -535.5t240 -467.5h-70q-139 184 -234.5 441t-95.5 562.5t95.5 562.5t234.5 441h70q-154 -233 -240 -468t-86 -536z" />
<glyph unicode=")" horiz-adv-x="696" d="M438 655q0 301 -86 535.5t-239 468.5h69q139 -184 234.5 -441t95.5 -562.5t-95 -562.5t-235 -441h-69q154 233 239.5 467.5t85.5 535.5z" />
<glyph unicode="*" horiz-adv-x="962" d="M674 797l-193 290l-192 -290l-58 45l220 274l-340 94l22 68l328 -123l-17 350h74l-16 -350l327 123l23 -68l-340 -94l219 -274z" />
<glyph unicode="+" d="M578 1069h73v-375h373v-69h-373v-375h-73v375h-373v69h373v375z" />
<glyph unicode="," horiz-adv-x="552" d="M340 131v-125q0 -225 -190 -282v59q59 25 85.5 75t26.5 142h-37v131h115z" />
<glyph unicode="-" horiz-adv-x="1105" d="M901 694v-69h-696v69h696z" />
<glyph unicode="." horiz-adv-x="569" d="M340 0h-111v131h111v-131z" />
<glyph unicode="/" horiz-adv-x="696" d="M598 1505l-428 -1689h-72l428 1689h72z" />
<glyph unicode="0" d="M614.5 35q190.5 0 298 171t107.5 509q0 340 -107.5 512t-298 172t-298 -172t-107.5 -512q0 -338 107.5 -509t298 -171zM614 -31q-217 0 -349 185.5t-132 560.5q0 377 132 563t349 186t349.5 -186t132.5 -563t-131.5 -561.5t-350.5 -184.5z" />
<glyph unicode="1" d="M739 0h-75v1352l-336 -199v80l338 201h73v-1434z" />
<glyph unicode="2" d="M233 1100h-79q27 172 150.5 268t303.5 96t301 -105.5t121 -279.5q0 -131 -63.5 -238.5t-218.5 -267.5l-492 -503h772v-70h-868v70l561 579q125 129 180 223.5t55 206.5q0 145 -95 232.5t-255 87.5q-152 0 -253.5 -83t-119.5 -216z" />
<glyph unicode="3" d="M584 -31q-186 0 -316.5 90.5t-161.5 253.5h76q27 -133 136.5 -205.5t267.5 -72.5q178 0 286.5 95t108.5 259q0 160 -96.5 249t-261.5 89h-160v68h151q154 0 242 83t88 216q0 141 -97 223t-257 82q-158 0 -258.5 -72t-128.5 -207h-76q33 162 156 253t309 91q188 0 307 -98 t119 -264q0 -274 -275 -340q137 -16 225.5 -114.5t88.5 -254.5q0 -197 -130 -310.5t-343 -113.5z" />
<glyph unicode="4" d="M815 1434h82v-1098h217v-66h-217v-270h-76v270h-669v80zM221 336h600v983z" />
<glyph unicode="5" d="M584 -31q-174 0 -302 95.5t-161 263.5h76q29 -143 137 -218t256 -75q174 0 290.5 115.5t116.5 304.5q0 186 -108.5 291.5t-284.5 105.5q-139 0 -235.5 -56.5t-143.5 -125.5h-57l27 764h794v-66h-723l-24 -598q143 147 370 148q205 0 333 -124t128 -341t-140 -350.5 t-349 -133.5z" />
<glyph unicode="6" d="M1024 1190h-76q-31 100 -111.5 154.5t-195.5 54.5q-430 0 -438 -729q47 111 156.5 185.5t252.5 74.5q197 0 326 -128t129 -347q0 -221 -130 -353.5t-325 -132.5q-479 0 -479 682q0 233 42 398t117 252.5t160 125t189 37.5q135 0 242.5 -74.5t140.5 -199.5zM606 864 q-158 0 -271.5 -103.5t-113.5 -279.5q0 -68 18.5 -138.5t60.5 -142t124 -117.5t192 -46q154 0 265.5 111.5t111.5 297.5q0 199 -106.5 308.5t-280.5 109.5z" />
<glyph unicode="7" d="M1049 1366l-668 -1366h-80l670 1366h-828v68h906v-68z" />
<glyph unicode="8" d="M1063 1114q0 -258 -330 -352q381 -104 381 -395q0 -172 -136 -285t-364 -113q-225 0 -362 113t-137 276q0 297 356 400q-127 39 -216 124t-89 222q0 172 131 266t317 94q190 0 319.5 -89t129.5 -261zM1038 365q0 86 -38.5 152.5t-106.5 108.5t-137.5 66.5t-153.5 38.5 q-90 -20 -154.5 -44.5t-128 -66.5t-96.5 -106.5t-33 -151.5q0 -150 121 -238.5t303 -88.5q180 0 302 89t122 241zM240 1110q0 -254 366 -322q178 39 280.5 110t102.5 212q0 145 -108.5 218t-266.5 73q-152 0 -263 -74t-111 -217z" />
<glyph unicode="9" d="M166 244h74q29 -98 116.5 -153.5t202.5 -55.5q430 0 438 729q-47 -113 -156.5 -186.5t-252.5 -73.5q-193 0 -324 125t-131 350q0 213 130 349t317 136q135 0 232 -54t151.5 -151.5t79 -215t24.5 -261.5q0 -813 -508 -813q-139 0 -250.5 76t-142.5 199zM594 569 q158 0 271.5 103.5t113.5 279.5q0 68 -18.5 138.5t-60.5 142.5t-124 118t-192 46q-160 0 -268.5 -115t-108.5 -295q0 -203 108.5 -310.5t278.5 -107.5z" />
<glyph unicode=":" horiz-adv-x="569" d="M340 0h-111v131h111v-131zM340 934h-111v131h111v-131z" />
<glyph unicode=";" horiz-adv-x="569" d="M340 934h-111v131h111v-131zM340 131v-125q0 -225 -190 -282v59q59 25 85.5 75t26.5 142h-37v131h115z" />
<glyph unicode="&#x3c;" d="M291 662v-3l733 -362v-82l-819 416v59l819 416v-82z" />
<glyph unicode="=" d="M1024 909v-69h-819v69h819zM1024 479v-69h-819v69h819z" />
<glyph unicode="&#x3e;" d="M938 659v3l-733 362v82l819 -416v-59l-819 -416v82z" />
<glyph unicode="?" horiz-adv-x="1009" d="M195 1174h-78q27 143 137.5 237t280.5 94q172 0 282.5 -92t110.5 -225q0 -94 -47 -168t-209 -246q-84 -88 -105.5 -159.5t-21.5 -204.5h-74q0 170 24.5 240.5t127.5 174.5q100 102 137 143.5t65.5 97.5t28.5 120q0 104 -89 180t-233 76q-129 0 -221.5 -74.5 t-115.5 -193.5zM563 0h-110v131h110v-131z" />
<glyph unicode="@" horiz-adv-x="1904" d="M1413 215q-100 0 -155.5 64.5t-57.5 160.5q-29 -74 -123 -144.5t-219 -70.5q-137 0 -236.5 102.5t-99.5 276.5q0 248 127 393.5t316 145.5q84 0 164.5 -46t109.5 -130l37 161h55l-76 -581q-4 -61 -4 -64q0 -98 44 -151t118 -53q129 0 212 138t83 390q0 276 -197.5 454.5 t-531.5 178.5q-109 0 -214.5 -24.5t-209.5 -84t-182 -147.5t-127 -224.5t-49 -304.5q0 -350 229 -551.5t561 -201.5q168 0 320 49l20 -62q-152 -55 -342 -55q-166 0 -319.5 53.5t-275.5 153.5t-194.5 259t-72.5 355q0 178 52 324.5t137 243t198 161t230.5 93t238.5 28.5 q369 0 586 -199.5t217 -496.5q0 -272 -104.5 -433t-264.5 -161zM870 289q117 0 210.5 80t111.5 225l20 149q4 45 5 66q0 137 -74 204.5t-178 67.5q-150 0 -260.5 -123.5t-110.5 -345.5q0 -152 78.5 -237.5t197.5 -85.5z" />
<glyph unicode="A" horiz-adv-x="1314" d="M1294 0h-84l-172 436h-764l-174 -436h-80l586 1475h105zM659 1405l-360 -903h715z" />
<glyph unicode="B" horiz-adv-x="1294" d="M174 1475h496q215 0 332.5 -95.5t117.5 -259.5q0 -119 -75.5 -213t-202.5 -125q145 -18 243.5 -122.5t98.5 -251.5q0 -190 -128 -299t-374 -109h-508v1475zM705 745h-455v-677h442q199 0 305.5 88t106.5 252q0 152 -107.5 244.5t-291.5 92.5zM682 1407h-432v-596h448 q164 0 255 87t91 220q0 137 -95 213t-267 76z" />
<glyph unicode="C" horiz-adv-x="1464" d="M774 -31q-295 0 -478 207t-183 545q0 369 184 576.5t469 207.5q236 0 397.5 -119.5t198.5 -343.5h-74q-41 195 -178 295.5t-344 100.5q-252 0 -414 -191.5t-162 -525.5q0 -311 165 -497.5t419 -186.5q209 0 345 115.5t165 324.5h76q-29 -223 -186.5 -365.5t-399.5 -142.5 z" />
<glyph unicode="D" horiz-adv-x="1380" d="M174 1475h389q315 0 510 -197t195 -541q0 -340 -199 -538.5t-508 -198.5h-387v1475zM567 1407h-317v-1339h321q272 0 445.5 177t173.5 492q0 317 -174.5 493.5t-448.5 176.5z" />
<glyph unicode="E" horiz-adv-x="1148" d="M967 784v-67h-717v-649h776v-68h-852v1475h852v-68h-776v-623h717z" />
<glyph unicode="F" horiz-adv-x="1126" d="M174 1475h840v-68h-764v-664h688v-67h-688v-676h-76v1475z" />
<glyph unicode="G" horiz-adv-x="1490" d="M1333 766v-766h-55l-10 270q-66 -141 -196 -221t-298 -80q-285 0 -473 202t-188 564q0 365 183 567.5t468 202.5q227 0 377.5 -108.5t197.5 -311.5h-77q-47 174 -175.5 263.5t-322.5 89.5q-240 0 -407 -182.5t-167 -520.5q0 -330 169 -514t415 -184q205 0 349.5 128 t144.5 316v217h-498v68h563z" />
<glyph unicode="H" horiz-adv-x="1384" d="M1135 1475h75v-1475h-75v719h-885v-719h-76v1475h76v-687h885v687z" />
<glyph unicode="I" horiz-adv-x="423" d="M174 1475h76v-1475h-76v1475z" />
<glyph unicode="J" horiz-adv-x="1058" d="M72 381h73q8 -164 100.5 -254t241.5 -90q156 0 244 94t88 270v1074h76v-1072q0 -195 -110.5 -314.5t-297.5 -119.5q-188 0 -297.5 112t-117.5 300z" />
<glyph unicode="K" horiz-adv-x="1187" d="M1157 0h-102l-805 737v-737h-76v1475h76v-699l756 699h92l-764 -713z" />
<glyph unicode="L" horiz-adv-x="1118" d="M174 1475h76v-1407h776v-68h-852v1475z" />
<glyph unicode="M" horiz-adv-x="1697" d="M911 0h-92l-571 1397v-1397h-74v1475h119l573 -1403l543 1403h115v-1475h-74v1386z" />
<glyph unicode="N" horiz-adv-x="1452" d="M1208 1475h70v-1475h-80l-950 1368v-1368h-74v1475h84l950 -1358v1358z" />
<glyph unicode="O" horiz-adv-x="1523" d="M762 37q244 0 407.5 178t163.5 520q0 332 -160.5 517.5t-410.5 185.5t-411 -185.5t-161 -517.5q0 -336 165 -517t407 -181zM762 -31q-281 0 -465 205t-184 561q0 360 184 565t464.5 205t465 -204.5t184.5 -565.5q0 -362 -183 -564t-466 -202z" />
<glyph unicode="P" horiz-adv-x="1277" d="M174 1475h502q238 0 369 -121t131 -334q0 -199 -141.5 -318.5t-362.5 -119.5h-422v-582h-76v1475zM682 1407h-432v-756h422q195 0 309.5 98.5t114.5 270.5q0 182 -109.5 284.5t-304.5 102.5z" />
<glyph unicode="Q" horiz-adv-x="1523" d="M762 -31q-281 0 -465 205t-184 561q0 360 184 565t464.5 205t465 -204.5t184.5 -565.5q0 -416 -244 -622l228 -279l-70 -49l-215 285q-149 -101 -348 -101zM762 37q244 0 407.5 178t163.5 520q0 332 -160.5 517.5t-410.5 185.5t-411 -185.5t-161 -517.5q0 -336 165 -517 t407 -181z" />
<glyph unicode="R" horiz-adv-x="1267" d="M1227 0h-94l-412 625h-471v-625h-76v1475h514q233 0 361.5 -115t128.5 -318q0 -154 -103.5 -261t-271.5 -146zM694 1407h-444v-715h434q188 0 301 98.5t113 251.5q0 174 -104.5 269.5t-299.5 95.5z" />
<glyph unicode="S" horiz-adv-x="1316" d="M659 39q221 0 341 88t120 241.5t-105.5 238.5t-396.5 143q-244 49 -351 145t-107 254q0 162 129 259t370 97q211 0 358.5 -95t186.5 -259h-78q-35 133 -157.5 210t-304.5 77q-209 0 -317.5 -77t-108.5 -206q0 -135 93 -214t339 -130q287 -59 407.5 -161.5t120.5 -278.5 q0 -178 -141.5 -290t-399.5 -112q-227 0 -376.5 101.5t-188.5 289.5h80q33 -160 163.5 -240.5t323.5 -80.5z" />
<glyph unicode="T" horiz-adv-x="1153" d="M1112 1475v-68h-498v-1407h-75v1407h-498v68h1071z" />
<glyph unicode="U" horiz-adv-x="1433" d="M717 -31q-256 0 -404.5 148.5t-148.5 363.5v994h74v-996q0 -195 136 -318.5t343 -123.5q205 0 342 125t137 317v996h74v-994q0 -215 -150.5 -363.5t-402.5 -148.5z" />
<glyph unicode="V" horiz-adv-x="1265" d="M20 1475h78l533 -1416l540 1416h74l-557 -1475h-113z" />
<glyph unicode="W" horiz-adv-x="1945" d="M1841 1475h74l-416 -1475h-113l-413 1413l-412 -1413h-115l-415 1475h80l395 -1416l414 1416h112l412 -1412z" />
<glyph unicode="X" horiz-adv-x="1220" d="M1161 1475l-499 -713l518 -762h-90l-480 707l-481 -707h-88l524 766l-483 709h90l444 -654l461 654h84z" />
<glyph unicode="Y" horiz-adv-x="1269" d="M20 1475h82l531 -826l538 826h78l-577 -900v-575h-76v580z" />
<glyph unicode="Z" horiz-adv-x="1308" d="M1206 1411l-1016 -1343h996v-68h-1084v70l1014 1337h-966v68h1056v-64z" />
<glyph unicode="[" horiz-adv-x="471" d="M410 -283v-65h-349v2007h349v-66h-275v-1876h275z" />
<glyph unicode="\" horiz-adv-x="622" d="M489 -184l-428 1689h72l428 -1689h-72z" />
<glyph unicode="]" horiz-adv-x="471" d="M61 -348v65h275v1876h-275v66h349v-2007h-349z" />
<glyph unicode="^" horiz-adv-x="983" d="M492 1417l-322 -598h-76l357 656h81l357 -656h-76z" />
<glyph unicode="_" horiz-adv-x="1236" d="M1176 -143v-70h-1115v70h1115z" />
<glyph unicode="`" horiz-adv-x="442" d="M170 1505l211 -280h-70l-250 280h109z" />
<glyph unicode="a" horiz-adv-x="1064" d="M211 799h-74q12 133 121 215t274 82q170 0 274.5 -92.5t104.5 -249.5v-754h-59l-12 190q-121 -221 -385 -221q-154 0 -253.5 79t-99.5 220q0 137 95.5 219t316.5 119l324 53v109q0 123 -83 194.5t-227 71.5q-133 0 -220 -65.5t-97 -169.5zM838 375v223l-295 -49 q-205 -35 -285 -100.5t-80 -176.5q0 -117 81 -178t216 -61q141 0 252 97.5t111 244.5z" />
<glyph unicode="b" horiz-adv-x="1163" d="M223 0h-59v1475h74v-629q51 115 150 182.5t233 67.5q201 0 320.5 -139.5t119.5 -409.5q0 -276 -125 -427t-322 -151q-133 0 -231 66.5t-147 181.5zM985 549q0 242 -102.5 363.5t-274.5 121.5q-156 0 -267.5 -123t-111.5 -383q0 -244 103.5 -370.5t271.5 -126.5t274.5 133 t106.5 385z" />
<glyph unicode="c" horiz-adv-x="1093" d="M915 301h76q-27 -147 -143.5 -239.5t-284.5 -92.5q-203 0 -332 145.5t-129 409.5q0 274 133.5 423t331.5 149q166 0 278.5 -87t139.5 -231h-78q-20 115 -112.5 185.5t-225.5 70.5q-172 0 -282.5 -132t-110.5 -382q0 -238 110.5 -362.5t280.5 -124.5q135 0 231.5 75.5 t116.5 192.5z" />
<glyph unicode="d" horiz-adv-x="1163" d="M999 0h-59l-12 225q-51 -117 -150.5 -186.5t-232.5 -69.5q-190 0 -316.5 142.5t-126.5 408.5q0 276 127 426t320 150q129 0 227 -65.5t150 -176.5v621h73v-1475zM178 522q0 -242 106.5 -366.5t272.5 -124.5q154 0 265.5 122.5t111.5 383.5q0 242 -104.5 369.5 t-270.5 127.5q-164 0 -272.5 -132t-108.5 -380z" />
<glyph unicode="e" horiz-adv-x="1163" d="M952 283h78q-39 -145 -153.5 -229.5t-276.5 -84.5q-219 0 -358.5 149.5t-139.5 414t134.5 414t338.5 149.5q209 0 342.5 -149.5t133.5 -432.5h-873q6 -238 124 -359.5t300 -121.5q131 0 224 65.5t126 184.5zM575 1034q-164 0 -275.5 -120.5t-121.5 -335.5h795 q-10 219 -121 337.5t-277 118.5z" />
<glyph unicode="f" horiz-adv-x="595" d="M606 1481v-62q-84 25 -155 25q-158 0 -158 -184v-195h260v-64h-260v-1001h-74v1001h-158v64h158v192q0 119 62.5 183.5t169.5 64.5q77 1 155 -24z" />
<glyph unicode="g" horiz-adv-x="1163" d="M147 -111h78q23 -115 116 -171t228 -56q164 0 260.5 92t96.5 246v272q-51 -106 -149.5 -168.5t-229.5 -62.5q-186 0 -315.5 138t-129.5 380q0 252 128 394.5t319 142.5q129 0 229.5 -63.5t149.5 -172.5l12 205h59v-1065q0 -174 -115.5 -286.5t-312.5 -112.5 q-172 0 -283.5 74.5t-140.5 213.5zM178 561q0 -217 107.5 -338t273.5 -121q158 0 266.5 110t108.5 355q0 231 -104.5 349t-272.5 118q-164 0 -271.5 -121t-107.5 -352z" />
<glyph unicode="h" horiz-adv-x="1120" d="M238 0h-74v1475h74v-611q49 111 147 171.5t217 60.5q166 0 265.5 -97.5t99.5 -261.5v-737h-74v733q0 141 -81 221t-226 80q-133 0 -240.5 -105.5t-107.5 -266.5v-662z" />
<glyph unicode="i" horiz-adv-x="376" d="M225 0h-73v1065h73v-1065zM236 1358h-95v117h95v-117z" />
<glyph unicode="j" horiz-adv-x="376" d="M-121 -377v66q68 -23 133 -23q139 0 140 180v1219h73v-1223q0 -119 -52 -180t-150 -61q-74 -1 -144 22zM236 1358h-95v117h95v-117z" />
<glyph unicode="k" horiz-adv-x="970" d="M238 0h-74v1475h74v-852l548 442h103l-576 -465l648 -600h-101l-622 573v-573z" />
<glyph unicode="l" horiz-adv-x="401" d="M238 1475v-1475h-74v1475h74z" />
<glyph unicode="m" horiz-adv-x="1726" d="M238 0h-74v1065h61l11 -182q47 104 139 158.5t194 54.5q125 0 208 -59.5t112 -170.5q47 113 143 171.5t205 58.5q158 0 247 -94.5t89 -262.5v-739h-74v735q0 299 -274 299q-137 0 -228.5 -106.5t-91.5 -263.5v-664h-74v735q0 150 -69.5 224.5t-200.5 74.5 q-139 0 -231 -106.5t-92 -263.5v-664z" />
<glyph unicode="n" horiz-adv-x="1120" d="M238 0h-74v1065h61l11 -203q51 111 149 172.5t217 61.5q166 0 265.5 -97.5t99.5 -261.5v-737h-74v733q0 141 -81 221t-226 80q-133 0 -240.5 -104.5t-107.5 -265.5v-664z" />
<glyph unicode="o" horiz-adv-x="1157" d="M178 532.5q0 -241.5 112.5 -371.5t289.5 -130q180 0 289.5 129t109.5 372.5t-109.5 372.5t-290 129t-291 -130t-110.5 -371.5zM102 532q0 270 132.5 417t345.5 147q215 0 345 -146.5t130 -417t-130 -417t-341 -146.5t-346.5 148.5t-135.5 414.5z" />
<glyph unicode="p" horiz-adv-x="1163" d="M164 1065h59l13 -223q49 115 149 184.5t236 69.5q199 0 319.5 -139.5t120.5 -409.5q0 -274 -127 -426t-324 -152q-131 0 -227 65.5t-145 178.5v-582h-74v1434zM985 549q0 242 -103.5 363.5t-273.5 121.5q-156 0 -267.5 -123t-111.5 -383q0 -244 102.5 -370.5 t268.5 -126.5q168 0 276.5 133t108.5 385z" />
<glyph unicode="q" horiz-adv-x="1163" d="M940 1065h59v-1434h-73v590q-51 -115 -149.5 -183.5t-231.5 -68.5q-190 0 -316.5 142.5t-126.5 408.5q0 276 127 426t320 150q131 0 229.5 -66.5t149.5 -181.5zM178 522q0 -242 106.5 -366.5t272.5 -124.5q154 0 265.5 122.5t111.5 383.5q0 242 -104.5 369.5 t-270.5 127.5q-164 0 -272.5 -132t-108.5 -380z" />
<glyph unicode="r" horiz-adv-x="684" d="M238 0h-74v1065h59l13 -225q80 256 311 256q57 0 106 -17v-71q-63 18 -112 18q-125 0 -214 -120t-89 -304v-602z" />
<glyph unicode="s" horiz-adv-x="1005" d="M825 279q0 106 -84 163.5t-282 87.5q-344 53 -344 291q0 119 97 197t280 78q162 0 273.5 -79t133.5 -208h-78q-12 96 -106 160.5t-230 64.5q-143 0 -219 -59.5t-76 -147.5q0 -98 72 -152t248 -85q211 -37 302 -108.5t91 -200.5q0 -127 -111.5 -219.5t-293.5 -92.5 q-178 0 -287 83t-129 220h78q10 -106 102 -172.5t238 -66.5q152 0 238.5 73t86.5 173z" />
<glyph unicode="t" horiz-adv-x="602" d="M532 1001h-253v-806q0 -164 151 -164q63 0 131 18v-61q-70 -18 -131 -19q-106 0 -165.5 57.5t-59.5 170.5v804h-154v64h154l8 256h66v-256h253v-64z" />
<glyph unicode="u" horiz-adv-x="1110" d="M154 1065h73v-729q0 -150 81 -227.5t222 -77.5q143 0 242.5 108.5t99.5 270.5v655h74v-1065h-61l-11 190q-53 -109 -152 -165t-208 -56q-160 0 -260 94.5t-100 268.5v733z" />
<glyph unicode="v" horiz-adv-x="1003" d="M887 1065h76l-412 -1065h-98l-412 1065h80l381 -999z" />
<glyph unicode="w" horiz-adv-x="1540" d="M1417 1065h72l-305 -1065h-94l-316 999l-297 -999h-94l-332 1065h74l307 -993l295 993h98l312 -989z" />
<glyph unicode="x" horiz-adv-x="1032" d="M928 1065l-373 -504l436 -561h-92l-393 508l-377 -508h-88l420 561l-402 504h95l358 -451l330 451h86z" />
<glyph unicode="y" horiz-adv-x="1003" d="M963 1065l-381 -1071q-90 -254 -136.5 -323.5t-142.5 -69.5q-47 0 -104 20v62q57 -20 106 -21q63 0 99 63.5t106 274.5h-35l-434 1065h80l409 -1012l357 1012h76z" />
<glyph unicode="z" horiz-adv-x="978" d="M897 987l-733 -924h733v-63h-815v74l737 927h-706v64h784v-78z" />
<glyph unicode="{" horiz-adv-x="696" d="M123 694q88 0 141 55.5t53 151.5v488q0 133 64.5 201.5t212.5 68.5v-66q-115 0 -159 -48t-44 -146v-492q0 -100 -51 -166.5t-137 -83.5q86 -16 137 -82.5t51 -166.5v-492q0 -98 44 -146.5t159 -48.5v-65q-147 0 -212 68.5t-65 201.5v488q0 96 -53 151.5t-141 55.5v73z " />
<glyph unicode="|" horiz-adv-x="696" d="M313 1608h70v-1895h-70v1895z" />
<glyph unicode="}" horiz-adv-x="696" d="M573 694v-73q-88 0 -141 -55.5t-53 -151.5v-488q0 -133 -64.5 -201.5t-212.5 -68.5v65q115 0 159 48.5t44 146.5v492q0 100 51.5 166.5t137.5 82.5q-86 16 -137.5 83t-51.5 167v492q0 98 -44 146t-159 48v66q147 0 212 -68.5t65 -201.5v-488q0 -96 53 -151.5t141 -55.5z " />
<glyph unicode="~" d="M811 643q98 0 213 100v-84q-104 -82 -215 -81q-88 0 -206 60t-185 60q-98 0 -213 -100v84q104 82 215 82q88 0 205.5 -60.5t185.5 -60.5z" />
<glyph unicode="&#xa1;" horiz-adv-x="512" d="M209 655h80v-1024h-80v1024zM201 1106h110v-131h-110v131z" />
<glyph unicode="&#xa2;" d="M588 -276v247q-186 16 -302 159.5t-116 393.5q0 258 118 404.5t300 165.5v258h71v-258q156 -6 261.5 -92.5t132.5 -223.5h-78q-20 115 -112.5 185.5t-225.5 70.5q-172 0 -282.5 -132t-110.5 -382q0 -238 110.5 -362.5t280.5 -124.5q135 0 231.5 75.5t116.5 192.5h76 q-27 -141 -134.5 -231t-265.5 -99v-247h-71z" />
<glyph unicode="&#xa3;" d="M784 752v-66h-456v-407q0 -135 -107 -211h803v-68h-911v68q143 55 143 221v397h-92v66h92v323q0 184 101.5 286.5t273.5 102.5q139 0 242.5 -79.5t132.5 -200.5h-72q-25 94 -107 155.5t-196 61.5q-145 0 -224 -85t-79 -241v-323h456z" />
<glyph unicode="&#xa4;" d="M158 696q0 176 100 299l-133 133l49 50l131 -134q133 121 309.5 121t309.5 -123l135 136l49 -50l-137 -137q100 -125 100 -295q0 -178 -102 -301l139 -139l-49 -49l-139 137q-133 -117 -305.5 -117t-305.5 115l-135 -135l-49 49l137 137q-104 121 -104 303zM231 696 q0 -176 112 -289.5t273 -113.5q158 0 269.5 113.5t111.5 289.5t-111.5 290t-269.5 114q-160 0 -272.5 -114t-112.5 -290z" />
<glyph unicode="&#xa5;" d="M965 373v-66h-314v-307h-76v307h-309v66h309v209h-309v65h269l-508 787h82l503 -785l512 785h78l-508 -787h271v-65h-314v-209h314z" />
<glyph unicode="&#xa6;" horiz-adv-x="696" d="M313 502h70v-789h-70v789zM313 1608h70v-789h-70v789z" />
<glyph unicode="&#xa7;" d="M213 653.5q0 106.5 73.5 180t207.5 104.5q-203 92 -203 252q0 123 92 198.5t250 75.5q131 0 224 -61.5t120 -151.5h-80q-23 68 -96.5 110t-169.5 42q-125 0 -197 -60.5t-72 -146.5q0 -92 69 -146.5t214 -99.5q207 -66 289 -140.5t82 -182.5q0 -106 -74 -180t-207 -107 q205 -92 205 -250q0 -125 -96 -199.5t-246 -74.5q-129 0 -229.5 63.5t-128.5 151.5h84q20 -63 98 -108.5t178 -45.5q119 0 193.5 60.5t74.5 146.5q0 92 -68.5 145.5t-213.5 100.5q-207 68 -290 142.5t-83 181zM631 381l31 -10q281 63 280 252q0 100 -72.5 155.5 t-269.5 120.5l-33 10q-133 -27 -206.5 -85t-73.5 -167q0 -98 73.5 -154t270.5 -122z" />
<glyph unicode="&#xa8;" horiz-adv-x="757" d="M217 1358h-94v117h94v-117zM618 1358h-94v117h94v-117z" />
<glyph unicode="&#xa9;" horiz-adv-x="1726" d="M186 737q0 -178 58.5 -318t156 -223t215 -125t246.5 -42t247 42t215 125t155.5 223t58.5 318t-58.5 318.5t-155.5 223.5t-215 125t-247 42t-246.5 -42t-215 -125t-156 -223.5t-58.5 -318.5zM1604 737.5q0 -192.5 -64.5 -345t-171 -242t-235.5 -135.5t-270.5 -46 t-270.5 46t-235.5 135.5t-171 242t-64.5 345t64.5 345t171 241.5t235.5 135t270.5 46t270.5 -46t235.5 -135t171 -241.5t64.5 -345zM1122 573h72q-23 -117 -113 -187.5t-221 -70.5q-156 0 -257 112t-101 312q0 209 103.5 323t256.5 114q129 0 217 -68t111 -180h-74 q-16 86 -83.5 136t-168.5 50q-127 0 -209 -97t-82 -280q0 -174 83 -266t206 -92q100 0 172 53t88 141z" />
<glyph unicode="&#xaa;" horiz-adv-x="901" d="M252 1307h-72q14 94 94 145t189 51q129 0 202.5 -68.5t73.5 -191.5v-614h-53l-12 137q-84 -154 -264 -154q-113 0 -185.5 66.5t-72.5 179.5q0 207 292 260l228 41v88q0 96 -54.5 148.5t-160.5 52.5q-84 0 -140.5 -39t-64.5 -102zM672 920v180l-203 -37 q-117 -20 -182.5 -65.5t-65.5 -135.5q0 -92 55.5 -142t151.5 -50q98 0 171 78t73 172zM760 70v-70h-619v70h619z" />
<glyph unicode="&#xab;" horiz-adv-x="940" d="M356 184l-223 461l244 420h61l-217 -424l197 -457h-62zM725 184l-223 461l243 420h62l-217 -424l196 -457h-61z" />
<glyph unicode="&#xac;" d="M205 694h819v-444h-74v375h-745v69z" />
<glyph unicode="&#xad;" horiz-adv-x="1105" d="M901 694v-69h-696v69h696z" />
<glyph unicode="&#xae;" horiz-adv-x="1257" d="M154 1009.5q0 233.5 145 359.5t329.5 126t330 -126t145.5 -359.5t-145.5 -359.5t-330 -126t-329.5 126t-145 359.5zM211 1009.5q0 -200.5 124 -317.5t294 -117t294 117t124 317.5t-124 317.5t-294 117t-294 -117t-124 -317.5zM840 750h-64l-129 213h-119v-213h-53v528 h158q84 0 135 -38t51 -114q0 -117 -117 -153zM635 1233h-107v-225h113q57 0 90 35.5t33 82.5q0 45 -31.5 76t-97.5 31z" />
<glyph unicode="&#xaf;" horiz-adv-x="593" d="M532 1354h-471v65h471v-65z" />
<glyph unicode="&#xb0;" horiz-adv-x="1105" d="M176 1130.5q0 -120.5 68.5 -191.5t175 -71t175.5 71t69 191.5t-69 191.5t-175.5 71t-175 -71t-68.5 -191.5zM737 1130.5q0 -151.5 -93 -237.5t-224 -86t-224.5 86t-93.5 237.5t93.5 237.5t224.5 86t224 -86t93 -237.5z" />
<glyph unicode="&#xb1;" d="M578 1069h73v-375h373v-69h-373v-355h-73v355h-373v69h373v375zM1024 70v-70h-819v70h819z" />
<glyph unicode="&#xb2;" horiz-adv-x="696" d="M166 1464h-70q23 88 90.5 141.5t165.5 53.5q109 0 175.5 -65.5t66.5 -159.5q0 -78 -36 -139.5t-109 -135.5l-238 -237h373v-62h-457v62l276 282q37 37 58.5 62.5t42 71.5t20.5 96q0 61 -42 114.5t-130 53.5q-70 0 -119 -37.5t-67 -100.5z" />
<glyph unicode="&#xb3;" horiz-adv-x="696" d="M176 1485h-70q20 82 86 128t160 46q98 0 158.5 -58.5t60.5 -146.5q0 -137 -141 -178q172 -37 172 -203q0 -98 -70.5 -161.5t-181.5 -63.5q-88 0 -159.5 53t-88.5 127h74q16 -53 66.5 -87t105.5 -34q86 0 135 48.5t49 119.5q0 80 -54 124t-134 44h-47v55h57 q61 0 105.5 46.5t44.5 107.5q0 70 -41 110t-113 40q-139 0 -174 -117z" />
<glyph unicode="&#xb4;" horiz-adv-x="442" d="M61 1225l211 280h109l-250 -280h-70z" />
<glyph unicode="&#xb5;" horiz-adv-x="1120" d="M164 1065h74v-729q0 -150 80.5 -227.5t222.5 -77.5q143 0 242.5 108.5t99.5 270.5v655h73v-1065h-61l-10 190q-53 -109 -152.5 -165t-208.5 -56q-193 0 -286 121v-459h-74v1434z" />
<glyph unicode="&#xb6;" horiz-adv-x="1126" d="M522 -369h-69v1178q-102 0 -206 83t-104 249t103.5 250t206.5 84h69v-1844zM831 1475h70v-1844h-70v1844z" />
<glyph unicode="&#xb7;" horiz-adv-x="569" d="M340 592h-111v131h111v-131z" />
<glyph unicode="&#xb8;" horiz-adv-x="575" d="M514 -293q0 -82 -62.5 -138t-158.5 -56q-94 0 -156.5 44t-75.5 124h68q6 -51 52 -80t113.5 -29t111 38t43.5 95q0 137 -236 137l14 189h58v-137q111 -10 170 -60.5t59 -126.5z" />
<glyph unicode="&#xb9;" horiz-adv-x="696" d="M575 860h-421v60h192v651l-221 -131v71l213 127h78v-718h159v-60z" />
<glyph unicode="&#xba;" horiz-adv-x="786" d="M141 1054.5q0 -200.5 72 -292.5t182 -92q109 0 179.5 92t70.5 293q0 203 -70.5 297t-179 94t-181.5 -95.5t-73 -296zM72 1055q0 219 86 333.5t237.5 114.5t235.5 -112.5t84 -335.5q0 -219 -85 -331t-232.5 -112t-236.5 113t-89 330zM684 70v-70h-602v70h602z" />
<glyph unicode="&#xbb;" horiz-adv-x="940" d="M807 645l-223 -461h-62l197 457l-217 424h61zM438 645l-223 -461h-61l196 457l-217 424h62z" />
<glyph unicode="&#xbc;" horiz-adv-x="1802" d="M647 655h-422v60h193v651l-221 -131v72l213 127h77v-719h160v-60zM1407 492h59v-248h138v-60h-138v-184h-69v184h-303v62l172 532h69l-174 -534h236v41zM1427 1618l-931 -1802h-70l930 1802h71z" />
<glyph unicode="&#xbd;" horiz-adv-x="1802" d="M1190 604h-70q23 88 90.5 141.5t165.5 53.5q109 0 175.5 -65.5t66.5 -160.5q0 -78 -36 -139t-109 -135l-238 -238h373v-61h-457v61l276 283q37 37 58.5 62.5t42 71.5t20.5 95q0 61 -42 114.5t-130 53.5q-70 0 -119 -37t-67 -100zM633 655h-422v60h192v651l-221 -131v72 l213 127h78v-719h160v-60zM1413 1618l-932 -1802h-69l929 1802h72z" />
<glyph unicode="&#xbe;" horiz-adv-x="1802" d="M270 1290h-69q20 82 85.5 128t159.5 46q98 0 159 -58t61 -146q0 -137 -142 -179q172 -37 172 -202q0 -98 -70.5 -162t-181.5 -64q-88 0 -159.5 53.5t-87.5 127.5h73q16 -53 66.5 -87t105.5 -34q86 0 135.5 48t49.5 120q0 80 -54.5 124t-134.5 44h-47v55h58q61 0 105 46 t44 107q0 70 -41 110t-113 40q-139 0 -174 -117zM1409 492h59v-248h138v-60h-138v-184h-69v184h-303v62l172 532h69l-174 -534h236v41zM1430 1618l-932 -1802h-70l930 1802h72z" />
<glyph unicode="&#xbf;" horiz-adv-x="1009" d="M815 -68h78q-27 -143 -137.5 -237t-280.5 -94q-172 0 -282.5 92t-110.5 225q0 94 47 168t209 246q86 92 106.5 152.5t20.5 211.5h74q0 -170 -25 -240.5t-127 -174.5q-100 -102 -137 -143.5t-65.5 -97.5t-28.5 -120q0 -104 89 -180t232 -76q129 0 222 74.5t116 193.5z M446 1106h111v-131h-111v131z" />
<glyph unicode="&#xc0;" horiz-adv-x="1314" d="M1294 0h-84l-172 436h-764l-174 -436h-80l586 1475h105zM659 1405l-360 -903h715zM535 1853l210 -280h-69l-250 280h109z" />
<glyph unicode="&#xc1;" horiz-adv-x="1314" d="M1294 0h-84l-172 436h-764l-174 -436h-80l586 1475h105zM659 1405l-360 -903h715zM555 1573l211 280h108l-249 -280h-70z" />
<glyph unicode="&#xc2;" horiz-adv-x="1314" d="M1294 0h-84l-172 436h-764l-174 -436h-80l586 1475h105zM659 1405l-360 -903h715zM705 1853l210 -280h-69l-187 231l-184 -231h-72l213 280h89z" />
<glyph unicode="&#xc3;" horiz-adv-x="1314" d="M1294 0h-84l-172 436h-764l-174 -436h-80l586 1475h105zM659 1405l-360 -903h715zM768 1645q-57 0 -117.5 32.5t-101.5 32.5q-68 0 -150 -65v73q80 59 152 60q57 0 117.5 -33t101.5 -33q68 0 150 66v-74q-80 -59 -152 -59z" />
<glyph unicode="&#xc4;" horiz-adv-x="1314" d="M1294 0h-84l-172 436h-764l-174 -436h-80l586 1475h105zM659 1405l-360 -903h715zM506 1706h-94v117h94v-117zM907 1706h-94v117h94v-117z" />
<glyph unicode="&#xc5;" horiz-adv-x="1314" d="M1294 0h-84l-172 436h-764l-174 -436h-80l570 1434q-78 18 -124 79.5t-46 147.5q0 102 65.5 168.5t170 66.5t170 -66.5t65.5 -168.5q0 -84 -45 -144.5t-121 -82.5zM659 1405l-360 -903h715zM485 1661q0 -84 48.5 -132t122 -48t121.5 48t48 132t-48 132t-121.5 48 t-122 -48t-48.5 -132z" />
<glyph unicode="&#xc6;" horiz-adv-x="1878" d="M1696 784v-67h-676v-649h735v-68h-811v436h-600l-264 -436h-80l893 1475h862v-68h-735v-623h676zM385 502h559v921z" />
<glyph unicode="&#xc7;" horiz-adv-x="1464" d="M1030 -293q0 -82 -62.5 -138t-158.5 -56q-94 0 -156.5 44t-74.5 124h67q6 -51 52 -80t114 -29t111 38t43 95q0 137 -236 137l10 129q-281 14 -453.5 218t-172.5 532q0 369 184 576.5t469 207.5q236 0 397.5 -119.5t198.5 -343.5h-74q-41 195 -178 295.5t-344 100.5 q-252 0 -414 -191.5t-162 -525.5q0 -311 165 -497.5t419 -186.5q209 0 345 115.5t165 324.5h76q-29 -217 -178.5 -358.5t-380.5 -149.5v-75q111 -10 170 -60.5t59 -126.5z" />
<glyph unicode="&#xc8;" horiz-adv-x="1148" d="M967 784v-67h-717v-649h776v-68h-852v1475h852v-68h-776v-623h717zM518 1853l211 -280h-70l-249 280h108z" />
<glyph unicode="&#xc9;" horiz-adv-x="1148" d="M967 784v-67h-717v-649h776v-68h-852v1475h852v-68h-776v-623h717zM471 1573l211 280h109l-250 -280h-70z" />
<glyph unicode="&#xca;" horiz-adv-x="1148" d="M967 784v-67h-717v-649h776v-68h-852v1475h852v-68h-776v-623h717zM651 1853l211 -280h-69l-187 231l-184 -231h-72l213 280h88z" />
<glyph unicode="&#xcb;" horiz-adv-x="1148" d="M967 784v-67h-717v-649h776v-68h-852v1475h852v-68h-776v-623h717zM430 1706h-94v117h94v-117zM831 1706h-94v117h94v-117z" />
<glyph unicode="&#xcc;" horiz-adv-x="423" d="M174 1475h76v-1475h-76v1475zM94 1853l211 -280h-69l-250 280h108z" />
<glyph unicode="&#xcd;" horiz-adv-x="423" d="M174 1475h76v-1475h-76v1475zM119 1573l211 280h108l-250 -280h-69z" />
<glyph unicode="&#xce;" horiz-adv-x="423" d="M174 1475h76v-1475h-76v1475zM256 1853l211 -280h-70l-186 231l-184 -231h-72l213 280h88z" />
<glyph unicode="&#xcf;" horiz-adv-x="423" d="M174 1475h76v-1475h-76v1475zM57 1706h-94v117h94v-117zM459 1706h-94v117h94v-117z" />
<glyph unicode="&#xd0;" horiz-adv-x="1380" d="M174 0v741h-123v68h123v666h389q315 0 510 -197t195 -541q0 -340 -199 -538.5t-508 -198.5h-387zM737 809v-68h-487v-673h321q272 0 445.5 177t173.5 492q0 317 -174 493.5t-449 176.5h-317v-598h487z" />
<glyph unicode="&#xd1;" horiz-adv-x="1452" d="M1208 1475h70v-1475h-80l-950 1368v-1368h-74v1475h84l950 -1358v1358zM858 1645q-57 0 -117.5 32.5t-101.5 32.5q-68 0 -150 -65v73q80 59 152 60q57 0 117.5 -33t101.5 -33q68 0 150 66v-74q-80 -59 -152 -59z" />
<glyph unicode="&#xd2;" horiz-adv-x="1523" d="M762 37q244 0 407.5 178t163.5 520q0 332 -160.5 517.5t-410.5 185.5t-411 -185.5t-161 -517.5q0 -336 165 -517t407 -181zM762 -31q-281 0 -465 205t-184 561q0 360 184 565t464.5 205t465 -204.5t184.5 -565.5q0 -362 -183 -564t-466 -202zM621 1853l210 -280h-69 l-250 280h109z" />
<glyph unicode="&#xd3;" horiz-adv-x="1523" d="M762 37q244 0 407.5 178t163.5 520q0 332 -160.5 517.5t-410.5 185.5t-411 -185.5t-161 -517.5q0 -336 165 -517t407 -181zM762 -31q-281 0 -465 205t-184 561q0 360 184 565t464.5 205t465 -204.5t184.5 -565.5q0 -362 -183 -564t-466 -202zM670 1573l211 280h108 l-250 -280h-69z" />
<glyph unicode="&#xd4;" horiz-adv-x="1523" d="M762 37q244 0 407.5 178t163.5 520q0 332 -160.5 517.5t-410.5 185.5t-411 -185.5t-161 -517.5q0 -336 165 -517t407 -181zM762 -31q-281 0 -465 205t-184 561q0 360 184 565t464.5 205t465 -204.5t184.5 -565.5q0 -362 -183 -564t-466 -202zM807 1853l211 -280h-70 l-186 231l-184 -231h-72l213 280h88z" />
<glyph unicode="&#xd5;" horiz-adv-x="1523" d="M762 37q244 0 407.5 178t163.5 520q0 332 -160.5 517.5t-410.5 185.5t-411 -185.5t-161 -517.5q0 -336 165 -517t407 -181zM762 -31q-281 0 -465 205t-184 561q0 360 184 565t464.5 205t465 -204.5t184.5 -565.5q0 -362 -183 -564t-466 -202zM870 1645q-57 0 -117.5 32.5 t-101.5 32.5q-68 0 -149 -65v73q80 59 151 60q57 0 117.5 -33t101.5 -33q68 0 150 66v-74q-80 -59 -152 -59z" />
<glyph unicode="&#xd6;" horiz-adv-x="1523" d="M762 37q244 0 407.5 178t163.5 520q0 332 -160.5 517.5t-410.5 185.5t-411 -185.5t-161 -517.5q0 -336 165 -517t407 -181zM762 -31q-281 0 -465 205t-184 561q0 360 184 565t464.5 205t465 -204.5t184.5 -565.5q0 -362 -183 -564t-466 -202zM606 1706h-94v117h94v-117z M1008 1706h-95v117h95v-117z" />
<glyph unicode="&#xd7;" d="M301 924l49 49l264 -264l265 264l49 -49l-264 -265l264 -264l-49 -49l-265 264l-264 -264l-49 49l264 264z" />
<glyph unicode="&#xd8;" horiz-adv-x="1523" d="M762 -31q-117 0 -230 39l-86 -233h-71l96 262q-166 86 -262 265t-96 433q0 360 184 565t465 205q125 0 235 -43l80 217h72l-90 -245q162 -88 257 -267.5t95 -431.5q0 -362 -183 -564t-466 -202zM190 735q0 -236 82 -395.5t224 -237.5l477 1295q-100 41 -211 41 q-250 0 -411 -185.5t-161 -517.5zM762 37q244 0 407.5 178t163.5 520q0 229 -79.5 391t-219.5 242l-477 -1294q99 -37 205 -37z" />
<glyph unicode="&#xd9;" horiz-adv-x="1433" d="M717 -31q-256 0 -404.5 148.5t-148.5 363.5v994h74v-996q0 -195 136 -318.5t343 -123.5q205 0 342 125t137 317v996h74v-994q0 -215 -150.5 -363.5t-402.5 -148.5zM610 1853l211 -280h-69l-250 280h108z" />
<glyph unicode="&#xda;" horiz-adv-x="1433" d="M717 -31q-256 0 -404.5 148.5t-148.5 363.5v994h74v-996q0 -195 136 -318.5t343 -123.5q205 0 342 125t137 317v996h74v-994q0 -215 -150.5 -363.5t-402.5 -148.5zM604 1573l211 280h109l-250 -280h-70z" />
<glyph unicode="&#xdb;" horiz-adv-x="1433" d="M717 -31q-256 0 -404.5 148.5t-148.5 363.5v994h74v-996q0 -195 136 -318.5t343 -123.5q205 0 342 125t137 317v996h74v-994q0 -215 -150.5 -363.5t-402.5 -148.5zM760 1853l211 -280h-70l-186 231l-185 -231h-71l213 280h88z" />
<glyph unicode="&#xdc;" horiz-adv-x="1433" d="M717 -31q-256 0 -404.5 148.5t-148.5 363.5v994h74v-996q0 -195 136 -318.5t343 -123.5q205 0 342 125t137 317v996h74v-994q0 -215 -150.5 -363.5t-402.5 -148.5zM563 1706h-94v117h94v-117zM965 1706h-95v117h95v-117z" />
<glyph unicode="&#xdd;" horiz-adv-x="1269" d="M20 1475h82l531 -826l538 826h78l-577 -900v-575h-76v580zM522 1573l211 280h109l-250 -280h-70z" />
<glyph unicode="&#xde;" horiz-adv-x="1277" d="M174 1475h76v-273h426q238 0 369 -120.5t131 -333.5q0 -199 -141.5 -319t-362.5 -120h-422v-309h-76v1475zM682 1135h-432v-756h422q195 0 309.5 98t114.5 271q0 182 -109.5 284.5t-304.5 102.5z" />
<glyph unicode="&#xdf;" horiz-adv-x="1116" d="M381 178h78q16 -70 84.5 -108.5t167.5 -38.5q111 0 188.5 71.5t77.5 184.5q0 92 -49 155.5t-172 130.5q-115 63 -156 117.5t-41 134.5q0 53 35 101.5t76 81t75.5 86t34.5 114.5q0 113 -73.5 174.5t-192.5 61.5q-123 0 -199.5 -74t-76.5 -242v-1128h-74v1124 q0 180 89 280.5t261 100.5q147 0 242.5 -74.5t95.5 -218.5q0 -66 -35 -126t-78 -96t-77.5 -80t-34.5 -83q0 -57 37.5 -103t130.5 -95q260 -137 260 -334q0 -137 -98.5 -231.5t-251.5 -94.5q-131 0 -217.5 58.5t-106.5 150.5z" />
<glyph unicode="&#xe0;" horiz-adv-x="1064" d="M211 799h-74q12 133 121 215t274 82q170 0 274.5 -92.5t104.5 -249.5v-754h-59l-12 190q-121 -221 -385 -221q-154 0 -253.5 79t-99.5 220q0 137 95.5 219t316.5 119l324 53v109q0 123 -83 194.5t-227 71.5q-133 0 -220 -65.5t-97 -169.5zM838 375v223l-295 -49 q-205 -35 -285 -100.5t-80 -176.5q0 -117 81 -178t216 -61q141 0 252 97.5t111 244.5zM391 1505l211 -280h-70l-249 280h108z" />
<glyph unicode="&#xe1;" horiz-adv-x="1064" d="M211 799h-74q12 133 121 215t274 82q170 0 274.5 -92.5t104.5 -249.5v-754h-59l-12 190q-121 -221 -385 -221q-154 0 -253.5 79t-99.5 220q0 137 95.5 219t316.5 119l324 53v109q0 123 -83 194.5t-227 71.5q-133 0 -220 -65.5t-97 -169.5zM838 375v223l-295 -49 q-205 -35 -285 -100.5t-80 -176.5q0 -117 81 -178t216 -61q141 0 252 97.5t111 244.5zM463 1225l211 280h108l-250 -280h-69z" />
<glyph unicode="&#xe2;" horiz-adv-x="1064" d="M211 799h-74q12 133 121 215t274 82q170 0 274.5 -92.5t104.5 -249.5v-754h-59l-12 190q-121 -221 -385 -221q-154 0 -253.5 79t-99.5 220q0 137 95.5 219t316.5 119l324 53v109q0 123 -83 194.5t-227 71.5q-133 0 -220 -65.5t-97 -169.5zM838 375v223l-295 -49 q-205 -35 -285 -100.5t-80 -176.5q0 -117 81 -178t216 -61q141 0 252 97.5t111 244.5zM584 1505l211 -280h-70l-186 231l-185 -231h-71l213 280h88z" />
<glyph unicode="&#xe3;" horiz-adv-x="1064" d="M211 799h-74q12 133 121 215t274 82q170 0 274.5 -92.5t104.5 -249.5v-754h-59l-12 190q-121 -221 -385 -221q-154 0 -253.5 79t-99.5 220q0 137 95.5 219t316.5 119l324 53v109q0 123 -83 194.5t-227 71.5q-133 0 -220 -65.5t-97 -169.5zM838 375v223l-295 -49 q-205 -35 -285 -100.5t-80 -176.5q0 -117 81 -178t216 -61q141 0 252 97.5t111 244.5zM641 1296q-57 0 -117.5 33t-101.5 33q-68 0 -150 -66v74q80 59 152 60q57 0 117.5 -33t101.5 -33q68 0 150 66v-74q-80 -60 -152 -60z" />
<glyph unicode="&#xe4;" horiz-adv-x="1064" d="M211 799h-74q12 133 121 215t274 82q170 0 274.5 -92.5t104.5 -249.5v-754h-59l-12 190q-121 -221 -385 -221q-154 0 -253.5 79t-99.5 220q0 137 95.5 219t316.5 119l324 53v109q0 123 -83 194.5t-227 71.5q-133 0 -220 -65.5t-97 -169.5zM838 375v223l-295 -49 q-205 -35 -285 -100.5t-80 -176.5q0 -117 81 -178t216 -61q141 0 252 97.5t111 244.5zM379 1358h-94v117h94v-117zM780 1358h-94v117h94v-117z" />
<glyph unicode="&#xe5;" horiz-adv-x="1064" d="M211 799h-74q12 133 121 215t274 82q170 0 274.5 -92.5t104.5 -249.5v-754h-59l-12 190q-121 -221 -385 -221q-154 0 -253.5 79t-99.5 220q0 137 95.5 219t316.5 119l324 53v109q0 123 -83 194.5t-227 71.5q-133 0 -220 -65.5t-97 -169.5zM838 375v223l-295 -49 q-205 -35 -285 -100.5t-80 -176.5q0 -117 81 -178t216 -61q141 0 252 97.5t111 244.5zM356 1434q0 -86 47.5 -133.5t123 -47.5t122.5 47.5t47 133.5t-47 133t-122.5 47t-123 -47t-47.5 -133zM762 1433.5q0 -102.5 -65.5 -169t-170 -66.5t-170 66.5t-65.5 169t65.5 169 t170 66.5t170 -66.5t65.5 -169z" />
<glyph unicode="&#xe6;" horiz-adv-x="1898" d="M1683 293h78q-39 -150 -157.5 -237t-272.5 -87q-147 0 -271 79t-181 237q-33 -135 -139.5 -225.5t-284.5 -90.5q-154 0 -253.5 77t-99.5 216q0 274 418 320l318 34v152q0 123 -83 194.5t-227 71.5q-133 0 -220 -65.5t-97 -169.5h-74q12 133 121 215t274 82 q143 0 241.5 -66.5t125.5 -187.5q63 127 173 190.5t235 63.5q195 0 331 -134.5t144 -404.5h-873v-45q0 -240 124 -359.5t300 -119.5q121 0 219 66.5t131 193.5zM475 33q137 0 245.5 92t117.5 233v174v23l-289 -31q-201 -23 -286 -87t-85 -171q0 -117 81 -175t216 -58z M1307 1034q-154 0 -263.5 -111.5t-130.5 -301.5h789q-18 190 -124.5 301.5t-270.5 111.5z" />
<glyph unicode="&#xe7;" horiz-adv-x="1093" d="M809 -293q0 -82 -62.5 -138t-158.5 -56q-94 0 -156.5 44t-75.5 124h68q6 -51 52 -80t113.5 -29t110.5 38t43 95q0 137 -235 137l10 129q-186 18 -301 160.5t-115 392.5q0 274 133.5 423t331.5 149q166 0 278.5 -87t139.5 -231h-78q-20 115 -112.5 185.5t-225.5 70.5 q-172 0 -282.5 -132t-110.5 -382q0 -238 110.5 -362.5t280.5 -124.5q135 0 231.5 75.5t116.5 192.5h76q-27 -143 -138.5 -235.5t-272.5 -96.5v-75q111 -10 170 -60.5t59 -126.5z" />
<glyph unicode="&#xe8;" horiz-adv-x="1163" d="M952 283h78q-39 -145 -153.5 -229.5t-276.5 -84.5q-219 0 -358.5 149.5t-139.5 414t134.5 414t338.5 149.5q209 0 342.5 -149.5t133.5 -432.5h-873q6 -238 124 -359.5t300 -121.5q131 0 224 65.5t126 184.5zM575 1034q-164 0 -275.5 -120.5t-121.5 -335.5h795 q-10 219 -121 337.5t-277 118.5zM442 1505l211 -280h-69l-250 280h108z" />
<glyph unicode="&#xe9;" horiz-adv-x="1163" d="M952 283h78q-39 -145 -153.5 -229.5t-276.5 -84.5q-219 0 -358.5 149.5t-139.5 414t134.5 414t338.5 149.5q209 0 342.5 -149.5t133.5 -432.5h-873q6 -238 124 -359.5t300 -121.5q131 0 224 65.5t126 184.5zM575 1034q-164 0 -275.5 -120.5t-121.5 -335.5h795 q-10 219 -121 337.5t-277 118.5zM510 1225l211 280h108l-249 -280h-70z" />
<glyph unicode="&#xea;" horiz-adv-x="1163" d="M952 283h78q-39 -145 -153.5 -229.5t-276.5 -84.5q-219 0 -358.5 149.5t-139.5 414t134.5 414t338.5 149.5q209 0 342.5 -149.5t133.5 -432.5h-873q6 -238 124 -359.5t300 -121.5q131 0 224 65.5t126 184.5zM575 1034q-164 0 -275.5 -120.5t-121.5 -335.5h795 q-10 219 -121 337.5t-277 118.5zM618 1505l211 -280h-69l-187 231l-184 -231h-72l213 280h88z" />
<glyph unicode="&#xeb;" horiz-adv-x="1163" d="M952 283h78q-39 -145 -153.5 -229.5t-276.5 -84.5q-219 0 -358.5 149.5t-139.5 414t134.5 414t338.5 149.5q209 0 342.5 -149.5t133.5 -432.5h-873q6 -238 124 -359.5t300 -121.5q131 0 224 65.5t126 184.5zM575 1034q-164 0 -275.5 -120.5t-121.5 -335.5h795 q-10 219 -121 337.5t-277 118.5zM422 1358h-94v117h94v-117zM823 1358h-94v117h94v-117z" />
<glyph unicode="&#xec;" horiz-adv-x="376" d="M225 0h-73v1065h73v-1065zM76 1505l211 -280h-70l-250 280h109z" />
<glyph unicode="&#xed;" horiz-adv-x="376" d="M225 0h-73v1065h73v-1065zM90 1225l211 280h109l-250 -280h-70z" />
<glyph unicode="&#xee;" horiz-adv-x="376" d="M225 0h-73v1065h73v-1065zM233 1505l211 -280h-69l-187 231l-184 -231h-72l213 280h88z" />
<glyph unicode="&#xef;" horiz-adv-x="376" d="M225 0h-73v1065h73v-1065zM35 1358h-94v117h94v-117zM436 1358h-94v117h94v-117z" />
<glyph unicode="&#xf0;" horiz-adv-x="1097" d="M272 1425l19 60q203 -39 352 -135l119 125h88l-154 -162q299 -229 299 -672q0 -672 -463 -672q-199 0 -314.5 144.5t-115.5 371.5q0 211 111 352.5t309 141.5q160 0 261.5 -85t136.5 -208q-14 393 -267 582l-123 -129h-88l158 166q-123 77 -328 120zM535 913 q-158 0 -257.5 -107.5t-99.5 -326.5q0 -193 96.5 -317.5t257.5 -124.5q186 0 283.5 127t97.5 325q0 164 -100 294t-278 130z" />
<glyph unicode="&#xf1;" horiz-adv-x="1120" d="M238 0h-74v1065h61l11 -203q51 111 149 172.5t217 61.5q166 0 265.5 -97.5t99.5 -261.5v-737h-74v733q0 141 -81 221t-226 80q-133 0 -240.5 -104.5t-107.5 -265.5v-664zM690 1296q-57 0 -117.5 33t-101.5 33q-68 0 -149 -66v74q80 59 151 60q57 0 117.5 -33t101.5 -33 q68 0 150 66v-74q-80 -60 -152 -60z" />
<glyph unicode="&#xf2;" horiz-adv-x="1157" d="M178 532.5q0 -241.5 112.5 -371.5t289.5 -130q180 0 289.5 129t109.5 372.5t-109.5 372.5t-290 129t-291 -130t-110.5 -371.5zM102 532q0 270 132.5 417t345.5 147q215 0 345 -146.5t130 -417t-130 -417t-341 -146.5t-346.5 148.5t-135.5 414.5zM442 1505l211 -280h-69 l-250 280h108z" />
<glyph unicode="&#xf3;" horiz-adv-x="1157" d="M178 532.5q0 -241.5 112.5 -371.5t289.5 -130q180 0 289.5 129t109.5 372.5t-109.5 372.5t-290 129t-291 -130t-110.5 -371.5zM102 532q0 270 132.5 417t345.5 147q215 0 345 -146.5t130 -417t-130 -417t-341 -146.5t-346.5 148.5t-135.5 414.5zM502 1225l211 280h108 l-250 -280h-69z" />
<glyph unicode="&#xf4;" horiz-adv-x="1157" d="M178 532.5q0 -241.5 112.5 -371.5t289.5 -130q180 0 289.5 129t109.5 372.5t-109.5 372.5t-290 129t-291 -130t-110.5 -371.5zM102 532q0 270 132.5 417t345.5 147q215 0 345 -146.5t130 -417t-130 -417t-341 -146.5t-346.5 148.5t-135.5 414.5zM625 1505l211 -280h-70 l-186 231l-185 -231h-71l213 280h88z" />
<glyph unicode="&#xf5;" horiz-adv-x="1157" d="M178 532.5q0 -241.5 112.5 -371.5t289.5 -130q180 0 289.5 129t109.5 372.5t-109.5 372.5t-290 129t-291 -130t-110.5 -371.5zM102 532q0 270 132.5 417t345.5 147q215 0 345 -146.5t130 -417t-130 -417t-341 -146.5t-346.5 148.5t-135.5 414.5zM686 1296 q-57 0 -117.5 33t-101.5 33q-68 0 -150 -66v74q80 59 152 60q57 0 117.5 -33t101.5 -33q68 0 150 66v-74q-80 -60 -152 -60z" />
<glyph unicode="&#xf6;" horiz-adv-x="1157" d="M178 532.5q0 -241.5 112.5 -371.5t289.5 -130q180 0 289.5 129t109.5 372.5t-109.5 372.5t-290 129t-291 -130t-110.5 -371.5zM102 532q0 270 132.5 417t345.5 147q215 0 345 -146.5t130 -417t-130 -417t-341 -146.5t-346.5 148.5t-135.5 414.5zM426 1358h-94v117h94 v-117zM827 1358h-94v117h94v-117z" />
<glyph unicode="&#xf7;" d="M666 131h-103v131h103v-131zM666 1057h-103v131h103v-131zM1024 694v-69h-819v69h819z" />
<glyph unicode="&#xf8;" horiz-adv-x="1157" d="M102 532q0 270 132.5 417t345.5 147q111 0 196 -39l105 233h73l-118 -264q219 -143 219 -494q0 -270 -130 -416.5t-341 -146.5q-109 0 -203 41l-105 -235h-73l119 268q-220 145 -220 489zM580 31q180 0 289.5 129t109.5 372q0 305 -172 431l-399 -895q76 -37 172 -37z M178 532q0 -299 172 -428l400 893q-78 37 -170 37q-180 0 -291 -130t-111 -372z" />
<glyph unicode="&#xf9;" horiz-adv-x="1110" d="M154 1065h73v-729q0 -150 81 -227.5t222 -77.5q143 0 242.5 108.5t99.5 270.5v655h74v-1065h-61l-11 190q-53 -109 -152 -165t-208 -56q-160 0 -260 94.5t-100 268.5v733zM422 1505l211 -280h-70l-250 280h109z" />
<glyph unicode="&#xfa;" horiz-adv-x="1110" d="M154 1065h73v-729q0 -150 81 -227.5t222 -77.5q143 0 242.5 108.5t99.5 270.5v655h74v-1065h-61l-11 190q-53 -109 -152 -165t-208 -56q-160 0 -260 94.5t-100 268.5v733zM467 1225l211 280h108l-249 -280h-70z" />
<glyph unicode="&#xfb;" horiz-adv-x="1110" d="M154 1065h73v-729q0 -150 81 -227.5t222 -77.5q143 0 242.5 108.5t99.5 270.5v655h74v-1065h-61l-11 190q-53 -109 -152 -165t-208 -56q-160 0 -260 94.5t-100 268.5v733zM596 1505l211 -280h-70l-186 231l-184 -231h-72l213 280h88z" />
<glyph unicode="&#xfc;" horiz-adv-x="1110" d="M154 1065h73v-729q0 -150 81 -227.5t222 -77.5q143 0 242.5 108.5t99.5 270.5v655h74v-1065h-61l-11 190q-53 -109 -152 -165t-208 -56q-160 0 -260 94.5t-100 268.5v733zM397 1358h-94v117h94v-117zM799 1358h-94v117h94v-117z" />
<glyph unicode="&#xfd;" horiz-adv-x="1003" d="M963 1065l-381 -1071q-90 -254 -136.5 -323.5t-142.5 -69.5q-47 0 -104 20v62q57 -20 106 -21q63 0 99 63.5t106 274.5h-35l-434 1065h80l409 -1012l357 1012h76zM401 1225l211 280h109l-250 -280h-70z" />
<glyph unicode="&#xfe;" horiz-adv-x="1163" d="M238 -369h-74v1844h74v-629q51 115 150 182.5t233 67.5q201 0 320.5 -139.5t119.5 -409.5q0 -276 -125 -427t-322 -151q-131 0 -228 65.5t-148 178.5v-582zM985 549q0 242 -102.5 363.5t-274.5 121.5q-156 0 -267.5 -123t-111.5 -383q0 -244 103.5 -370.5t271.5 -126.5 t274.5 133t106.5 385z" />
<glyph unicode="&#xff;" horiz-adv-x="1003" d="M963 1065l-381 -1071q-90 -254 -136.5 -323.5t-142.5 -69.5q-47 0 -104 20v62q57 -20 106 -21q63 0 99 63.5t106 274.5h-35l-434 1065h80l409 -1012l357 1012h76zM356 1358h-94v117h94v-117zM758 1358h-94v117h94v-117z" />
<glyph unicode="&#x100;" horiz-adv-x="1314" d="M1294 0h-84l-172 436h-764l-174 -436h-80l586 1475h105zM659 1405l-360 -903h715zM893 1702h-471v65h471v-65z" />
<glyph unicode="&#x101;" horiz-adv-x="1064" d="M211 799h-74q12 133 121 215t274 82q170 0 274.5 -92.5t104.5 -249.5v-754h-59l-12 190q-121 -221 -385 -221q-154 0 -253.5 79t-99.5 220q0 137 95.5 219t316.5 119l324 53v109q0 123 -83 194.5t-227 71.5q-133 0 -220 -65.5t-97 -169.5zM838 375v223l-295 -49 q-205 -35 -285 -100.5t-80 -176.5q0 -117 81 -178t216 -61q141 0 252 97.5t111 244.5zM762 1354h-471v65h471v-65z" />
<glyph unicode="&#x102;" horiz-adv-x="1314" d="M1294 0h-84l-172 436h-764l-174 -436h-80l586 1475h105zM659 1405l-360 -903h715zM657 1552q-119 2 -186.5 74t-75.5 197h68q4 -92 52 -151.5t142.5 -59.5t142.5 59.5t52 151.5h68q-8 -125 -76 -197t-187 -74z" />
<glyph unicode="&#x103;" horiz-adv-x="1064" d="M211 799h-74q12 133 121 215t274 82q170 0 274.5 -92.5t104.5 -249.5v-754h-59l-12 190q-121 -221 -385 -221q-154 0 -253.5 79t-99.5 220q0 137 95.5 219t316.5 119l324 53v109q0 123 -83 194.5t-227 71.5q-133 0 -220 -65.5t-97 -169.5zM838 375v223l-295 -49 q-205 -35 -285 -100.5t-80 -176.5q0 -117 81 -178t216 -61q141 0 252 97.5t111 244.5zM520 1204q-119 2 -186.5 74t-75.5 197h68q4 -92 52 -151.5t142 -59.5t142.5 59t52.5 152h67q-8 -125 -75.5 -197t-186.5 -74z" />
<glyph unicode="&#x104;" horiz-adv-x="1314" d="M1294 0q-242 -119 -241 -262q0 -66 45 -107t129 -41q113 0 153 93h74q-57 -160 -233 -160q-106 0 -174 61.5t-68 155.5q0 162 229 264l-170 432h-764l-174 -436h-80l586 1475h105zM659 1405l-360 -903h715z" />
<glyph unicode="&#x105;" horiz-adv-x="1064" d="M211 799h-74q12 133 121 215t274 82q170 0 274.5 -92.5t104.5 -249.5v-754q-242 -119 -241 -262q0 -66 45 -107t129 -41q113 0 153 93h74q-57 -160 -233 -160q-106 0 -174 61.5t-68 155.5q0 86 69.5 157.5t184.5 118.5l-10 174q-121 -221 -385 -221q-154 0 -253.5 79 t-99.5 220q0 137 95.5 219t316.5 119l324 53v109q0 123 -83 194.5t-227 71.5q-133 0 -220 -65.5t-97 -169.5zM475 33q135 0 249 96t114 229v240l-295 -49q-205 -35 -285 -100.5t-80 -176.5q0 -117 81 -178t216 -61z" />
<glyph unicode="&#x106;" horiz-adv-x="1464" d="M774 -31q-295 0 -478 207t-183 545q0 369 184 576.5t469 207.5q236 0 397.5 -119.5t198.5 -343.5h-74q-41 195 -178 295.5t-344 100.5q-252 0 -414 -191.5t-162 -525.5q0 -311 165 -497.5t419 -186.5q209 0 345 115.5t165 324.5h76q-29 -223 -186.5 -365.5t-399.5 -142.5 zM678 1573l211 280h108l-249 -280h-70z" />
<glyph unicode="&#x107;" horiz-adv-x="1093" d="M915 301h76q-27 -147 -143.5 -239.5t-284.5 -92.5q-203 0 -332 145.5t-129 409.5q0 274 133.5 423t331.5 149q166 0 278.5 -87t139.5 -231h-78q-20 115 -112.5 185.5t-225.5 70.5q-172 0 -282.5 -132t-110.5 -382q0 -238 110.5 -362.5t280.5 -124.5q135 0 231.5 75.5 t116.5 192.5zM514 1225l211 280h109l-250 -280h-70z" />
<glyph unicode="&#x108;" horiz-adv-x="1464" d="M774 -31q-295 0 -478 207t-183 545q0 369 184 576.5t469 207.5q236 0 397.5 -119.5t198.5 -343.5h-74q-41 195 -178 295.5t-344 100.5q-252 0 -414 -191.5t-162 -525.5q0 -311 165 -497.5t419 -186.5q209 0 345 115.5t165 324.5h76q-29 -223 -186.5 -365.5t-399.5 -142.5 zM782 1853l211 -280h-69l-187 231l-184 -231h-72l213 280h88z" />
<glyph unicode="&#x109;" horiz-adv-x="1093" d="M915 301h76q-27 -147 -143.5 -239.5t-284.5 -92.5q-203 0 -332 145.5t-129 409.5q0 274 133.5 423t331.5 149q166 0 278.5 -87t139.5 -231h-78q-20 115 -112.5 185.5t-225.5 70.5q-172 0 -282.5 -132t-110.5 -382q0 -238 110.5 -362.5t280.5 -124.5q135 0 231.5 75.5 t116.5 192.5zM592 1505l211 -280h-70l-186 231l-185 -231h-71l213 280h88z" />
<glyph unicode="&#x10a;" horiz-adv-x="1464" d="M774 -31q-295 0 -478 207t-183 545q0 369 184 576.5t469 207.5q236 0 397.5 -119.5t198.5 -343.5h-74q-41 195 -178 295.5t-344 100.5q-252 0 -414 -191.5t-162 -525.5q0 -311 165 -497.5t419 -186.5q209 0 345 115.5t165 324.5h76q-29 -223 -186.5 -365.5t-399.5 -142.5 zM813 1706h-94v117h94v-117z" />
<glyph unicode="&#x10b;" horiz-adv-x="1093" d="M915 301h76q-27 -147 -143.5 -239.5t-284.5 -92.5q-203 0 -332 145.5t-129 409.5q0 274 133.5 423t331.5 149q166 0 278.5 -87t139.5 -231h-78q-20 115 -112.5 185.5t-225.5 70.5q-172 0 -282.5 -132t-110.5 -382q0 -238 110.5 -362.5t280.5 -124.5q135 0 231.5 75.5 t116.5 192.5zM608 1358h-94v117h94v-117z" />
<glyph unicode="&#x10c;" horiz-adv-x="1464" d="M774 -31q-295 0 -478 207t-183 545q0 369 184 576.5t469 207.5q236 0 397.5 -119.5t198.5 -343.5h-74q-41 195 -178 295.5t-344 100.5q-252 0 -414 -191.5t-162 -525.5q0 -311 165 -497.5t419 -186.5q209 0 345 115.5t165 324.5h76q-29 -223 -186.5 -365.5t-399.5 -142.5 zM688 1573l-211 280h70l186 -231l185 231h71l-213 -280h-88z" />
<glyph unicode="&#x10d;" horiz-adv-x="1093" d="M915 301h76q-27 -147 -143.5 -239.5t-284.5 -92.5q-203 0 -332 145.5t-129 409.5q0 274 133.5 423t331.5 149q166 0 278.5 -87t139.5 -231h-78q-20 115 -112.5 185.5t-225.5 70.5q-172 0 -282.5 -132t-110.5 -382q0 -238 110.5 -362.5t280.5 -124.5q135 0 231.5 75.5 t116.5 192.5zM516 1225l-211 280h70l186 -231l184 231h72l-213 -280h-88z" />
<glyph unicode="&#x10e;" horiz-adv-x="1380" d="M174 1475h389q315 0 510 -197t195 -541q0 -340 -199 -538.5t-508 -198.5h-387v1475zM567 1407h-317v-1339h321q272 0 445.5 177t173.5 492q0 317 -174.5 493.5t-448.5 176.5zM555 1573l-211 280h70l186 -231l184 231h72l-213 -280h-88z" />
<glyph unicode="&#x10f;" horiz-adv-x="1251" d="M999 0h-59l-12 225q-51 -117 -150.5 -186.5t-232.5 -69.5q-190 0 -316.5 142.5t-126.5 408.5q0 276 127 426t320 150q129 0 227 -65.5t150 -176.5v621h73v-1475zM178 522q0 -242 106.5 -366.5t272.5 -124.5q154 0 265.5 122.5t111.5 383.5q0 242 -104.5 369.5 t-270.5 127.5q-164 0 -272.5 -132t-108.5 -380zM1231 1475v-125q0 -92 -37 -144.5t-119 -81.5v50q49 23 67.5 61.5t18.5 107.5h-33v132h103z" />
<glyph unicode="&#x110;" horiz-adv-x="1380" d="M174 0v741h-123v68h123v666h389q315 0 510 -197t195 -541q0 -340 -199 -538.5t-508 -198.5h-387zM737 809v-68h-487v-673h321q272 0 445.5 177t173.5 492q0 317 -174 493.5t-449 176.5h-317v-598h487z" />
<glyph unicode="&#x111;" horiz-adv-x="1163" d="M999 0h-59l-12 225q-51 -117 -150.5 -186.5t-232.5 -69.5q-190 0 -316.5 142.5t-126.5 408.5q0 276 127 426t320 150q129 0 227 -65.5t150 -176.5v416h-379v63h379v142h73v-142h103v-63h-103v-1270zM178 522q0 -242 106.5 -366.5t272.5 -124.5q154 0 265.5 122.5 t111.5 383.5q0 242 -104.5 369.5t-270.5 127.5q-164 0 -272.5 -132t-108.5 -380z" />
<glyph unicode="&#x112;" horiz-adv-x="1148" d="M967 784v-67h-717v-649h776v-68h-852v1475h852v-68h-776v-623h717zM827 1702h-471v65h471v-65z" />
<glyph unicode="&#x113;" horiz-adv-x="1163" d="M952 283h78q-39 -145 -153.5 -229.5t-276.5 -84.5q-219 0 -358.5 149.5t-139.5 414t134.5 414t338.5 149.5q209 0 342.5 -149.5t133.5 -432.5h-873q6 -238 124 -359.5t300 -121.5q131 0 224 65.5t126 184.5zM575 1034q-164 0 -275.5 -120.5t-121.5 -335.5h795 q-10 219 -121 337.5t-277 118.5zM809 1354h-471v65h471v-65z" />
<glyph unicode="&#x114;" horiz-adv-x="1148" d="M600 1628q-119 2 -186.5 74t-76.5 197h68q4 -92 52 -151.5t142.5 -59.5t142.5 59t52 152h68q-8 -125 -75.5 -197t-186.5 -74zM967 784v-67h-717v-649h776v-68h-852v1475h852v-68h-776v-623h717z" />
<glyph unicode="&#x115;" horiz-adv-x="1163" d="M576 1218q-119 2 -186.5 74t-76.5 197h68q4 -92 52 -151.5t142.5 -59.5t142.5 59t52 152h68q-8 -125 -75.5 -197t-186.5 -74zM952 283h78q-39 -145 -153.5 -229.5t-276.5 -84.5q-219 0 -358.5 149.5t-139.5 414t134.5 414t338.5 149.5q209 0 342.5 -149.5t133.5 -432.5 h-873q6 -238 124 -359.5t300 -121.5q131 0 224 65.5t126 184.5zM575 1034q-164 0 -275.5 -120.5t-121.5 -335.5h795q-10 219 -121 337.5t-277 118.5z" />
<glyph unicode="&#x116;" horiz-adv-x="1148" d="M967 784v-67h-717v-649h776v-68h-852v1475h852v-68h-776v-623h717zM637 1706h-94v117h94v-117z" />
<glyph unicode="&#x117;" horiz-adv-x="1163" d="M952 283h78q-39 -145 -153.5 -229.5t-276.5 -84.5q-219 0 -358.5 149.5t-139.5 414t134.5 414t338.5 149.5q209 0 342.5 -149.5t133.5 -432.5h-873q6 -238 124 -359.5t300 -121.5q131 0 224 65.5t126 184.5zM575 1034q-164 0 -275.5 -120.5t-121.5 -335.5h795 q-10 219 -121 337.5t-277 118.5zM618 1358h-94v117h94v-117z" />
<glyph unicode="&#x118;" horiz-adv-x="1148" d="M967 784v-67h-717v-649h776v-68h-233q-248 -123 -248 -270q0 -72 42 -111t115 -39q127 0 168 115h72q-25 -82 -92.5 -129t-151.5 -47q-100 0 -160.5 55t-60.5 150q0 162 228 276h-531v1475h852v-68h-776v-623h717z" />
<glyph unicode="&#x119;" horiz-adv-x="1163" d="M848 -305h72q-25 -82 -92.5 -129t-151.5 -47q-100 0 -160.5 55t-60.5 150q0 139 174 247q-10 -2 -29 -2q-219 0 -358.5 149.5t-139.5 414t134.5 414t338.5 149.5q209 0 342.5 -149.5t133.5 -432.5h-873q6 -238 124 -359.5t300 -121.5q131 0 224.5 65.5t125.5 184.5h78 q-43 -166 -176 -246q-47 -29 -100 -43q-231 -119 -232 -264q0 -72 42 -111t116 -39q127 0 168 115zM575 1034q-164 0 -275.5 -120.5t-121.5 -335.5h795q-10 219 -121 337.5t-277 118.5z" />
<glyph unicode="&#x11a;" horiz-adv-x="1148" d="M967 784v-67h-717v-649h776v-68h-852v1475h852v-68h-776v-623h717zM555 1573l-211 280h70l186 -231l184 231h72l-213 -280h-88z" />
<glyph unicode="&#x11b;" horiz-adv-x="1163" d="M952 283h78q-39 -145 -153.5 -229.5t-276.5 -84.5q-219 0 -358.5 149.5t-139.5 414t134.5 414t338.5 149.5q209 0 342.5 -149.5t133.5 -432.5h-873q6 -238 124 -359.5t300 -121.5q131 0 224 65.5t126 184.5zM575 1034q-164 0 -275.5 -120.5t-121.5 -335.5h795 q-10 219 -121 337.5t-277 118.5zM539 1225l-211 280h69l187 -231l184 231h72l-213 -280h-88z" />
<glyph unicode="&#x11c;" horiz-adv-x="1490" d="M1333 766v-766h-55l-10 270q-66 -141 -196 -221t-298 -80q-285 0 -473 202t-188 564q0 365 183 567.5t468 202.5q227 0 377.5 -108.5t197.5 -311.5h-77q-47 174 -175.5 263.5t-322.5 89.5q-240 0 -407 -182.5t-167 -520.5q0 -330 169 -514t415 -184q205 0 349.5 128 t144.5 316v217h-498v68h563zM788 1853l211 -280h-69l-187 231l-184 -231h-72l213 280h88z" />
<glyph unicode="&#x11d;" horiz-adv-x="1163" d="M147 -111h78q23 -115 116 -171t228 -56q164 0 260.5 92t96.5 246v272q-51 -106 -149.5 -168.5t-229.5 -62.5q-186 0 -315.5 138t-129.5 380q0 252 128 394.5t319 142.5q129 0 229.5 -63.5t149.5 -172.5l12 205h59v-1065q0 -174 -115.5 -286.5t-312.5 -112.5 q-172 0 -283.5 74.5t-140.5 213.5zM178 561q0 -217 107.5 -338t273.5 -121q158 0 266.5 110t108.5 355q0 231 -104.5 349t-272.5 118q-164 0 -271.5 -121t-107.5 -352zM612 1505l211 -280h-69l-187 231l-184 -231h-72l213 280h88z" />
<glyph unicode="&#x11e;" horiz-adv-x="1490" d="M1333 766v-766h-55l-10 270q-66 -141 -196 -221t-298 -80q-285 0 -473 202t-188 564q0 365 183 567.5t468 202.5q227 0 377.5 -108.5t197.5 -311.5h-77q-47 174 -175.5 263.5t-322.5 89.5q-240 0 -407 -182.5t-167 -520.5q0 -330 169 -514t415 -184q205 0 349.5 128 t144.5 316v217h-498v68h563zM748 1552q-119 2 -186.5 74t-76.5 197h68q4 -92 52 -151.5t142.5 -59.5t142.5 59.5t52 151.5h68q-8 -125 -75.5 -197t-186.5 -74z" />
<glyph unicode="&#x11f;" horiz-adv-x="1163" d="M147 -111h78q23 -115 116 -171t228 -56q164 0 260.5 92t96.5 246v272q-51 -106 -149.5 -168.5t-229.5 -62.5q-186 0 -315.5 138t-129.5 380q0 252 128 394.5t319 142.5q129 0 229.5 -63.5t149.5 -172.5l12 205h59v-1065q0 -174 -115.5 -286.5t-312.5 -112.5 q-172 0 -283.5 74.5t-140.5 213.5zM178 561q0 -217 107.5 -338t273.5 -121q158 0 266.5 110t108.5 355q0 231 -104.5 349t-272.5 118q-164 0 -271.5 -121t-107.5 -352zM561 1204q-119 2 -186.5 74t-75.5 197h68q4 -92 52 -151.5t142 -59.5t142.5 59t52.5 152h67 q-8 -125 -75.5 -197t-186.5 -74z" />
<glyph unicode="&#x120;" horiz-adv-x="1490" d="M1333 766v-766h-55l-10 270q-66 -141 -196 -221t-298 -80q-285 0 -473 202t-188 564q0 365 183 567.5t468 202.5q227 0 377.5 -108.5t197.5 -311.5h-77q-47 174 -175.5 263.5t-322.5 89.5q-240 0 -407 -182.5t-167 -520.5q0 -330 169 -514t415 -184q205 0 349.5 128 t144.5 316v217h-498v68h563zM791 1706h-95v117h95v-117z" />
<glyph unicode="&#x121;" horiz-adv-x="1163" d="M147 -111h78q23 -115 116 -171t228 -56q164 0 260.5 92t96.5 246v272q-51 -106 -149.5 -168.5t-229.5 -62.5q-186 0 -315.5 138t-129.5 380q0 252 128 394.5t319 142.5q129 0 229.5 -63.5t149.5 -172.5l12 205h59v-1065q0 -174 -115.5 -286.5t-312.5 -112.5 q-172 0 -283.5 74.5t-140.5 213.5zM178 561q0 -217 107.5 -338t273.5 -121q158 0 266.5 110t108.5 355q0 231 -104.5 349t-272.5 118q-164 0 -271.5 -121t-107.5 -352zM600 1358h-94v117h94v-117z" />
<glyph unicode="&#x122;" horiz-adv-x="1490" d="M1333 766v-766h-55l-10 270q-66 -141 -196 -221t-298 -80q-285 0 -473 202t-188 564q0 365 183 567.5t468 202.5q227 0 377.5 -108.5t197.5 -311.5h-77q-47 174 -175.5 263.5t-322.5 89.5q-240 0 -407 -182.5t-167 -520.5q0 -330 169 -514t415 -184q205 0 349.5 128 t144.5 316v217h-498v68h563zM807 -184v-125q0 -186 -156 -240v47q90 43 90 187h-28v131h94z" />
<glyph unicode="&#x123;" horiz-adv-x="1163" d="M147 -111h78q23 -115 116 -171t228 -56q164 0 260.5 92t96.5 246v272q-51 -106 -149.5 -168.5t-229.5 -62.5q-186 0 -315.5 138t-129.5 380q0 252 128 394.5t319 142.5q129 0 229.5 -63.5t149.5 -172.5l12 205h59v-1065q0 -174 -115.5 -286.5t-312.5 -112.5 q-172 0 -283.5 74.5t-140.5 213.5zM178 561q0 -217 107.5 -338t273.5 -121q158 0 266.5 110t108.5 355q0 231 -104.5 349t-272.5 118q-164 0 -271.5 -121t-107.5 -352zM483 1249v125q0 193 156 246v-49q-86 -41 -86 -191h33v-131h-103z" />
<glyph unicode="&#x124;" horiz-adv-x="1384" d="M1135 1475h75v-1475h-75v719h-885v-719h-76v1475h76v-687h885v687zM737 1853l211 -280h-69l-187 231l-184 -231h-72l213 280h88z" />
<glyph unicode="&#x125;" horiz-adv-x="1120" d="M238 0h-74v1475h74v-611q49 111 147 171.5t217 60.5q166 0 265.5 -97.5t99.5 -261.5v-737h-74v733q0 141 -81 221t-226 80q-133 0 -240.5 -105.5t-107.5 -266.5v-662zM492 1853l210 -280h-69l-187 231l-184 -231h-72l213 280h89z" />
<glyph unicode="&#x126;" horiz-adv-x="1384" d="M174 1475h76v-236h885v236h75v-236h123v-63h-123v-1176h-75v719h-885v-719h-76v1176h-123v63h123v236zM250 788h885v388h-885v-388z" />
<glyph unicode="&#x127;" horiz-adv-x="1120" d="M238 0h-74v1270h-111v63h111v142h74v-142h370v-63h-370v-406q49 111 147 171.5t217 60.5q166 0 265.5 -97.5t99.5 -261.5v-737h-74v733q0 141 -81 221t-226 80q-133 0 -240.5 -104.5t-107.5 -265.5v-664z" />
<glyph unicode="&#x128;" horiz-adv-x="423" d="M174 1475h76v-1475h-76v1475zM319 1645q-57 0 -117.5 32.5t-101.5 32.5q-68 0 -149 -65v73q80 59 151 60q57 0 118 -33t102 -33q68 0 149 66v-74q-80 -59 -152 -59z" />
<glyph unicode="&#x129;" horiz-adv-x="376" d="M225 0h-73v1065h73v-1065zM297 1296q-57 0 -117.5 33t-101.5 33q-68 0 -150 -66v74q80 59 152 60q57 0 117.5 -33t101.5 -33q68 0 150 66v-74q-80 -60 -152 -60z" />
<glyph unicode="&#x12a;" horiz-adv-x="423" d="M174 1475h76v-1475h-76v1475zM446 1702h-471v65h471v-65z" />
<glyph unicode="&#x12b;" horiz-adv-x="376" d="M225 0h-73v1065h73v-1065zM424 1354h-471v65h471v-65z" />
<glyph unicode="&#x12c;" horiz-adv-x="423" d="M213 1628q-119 2 -186.5 74t-76.5 197h68q4 -92 52 -151.5t142.5 -59.5t142.5 59t52 152h68q-8 -125 -75.5 -197t-186.5 -74zM174 1475h76v-1475h-76v1475z" />
<glyph unicode="&#x12d;" horiz-adv-x="376" d="M189 1218q-119 2 -186.5 74t-76.5 197h68q4 -92 52 -151.5t142.5 -59.5t142.5 59t52 152h68q-8 -125 -75.5 -197t-186.5 -74zM225 0h-73v1065h73v-1065z" />
<glyph unicode="&#x12e;" horiz-adv-x="423" d="M326 -305h71q-25 -82 -92 -129t-151 -47q-100 0 -161 55t-61 150q0 84 67 158.5t175 123.5v1469h76v-1475q-250 -125 -250 -270q0 -72 42 -111t116 -39q127 0 168 115z" />
<glyph unicode="&#x12f;" horiz-adv-x="376" d="M299 -305h72q-25 -82 -92.5 -129t-151.5 -47q-100 0 -160.5 55t-60.5 150q0 84 68.5 159.5t177.5 124.5v1057h73v-1065q-121 -59 -186.5 -123.5t-65.5 -146.5q0 -72 42 -111t116 -39q127 0 168 115zM236 1358h-95v117h95v-117z" />
<glyph unicode="&#x130;" horiz-adv-x="423" d="M174 1475h76v-1475h-76v1475zM258 1706h-94v117h94v-117z" />
<glyph unicode="&#x131;" horiz-adv-x="376" d="M225 0h-73v1065h73v-1065z" />
<glyph unicode="&#x132;" horiz-adv-x="1482" d="M496 381h73q8 -164 100.5 -254t241.5 -90q156 0 244 94t88 270v1074h76v-1072q0 -195 -110.5 -314.5t-297.5 -119.5q-188 0 -297.5 112t-117.5 300zM174 1475h76v-1475h-76v1475z" />
<glyph unicode="&#x133;" horiz-adv-x="753" d="M256 -377v66q68 -23 133 -23q139 0 140 180v1219h73v-1223q0 -119 -52 -180t-150 -61q-74 -1 -144 22zM613 1358h-95v117h95v-117zM225 0h-73v1065h73v-1065zM236 1358h-95v117h95v-117z" />
<glyph unicode="&#x134;" horiz-adv-x="1058" d="M72 381h73q8 -164 100.5 -254t241.5 -90q156 0 244 94t88 270v1074h76v-1072q0 -195 -110.5 -314.5t-297.5 -119.5q-188 0 -297.5 112t-117.5 300zM891 1853l211 -280h-70l-186 231l-184 -231h-72l213 280h88z" />
<glyph unicode="&#x135;" horiz-adv-x="376" d="M-121 -377v66q68 -23 133 -23q139 0 140 180v1219h73v-1223q0 -119 -52 -180t-150 -61q-74 -1 -144 22zM231 1505l211 -280h-69l-187 231l-184 -231h-72l213 280h88z" />
<glyph unicode="&#x136;" horiz-adv-x="1187" d="M1157 0h-102l-805 737v-737h-76v1475h76v-699l756 699h92l-764 -713zM647 -184v-125q0 -186 -155 -240v47q90 43 90 187h-29v131h94z" />
<glyph unicode="&#x137;" horiz-adv-x="970" d="M238 0h-74v1475h74v-852l548 442h103l-576 -465l648 -600h-101l-622 573v-573zM559 -184v-125q0 -186 -156 -240v47q90 43 91 187h-29v131h94z" />
<glyph unicode="&#x138;" horiz-adv-x="970" d="M238 0h-74v1065h74v-490l559 490h92l-576 -506l648 -559h-99l-624 537v-537z" />
<glyph unicode="&#x139;" horiz-adv-x="1118" d="M174 1475h76v-1407h776v-68h-852v1475zM121 1573l211 280h108l-250 -280h-69z" />
<glyph unicode="&#x13a;" horiz-adv-x="401" d="M238 1475v-1475h-74v1475h74zM102 1573l211 280h109l-250 -280h-70z" />
<glyph unicode="&#x13b;" horiz-adv-x="1118" d="M174 1475h76v-1407h776v-68h-852v1475zM629 -184v-125q0 -186 -156 -240v47q90 43 90 187h-28v131h94z" />
<glyph unicode="&#x13c;" horiz-adv-x="401" d="M238 1475v-1475h-74v1475h74zM252 -184v-125q0 -186 -156 -240v47q90 43 90 187h-28v131h94z" />
<glyph unicode="&#x13d;" horiz-adv-x="1118" d="M174 1475h76v-1407h776v-68h-852v1475zM582 1475v-125q0 -92 -37 -144.5t-119 -81.5v50q49 23 67.5 61.5t18.5 107.5h-33v132h103z" />
<glyph unicode="&#x13e;" horiz-adv-x="401" d="M238 1475v-1475h-74v1475h74zM475 1475v-125q0 -92 -37 -144.5t-119 -81.5v50q49 23 68 61.5t19 107.5h-33v132h102z" />
<glyph unicode="&#x13f;" horiz-adv-x="1118" d="M655 686h-111v131h111v-131zM174 1475h76v-1407h776v-68h-852v1475z" />
<glyph unicode="&#x140;" horiz-adv-x="970" d="M741 592h-111v131h111v-131zM238 1475v-1475h-74v1475h74z" />
<glyph unicode="&#x141;" horiz-adv-x="1118" d="M174 1475h76v-674l319 194v-84l-319 -194v-645h776v-72h-852v672l-125 -76v84l125 76v719z" />
<glyph unicode="&#x142;" horiz-adv-x="401" d="M238 1475v-629l157 100v-82l-157 -100v-764h-74v717l-158 -101v82l158 101v676h74z" />
<glyph unicode="&#x143;" horiz-adv-x="1452" d="M1208 1475h70v-1475h-80l-950 1368v-1368h-74v1475h84l950 -1358v1358zM631 1573l211 280h108l-250 -280h-69z" />
<glyph unicode="&#x144;" horiz-adv-x="1120" d="M238 0h-74v1065h61l11 -203q51 111 149 172.5t217 61.5q166 0 265.5 -97.5t99.5 -261.5v-737h-74v733q0 141 -81 221t-226 80q-133 0 -240.5 -104.5t-107.5 -265.5v-664zM483 1225l211 280h109l-250 -280h-70z" />
<glyph unicode="&#x145;" horiz-adv-x="1452" d="M1208 1475h70v-1475h-80l-950 1368v-1368h-74v1475h84l950 -1358v1358zM786 -184v-125q0 -186 -155 -240v47q90 43 90 187h-29v131h94z" />
<glyph unicode="&#x146;" horiz-adv-x="1120" d="M238 0h-74v1065h61l11 -203q51 111 149 172.5t217 61.5q166 0 265.5 -97.5t99.5 -261.5v-737h-74v733q0 141 -81 221t-226 80q-133 0 -240.5 -104.5t-107.5 -265.5v-664zM633 -184v-125q0 -186 -156 -240v47q90 43 90 187h-28v131h94z" />
<glyph unicode="&#x147;" horiz-adv-x="1452" d="M1208 1475h70v-1475h-80l-950 1368v-1368h-74v1475h84l950 -1358v1358zM707 1573l-211 280h69l187 -231l184 231h72l-213 -280h-88z" />
<glyph unicode="&#x148;" horiz-adv-x="1120" d="M238 0h-74v1065h61l11 -203q51 111 149 172.5t217 61.5q166 0 265.5 -97.5t99.5 -261.5v-737h-74v733q0 141 -81 221t-226 80q-133 0 -240.5 -104.5t-107.5 -265.5v-664zM532 1225l-210 280h69l187 -231l184 231h72l-213 -280h-89z" />
<glyph unicode="&#x14a;" horiz-adv-x="1452" d="M934 -377v66q68 -23 133 -23q141 0 141 180v148l-960 1374v-1368h-74v1475h84l950 -1352v1352h70v-1633q0 -242 -201 -241q-73 -1 -143 22z" />
<glyph unicode="&#x14b;" horiz-adv-x="1120" d="M238 0h-74v1065h61l11 -203q51 111 149 172.5t217 61.5q166 0 265.5 -97.5t99.5 -261.5v-895q0 -119 -52.5 -180t-150.5 -61q-74 0 -143 22v66q68 -23 133 -23q139 0 139 180v887q0 141 -81 221t-226 80q-133 0 -240.5 -103.5t-107.5 -264.5v-666z" />
<glyph unicode="&#x14c;" horiz-adv-x="1523" d="M762 37q244 0 407.5 178t163.5 520q0 332 -160.5 517.5t-410.5 185.5t-411 -185.5t-161 -517.5q0 -336 165 -517t407 -181zM762 -31q-281 0 -465 205t-184 561q0 360 184 565t464.5 205t465 -204.5t184.5 -565.5q0 -362 -183 -564t-466 -202zM995 1702h-471v65h471v-65z " />
<glyph unicode="&#x14d;" horiz-adv-x="1157" d="M178 532.5q0 -241.5 112.5 -371.5t289.5 -130q180 0 289.5 129t109.5 372.5t-109.5 372.5t-290 129t-291 -130t-110.5 -371.5zM102 532q0 270 132.5 417t345.5 147q215 0 345 -146.5t130 -417t-130 -417t-341 -146.5t-346.5 148.5t-135.5 414.5zM813 1354h-471v65h471 v-65z" />
<glyph unicode="&#x14e;" horiz-adv-x="1523" d="M762 1628q-119 2 -186.5 74t-76.5 197h68q4 -92 52 -151.5t142.5 -59.5t142.5 59t52 152h68q-8 -125 -75.5 -197t-186.5 -74zM762 37q244 0 407.5 178t163.5 520q0 332 -160.5 517.5t-410.5 185.5t-411 -185.5t-161 -517.5q0 -336 165 -517t407 -181zM762 -31 q-281 0 -465 205t-184 561q0 360 184 565t464.5 205t465 -204.5t184.5 -565.5q0 -362 -183 -564t-466 -202z" />
<glyph unicode="&#x14f;" horiz-adv-x="1157" d="M580 1218q-119 2 -186.5 74t-76.5 197h68q4 -92 52 -151.5t142.5 -59.5t142.5 59t52 152h68q-8 -125 -75.5 -197t-186.5 -74zM178 532.5q0 -241.5 112.5 -371.5t289.5 -130q180 0 289.5 129t109.5 372.5t-109.5 372.5t-290 129t-291 -130t-110.5 -371.5zM102 532 q0 270 132.5 417t345.5 147q215 0 345 -146.5t130 -417t-130 -417t-341 -146.5t-346.5 148.5t-135.5 414.5z" />
<glyph unicode="&#x150;" horiz-adv-x="1523" d="M762 37q244 0 407.5 178t163.5 520q0 332 -160.5 517.5t-410.5 185.5t-411 -185.5t-161 -517.5q0 -336 165 -517t407 -181zM762 -31q-281 0 -465 205t-184 561q0 360 184 565t464.5 205t465 -204.5t184.5 -565.5q0 -362 -183 -564t-466 -202zM561 1573l154 280h104 l-192 -280h-66zM874 1573l154 280h105l-193 -280h-66z" />
<glyph unicode="&#x151;" horiz-adv-x="1157" d="M178 532.5q0 -241.5 112.5 -371.5t289.5 -130q180 0 289.5 129t109.5 372.5t-109.5 372.5t-290 129t-291 -130t-110.5 -371.5zM102 532q0 270 132.5 417t345.5 147q215 0 345 -146.5t130 -417t-130 -417t-341 -146.5t-346.5 148.5t-135.5 414.5zM385 1225l154 280h104 l-192 -280h-66zM698 1225l154 280h104l-192 -280h-66z" />
<glyph unicode="&#x152;" horiz-adv-x="1898" d="M1776 68v-68h-811q-88 -20 -203 -20q-285 0 -467 202.5t-182 558.5q0 362 186 563t473 201q92 0 199 -30h805v-68h-736v-623h676v-67h-676v-649h736zM762 47q121 0 203 25v1335q-88 31 -193 31q-256 0 -419 -184.5t-163 -512.5q0 -336 162 -515t410 -179z" />
<glyph unicode="&#x153;" horiz-adv-x="2037" d="M1923 514h-872q8 -233 133 -357t291 -124q121 0 219 66.5t131 193.5h78q-39 -150 -158 -237t-272 -87q-147 0 -273.5 90.5t-183.5 247.5q-51 -154 -165 -246t-267 -92q-211 0 -346.5 151.5t-135.5 411.5q0 264 133.5 414t344.5 150q156 0 270.5 -90.5t165.5 -243.5 q55 154 175 244t257 90q90 0 172 -32t150.5 -98.5t109.5 -182t43 -269.5zM178 532q0 -236 112.5 -368.5t289.5 -132.5q174 0 286.5 132t112.5 369.5t-112.5 369.5t-286.5 132q-178 0 -290 -132t-112 -370zM1448 1034q-156 0 -270.5 -124t-126.5 -332h794 q-10 217 -119.5 336.5t-277.5 119.5z" />
<glyph unicode="&#x154;" horiz-adv-x="1267" d="M1227 0h-94l-412 625h-471v-625h-76v1475h514q233 0 361.5 -115t128.5 -318q0 -154 -103.5 -261t-271.5 -146zM694 1407h-444v-715h434q188 0 301 98.5t113 251.5q0 174 -104.5 269.5t-299.5 95.5zM524 1573l211 280h109l-250 -280h-70z" />
<glyph unicode="&#x155;" horiz-adv-x="684" d="M238 0h-74v1065h59l13 -225q80 256 311 256q57 0 106 -17v-71q-63 18 -112 18q-125 0 -214 -120t-89 -304v-602zM332 1225l211 280h108l-250 -280h-69z" />
<glyph unicode="&#x156;" horiz-adv-x="1267" d="M1227 0h-94l-412 625h-471v-625h-76v1475h514q233 0 361.5 -115t128.5 -318q0 -154 -103.5 -261t-271.5 -146zM694 1407h-444v-715h434q188 0 301 98.5t113 251.5q0 174 -104.5 269.5t-299.5 95.5zM668 -184v-125q0 -186 -156 -240v47q90 43 90 187h-29v131h95z" />
<glyph unicode="&#x157;" horiz-adv-x="684" d="M238 0h-74v1065h59l13 -225q80 256 311 256q57 0 106 -17v-71q-63 18 -112 18q-125 0 -214 -120t-89 -304v-602zM252 -184v-125q0 -186 -156 -240v47q90 43 90 187h-28v131h94z" />
<glyph unicode="&#x158;" horiz-adv-x="1267" d="M1227 0h-94l-412 625h-471v-625h-76v1475h514q233 0 361.5 -115t128.5 -318q0 -154 -103.5 -261t-271.5 -146zM694 1407h-444v-715h434q188 0 301 98.5t113 251.5q0 174 -104.5 269.5t-299.5 95.5zM537 1573l-211 280h69l187 -231l184 231h72l-213 -280h-88z" />
<glyph unicode="&#x159;" horiz-adv-x="684" d="M238 0h-74v1065h59l13 -225q80 256 311 256q57 0 106 -17v-71q-63 18 -112 18q-125 0 -214 -120t-89 -304v-602zM344 1225l-211 280h70l186 -231l184 231h72l-213 -280h-88z" />
<glyph unicode="&#x15a;" horiz-adv-x="1316" d="M659 39q221 0 341 88t120 241.5t-105.5 238.5t-396.5 143q-244 49 -351 145t-107 254q0 162 129 259t370 97q211 0 358.5 -95t186.5 -259h-78q-35 133 -157.5 210t-304.5 77q-209 0 -317.5 -77t-108.5 -206q0 -135 93 -214t339 -130q287 -59 407.5 -161.5t120.5 -278.5 q0 -178 -141.5 -290t-399.5 -112q-227 0 -376.5 101.5t-188.5 289.5h80q33 -160 163.5 -240.5t323.5 -80.5zM573 1573l211 280h109l-250 -280h-70z" />
<glyph unicode="&#x15b;" horiz-adv-x="1005" d="M825 279q0 106 -84 163.5t-282 87.5q-344 53 -344 291q0 119 97 197t280 78q162 0 273.5 -79t133.5 -208h-78q-12 96 -106 160.5t-230 64.5q-143 0 -219 -59.5t-76 -147.5q0 -98 72 -152t248 -85q211 -37 302 -108.5t91 -200.5q0 -127 -111.5 -219.5t-293.5 -92.5 q-178 0 -287 83t-129 220h78q10 -106 102 -172.5t238 -66.5q152 0 238.5 73t86.5 173zM432 1225l211 280h109l-250 -280h-70z" />
<glyph unicode="&#x15c;" horiz-adv-x="1316" d="M659 39q221 0 341 88t120 241.5t-105.5 238.5t-396.5 143q-244 49 -351 145t-107 254q0 162 129 259t370 97q211 0 358.5 -95t186.5 -259h-78q-35 133 -157.5 210t-304.5 77q-209 0 -317.5 -77t-108.5 -206q0 -135 93 -214t339 -130q287 -59 407.5 -161.5t120.5 -278.5 q0 -178 -141.5 -290t-399.5 -112q-227 0 -376.5 101.5t-188.5 289.5h80q33 -160 163.5 -240.5t323.5 -80.5zM694 1853l211 -280h-69l-187 231l-184 -231h-72l213 280h88z" />
<glyph unicode="&#x15d;" horiz-adv-x="1005" d="M825 279q0 106 -84 163.5t-282 87.5q-344 53 -344 291q0 119 97 197t280 78q162 0 273.5 -79t133.5 -208h-78q-12 96 -106 160.5t-230 64.5q-143 0 -219 -59.5t-76 -147.5q0 -98 72 -152t248 -85q211 -37 302 -108.5t91 -200.5q0 -127 -111.5 -219.5t-293.5 -92.5 q-178 0 -287 83t-129 220h78q10 -106 102 -172.5t238 -66.5q152 0 238.5 73t86.5 173zM530 1505l211 -280h-69l-187 231l-184 -231h-72l213 280h88z" />
<glyph unicode="&#x15e;" horiz-adv-x="1316" d="M934 -293q0 -82 -62.5 -138t-158.5 -56q-94 0 -156.5 44t-75.5 124h68q6 -51 52 -80t113.5 -29t110.5 38t43 95q0 137 -235 137l8 127q-221 4 -366.5 105.5t-182.5 285.5h80q33 -160 164 -240.5t323 -80.5q221 0 341 88t120 241.5t-105.5 238.5t-396.5 143 q-244 49 -351 145t-107 254q0 162 129 259t370 97q211 0 358.5 -95t186.5 -259h-78q-35 133 -157.5 210t-304.5 77q-209 0 -317.5 -77t-108.5 -206q0 -135 93 -214t339 -130q287 -59 407.5 -161.5t120.5 -278.5q0 -170 -129 -279.5t-364 -120.5v-77q111 -10 170 -60.5 t59 -126.5z" />
<glyph unicode="&#x15f;" horiz-adv-x="1005" d="M762 -293q0 -82 -62.5 -138t-158.5 -56q-94 0 -156.5 44t-75.5 124h68q6 -51 52 -80t113.5 -29t110.5 38t43 95q0 137 -235 137l8 129q-166 6 -267.5 88t-119.5 213h78q10 -106 102 -172.5t238 -66.5q152 0 238.5 72.5t86.5 173.5q0 106 -84 163.5t-282 87.5 q-344 53 -344 291q0 119 97 197t280 78q162 0 273.5 -79t133.5 -208h-78q-12 96 -106 160.5t-230 64.5q-143 0 -219 -59.5t-76 -147.5q0 -98 72 -152t248 -85q211 -37 302 -108.5t91 -200.5q0 -121 -101.5 -211t-269.5 -99v-77q111 -10 170.5 -60.5t59.5 -126.5z" />
<glyph unicode="&#x160;" horiz-adv-x="1316" d="M659 39q221 0 341 88t120 241.5t-105.5 238.5t-396.5 143q-244 49 -351 145t-107 254q0 162 129 259t370 97q211 0 358.5 -95t186.5 -259h-78q-35 133 -157.5 210t-304.5 77q-209 0 -317.5 -77t-108.5 -206q0 -135 93 -214t339 -130q287 -59 407.5 -161.5t120.5 -278.5 q0 -178 -141.5 -290t-399.5 -112q-227 0 -376.5 101.5t-188.5 289.5h80q33 -160 163.5 -240.5t323.5 -80.5zM598 1573l-211 280h70l186 -231l184 231h72l-213 -280h-88z" />
<glyph unicode="&#x161;" horiz-adv-x="1005" d="M825 279q0 106 -84 163.5t-282 87.5q-344 53 -344 291q0 119 97 197t280 78q162 0 273.5 -79t133.5 -208h-78q-12 96 -106 160.5t-230 64.5q-143 0 -219 -59.5t-76 -147.5q0 -98 72 -152t248 -85q211 -37 302 -108.5t91 -200.5q0 -127 -111.5 -219.5t-293.5 -92.5 q-178 0 -287 83t-129 220h78q10 -106 102 -172.5t238 -66.5q152 0 238.5 73t86.5 173zM446 1225l-210 280h69l187 -231l184 231h72l-213 -280h-89z" />
<glyph unicode="&#x162;" horiz-adv-x="1153" d="M1112 1475v-68h-498v-1407h-75v1407h-498v68h1071zM627 -184v-125q0 -186 -156 -240v47q90 43 90 187h-29v131h95z" />
<glyph unicode="&#x163;" horiz-adv-x="602" d="M532 1001h-253v-806q0 -164 151 -164q63 0 131 18v-61q-70 -18 -131 -19q-106 0 -165.5 57.5t-59.5 170.5v804h-154v64h154l8 256h66v-256h253v-64zM375 -184v-125q0 -186 -156 -240v47q90 43 90 187h-28v131h94z" />
<glyph unicode="&#x164;" horiz-adv-x="1153" d="M1112 1475v-68h-498v-1407h-75v1407h-498v68h1071zM530 1573l-211 280h70l186 -231l185 231h71l-213 -280h-88z" />
<glyph unicode="&#x165;" horiz-adv-x="657" d="M637 1475v-125q0 -92 -37 -144.5t-119 -81.5v50q49 23 67.5 61.5t18.5 107.5h-32v132h102zM532 1001h-253v-806q0 -164 151 -164q63 0 131 18v-61q-70 -18 -131 -19q-106 0 -165.5 57.5t-59.5 170.5v804h-154v64h154l8 256h66v-256h253v-64z" />
<glyph unicode="&#x166;" horiz-adv-x="1153" d="M1112 1475v-68h-498v-537h254v-67h-254v-803h-75v803h-254v67h254v537h-498v68h1071z" />
<glyph unicode="&#x167;" horiz-adv-x="602" d="M279 717v-522q0 -164 151 -164q63 0 131 18v-61q-70 -18 -131 -19q-106 0 -165.5 57.5t-59.5 170.5v520h-137v63h137v221h-154v64h154l8 256h66v-256h253v-64h-253v-221h235v-63h-235z" />
<glyph unicode="&#x168;" horiz-adv-x="1433" d="M717 -31q-256 0 -404.5 148.5t-148.5 363.5v994h74v-996q0 -195 136 -318.5t343 -123.5q205 0 342 125t137 317v996h74v-994q0 -215 -150.5 -363.5t-402.5 -148.5zM825 1645q-57 0 -117.5 32.5t-101.5 32.5q-68 0 -149 -65v73q80 59 151 60q57 0 117.5 -33t101.5 -33 q68 0 150 66v-74q-80 -59 -152 -59z" />
<glyph unicode="&#x169;" horiz-adv-x="1110" d="M154 1065h73v-729q0 -150 81 -227.5t222 -77.5q143 0 242.5 108.5t99.5 270.5v655h74v-1065h-61l-11 190q-53 -109 -152 -165t-208 -56q-160 0 -260 94.5t-100 268.5v733zM649 1296q-57 0 -117.5 33t-101.5 33q-68 0 -149 -66v74q80 59 151 60q57 0 117.5 -33t101.5 -33 q68 0 150 66v-74q-80 -60 -152 -60z" />
<glyph unicode="&#x16a;" horiz-adv-x="1433" d="M717 -31q-256 0 -404.5 148.5t-148.5 363.5v994h74v-996q0 -195 136 -318.5t343 -123.5q205 0 342 125t137 317v996h74v-994q0 -215 -150.5 -363.5t-402.5 -148.5zM952 1702h-471v65h471v-65z" />
<glyph unicode="&#x16b;" horiz-adv-x="1110" d="M154 1065h73v-729q0 -150 81 -227.5t222 -77.5q143 0 242.5 108.5t99.5 270.5v655h74v-1065h-61l-11 190q-53 -109 -152 -165t-208 -56q-160 0 -260 94.5t-100 268.5v733zM774 1354h-471v65h471v-65z" />
<glyph unicode="&#x16c;" horiz-adv-x="1433" d="M717 -31q-256 0 -404.5 148.5t-148.5 363.5v994h74v-996q0 -195 136 -318.5t343 -123.5q205 0 342 125t137 317v996h74v-994q0 -215 -150.5 -363.5t-402.5 -148.5zM717 1552q-119 2 -186.5 74t-75.5 197h67q4 -92 52.5 -151.5t142.5 -59.5t142 59.5t52 151.5h68 q-8 -125 -75.5 -197t-186.5 -74z" />
<glyph unicode="&#x16d;" horiz-adv-x="1110" d="M154 1065h73v-729q0 -150 81 -227.5t222 -77.5q143 0 242.5 108.5t99.5 270.5v655h74v-1065h-61l-11 190q-53 -109 -152 -165t-208 -56q-160 0 -260 94.5t-100 268.5v733zM547 1204q-119 2 -186.5 74t-75.5 197h67q4 -92 52.5 -151.5t142.5 -59.5t142 59t52 152h68 q-8 -125 -75.5 -197t-186.5 -74z" />
<glyph unicode="&#x16e;" horiz-adv-x="1433" d="M717 -31q-256 0 -404.5 148.5t-148.5 363.5v994h74v-996q0 -195 136 -318.5t343 -123.5q205 0 342 125t137 317v996h74v-994q0 -215 -150.5 -363.5t-402.5 -148.5zM547 1782q0 -86 48 -133t122 -47t122 47t48 133t-48 133t-122 47t-122 -47t-48 -133zM952 1781.5 q0 -102.5 -65.5 -169t-170 -66.5t-170 66.5t-65.5 169t65.5 169t170 66.5t170 -66.5t65.5 -169z" />
<glyph unicode="&#x16f;" horiz-adv-x="1110" d="M154 1065h73v-729q0 -150 81 -227.5t222 -77.5q143 0 242.5 108.5t99.5 270.5v655h74v-1065h-61l-11 190q-53 -109 -152 -165t-208 -56q-160 0 -260 94.5t-100 268.5v733zM377 1434q0 -86 47 -133.5t123 -47.5t123 47.5t47 133.5t-47 133t-123 47t-123 -47t-47 -133z M782 1433.5q0 -102.5 -65.5 -169t-170 -66.5t-170 66.5t-65.5 169t65.5 169t170 66.5t170 -66.5t65.5 -169z" />
<glyph unicode="&#x170;" horiz-adv-x="1433" d="M717 -31q-256 0 -404.5 148.5t-148.5 363.5v994h74v-996q0 -195 136 -318.5t343 -123.5q205 0 342 125t137 317v996h74v-994q0 -215 -150.5 -363.5t-402.5 -148.5zM483 1573l154 280h104l-192 -280h-66zM797 1573l153 280h105l-193 -280h-65z" />
<glyph unicode="&#x171;" horiz-adv-x="1110" d="M154 1065h73v-729q0 -150 81 -227.5t222 -77.5q143 0 242.5 108.5t99.5 270.5v655h74v-1065h-61l-11 190q-53 -109 -152 -165t-208 -56q-160 0 -260 94.5t-100 268.5v733zM358 1225l154 280h104l-192 -280h-66zM672 1225l153 280h105l-193 -280h-65z" />
<glyph unicode="&#x172;" horiz-adv-x="1433" d="M973 -305h71q-25 -82 -92 -129t-151 -47q-100 0 -160.5 55t-60.5 150q0 139 174 247q-12 -2 -37 -2q-256 0 -404.5 148.5t-148.5 363.5v994h74v-996q0 -195 136 -318.5t343 -123.5q205 0 342 125t137 317v996h74v-994q0 -176 -96.5 -303t-272.5 -184 q-111 -35 -182.5 -108.5t-71.5 -155.5q0 -72 42 -111t116 -39q127 0 168 115z" />
<glyph unicode="&#x173;" horiz-adv-x="1110" d="M154 1065h73v-729q0 -150 81 -227.5t222 -77.5q143 0 242.5 108.5t99.5 270.5v655h74v-1065h-16q-248 -123 -248 -270q0 -72 42 -111t116 -39q127 0 168 115h71q-25 -82 -92 -129t-151 -47q-100 0 -161 55t-61 150q0 88 76 166.5t193 127.5l-9 172q-53 -109 -152 -165 t-208 -56q-160 0 -260 94.5t-100 268.5v733z" />
<glyph unicode="&#x174;" horiz-adv-x="1945" d="M1841 1475h74l-416 -1475h-113l-413 1413l-412 -1413h-115l-415 1475h80l395 -1416l414 1416h112l412 -1412zM1016 1853l211 -280h-70l-186 231l-185 -231h-71l213 280h88z" />
<glyph unicode="&#x175;" horiz-adv-x="1540" d="M1417 1065h72l-305 -1065h-94l-316 999l-297 -999h-94l-332 1065h74l307 -993l295 993h98l312 -989zM819 1505l211 -280h-69l-187 231l-184 -231h-72l213 280h88z" />
<glyph unicode="&#x176;" horiz-adv-x="1269" d="M679 1908l211 -280h-69l-187 231l-184 -231h-72l213 280h88zM20 1475h82l531 -826l538 826h78l-577 -900v-575h-76v580z" />
<glyph unicode="&#x177;" horiz-adv-x="1003" d="M546 1499l211 -280h-69l-187 231l-184 -231h-72l213 280h88zM963 1065l-381 -1071q-90 -254 -136.5 -323.5t-142.5 -69.5q-47 0 -104 20v62q57 -20 106 -21q63 0 99 63.5t106 274.5h-35l-434 1065h80l409 -1012l357 1012h76z" />
<glyph unicode="&#x178;" horiz-adv-x="1269" d="M20 1475h82l531 -826l538 826h78l-577 -900v-575h-76v580zM479 1706h-94v117h94v-117zM881 1706h-95v117h95v-117z" />
<glyph unicode="&#x179;" horiz-adv-x="1308" d="M1206 1411l-1016 -1343h996v-68h-1084v70l1014 1337h-966v68h1056v-64zM563 1573l211 280h109l-250 -280h-70z" />
<glyph unicode="&#x17a;" horiz-adv-x="978" d="M897 987l-733 -924h733v-63h-815v74l737 927h-706v64h784v-78zM414 1225l211 280h108l-250 -280h-69z" />
<glyph unicode="&#x17b;" horiz-adv-x="1308" d="M1206 1411l-1016 -1343h996v-68h-1084v70l1014 1337h-966v68h1056v-64zM700 1706h-94v117h94v-117z" />
<glyph unicode="&#x17c;" horiz-adv-x="978" d="M897 987l-733 -924h733v-63h-815v74l737 927h-706v64h784v-78zM545 1358h-94v117h94v-117z" />
<glyph unicode="&#x17d;" horiz-adv-x="1308" d="M1206 1411l-1016 -1343h996v-68h-1084v70l1014 1337h-966v68h1056v-64zM604 1573l-211 280h70l186 -231l185 231h71l-213 -280h-88z" />
<glyph unicode="&#x17e;" horiz-adv-x="978" d="M897 987l-733 -924h733v-63h-815v74l737 927h-706v64h784v-78zM449 1225l-211 280h69l187 -231l184 231h72l-213 -280h-88z" />
<glyph unicode="&#x2c6;" horiz-adv-x="634" d="M362 1505l211 -280h-69l-187 231l-184 -231h-72l213 280h88z" />
<glyph unicode="&#x2d8;" horiz-adv-x="647" d="M324 1204q-119 2 -186.5 74t-76.5 197h68q4 -92 52 -151.5t142.5 -59.5t142.5 59t52 152h68q-8 -125 -75.5 -197t-186.5 -74z" />
<glyph unicode="&#x2da;" horiz-adv-x="593" d="M127 1434q0 -86 47 -133.5t123 -47.5t123 47.5t47 133.5t-47 133t-123 47t-123 -47t-47 -133zM532 1433.5q0 -102.5 -65.5 -169t-169.5 -66.5t-170 66.5t-66 169t66 169t170 66.5t169.5 -66.5t65.5 -169z" />
<glyph unicode="&#x2dc;" horiz-adv-x="643" d="M430 1296q-57 0 -117.5 33t-101.5 33q-68 0 -150 -66v74q80 59 152 60q57 0 117.5 -33t101.5 -33q68 0 150 66v-74q-80 -60 -152 -60z" />
<glyph unicode="&#x2000;" horiz-adv-x="1007" />
<glyph unicode="&#x2001;" horiz-adv-x="2017" />
<glyph unicode="&#x2002;" horiz-adv-x="1007" />
<glyph unicode="&#x2003;" horiz-adv-x="2017" />
<glyph unicode="&#x2004;" horiz-adv-x="671" />
<glyph unicode="&#x2005;" horiz-adv-x="503" />
<glyph unicode="&#x2006;" horiz-adv-x="335" />
<glyph unicode="&#x2007;" horiz-adv-x="335" />
<glyph unicode="&#x2008;" horiz-adv-x="251" />
<glyph unicode="&#x2009;" horiz-adv-x="403" />
<glyph unicode="&#x200a;" horiz-adv-x="110" />
<glyph unicode="&#x2010;" horiz-adv-x="1105" d="M901 694v-69h-696v69h696z" />
<glyph unicode="&#x2011;" horiz-adv-x="1105" d="M901 694v-69h-696v69h696z" />
<glyph unicode="&#x2012;" horiz-adv-x="1105" d="M901 694v-69h-696v69h696z" />
<glyph unicode="&#x2013;" horiz-adv-x="819" d="M819 694v-69h-819v69h819z" />
<glyph unicode="&#x2014;" d="M1229 694v-69h-1229v69h1229z" />
<glyph unicode="&#x2018;" horiz-adv-x="552" d="M213 1067v125q0 225 190 283v-60q-59 -25 -85.5 -75t-26.5 -142h37v-131h-115z" />
<glyph unicode="&#x2019;" horiz-adv-x="552" d="M340 1475v-125q0 -225 -190 -283v59q59 25 85.5 75t26.5 142h-37v132h115z" />
<glyph unicode="&#x201a;" horiz-adv-x="552" d="M340 131v-125q0 -225 -190 -282v59q59 25 85.5 75t26.5 142h-37v131h115z" />
<glyph unicode="&#x201c;" horiz-adv-x="815" d="M219 1067v125q0 225 191 283v-60q-59 -25 -86 -75t-27 -142h37v-131h-115zM475 1067v125q0 225 191 283v-60q-59 -25 -86 -75t-27 -142h37v-131h-115z" />
<glyph unicode="&#x201d;" horiz-adv-x="808" d="M340 1475v-125q0 -225 -190 -283v59q59 25 85.5 75t26.5 142h-37v132h115zM596 1475v-125q0 -225 -190 -283v59q59 25 85.5 75t26.5 142h-37v132h115z" />
<glyph unicode="&#x201e;" horiz-adv-x="808" d="M340 131v-125q0 -225 -190 -282v59q59 25 85.5 75t26.5 142h-37v131h115zM596 131v-125q0 -225 -190 -282v59q59 25 85.5 75t26.5 142h-37v131h115z" />
<glyph unicode="&#x2022;" horiz-adv-x="604" d="M420 532h-236v238h236v-238z" />
<glyph unicode="&#x2026;" horiz-adv-x="1200" d="M324 0h-95v131h95v-131zM647 0h-94v131h94v-131zM971 0h-94v131h94v-131z" />
<glyph unicode="&#x202f;" horiz-adv-x="403" />
<glyph unicode="&#x2039;" horiz-adv-x="571" d="M356 184l-223 461l244 420h61l-217 -424l197 -457h-62z" />
<glyph unicode="&#x203a;" horiz-adv-x="571" d="M438 645l-223 -461h-61l196 457l-217 424h62z" />
<glyph unicode="&#x205f;" horiz-adv-x="503" />
<glyph unicode="&#x20ac;" d="M715 -31q-197 0 -332 135.5t-162 434.5h-164l17 65h141q-4 35 -4 113q0 84 4 123h-158l17 65h147q29 299 161 429t327 130q180 0 303 -92t155 -252h-75q-29 135 -129.5 207t-257.5 72q-358 0 -406 -494h641l-16 -65h-631q-4 -39 -4 -123q0 -78 4 -113h565l-16 -65h-543 q25 -266 138.5 -385t279.5 -119q156 0 253 71.5t126 206.5h75q-33 -160 -155.5 -252t-300.5 -92z" />
<glyph unicode="&#x2122;" horiz-adv-x="1679" d="M1163 664h-59l-289 737v-737h-61v751h-303v-751h-64v751h-315v60h778l285 -734l278 734h92v-811h-63v737z" />
<glyph unicode="&#xe000;" horiz-adv-x="1065" d="M0 1065h1065v-1065h-1065v1065z" />
<glyph unicode="&#xfb01;" horiz-adv-x="1116" d="M952 0h-73v1001h-586v-1001h-74v1001h-158v64h158v172q0 131 79 199.5t228 68.5q131 0 252 -39v-61q-133 39 -252 39q-233 0 -233 -205v-174h659v-1065z" />
<glyph unicode="&#xfb02;" horiz-adv-x="1116" d="M952 0h-73v1397q-150 47 -312 47q-154 0 -214 -63.5t-60 -202.5v-113h250v-64h-250v-1001h-74v1001h-158v64h158v111q0 160 79 244.5t269 84.5q158 0 314 -43l71 13v-1475z" />
<glyph unicode="&#xfb03;" horiz-adv-x="1773" d="M1610 0h-74v1001h-586v-1001h-73v1001h-584v-1001h-74v1001h-158v64h158v98q0 162 77 246t269 84q164 0 369 -78q78 90 250 90q131 0 252 -39v-61q-133 39 -252 39q-233 0 -234 -205v-174h660v-1065zM877 1237q0 74 24 125q-162 70 -336 70q-154 0 -213 -63.5t-59 -203.5 v-100h584v172z" />
<glyph unicode="&#xfb04;" horiz-adv-x="1775" d="M1612 0h-74v1397q-150 47 -311 47q-154 0 -214.5 -63.5t-60.5 -202.5v-113h248v-64h-248v-1001h-73v1001h-586v-1001h-74v1001h-158v64h158v98q0 162 77 246t269 84q182 0 381 -84q84 96 281 96q158 0 313 -43l72 13v-1475zM879 1176q0 111 34 182q-162 74 -348 74 q-154 0 -213 -63.5t-59 -203.5v-100h586v111z" />
</font>
</defs>
</svg>
