<?xml version="1.0" standalone="no"?>
<!DOCTYPE svg PUBLIC "-//W3C//DTD SVG 1.1//EN" "http://www.w3.org/Graphics/SVG/1.1/DTD/svg11.dtd" >
<svg xmlns="http://www.w3.org/2000/svg">
<metadata>
This is a custom SVG webfont generated by Font Squirrel.
Copyright   : Copyright c 2010 by Ralph du Carrois Erik Spiekermann  Botio Nikoltchev All rights reserved
Designer    : Ralph du Carrois Erik Spiekermann  Botio Nikoltchev
Foundry     : Ralph du Carrois Erik Spiekermann  Botio Nikoltchev
Foundry URL : httpedenspiekermanncom
</metadata>
<defs>
<font id="webfontzmIuSJha" horiz-adv-x="1228" >
<font-face units-per-em="2048" ascent="1618" descent="-430" />
<missing-glyph horiz-adv-x="614" />
<glyph unicode=" "  horiz-adv-x="614" />
<glyph unicode="&#x09;" horiz-adv-x="614" />
<glyph unicode="&#xa0;" horiz-adv-x="614" />
<glyph unicode="!" horiz-adv-x="583" d="M410 0h-236v238h236v-238zM369 492h-154l-41 983h236z" />
<glyph unicode="&#x22;" d="M369 1317l-31 -313h-143l-31 313v188h205v-188zM696 1317l-30 -313h-144l-30 313v188h204v-188z" />
<glyph unicode="#" d="M82 911v154h174l33 369h172l-33 -369h432l33 369h172l-33 -369h156v-154h-170l-33 -389h162v-153h-176l-31 -369h-172l31 369h-432l-31 -369h-172l31 369h-154v153h168l33 389h-160zM414 911l-33 -389h432l33 389h-432z" />
<glyph unicode="$" d="M528 -276v251q-193 20 -320.5 129t-156.5 295h215q39 -258 357 -258q168 0 257 69t89 179q0 104 -86 165.5t-355 131.5q-229 59 -327.5 157.5t-98.5 250.5q0 145 111 246.5t315 119.5v240h183v-240q199 -20 315.5 -118.5t140.5 -264.5h-215q-39 215 -350 215 q-147 0 -219 -51t-72 -135q0 -88 69 -143.5t296 -114.5q272 -70 387 -179.5t115 -271t-124 -282.5t-343 -142v-249h-183z" />
<glyph unicode="%" horiz-adv-x="1722" d="M770 1118q0 -164 -103.5 -255t-247 -91t-245.5 91t-102 255t102 255t245.5 91t247 -91t103.5 -255zM238 1118.5q0 -104.5 50 -154t132 -49.5t134 49.5t52 154t-52 153.5t-134 49t-132 -49t-50 -153.5zM1343 1434l-782 -1434h-196l782 1434h196zM1651 315.5 q0 -163.5 -103.5 -255t-247 -91.5t-246 91.5t-102.5 255t102.5 255t246 91.5t247 -91.5t103.5 -255zM1118 315.5q0 -104.5 50.5 -153.5t132 -49t134 49t52.5 153.5t-52.5 153.5t-134 49t-132 -49t-50.5 -153.5z" />
<glyph unicode="&#x26;" horiz-adv-x="1402" d="M1100 696l180 -22q-27 -213 -139 -387l200 -189l-145 -129l-176 170q-180 -170 -434 -170q-223 0 -363.5 105.5t-140.5 277.5q0 147 73.5 240.5t225.5 177.5q-109 111 -148.5 182.5t-39.5 161.5q0 137 111.5 243.5t279.5 106.5t276.5 -97t108.5 -220q0 -260 -301 -412 l342 -323q70 132 90 284zM600 139q172 0 297 121l-399 391q-106 -59 -158.5 -125.5t-52.5 -158.5q0 -106 81.5 -167t231.5 -61zM383 1116q0 -66 31.5 -117t128.5 -145q131 70 186 134.5t55 152.5q0 63 -51 113.5t-145 50.5q-100 0 -152.5 -58.5t-52.5 -130.5z" />
<glyph unicode="'" horiz-adv-x="552" d="M379 1317l-31 -313h-143l-31 313v188h205v-188z" />
<glyph unicode="(" horiz-adv-x="696" d="M332 655.5q0 -540.5 303 -1003.5h-162q-143 188 -241.5 444t-98.5 559t98.5 559t241.5 445h162q-303 -463 -303 -1003.5z" />
<glyph unicode=")" horiz-adv-x="696" d="M365 655.5q0 540.5 -304 1003.5h162q143 -188 241.5 -444.5t98.5 -559.5t-98 -559t-242 -444h-162q304 463 304 1003.5z" />
<glyph unicode="*" horiz-adv-x="962" d="M569 1505l-34 -303l276 127l59 -172l-301 -61l205 -222l-147 -106l-148 262l-149 -264l-146 108l205 224l-297 59l60 172l272 -125l-35 301h180z" />
<glyph unicode="+" d="M522 229v342h-338v174h338v345h187v-345h335v-174h-335v-342h-187z" />
<glyph unicode="," horiz-adv-x="614" d="M426 238v-207q0 -160 -78 -242t-190 -96v102q127 27 127 205h-97v238h238z" />
<glyph unicode="-" horiz-adv-x="1105" d="M922 573h-738v175h738v-175z" />
<glyph unicode="." horiz-adv-x="614" d="M426 0h-238v238h238v-238z" />
<glyph unicode="/" horiz-adv-x="819" d="M61 -184l510 1689h187l-510 -1689h-187z" />
<glyph unicode="0" d="M614.5 133q311.5 0 311.5 588q0 297 -77 438t-234.5 141t-234.5 -141t-77 -438q0 -588 311.5 -588zM614.5 -31q-229.5 0 -371 190.5t-141.5 561.5q0 377 140.5 560t372 183t371.5 -183t140 -560q0 -371 -141 -561.5t-370.5 -190.5z" />
<glyph unicode="1" d="M788 0h-194v1229l-322 -166v203l324 168h192v-1434z" />
<glyph unicode="2" d="M330 1059h-207q25 176 161 290.5t343 114.5q203 0 335 -110.5t132 -296.5q0 -143 -72 -260t-270 -305l-328 -312h663v-180h-929v180l467 449q152 145 210 235t58 191q0 111 -72.5 177t-197.5 66q-123 0 -202 -64t-91 -175z" />
<glyph unicode="3" d="M1124 391q0 -186 -139 -303t-369 -117q-221 0 -356 104.5t-160 280.5h209q51 -221 303 -221q145 0 228.5 72t83.5 188q0 135 -85 203t-198 68h-119v170h115q92 0 164.5 62.5t72.5 176.5q0 109 -80.5 167t-193.5 58q-119 0 -195.5 -56t-93.5 -148h-207q27 168 164.5 268 t341.5 100q195 0 330 -96t135 -278q0 -115 -71.5 -203t-186.5 -125q131 -29 219 -124t88 -247z" />
<glyph unicode="4" d="M705 1434h204v-996h232v-168h-232v-270h-190v270h-629v183zM309 438h410v678z" />
<glyph unicode="5" d="M104 348h209q20 -92 99.5 -152.5t203.5 -60.5q135 0 223.5 90t88.5 248q0 156 -83 241t-224 85q-176 0 -287 -131h-174l30 766h881v-166h-702l-17 -420q131 104 314 104q199 0 331.5 -128t132.5 -359q0 -209 -139 -352.5t-377 -143.5q-211 0 -347 111.5t-163 267.5z" />
<glyph unicode="6" d="M680 938q207 0 326.5 -133t119.5 -348q0 -231 -143 -359.5t-336 -128.5q-248 0 -376 177.5t-128 512.5q0 231 43 395.5t120 250.5t165 122.5t195 36.5q164 0 281.5 -82t150.5 -221h-217q-18 66 -74.5 105t-142.5 39q-297 0 -326 -553q59 96 152.5 141t189.5 45zM358 463 q0 -156 81 -243t208 -87q121 0 201 84t80 229q0 152 -77 240t-206 88q-137 0 -212 -89t-75 -222z" />
<glyph unicode="7" d="M1065 1257l-586 -1257h-223l600 1257h-702v177h911v-177z" />
<glyph unicode="8" d="M1083 1096q0 -207 -235 -332q289 -127 289 -377q0 -184 -144.5 -301t-378 -117t-378 114t-144.5 290q0 150 82 242t199 137q-227 106 -228 329q0 186 135.5 284.5t333.5 98.5q201 0 335 -92t134 -276zM928 387q0 80 -30 136.5t-93.5 89t-106.5 46t-127 31.5 q-111 -33 -190.5 -106.5t-79.5 -196.5q0 -111 81 -183.5t232.5 -72.5t232.5 69.5t81 186.5zM338 1092q0 -76 30.5 -131.5t84 -84t99.5 -41t103 -20.5q231 90 232 277q0 98 -79 158.5t-194 60.5q-119 0 -197.5 -56.5t-78.5 -162.5z" />
<glyph unicode="9" d="M590 496q-201 0 -324 129t-123 352q0 219 136.5 353t343.5 134q504 0 503 -690q0 -805 -528 -805q-166 0 -282.5 83t-151.5 224h217q43 -147 225 -147q141 0 225 126t99 425q-59 -96 -151.5 -140t-188.5 -44zM911 971q0 156 -80.5 242.5t-207.5 86.5q-123 0 -202 -83.5 t-79 -229.5q0 -156 79 -242t204 -86q137 0 211.5 89.5t74.5 222.5z" />
<glyph unicode=":" horiz-adv-x="614" d="M426 0h-238v238h238v-238zM426 827h-238v238h238v-238z" />
<glyph unicode=";" horiz-adv-x="614" d="M426 827h-238v238h238v-238zM426 238v-207q0 -160 -78 -242t-190 -96v102q127 27 127 205h-97v238h238z" />
<glyph unicode="&#x3c;" d="M379 666v-11l665 -284v-197l-860 389v195l860 389v-197z" />
<glyph unicode="=" d="M1044 362h-860v175h860v-175zM1044 782h-860v174h860v-174z" />
<glyph unicode="&#x3e;" d="M850 655v11l-666 284v197l860 -389v-195l-860 -389v197z" />
<glyph unicode="?" horiz-adv-x="1193" d="M707 0h-236v238h236v-238zM682 428h-195q0 176 52.5 273.5t189.5 166.5q172 88 172 256q0 94 -75.5 151.5t-200.5 57.5q-274 0 -310 -237h-213q31 197 170.5 303t358.5 106q215 0 348 -109.5t133 -271.5q0 -258 -301 -426q-76 -41 -102.5 -100t-26.5 -170z" />
<glyph unicode="@" horiz-adv-x="1855" d="M1339 195q-88 0 -151.5 59t-71.5 131q-29 -59 -109.5 -114.5t-179.5 -55.5q-127 0 -222 87t-95 267q0 248 112.5 406t319.5 158q59 0 113.5 -32t77.5 -87l36 104h146l-76 -581q-6 -49 -6 -84q0 -109 100 -109q92 0 162 131t70 342q0 246 -174 389.5t-447 143.5 q-86 0 -173 -22.5t-175 -77t-154.5 -134.5t-108.5 -202.5t-42 -274.5q0 -166 57.5 -297t154.5 -210t214 -119t246 -40q154 0 313 54v-160q-145 -53 -330 -53q-164 0 -312.5 52t-268 151.5t-191.5 261t-72 362.5q0 182 54.5 332.5t141.5 247t199.5 163t224.5 94t222 27.5 q211 0 391.5 -75.5t299 -236.5t118.5 -374q0 -262 -116 -443t-298 -181zM866 367q100 0 166 109.5t66 324.5q0 184 -142 184q-125 0 -192.5 -116.5t-67.5 -301.5q0 -102 50 -151t120 -49z" />
<glyph unicode="A" horiz-adv-x="1445" d="M1446 0h-232l-145 373h-702l-148 -373h-219l606 1475h236zM721 1266l-287 -723h567z" />
<glyph unicode="B" horiz-adv-x="1335" d="M154 1475h530q252 0 383 -102.5t131 -289.5q0 -104 -67.5 -190t-169.5 -113q119 -20 200.5 -121.5t81.5 -242.5q0 -197 -144.5 -306.5t-418.5 -109.5h-526v1475zM719 692h-357v-522h349q315 0 315 246q0 276 -307 276zM700 1317h-338v-465h351q131 0 202.5 62.5 t71.5 168.5q0 111 -76 172.5t-211 61.5z" />
<glyph unicode="C" horiz-adv-x="1492" d="M772 145q178 0 298 106.5t130 268.5h211q-12 -223 -191.5 -387t-451.5 -164q-313 0 -494.5 202t-181.5 566.5t190.5 566t501.5 201.5q258 0 433.5 -147.5t191.5 -356.5h-211q-20 152 -132 241t-282 89q-219 0 -349 -151.5t-130 -442.5q0 -281 128 -436.5t339 -155.5z" />
<glyph unicode="D" horiz-adv-x="1449" d="M154 1475h479q338 0 531.5 -184.5t193.5 -553.5q0 -350 -204 -543.5t-536 -193.5h-464v1475zM635 1309h-273v-1137h277q244 0 376 144.5t132 420.5q0 285 -135 428.5t-377 143.5z" />
<glyph unicode="E" horiz-adv-x="1175" d="M1014 836v-172h-652v-488h711v-176h-919v1475h919v-177h-711v-462h652z" />
<glyph unicode="F" horiz-adv-x="1148" d="M985 797v-174h-623v-623h-208v1475h903v-177h-695v-501h623z" />
<glyph unicode="G" horiz-adv-x="1511" d="M1380 793v-793h-153l-29 176q-70 -98 -188.5 -152.5t-264.5 -54.5q-285 0 -469 205t-184 565q0 365 190.5 565.5t485.5 200.5q248 0 416 -132t194 -331h-204q-29 135 -136.5 212t-269.5 77q-203 0 -333 -152.5t-130 -439.5q0 -283 135 -440.5t330 -157.5q176 0 299 104.5 t123 264.5v115h-432v168h620z" />
<glyph unicode="H" horiz-adv-x="1447" d="M1083 1475h211v-1475h-211v657h-721v-657h-208v1475h208v-641h721v641z" />
<glyph unicode="I" horiz-adv-x="516" d="M154 1475h208v-1475h-208v1475z" />
<glyph unicode="J" horiz-adv-x="1105" d="M51 414h211q12 -268 250 -269q115 0 178.5 76t63.5 213v1041h209v-1043q0 -223 -120 -343t-339 -120q-199 0 -323 125t-130 320z" />
<glyph unicode="K" horiz-adv-x="1294" d="M1284 0h-276l-646 694v-694h-208v1475h208v-656l601 656h258l-670 -705z" />
<glyph unicode="L" horiz-adv-x="1130" d="M154 1475h211v-1289h694v-186h-905v1475z" />
<glyph unicode="M" horiz-adv-x="1783" d="M1008 0h-197l-455 1155v-1155h-202v1475h290l469 -1229l443 1229h274v-1475h-196v1145z" />
<glyph unicode="N" horiz-adv-x="1472" d="M1133 1475h186v-1475h-264l-711 1235v-1235h-190v1475h276l703 -1225v1225z" />
<glyph unicode="O" horiz-adv-x="1585" d="M793 -31q-313 0 -507 205t-194 563q0 360 200 564t503 204q305 0 501.5 -200.5t196.5 -567.5q0 -356 -196.5 -562t-503.5 -206zM792.5 139q221.5 0 354.5 157t133 441.5t-133 441t-354.5 156.5t-354.5 -156.5t-133 -441t133 -441.5t354.5 -157z" />
<glyph unicode="P" horiz-adv-x="1292" d="M154 1475h479q279 0 428 -123t149 -357q0 -225 -148.5 -347t-436.5 -122h-263v-526h-208v1475zM637 1305h-275v-609h267q190 0 277 76t87 223.5t-92 228.5t-264 81z" />
<glyph unicode="Q" horiz-adv-x="1585" d="M793 -31q-313 0 -507 205t-194 563q0 360 200 564t503 204q305 0 501.5 -200.5t196.5 -567.5q0 -393 -244 -606l238 -297l-168 -110l-217 311q-141 -66 -309 -66zM792.5 139q221.5 0 354.5 157t133 441.5t-133 441t-354.5 156.5t-354.5 -156.5t-133 -441t133 -441.5 t354.5 -157z" />
<glyph unicode="R" horiz-adv-x="1335" d="M1315 0h-246l-356 561h-351v-561h-208v1475h477q281 0 432 -120t151 -343q0 -295 -296 -408zM635 1305h-273v-574h279q170 0 263 75t93 206q0 293 -362 293z" />
<glyph unicode="S" horiz-adv-x="1337" d="M1036 399q0 74 -33.5 119t-133 90t-298.5 101q-250 70 -349 166t-99 251q0 166 140 272.5t388 106.5q240 0 398.5 -106.5t185.5 -292.5h-215q-16 109 -110.5 168t-258.5 59q-160 0 -239.5 -55t-79.5 -143q0 -90 71.5 -143.5t315.5 -121.5q301 -84 413.5 -186t112.5 -276 q0 -180 -155.5 -309.5t-419.5 -129.5q-240 0 -404 121t-194 324h215q18 -127 117.5 -200t261.5 -73q176 0 273 73.5t97 184.5z" />
<glyph unicode="T" horiz-adv-x="1234" d="M1214 1475v-187h-495v-1288h-209v1288h-490v187h1194z" />
<glyph unicode="U" horiz-adv-x="1447" d="M143 1475h209v-1000q0 -150 98.5 -240t276.5 -90t276.5 90.5t98.5 239.5v1000h203v-981q0 -242 -158 -383.5t-422 -141.5q-266 0 -424 142.5t-158 382.5v981z" />
<glyph unicode="V" horiz-adv-x="1325" d="M1120 1475h205l-528 -1475h-260l-537 1475h221l447 -1278z" />
<glyph unicode="W" horiz-adv-x="1972" d="M1769 1475h193l-389 -1475h-242l-334 1249l-344 -1249h-256l-387 1475h213l314 -1227l337 1227h261l319 -1223z" />
<glyph unicode="X" horiz-adv-x="1335" d="M1298 1475l-514 -707l531 -768h-250l-395 596l-414 -596h-236l533 762l-496 713h246l375 -549l383 549h237z" />
<glyph unicode="Y" horiz-adv-x="1288" d="M748 0h-207v586l-541 889h229l416 -709l430 709h213l-540 -889v-586z" />
<glyph unicode="Z" horiz-adv-x="1308" d="M1227 1298l-899 -1118h878v-180h-1124v182l897 1112h-850v181h1098v-177z" />
<glyph unicode="[" horiz-adv-x="696" d="M584 -184v-164h-430v2007h430v-164h-242v-1679h242z" />
<glyph unicode="\" horiz-adv-x="819" d="M248 1505l510 -1689h-187l-510 1689h187z" />
<glyph unicode="]" horiz-adv-x="696" d="M113 -348v164h241v1679h-241v164h430v-2007h-430z" />
<glyph unicode="^" horiz-adv-x="1024" d="M512 1276l-246 -457h-213l367 656h184l367 -656h-213z" />
<glyph unicode="_" d="M1167 -266h-1106v174h1106v-174z" />
<glyph unicode="`" horiz-adv-x="585" d="M315 1505l209 -280h-176l-287 280h254z" />
<glyph unicode="a" horiz-adv-x="1126" d="M311 768h-209q16 150 138 239t319 89q205 0 319.5 -100.5t114.5 -268.5v-727h-162l-24 145q-125 -176 -356 -176q-172 0 -270.5 86t-98.5 219q0 147 95 232.5t308 122.5l312 53v53q0 98 -63.5 151.5t-182.5 53.5q-217 0 -240 -172zM498 135q115 0 207 75t92 181v137 l-265 -47q-137 -23 -189 -66.5t-52 -119.5q0 -78 53.5 -119t153.5 -41z" />
<glyph unicode="b" horiz-adv-x="1247" d="M305 0h-162v1475h197v-557q125 178 356 178q213 0 341 -146.5t128 -408.5q0 -270 -133 -421t-350 -151q-227 0 -346 172zM961 545q0 188 -85 285.5t-224.5 97.5t-230.5 -100.5t-91 -282.5q0 -190 88 -299t233 -109q143 0 226.5 102.5t83.5 305.5z" />
<glyph unicode="c" horiz-adv-x="1134" d="M838 342h215q-23 -160 -149 -266.5t-318 -106.5q-221 0 -362.5 146.5t-141.5 408.5q0 264 137 418t365 154q184 0 309 -92.5t151 -253.5h-217q-20 86 -82.5 133t-156.5 47q-137 0 -217 -103.5t-80 -308.5q0 -186 84 -284.5t215 -98.5q100 0 167 54.5t81 152.5z" />
<glyph unicode="d" horiz-adv-x="1247" d="M1104 0h-162l-35 150q-123 -180 -354 -181q-209 0 -340 147.5t-131 409.5q0 279 131 424.5t352 145.5t342 -166v545h197v-1475zM287 522q0 -186 85 -285.5t224 -99.5q150 0 236 106.5t86 276.5q0 193 -86.5 300.5t-235.5 107.5q-145 0 -227 -101.5t-82 -304.5z" />
<glyph unicode="e" horiz-adv-x="1185" d="M868 307h213q-41 -152 -165.5 -245t-311.5 -93q-236 0 -379 145.5t-143 417.5q0 270 141.5 417t370.5 147q233 0 366.5 -148.5t133.5 -458.5h-811q12 -178 100 -266t227 -88q94 0 163.5 48t94.5 124zM598 938q-121 0 -203 -75t-104 -218h602q-10 145 -89 219t-206 74z " />
<glyph unicode="f" horiz-adv-x="659" d="M670 1481v-170q-98 25 -162 24q-53 0 -83 -29.5t-30 -78.5v-162h230v-168h-230v-897h-196v897h-158v168h158v149q0 131 81.5 211t215.5 80q80 1 174 -24z" />
<glyph unicode="g" horiz-adv-x="1247" d="M131 -72h211q31 -172 264 -172q147 0 224 72t77 205v137q-119 -139 -354 -139q-197 0 -334 141t-137 385q0 248 132 393.5t351 145.5q229 0 346 -172l31 141h162v-1042q0 -186 -130 -304t-362 -118q-209 0 -331.5 86.5t-149.5 240.5zM287 553q0 -164 88 -259t221 -95 q152 0 237 93t85 255q0 182 -87.5 281.5t-234.5 99.5q-141 0 -225 -95.5t-84 -279.5z" />
<glyph unicode="h" horiz-adv-x="1161" d="M340 0h-197v1475h197v-531q117 152 311 152q176 0 276.5 -104.5t100.5 -297.5v-694h-197v692q0 236 -227 236q-113 0 -188.5 -75t-75.5 -204v-649z" />
<glyph unicode="i" horiz-adv-x="483" d="M352 1243h-221v232h221v-232zM340 0h-197v1065h197v-1065z" />
<glyph unicode="j" horiz-adv-x="483" d="M-100 -375v162q82 -18 123 -18q68 0 94 28.5t26 106.5v1161h197v-1171q0 -133 -76 -213t-211 -80q-77 -1 -153 24zM352 1243h-221v232h221v-232z" />
<glyph unicode="k" horiz-adv-x="1064" d="M340 0h-197v1475h197v-824l418 414h258l-479 -463l538 -602h-262l-473 537v-537z" />
<glyph unicode="l" horiz-adv-x="483" d="M340 1475v-1475h-197v1475h197z" />
<glyph unicode="m" horiz-adv-x="1792" d="M340 0h-197v1065h162l21 -125q109 156 313 156q223 0 313 -168q106 168 346 168q168 0 264.5 -98.5t96.5 -284.5v-713h-197v698q0 119 -51 174.5t-156 55.5q-115 0 -185.5 -82t-70.5 -197v-649h-196v698q0 121 -51.5 175.5t-155.5 54.5q-106 0 -181 -79t-75 -194v-655z " />
<glyph unicode="n" horiz-adv-x="1161" d="M340 0h-197v1065h162l23 -135q119 166 323 166q176 0 276.5 -104.5t100.5 -297.5v-694h-197v692q0 236 -227 236q-111 0 -187.5 -74t-76.5 -197v-657z" />
<glyph unicode="o" horiz-adv-x="1214" d="M82 532q0 274 148.5 419t377.5 145q231 0 378 -144.5t147 -419.5q0 -270 -145.5 -416.5t-381.5 -146.5q-231 0 -377.5 147.5t-146.5 415.5zM287 532.5q0 -192.5 90 -298t233 -105.5q145 0 231.5 104.5t86.5 298.5q0 197 -88 300.5t-232 103.5q-141 0 -231 -105.5 t-90 -298z" />
<glyph unicode="p" horiz-adv-x="1247" d="M143 1065h162l31 -139q131 170 360 170q213 0 341 -146.5t128 -408.5q0 -270 -133 -421t-350 -151q-227 0 -342 168v-506h-197v1434zM961 545q0 188 -85 285.5t-224.5 97.5t-230.5 -100.5t-91 -282.5q0 -190 88 -299t233 -109q143 0 226.5 102.5t83.5 305.5z" />
<glyph unicode="q" horiz-adv-x="1247" d="M942 1065h162v-1434h-197v516q-125 -178 -354 -178q-209 0 -340 147.5t-131 409.5q0 279 131 424.5t352 145.5q227 0 348 -160zM287 522q0 -186 85 -285.5t224 -99.5q150 0 236 106.5t86 276.5q0 193 -86.5 300.5t-235.5 107.5q-145 0 -227 -101.5t-82 -304.5z" />
<glyph unicode="r" horiz-adv-x="729" d="M340 0h-197v1065h162l27 -158q90 188 270 189q59 0 117 -15v-196q-70 18 -125 18q-111 0 -182.5 -90t-71.5 -278v-535z" />
<glyph unicode="s" horiz-adv-x="1046" d="M766 289q0 37 -15.5 64.5t-37 46t-67.5 35t-82 25.5t-107 25q-186 41 -268.5 115t-82.5 193q0 139 108 221t306 82q178 0 294 -83t142 -229h-200q-35 156 -238 156q-106 0 -159.5 -36t-53.5 -93q0 -63 49 -97t199 -67q211 -47 311.5 -119.5t100.5 -224.5 q0 -150 -119 -242t-326 -92q-199 0 -321.5 91.5t-137.5 244.5h201q33 -180 260 -180q117 0 180.5 46t63.5 118z" />
<glyph unicode="t" horiz-adv-x="659" d="M618 158v-168q-76 -20 -145 -21q-137 0 -211 80t-74 215v633h-157v168h157l13 256h184v-256h229v-168h-229v-637q0 -119 113 -119q52 1 120 17z" />
<glyph unicode="u" horiz-adv-x="1153" d="M133 1065h197v-698q0 -229 221 -230q127 0 194.5 81t67.5 198v649h197v-1065h-162l-23 123q-113 -154 -319 -154q-170 0 -271.5 101.5t-101.5 300.5v694z" />
<glyph unicode="v" horiz-adv-x="1052" d="M827 1065h205l-375 -1065h-266l-371 1065h216l294 -905z" />
<glyph unicode="w" horiz-adv-x="1658" d="M1432 1065h196l-311 -1065h-227l-259 842l-253 -842h-236l-311 1065h205l229 -856l254 856h235l250 -852z" />
<glyph unicode="x" horiz-adv-x="1083" d="M1001 1065l-356 -498l418 -567h-240l-288 412l-283 -412h-232l398 553l-373 512h236l254 -358l241 358h225z" />
<glyph unicode="y" horiz-adv-x="1052" d="M1032 1065l-370 -1079q-70 -203 -141.5 -294t-207.5 -91q-53 0 -127 18v160q57 -14 103 -15q66 0 100.5 48.5t85.5 187.5h-63l-392 1065h213l302 -905l301 905h196z" />
<glyph unicode="z" horiz-adv-x="987" d="M926 879l-633 -711h633v-168h-865v186l633 713h-602v166h834v-186z" />
<glyph unicode="{" horiz-adv-x="696" d="M61 745q82 0 135.5 44.5t53.5 136.5v381q0 178 89 265t286 87v-154q-115 0 -152 -44t-37 -144v-359q0 -240 -174 -301q174 -61 174 -301v-358q0 -100 37 -144t152 -44v-154q-197 0 -286 87t-89 265v381q0 92 -53.5 136t-135.5 44v176z" />
<glyph unicode="|" horiz-adv-x="737" d="M281 1608h176v-1895h-176v1895z" />
<glyph unicode="}" horiz-adv-x="696" d="M635 745v-176q-82 0 -135.5 -44t-53.5 -136v-381q0 -178 -89 -265t-285 -87v154q115 0 151.5 44t36.5 144v358q0 240 174 301q-174 61 -174 301v359q0 100 -37 144t-151 44v154q197 0 285.5 -87t88.5 -265v-381q0 -92 53.5 -136.5t135.5 -44.5z" />
<glyph unicode="~" d="M418 629q-127 0 -234 -92v186q102 82 246 82q88 0 204 -56.5t175 -56.5q129 0 235 92v-186q-102 -82 -245 -82q-88 0 -205 56.5t-176 56.5z" />
<glyph unicode="&#xa1;" horiz-adv-x="583" d="M174 1106h236v-238h-236v238zM215 614h154l41 -983h-236z" />
<glyph unicode="&#xa2;" d="M539 -276v256q-182 31 -293 172t-111 372q0 233 108.5 382t295.5 181v265h182v-262q152 -20 253 -109.5t124 -230.5h-217q-20 86 -83 133t-157 47q-137 0 -217 -103.5t-80 -308.5q0 -186 84 -284.5t215 -98.5q100 0 167 54.5t81 152.5h215q-20 -141 -122.5 -242.5 t-262.5 -124.5v-251h-182z" />
<glyph unicode="&#xa3;" d="M184 635v160h97v274q0 195 117.5 295t297.5 100q160 0 270.5 -82t147.5 -254h-207q-37 170 -217 170q-100 0 -157.5 -60t-57.5 -171v-272h395v-160h-395v-219q0 -152 -115 -236h736v-180h-973v180q158 49 158 223v232h-97z" />
<glyph unicode="&#xa4;" d="M616 377q129 0 218.5 89t89.5 230.5t-89.5 230.5t-218.5 89q-133 0 -222 -89t-89 -230.5t89 -230.5t222 -89zM614.5 207q-157.5 0 -284.5 82l-123 -123l-139 139l127 127q-72 119 -72 264q0 141 70 260l-123 125l139 140l119 -121q127 86 286.5 86t286.5 -86l119 121 l139 -140l-123 -125q70 -119 70 -260q0 -145 -72 -264l127 -127l-139 -139l-123 123q-127 -82 -284.5 -82z" />
<glyph unicode="&#xa5;" d="M719 0h-207v266h-287v150h287v157h-287v150h207l-416 711h230l370 -668l385 668h213l-417 -711h209v-150h-287v-157h287v-150h-287v-266z" />
<glyph unicode="&#xa6;" horiz-adv-x="737" d="M281 1608h176v-789h-176v789zM281 502h176v-789h-176v789z" />
<glyph unicode="&#xa7;" d="M1087 612q0 -195 -194 -282q121 -86 121 -217q0 -137 -106.5 -218t-297.5 -81q-170 0 -287.5 81.5t-154.5 229.5h209q14 -70 76.5 -115t158.5 -45q207 0 207 137q0 63 -49 105.5t-172 73.5q-252 63 -353.5 154t-101.5 229q0 188 187 278q-113 90 -113 223 q0 127 107.5 213t302.5 86q160 0 279.5 -83t156.5 -230h-209q-14 72 -73.5 117t-155.5 45q-106 0 -159.5 -38t-53.5 -101q0 -66 47 -106t174 -73q250 -63 352 -153.5t102 -229.5zM330 678q0 -78 56 -128t222 -97q84 -27 156 -56q137 70 137 195q0 57 -22.5 94t-110.5 81 t-256 87q-29 6 -57 18q-125 -67 -125 -194z" />
<glyph unicode="&#xa8;" horiz-adv-x="798" d="M274 1270h-213v205h213v-205zM737 1270h-213v205h213v-205z" />
<glyph unicode="&#xa9;" horiz-adv-x="1810" d="M1688 737.5q0 -194.5 -69 -346t-183.5 -241t-249.5 -135.5t-280.5 -46t-281 46t-250 135.5t-183 241t-68.5 346t68.5 346t183 240.5t250 135t281 46t280.5 -46t249.5 -135t183.5 -240.5t69 -346zM1518 737q0 299 -179.5 463t-433.5 164t-433 -164t-179 -463t179 -462.5 t433 -163.5t433.5 163.5t179.5 462.5zM1100 596h164q-16 -115 -109.5 -199t-245.5 -84q-47 0 -96 11.5t-102.5 42t-93 76.5t-66.5 122t-27 170q0 219 114 326.5t269 107.5q137 0 234.5 -69.5t115.5 -194.5h-165q-29 137 -181 137q-98 0 -161.5 -74.5t-63.5 -228.5 q0 -162 68.5 -230.5t158.5 -68.5q84 0 131.5 46.5t55.5 109.5z" />
<glyph unicode="&#xaa;" horiz-adv-x="1024" d="M322 1257h-172q16 106 115.5 177t238.5 71q147 0 244.5 -76.5t97.5 -205.5v-598h-125l-29 96q-33 -51 -103.5 -85t-152.5 -34q-121 0 -210 61.5t-89 194.5q0 246 332 287l205 24v43q0 154 -174 154q-155 0 -178 -109zM911 0h-798v174h798v-174zM465 748q82 0 145.5 51 t63.5 127v104l-164 -18q-197 -23 -197 -146q0 -118 152 -118z" />
<glyph unicode="&#xab;" horiz-adv-x="1044" d="M356 184l-233 461l254 420h137l-160 -426l140 -455h-138zM764 184l-234 461l254 420h138l-160 -426l139 -455h-137z" />
<glyph unicode="&#xac;" d="M1044 229h-186v344h-674v175h860v-519z" />
<glyph unicode="&#xad;" horiz-adv-x="1105" d="M922 573h-738v175h738v-175z" />
<glyph unicode="&#xae;" horiz-adv-x="1318" d="M659.5 514q-90.5 0 -178.5 28.5t-164.5 85t-125 156t-48.5 226.5t48.5 226t125 155.5t164.5 85t178.5 28.5t178.5 -28.5t164.5 -85t125 -155.5t48.5 -226t-48.5 -226.5t-125 -156t-164.5 -85t-178.5 -28.5zM659.5 623q159.5 0 273.5 95t114 291.5t-114 292t-273.5 95.5 t-273.5 -95.5t-114 -292t114 -291.5t273.5 -95zM864 752h-116l-95 190h-45v-190h-102v522h151q80 0 132.5 -42t52.5 -120q0 -98 -90 -145zM651 1192h-43v-166h47q35 0 56.5 23.5t21.5 62.5q0 37 -21.5 58.5t-60.5 21.5z" />
<glyph unicode="&#xaf;" horiz-adv-x="675" d="M614 1296h-553v168h553v-168z" />
<glyph unicode="&#xb0;" d="M295 1130.5q0 -88.5 47 -142.5t125 -54t125 54t47 142.5t-47 142.5t-125 54t-125 -54t-47 -142.5zM811 1130.5q0 -155.5 -101.5 -247.5t-242.5 -92t-242.5 92t-101.5 247.5t101.5 247.5t242.5 92t242.5 -92t101.5 -247.5z" />
<glyph unicode="&#xb1;" d="M707 1090v-342h337v-175h-337v-262h-187v262h-336v175h336v342h187zM1044 0h-860v174h860v-174z" />
<glyph unicode="&#xb2;" horiz-adv-x="696" d="M248 1425h-158q2 94 79 164t191 70q106 0 181 -63.5t75 -172.5q0 -119 -180 -290l-137 -134h305v-139h-498v139l250 248q102 102 103 180q0 109 -105 109q-98 0 -106 -111z" />
<glyph unicode="&#xb3;" horiz-adv-x="696" d="M225 1450h-159q16 102 98 155.5t182 53.5q98 0 172 -56.5t74 -160.5q0 -55 -37 -100.5t-98 -65.5q68 -14 117 -63.5t49 -135.5q0 -96 -82 -162.5t-201 -66.5q-121 0 -196.5 61.5t-84.5 149.5h164q4 -37 38 -63.5t75 -26.5q61 0 93 33.5t32 87.5q0 123 -137 122h-48v117 h41q49 0 84 27.5t35 83.5q0 43 -27.5 69.5t-74.5 26.5q-95 0 -109 -86z" />
<glyph unicode="&#xb4;" horiz-adv-x="585" d="M61 1225l209 280h254l-286 -280h-177z" />
<glyph unicode="&#xb5;" horiz-adv-x="1163" d="M823 1065h197v-1065h-162l-20 115q-109 -145 -301 -146q-104 0 -197 62v-400h-197v1434h197v-698q0 -125 62.5 -177.5t158.5 -52.5q125 0 193.5 79t68.5 192v657z" />
<glyph unicode="&#xb6;" d="M463 1475h176v-1844h-176v1137q-35 0 -75 10t-86 36t-83 63.5t-61.5 101t-24.5 141.5q0 96 36 170t91 112t107.5 55.5t95.5 17.5zM899 1475h176v-1844h-176v1844z" />
<glyph unicode="&#xb7;" horiz-adv-x="614" d="M426 532h-238v238h238v-238z" />
<glyph unicode="&#xb8;" horiz-adv-x="622" d="M573 -287q0 -98 -73.5 -160.5t-190.5 -62.5q-102 0 -176 55.5t-88 151.5h154q4 -33 34.5 -57.5t77.5 -24.5q49 0 80 25.5t31 70.5q0 102 -193 103l21 227h137v-127q186 -41 186 -201z" />
<glyph unicode="&#xb9;" horiz-adv-x="696" d="M596 860h-463v139h172v486l-201 -113v154l193 112h160v-639h139v-139z" />
<glyph unicode="&#xba;" horiz-adv-x="1024" d="M891 0h-778v174h778v-174zM117 1055q0 129 33.5 222t94 140t126 67.5t143.5 20.5t143.5 -20.5t126 -67.5t94 -139t33.5 -223t-34.5 -224.5t-94 -140.5t-125 -67.5t-143.5 -20.5t-143.5 20.5t-125 68.5t-94 141.5t-34.5 222.5zM295 1055q0 -158 59.5 -235t159.5 -77 t159.5 76t59.5 235.5t-60.5 234.5t-158.5 75t-158.5 -76.5t-60.5 -232.5z" />
<glyph unicode="&#xbb;" horiz-adv-x="1044" d="M922 645l-234 -461h-137l139 455l-160 426h138zM514 645l-233 -461h-138l140 455l-160 426h137z" />
<glyph unicode="&#xbc;" horiz-adv-x="1802" d="M606 655h-463v140h172v485l-200 -113v154l192 113h160v-639h139v-140zM1462 492h119v-211h105v-136h-105v-145h-145v145h-301v144l172 489h155l-174 -497h148v47zM1569 1618l-1075 -1802h-211l1073 1802h213z" />
<glyph unicode="&#xbd;" horiz-adv-x="1802" d="M1335 565h-157q2 94 78.5 164t191.5 70q106 0 181 -63.5t75 -172.5q0 -119 -180 -291l-138 -133h306v-139h-498v139l250 248q102 102 102 180q0 109 -104 109q-99 0 -107 -111zM594 655h-463v140h172v485l-201 -113v154l193 113h160v-639h139v-140zM1556 1618 l-1075 -1802h-211l1073 1802h213z" />
<glyph unicode="&#xbe;" horiz-adv-x="1802" d="M262 1255h-160q16 102 98.5 155.5t182.5 53.5q98 0 172 -56t74 -161q0 -55 -37 -100t-98 -66q68 -14 116.5 -63t48.5 -135q0 -96 -81.5 -163t-200.5 -67q-121 0 -197 61.5t-84 149.5h164q4 -37 38 -63.5t75 -26.5q61 0 93 34t32 87q0 123 -138 123h-47v117h41 q49 0 84 27.5t35 82.5q0 43 -27.5 69.5t-74.5 26.5q-95 0 -109 -86zM1468 492h119v-211h105v-136h-105v-145h-145v145h-301v144l172 489h155l-174 -497h148v47zM1575 1618l-1075 -1802h-211l1073 1802h213z" />
<glyph unicode="&#xbf;" horiz-adv-x="1193" d="M487 1106h236v-238h-236v238zM512 678h195q0 -176 -52.5 -273.5t-189.5 -166.5q-172 -88 -172 -256q0 -94 75.5 -151.5t200.5 -57.5q274 0 310 237h213q-31 -197 -170.5 -303t-358.5 -106q-215 0 -348 109.5t-133 271.5q0 258 301 426q76 41 102.5 100t26.5 170z" />
<glyph unicode="&#xc0;" horiz-adv-x="1445" d="M1446 0h-232l-145 373h-702l-148 -373h-219l606 1475h236zM721 1266l-287 -723h567zM686 1853l209 -280h-176l-287 280h254z" />
<glyph unicode="&#xc1;" horiz-adv-x="1445" d="M1446 0h-232l-145 373h-702l-148 -373h-219l606 1475h236zM721 1266l-287 -723h567zM553 1573l209 280h254l-287 -280h-176z" />
<glyph unicode="&#xc2;" horiz-adv-x="1445" d="M1446 0h-232l-145 373h-702l-148 -373h-219l606 1475h236zM721 1266l-287 -723h567zM836 1853l239 -280h-198l-154 168l-154 -168h-198l241 280h224z" />
<glyph unicode="&#xc3;" horiz-adv-x="1445" d="M1446 0h-232l-145 373h-702l-148 -373h-219l606 1475h236zM721 1266l-287 -723h567zM836 1599q-70 0 -133.5 39t-112.5 39q-76 0 -174 -78v166q94 68 182 68q70 0 133.5 -39t112.5 -39q68 0 166 78v-166q-94 -68 -174 -68z" />
<glyph unicode="&#xc4;" horiz-adv-x="1445" d="M1446 0h-232l-145 373h-702l-148 -373h-219l606 1475h236zM721 1266l-287 -723h567zM596 1618h-213v205h213v-205zM1059 1618h-213v205h213v-205z" />
<glyph unicode="&#xc5;" horiz-adv-x="1445" d="M985 1638q0 -143 -125 -211l586 -1427h-232l-145 373h-702l-148 -373h-219l584 1419q-137 61 -138 219q0 106 73 176t196 70t196.5 -70t73.5 -176zM721 1266l-287 -723h567zM586 1638.5q0 -57.5 34.5 -93.5t94 -36t95.5 36t36 93q0 59 -36 94t-95.5 35t-94 -35.5 t-34.5 -93z" />
<glyph unicode="&#xc6;" horiz-adv-x="2000" d="M1898 176v-176h-878v373h-567l-228 -373h-225l907 1475h991v-177h-669v-462h610v-172h-610v-488h669zM557 543h463v753z" />
<glyph unicode="&#xc7;" horiz-adv-x="1492" d="M1034 -287q0 -98 -73.5 -160.5t-190.5 -62.5q-102 0 -176 55.5t-88 151.5h153q4 -33 35 -57.5t78 -24.5q49 0 80 25.5t31 70.5q0 102 -193 103l15 157q-285 23 -449 221.5t-164 544.5q0 365 190.5 566.5t501.5 201.5q258 0 433.5 -147.5t191.5 -356.5h-211 q-20 152 -132 241t-282 89q-219 0 -349 -151.5t-130 -442.5q0 -281 128 -436.5t339 -155.5q178 0 298 106.5t130 268.5h211q-12 -207 -168 -364.5t-395 -182.5v-59q186 -41 186 -201z" />
<glyph unicode="&#xc8;" horiz-adv-x="1175" d="M1014 836v-172h-652v-488h711v-176h-919v1475h919v-177h-711v-462h652zM571 1853l209 -280h-176l-287 280h254z" />
<glyph unicode="&#xc9;" horiz-adv-x="1175" d="M1014 836v-172h-652v-488h711v-176h-919v1475h919v-177h-711v-462h652zM473 1573l209 280h254l-287 -280h-176z" />
<glyph unicode="&#xca;" horiz-adv-x="1175" d="M1014 836v-172h-652v-488h711v-176h-919v1475h919v-177h-711v-462h652zM721 1853l240 -280h-199l-154 168l-153 -168h-199l242 280h223z" />
<glyph unicode="&#xcb;" horiz-adv-x="1175" d="M1014 836v-172h-652v-488h711v-176h-919v1475h919v-177h-711v-462h652zM492 1618h-213v205h213v-205zM954 1618h-213v205h213v-205z" />
<glyph unicode="&#xcc;" horiz-adv-x="516" d="M154 1475h208v-1475h-208v1475zM215 1853l209 -280h-176l-287 280h254z" />
<glyph unicode="&#xcd;" horiz-adv-x="516" d="M154 1475h208v-1475h-208v1475zM86 1573l209 280h254l-287 -280h-176z" />
<glyph unicode="&#xce;" horiz-adv-x="516" d="M154 1475h208v-1475h-208v1475zM371 1853l239 -280h-198l-154 168l-154 -168h-198l241 280h224z" />
<glyph unicode="&#xcf;" horiz-adv-x="516" d="M154 1475h208v-1475h-208v1475zM133 1618h-213v205h213v-205zM596 1618h-213v205h213v-205z" />
<glyph unicode="&#xd0;" horiz-adv-x="1449" d="M154 0v686h-103v176h103v613h479q338 0 531.5 -184.5t193.5 -553.5q0 -350 -204 -543.5t-536 -193.5h-464zM782 686h-420v-514h277q244 0 376 144.5t132 420.5q0 285 -135 428.5t-377 143.5h-273v-447h420v-176z" />
<glyph unicode="&#xd1;" horiz-adv-x="1472" d="M1133 1475h186v-1475h-264l-711 1235v-1235h-190v1475h276l703 -1225v1225zM877 1599q-70 0 -133.5 39t-112.5 39q-76 0 -174 -78v166q94 68 182 68q70 0 133.5 -39t112.5 -39q68 0 166 78v-166q-94 -68 -174 -68z" />
<glyph unicode="&#xd2;" horiz-adv-x="1585" d="M793 -31q-313 0 -507 205t-194 563q0 360 200 564t503 204q305 0 501.5 -200.5t196.5 -567.5q0 -356 -196.5 -562t-503.5 -206zM792.5 139q221.5 0 354.5 157t133 441.5t-133 441t-354.5 156.5t-354.5 -156.5t-133 -441t133 -441.5t354.5 -157zM745 1853l209 -280h-176 l-286 280h253z" />
<glyph unicode="&#xd3;" horiz-adv-x="1585" d="M793 -31q-313 0 -507 205t-194 563q0 360 200 564t503 204q305 0 501.5 -200.5t196.5 -567.5q0 -356 -196.5 -562t-503.5 -206zM792.5 139q221.5 0 354.5 157t133 441.5t-133 441t-354.5 156.5t-354.5 -156.5t-133 -441t133 -441.5t354.5 -157zM637 1573l209 280h254 l-287 -280h-176z" />
<glyph unicode="&#xd4;" horiz-adv-x="1585" d="M793 -31q-313 0 -507 205t-194 563q0 360 200 564t503 204q305 0 501.5 -200.5t196.5 -567.5q0 -356 -196.5 -562t-503.5 -206zM792.5 139q221.5 0 354.5 157t133 441.5t-133 441t-354.5 156.5t-354.5 -156.5t-133 -441t133 -441.5t354.5 -157zM891 1853l239 -280h-198 l-154 168l-153 -168h-199l242 280h223z" />
<glyph unicode="&#xd5;" horiz-adv-x="1585" d="M793 -31q-313 0 -507 205t-194 563q0 360 200 564t503 204q305 0 501.5 -200.5t196.5 -567.5q0 -356 -196.5 -562t-503.5 -206zM792.5 139q221.5 0 354.5 157t133 441.5t-133 441t-354.5 156.5t-354.5 -156.5t-133 -441t133 -441.5t354.5 -157zM909 1599q-70 0 -133 39 t-112 39q-76 0 -175 -78v166q94 68 183 68q70 0 133 -39t113 -39q68 0 165 78v-166q-94 -68 -174 -68z" />
<glyph unicode="&#xd6;" horiz-adv-x="1585" d="M793 -31q-313 0 -507 205t-194 563q0 360 200 564t503 204q305 0 501.5 -200.5t196.5 -567.5q0 -356 -196.5 -562t-503.5 -206zM792.5 139q221.5 0 354.5 157t133 441.5t-133 441t-354.5 156.5t-354.5 -156.5t-133 -441t133 -441.5t354.5 -157zM647 1618h-213v205h213 v-205zM1110 1618h-213v205h213v-205z" />
<glyph unicode="&#xd7;" d="M369 1024l243 -242l248 244l123 -123l-246 -244l246 -243l-123 -123l-248 244l-243 -242l-123 123l243 241l-243 242z" />
<glyph unicode="&#xd8;" horiz-adv-x="1585" d="M793 -31q-88 0 -183 23l-75 -217h-183l97 274q-356 186 -357 688q0 201 62.5 354.5t166 240.5t223.5 130t249 43q88 0 184 -22l74 196h182l-94 -256q162 -84 258 -255t96 -431q0 -201 -62.5 -354.5t-166 -240.5t-223 -130t-248.5 -43zM793 139q221 0 354 157t133 441 q0 367 -217 518l-401 -1099q65 -17 131 -17zM305 737q0 -369 217 -520l398 1102q-61 16 -127 16q-221 0 -354.5 -156.5t-133.5 -441.5z" />
<glyph unicode="&#xd9;" horiz-adv-x="1447" d="M143 1475h209v-1000q0 -150 98.5 -240t276.5 -90t276.5 90.5t98.5 239.5v1000h203v-981q0 -242 -158 -383.5t-422 -141.5q-266 0 -424 142.5t-158 382.5v981zM694 1853l209 -280h-176l-287 280h254z" />
<glyph unicode="&#xda;" horiz-adv-x="1447" d="M143 1475h209v-1000q0 -150 98.5 -240t276.5 -90t276.5 90.5t98.5 239.5v1000h203v-981q0 -242 -158 -383.5t-422 -141.5q-266 0 -424 142.5t-158 382.5v981zM567 1573l209 280h254l-287 -280h-176z" />
<glyph unicode="&#xdb;" horiz-adv-x="1447" d="M143 1475h209v-1000q0 -150 98.5 -240t276.5 -90t276.5 90.5t98.5 239.5v1000h203v-981q0 -242 -158 -383.5t-422 -141.5q-266 0 -424 142.5t-158 382.5v981zM842 1853l239 -280h-198l-154 168l-154 -168h-198l241 280h224z" />
<glyph unicode="&#xdc;" horiz-adv-x="1447" d="M143 1475h209v-1000q0 -150 98.5 -240t276.5 -90t276.5 90.5t98.5 239.5v1000h203v-981q0 -242 -158 -383.5t-422 -141.5q-266 0 -424 142.5t-158 382.5v981zM596 1618h-213v205h213v-205zM1059 1618h-213v205h213v-205z" />
<glyph unicode="&#xdd;" horiz-adv-x="1288" d="M748 0h-207v586l-541 889h229l416 -709l430 709h213l-540 -889v-586zM549 1573l209 280h254l-287 -280h-176z" />
<glyph unicode="&#xde;" horiz-adv-x="1261" d="M1210 741.5q0 -239.5 -157.5 -366.5t-427.5 -127h-263v-248h-208v1475h208v-238h263q270 0 427.5 -128t157.5 -367.5zM629 1067h-267v-649h267q365 0 364 323q0 158 -91 242t-273 84z" />
<glyph unicode="&#xdf;" horiz-adv-x="1234" d="M788 -31q-334 0 -378 289h200q18 -123 178 -123q96 0 150.5 48t54.5 134q0 84 -37.5 135.5t-134.5 98.5q-141 70 -190 126t-49 159q0 55 28.5 102t64.5 76.5t64.5 75t28.5 94.5q0 68 -57.5 110.5t-151.5 42.5q-102 0 -160.5 -68.5t-58.5 -191.5v-1077h-197v1073 q0 190 112 311t304 121q168 0 286 -79.5t118 -231.5q0 -76 -31 -133t-67 -86t-66.5 -67t-30.5 -77q0 -35 29.5 -64.5t120.5 -72.5q150 -72 213 -157.5t63 -210.5q0 -139 -111 -248t-295 -109z" />
<glyph unicode="&#xe0;" horiz-adv-x="1126" d="M311 768h-209q16 150 138 239t319 89q205 0 319.5 -100.5t114.5 -268.5v-727h-162l-24 145q-125 -176 -356 -176q-172 0 -270.5 86t-98.5 219q0 147 95 232.5t308 122.5l312 53v53q0 98 -63.5 151.5t-182.5 53.5q-217 0 -240 -172zM498 135q115 0 207 75t92 181v137 l-265 -47q-137 -23 -189 -66.5t-52 -119.5q0 -78 53.5 -119t153.5 -41zM475 1505l209 -280h-176l-287 280h254z" />
<glyph unicode="&#xe1;" horiz-adv-x="1126" d="M311 768h-209q16 150 138 239t319 89q205 0 319.5 -100.5t114.5 -268.5v-727h-162l-24 145q-125 -176 -356 -176q-172 0 -270.5 86t-98.5 219q0 147 95 232.5t308 122.5l312 53v53q0 98 -63.5 151.5t-182.5 53.5q-217 0 -240 -172zM498 135q115 0 207 75t92 181v137 l-265 -47q-137 -23 -189 -66.5t-52 -119.5q0 -78 53.5 -119t153.5 -41zM459 1225l209 280h254l-287 -280h-176z" />
<glyph unicode="&#xe2;" horiz-adv-x="1126" d="M311 768h-209q16 150 138 239t319 89q205 0 319.5 -100.5t114.5 -268.5v-727h-162l-24 145q-125 -176 -356 -176q-172 0 -270.5 86t-98.5 219q0 147 95 232.5t308 122.5l312 53v53q0 98 -63.5 151.5t-182.5 53.5q-217 0 -240 -172zM498 135q115 0 207 75t92 181v137 l-265 -47q-137 -23 -189 -66.5t-52 -119.5q0 -78 53.5 -119t153.5 -41zM670 1505l239 -280h-198l-154 168l-154 -168h-198l241 280h224z" />
<glyph unicode="&#xe3;" horiz-adv-x="1126" d="M311 768h-209q16 150 138 239t319 89q205 0 319.5 -100.5t114.5 -268.5v-727h-162l-24 145q-125 -176 -356 -176q-172 0 -270.5 86t-98.5 219q0 147 95 232.5t308 122.5l312 53v53q0 98 -63.5 151.5t-182.5 53.5q-217 0 -240 -172zM498 135q115 0 207 75t92 181v137 l-265 -47q-137 -23 -189 -66.5t-52 -119.5q0 -78 53.5 -119t153.5 -41zM682 1251q-68 0 -131.5 39t-114.5 39q-76 0 -174 -78v166q94 68 182 68q70 0 133.5 -39t112.5 -39q68 0 166 78v-166q-94 -68 -174 -68z" />
<glyph unicode="&#xe4;" horiz-adv-x="1126" d="M311 768h-209q16 150 138 239t319 89q205 0 319.5 -100.5t114.5 -268.5v-727h-162l-24 145q-125 -176 -356 -176q-172 0 -270.5 86t-98.5 219q0 147 95 232.5t308 122.5l312 53v53q0 98 -63.5 151.5t-182.5 53.5q-217 0 -240 -172zM498 135q115 0 207 75t92 181v137 l-265 -47q-137 -23 -189 -66.5t-52 -119.5q0 -78 53.5 -119t153.5 -41zM430 1270h-213v205h213v-205zM893 1270h-213v205h213v-205z" />
<glyph unicode="&#xe5;" horiz-adv-x="1126" d="M311 768h-209q16 150 138 239t319 89q205 0 319.5 -100.5t114.5 -268.5v-727h-162l-24 145q-125 -176 -356 -176q-172 0 -270.5 86t-98.5 219q0 147 95 232.5t308 122.5l312 53v53q0 98 -63.5 151.5t-182.5 53.5q-217 0 -240 -172zM498 135q115 0 207 75t92 181v137 l-265 -47q-137 -23 -189 -66.5t-52 -119.5q0 -78 53.5 -119t153.5 -41zM432 1433.5q0 -57.5 36 -93t93 -35.5q59 0 95 35.5t36 93.5q0 59 -35.5 94t-95.5 35q-57 0 -93 -36t-36 -93.5zM831 1433.5q0 -106.5 -73.5 -176t-196.5 -69.5t-195.5 69.5t-72.5 176t72.5 176 t195.5 69.5t196.5 -69.5t73.5 -176z" />
<glyph unicode="&#xe6;" horiz-adv-x="1900" d="M1583 307h213q-41 -154 -168 -246t-309 -92q-297 0 -432 219q-57 -96 -166 -157.5t-248 -61.5q-176 0 -283.5 78t-107.5 232q0 281 391 329l324 41v86q0 96 -62.5 150.5t-183.5 54.5q-221 0 -240 -172h-209q18 154 140.5 241t316.5 87q258 0 367 -172q139 172 383 172 q231 0 365 -145.5t134 -446.5h-811q4 -106 36 -183t83 -115t101.5 -54.5t107.5 -16.5q96 0 164.5 48t93.5 124zM498 135q106 0 199.5 68.5t99.5 171.5v121l-277 -35q-129 -16 -179 -56t-50 -116q0 -68 49 -111t158 -43zM1313 938q-113 0 -196 -67.5t-109 -211.5h600 q-10 137 -89 208t-206 71z" />
<glyph unicode="&#xe7;" horiz-adv-x="1134" d="M842 -287q0 -98 -74 -160.5t-190 -62.5q-102 0 -176 55.5t-89 151.5h154q4 -33 34.5 -57.5t78.5 -24.5q49 0 79.5 25.5t30.5 70.5q0 102 -192 103l14 161q-193 25 -311.5 167.5t-118.5 381.5q0 264 137 418t365 154q184 0 309 -92.5t151 -253.5h-217q-20 86 -82.5 133 t-156.5 47q-137 0 -217 -103.5t-80 -308.5q0 -186 84 -284.5t215 -98.5q100 0 166.5 54.5t81.5 152.5h215q-20 -145 -126 -246.5t-272 -122.5v-59q187 -41 187 -201z" />
<glyph unicode="&#xe8;" horiz-adv-x="1185" d="M868 307h213q-41 -152 -165.5 -245t-311.5 -93q-236 0 -379 145.5t-143 417.5q0 270 141.5 417t370.5 147q233 0 366.5 -148.5t133.5 -458.5h-811q12 -178 100 -266t227 -88q94 0 163.5 48t94.5 124zM598 938q-121 0 -203 -75t-104 -218h602q-10 145 -89 219t-206 74z M496 1505l209 -280h-177l-286 280h254z" />
<glyph unicode="&#xe9;" horiz-adv-x="1185" d="M868 307h213q-41 -152 -165.5 -245t-311.5 -93q-236 0 -379 145.5t-143 417.5q0 270 141.5 417t370.5 147q233 0 366.5 -148.5t133.5 -458.5h-811q12 -178 100 -266t227 -88q94 0 163.5 48t94.5 124zM598 938q-121 0 -203 -75t-104 -218h602q-10 145 -89 219t-206 74z M483 1225l209 280h254l-287 -280h-176z" />
<glyph unicode="&#xea;" horiz-adv-x="1185" d="M868 307h213q-41 -152 -165.5 -245t-311.5 -93q-236 0 -379 145.5t-143 417.5q0 270 141.5 417t370.5 147q233 0 366.5 -148.5t133.5 -458.5h-811q12 -178 100 -266t227 -88q94 0 163.5 48t94.5 124zM598 938q-121 0 -203 -75t-104 -218h602q-10 145 -89 219t-206 74z M700 1505l240 -280h-199l-153 168l-154 -168h-198l241 280h223z" />
<glyph unicode="&#xeb;" horiz-adv-x="1185" d="M868 307h213q-41 -152 -165.5 -245t-311.5 -93q-236 0 -379 145.5t-143 417.5q0 270 141.5 417t370.5 147q233 0 366.5 -148.5t133.5 -458.5h-811q12 -178 100 -266t227 -88q94 0 163.5 48t94.5 124zM598 938q-121 0 -203 -75t-104 -218h602q-10 145 -89 219t-206 74z M459 1270h-213v205h213v-205zM922 1270h-213v205h213v-205z" />
<glyph unicode="&#xec;" horiz-adv-x="483" d="M340 0h-197v1065h197v-1065zM176 1505l209 -280h-176l-287 280h254z" />
<glyph unicode="&#xed;" horiz-adv-x="483" d="M340 0h-197v1065h197v-1065zM111 1225l208 280h254l-286 -280h-176z" />
<glyph unicode="&#xee;" horiz-adv-x="483" d="M340 0h-197v1065h197v-1065zM354 1505l240 -280h-199l-153 168l-154 -168h-199l242 280h223z" />
<glyph unicode="&#xef;" horiz-adv-x="483" d="M340 0h-197v1065h197v-1065zM117 1270h-213v205h213v-205zM580 1270h-213v205h213v-205z" />
<glyph unicode="&#xf0;" horiz-adv-x="1189" d="M315 1354v184q221 -47 375 -125l60 62h211l-140 -146q274 -217 275 -674q0 -330 -137.5 -508t-374.5 -178q-221 0 -361.5 138.5t-140.5 379.5q0 225 133 363.5t332 138.5q115 0 218 -53t142 -133q-37 266 -205 401l-61 -65h-211l139 145q-107 47 -254 70zM571 825 q-131 0 -209.5 -90t-78.5 -258q0 -180 85 -262t216 -82q137 0 227 95.5t90 252.5q0 160 -91.5 252t-238.5 92z" />
<glyph unicode="&#xf1;" horiz-adv-x="1161" d="M340 0h-197v1065h162l23 -135q119 166 323 166q176 0 276.5 -104.5t100.5 -297.5v-694h-197v692q0 236 -227 236q-111 0 -187.5 -74t-76.5 -197v-657zM725 1251q-70 0 -133.5 39t-112.5 39q-76 0 -174 -78v166q94 68 182 68q70 0 133.5 -39t112.5 -39q68 0 166 78v-166 q-94 -68 -174 -68z" />
<glyph unicode="&#xf2;" horiz-adv-x="1214" d="M82 532q0 274 148.5 419t377.5 145q231 0 378 -144.5t147 -419.5q0 -270 -145.5 -416.5t-381.5 -146.5q-231 0 -377.5 147.5t-146.5 415.5zM287 532.5q0 -192.5 90 -298t233 -105.5q145 0 231.5 104.5t86.5 298.5q0 197 -88 300.5t-232 103.5q-141 0 -231 -105.5 t-90 -298zM528 1505l209 -280h-176l-287 280h254z" />
<glyph unicode="&#xf3;" horiz-adv-x="1214" d="M82 532q0 274 148.5 419t377.5 145q231 0 378 -144.5t147 -419.5q0 -270 -145.5 -416.5t-381.5 -146.5q-231 0 -377.5 147.5t-146.5 415.5zM287 532.5q0 -192.5 90 -298t233 -105.5q145 0 231.5 104.5t86.5 298.5q0 197 -88 300.5t-232 103.5q-141 0 -231 -105.5 t-90 -298zM487 1225l209 280h254l-286 -280h-177z" />
<glyph unicode="&#xf4;" horiz-adv-x="1214" d="M82 532q0 274 148.5 419t377.5 145q231 0 378 -144.5t147 -419.5q0 -270 -145.5 -416.5t-381.5 -146.5q-231 0 -377.5 147.5t-146.5 415.5zM287 532.5q0 -192.5 90 -298t233 -105.5q145 0 231.5 104.5t86.5 298.5q0 197 -88 300.5t-232 103.5q-141 0 -231 -105.5 t-90 -298zM709 1505l239 -280h-198l-154 168l-154 -168h-198l241 280h224z" />
<glyph unicode="&#xf5;" horiz-adv-x="1214" d="M82 532q0 274 148.5 419t377.5 145q231 0 378 -144.5t147 -419.5q0 -270 -145.5 -416.5t-381.5 -146.5q-231 0 -377.5 147.5t-146.5 415.5zM287 532.5q0 -192.5 90 -298t233 -105.5q145 0 231.5 104.5t86.5 298.5q0 197 -88 300.5t-232 103.5q-141 0 -231 -105.5 t-90 -298zM723 1251q-68 0 -131.5 39t-114.5 39q-76 0 -174 -78v166q94 68 182 68q70 0 133.5 -39t112.5 -39q68 0 166 78v-166q-94 -68 -174 -68z" />
<glyph unicode="&#xf6;" horiz-adv-x="1214" d="M82 532q0 274 148.5 419t377.5 145q231 0 378 -144.5t147 -419.5q0 -270 -145.5 -416.5t-381.5 -146.5q-231 0 -377.5 147.5t-146.5 415.5zM287 532.5q0 -192.5 90 -298t233 -105.5q145 0 231.5 104.5t86.5 298.5q0 197 -88 300.5t-232 103.5q-141 0 -231 -105.5 t-90 -298zM481 1270h-213v205h213v-205zM944 1270h-213v205h213v-205z" />
<glyph unicode="&#xf7;" d="M733 131h-237v238h237v-238zM733 950h-237v238h237v-238zM1044 573h-860v175h860v-175z" />
<glyph unicode="&#xf8;" horiz-adv-x="1214" d="M82 532q0 274 148.5 419t377.5 145q88 0 158 -21l100 215h183l-131 -282q215 -147 215 -476q0 -270 -145.5 -416.5t-381.5 -146.5q-86 0 -155 21l-99 -215h-186l131 282q-215 151 -215 475zM287 532q0 -199 98 -307l317 697q-43 14 -94 14q-141 0 -231 -105.5t-90 -298.5 zM928 532q0 199 -97 308l-315 -699q45 -12 94 -12q145 0 231.5 104t86.5 299z" />
<glyph unicode="&#xf9;" horiz-adv-x="1153" d="M133 1065h197v-698q0 -229 221 -230q127 0 194.5 81t67.5 198v649h197v-1065h-162l-23 123q-113 -154 -319 -154q-170 0 -271.5 101.5t-101.5 300.5v694zM506 1505l209 -280h-176l-287 280h254z" />
<glyph unicode="&#xfa;" horiz-adv-x="1153" d="M133 1065h197v-698q0 -229 221 -230q127 0 194.5 81t67.5 198v649h197v-1065h-162l-23 123q-113 -154 -319 -154q-170 0 -271.5 101.5t-101.5 300.5v694zM442 1225l209 280h254l-287 -280h-176z" />
<glyph unicode="&#xfb;" horiz-adv-x="1153" d="M133 1065h197v-698q0 -229 221 -230q127 0 194.5 81t67.5 198v649h197v-1065h-162l-23 123q-113 -154 -319 -154q-170 0 -271.5 101.5t-101.5 300.5v694zM686 1505l240 -280h-199l-154 168l-153 -168h-199l242 280h223z" />
<glyph unicode="&#xfc;" horiz-adv-x="1153" d="M133 1065h197v-698q0 -229 221 -230q127 0 194.5 81t67.5 198v649h197v-1065h-162l-23 123q-113 -154 -319 -154q-170 0 -271.5 101.5t-101.5 300.5v694zM444 1270h-213v205h213v-205zM907 1270h-213v205h213v-205z" />
<glyph unicode="&#xfd;" horiz-adv-x="1052" d="M1032 1065l-370 -1079q-70 -203 -141.5 -294t-207.5 -91q-53 0 -127 18v160q57 -14 103 -15q66 0 100.5 48.5t85.5 187.5h-63l-392 1065h213l302 -905l301 905h196zM426 1225l209 280h254l-287 -280h-176z" />
<glyph unicode="&#xfe;" horiz-adv-x="1247" d="M342 -369h-199v1844h197v-557q125 178 356 178q88 0 168 -30t149.5 -91.5t110.5 -174t41 -259.5q0 -276 -136 -424t-347 -148q-223 0 -340 166v-504zM961 545q0 207 -92.5 295t-217.5 88q-150 0 -235.5 -106.5t-85.5 -276.5t79.5 -289t241.5 -119q131 0 220.5 94.5 t89.5 313.5z" />
<glyph unicode="&#xff;" horiz-adv-x="1052" d="M1032 1065l-370 -1079q-70 -203 -141.5 -294t-207.5 -91q-53 0 -127 18v160q57 -14 103 -15q66 0 100.5 48.5t85.5 187.5h-63l-392 1065h213l302 -905l301 905h196zM401 1270h-213v205h213v-205zM864 1270h-213v205h213v-205z" />
<glyph unicode="&#x100;" horiz-adv-x="1445" d="M1446 0h-232l-145 373h-702l-148 -373h-219l606 1475h236zM721 1266l-287 -723h567zM993 1645h-553v167h553v-167z" />
<glyph unicode="&#x101;" horiz-adv-x="1126" d="M311 768h-209q16 150 138 239t319 89q205 0 319.5 -100.5t114.5 -268.5v-727h-162l-24 145q-125 -176 -356 -176q-172 0 -270.5 86t-98.5 219q0 147 95 232.5t308 122.5l312 53v53q0 98 -63.5 151.5t-182.5 53.5q-217 0 -240 -172zM498 135q115 0 207 75t92 181v137 l-265 -47q-137 -23 -189 -66.5t-52 -119.5q0 -78 53.5 -119t153.5 -41zM823 1296h-553v168h553v-168z" />
<glyph unicode="&#x102;" horiz-adv-x="1445" d="M1446 0h-232l-145 373h-702l-148 -373h-219l606 1475h236zM721 1266l-287 -723h567zM715 1581q-127 0 -204 70.5t-93 201.5h172q10 -141 124.5 -141t125.5 141h172q-16 -131 -94 -201.5t-203 -70.5z" />
<glyph unicode="&#x103;" horiz-adv-x="1126" d="M311 768h-209q16 150 138 239t319 89q205 0 319.5 -100.5t114.5 -268.5v-727h-162l-24 145q-125 -176 -356 -176q-172 0 -270.5 86t-98.5 219q0 147 95 232.5t308 122.5l312 53v53q0 98 -63.5 151.5t-182.5 53.5q-217 0 -240 -172zM498 135q115 0 207 75t92 181v137 l-265 -47q-137 -23 -189 -66.5t-52 -119.5q0 -78 53.5 -119t153.5 -41zM557 1233q-127 0 -204 70.5t-93 201.5h172q10 -141 125 -141t125 141h172q-16 -131 -94 -201.5t-203 -70.5z" />
<glyph unicode="&#x104;" horiz-adv-x="1445" d="M1446 0h-55q-233 -133 -234 -258q0 -117 117 -117q86 0 102 70h160q-27 -94 -98.5 -147.5t-171.5 -53.5q-117 0 -192 59.5t-75 157.5q0 80 58.5 159t156.5 130l-145 373h-702l-148 -373h-219l606 1475h236zM721 1266l-287 -723h567z" />
<glyph unicode="&#x105;" horiz-adv-x="1126" d="M311 768h-209q16 150 138 239t319 89q205 0 319.5 -100.5t114.5 -268.5v-727q-233 -133 -233 -258q0 -117 117 -117q86 0 102 70h160q-27 -94 -98.5 -147.5t-172.5 -53.5q-117 0 -191.5 59.5t-74.5 157.5q0 82 62.5 164t164.5 131l-22 139q-125 -176 -356 -176 q-172 0 -270.5 86t-98.5 219q0 147 95 232.5t308 122.5l312 53v53q0 98 -63.5 151.5t-182.5 53.5q-217 0 -240 -172zM797 387v141l-265 -47q-137 -23 -189 -66.5t-52 -119.5q0 -78 53 -119t154 -41q111 0 205 73t94 179z" />
<glyph unicode="&#x106;" horiz-adv-x="1492" d="M772 145q178 0 298 106.5t130 268.5h211q-12 -223 -191.5 -387t-451.5 -164q-313 0 -494.5 202t-181.5 566.5t190.5 566t501.5 201.5q258 0 433.5 -147.5t191.5 -356.5h-211q-20 152 -132 241t-282 89q-219 0 -349 -151.5t-130 -442.5q0 -281 128 -436.5t339 -155.5z M639 1573l209 280h254l-287 -280h-176z" />
<glyph unicode="&#x107;" horiz-adv-x="1134" d="M838 342h215q-23 -160 -149 -266.5t-318 -106.5q-221 0 -362.5 146.5t-141.5 408.5q0 264 137 418t365 154q184 0 309 -92.5t151 -253.5h-217q-20 86 -82.5 133t-156.5 47q-137 0 -217 -103.5t-80 -308.5q0 -186 84 -284.5t215 -98.5q100 0 167 54.5t81 152.5zM487 1225 l209 280h254l-286 -280h-177z" />
<glyph unicode="&#x108;" horiz-adv-x="1492" d="M772 145q178 0 298 106.5t130 268.5h211q-12 -223 -191.5 -387t-451.5 -164q-313 0 -494.5 202t-181.5 566.5t190.5 566t501.5 201.5q258 0 433.5 -147.5t191.5 -356.5h-211q-20 152 -132 241t-282 89q-219 0 -349 -151.5t-130 -442.5q0 -281 128 -436.5t339 -155.5z M852 1853l240 -280h-199l-154 168l-153 -168h-199l242 280h223z" />
<glyph unicode="&#x109;" horiz-adv-x="1134" d="M838 342h215q-23 -160 -149 -266.5t-318 -106.5q-221 0 -362.5 146.5t-141.5 408.5q0 264 137 418t365 154q184 0 309 -92.5t151 -253.5h-217q-20 86 -82.5 133t-156.5 47q-137 0 -217 -103.5t-80 -308.5q0 -186 84 -284.5t215 -98.5q100 0 167 54.5t81 152.5zM684 1505 l240 -280h-199l-154 168l-153 -168h-199l242 280h223z" />
<glyph unicode="&#x10a;" horiz-adv-x="1492" d="M772 145q178 0 298 106.5t130 268.5h211q-12 -223 -191.5 -387t-451.5 -164q-313 0 -494.5 202t-181.5 566.5t190.5 566t501.5 201.5q258 0 433.5 -147.5t191.5 -356.5h-211q-20 152 -132 241t-282 89q-219 0 -349 -151.5t-130 -442.5q0 -281 128 -436.5t339 -155.5z M852 1591h-221v232h221v-232z" />
<glyph unicode="&#x10b;" horiz-adv-x="1134" d="M838 342h215q-23 -160 -149 -266.5t-318 -106.5q-221 0 -362.5 146.5t-141.5 408.5q0 264 137 418t365 154q184 0 309 -92.5t151 -253.5h-217q-20 86 -82.5 133t-156.5 47q-137 0 -217 -103.5t-80 -308.5q0 -186 84 -284.5t215 -98.5q100 0 167 54.5t81 152.5zM676 1243 h-221v232h221v-232z" />
<glyph unicode="&#x10c;" horiz-adv-x="1492" d="M772 145q178 0 298 106.5t130 268.5h211q-12 -223 -191.5 -387t-451.5 -164q-313 0 -494.5 202t-181.5 566.5t190.5 566t501.5 201.5q258 0 433.5 -147.5t191.5 -356.5h-211q-20 152 -132 241t-282 89q-219 0 -349 -151.5t-130 -442.5q0 -281 128 -436.5t339 -155.5z M1100 1853l-240 -280h-223l-242 280h199l154 -167l153 167h199z" />
<glyph unicode="&#x10d;" horiz-adv-x="1134" d="M838 342h215q-23 -160 -149 -266.5t-318 -106.5q-221 0 -362.5 146.5t-141.5 408.5q0 264 137 418t365 154q184 0 309 -92.5t151 -253.5h-217q-20 86 -82.5 133t-156.5 47q-137 0 -217 -103.5t-80 -308.5q0 -186 84 -284.5t215 -98.5q100 0 167 54.5t81 152.5zM907 1505 l-239 -280h-224l-241 280h198l154 -168l154 168h198z" />
<glyph unicode="&#x10e;" horiz-adv-x="1449" d="M154 1475h479q338 0 531.5 -184.5t193.5 -553.5q0 -350 -204 -543.5t-536 -193.5h-464v1475zM635 1309h-273v-1137h277q244 0 376 144.5t132 420.5q0 285 -135 428.5t-377 143.5zM989 1853l-239 -280h-224l-241 280h198l154 -167l154 167h198z" />
<glyph unicode="&#x10f;" horiz-adv-x="1470" d="M1104 0h-162l-35 150q-123 -180 -354 -181q-209 0 -340 147.5t-131 409.5q0 279 131 424.5t352 145.5t342 -166v545h197v-1475zM287 522q0 -186 85 -285.5t224 -99.5q150 0 236 106.5t86 276.5q0 193 -86.5 300.5t-235.5 107.5q-145 0 -227 -101.5t-82 -304.5zM1470 1475 v-162q0 -125 -80.5 -200t-189.5 -89v102q127 27 127 152h-61v197h204z" />
<glyph unicode="&#x110;" horiz-adv-x="1449" d="M154 0v686h-103v176h103v613h479q338 0 531.5 -184.5t193.5 -553.5q0 -350 -204 -543.5t-536 -193.5h-464zM782 686h-420v-514h277q244 0 376 144.5t132 420.5q0 285 -135 428.5t-377 143.5h-273v-447h420v-176z" />
<glyph unicode="&#x111;" horiz-adv-x="1247" d="M1104 0h-162l-35 150q-123 -180 -354 -181q-209 0 -340 147.5t-131 409.5q0 279 131 424.5t352 145.5t342 -166v295h-301v147h301v103h197v-103h113v-147h-113v-1225zM287 522q0 -186 85 -285.5t224 -99.5q150 0 236 106.5t86 276.5q0 193 -86.5 300.5t-235.5 107.5 q-145 0 -227 -101.5t-82 -304.5z" />
<glyph unicode="&#x112;" horiz-adv-x="1175" d="M1014 836v-172h-652v-488h711v-176h-919v1475h919v-177h-711v-462h652zM899 1645h-553v167h553v-167z" />
<glyph unicode="&#x113;" horiz-adv-x="1185" d="M868 307h213q-41 -152 -165.5 -245t-311.5 -93q-236 0 -379 145.5t-143 417.5q0 270 141.5 417t370.5 147q233 0 366.5 -148.5t133.5 -458.5h-811q12 -178 100 -266t227 -88q94 0 163.5 48t94.5 124zM598 938q-121 0 -203 -75t-104 -218h602q-10 145 -89 219t-206 74z M854 1296h-553v168h553v-168z" />
<glyph unicode="&#x114;" horiz-adv-x="1175" d="M612 1628q-127 0 -204 70.5t-93 201.5h172q10 -141 125 -141t125 141h172q-16 -131 -94 -201.5t-203 -70.5zM1014 836v-172h-652v-488h711v-176h-919v1475h919v-177h-711v-462h652z" />
<glyph unicode="&#x115;" horiz-adv-x="1185" d="M594 1219q-127 0 -204 70.5t-93 201.5h172q10 -141 125 -141t125 141h172q-16 -131 -94 -201.5t-203 -70.5zM868 307h213q-41 -152 -165.5 -245t-311.5 -93q-236 0 -379 145.5t-143 417.5q0 270 141.5 417t370.5 147q233 0 366.5 -148.5t133.5 -458.5h-811 q12 -178 100 -266t227 -88q94 0 163.5 48t94.5 124zM598 938q-121 0 -203 -75t-104 -218h602q-10 145 -89 219t-206 74z" />
<glyph unicode="&#x116;" horiz-adv-x="1175" d="M1014 836v-172h-652v-488h711v-176h-919v1475h919v-177h-711v-462h652zM729 1591h-221v232h221v-232z" />
<glyph unicode="&#x117;" horiz-adv-x="1185" d="M868 307h213q-41 -152 -165.5 -245t-311.5 -93q-236 0 -379 145.5t-143 417.5q0 270 141.5 417t370.5 147q233 0 366.5 -148.5t133.5 -458.5h-811q12 -178 100 -266t227 -88q94 0 163.5 48t94.5 124zM598 938q-121 0 -203 -75t-104 -218h602q-10 145 -89 219t-206 74z M696 1243h-221v232h221v-232z" />
<glyph unicode="&#x118;" horiz-adv-x="1175" d="M1014 836v-172h-652v-488h711v-176h-186q-231 -133 -232 -258q0 -117 117 -117q86 0 102 70h160q-27 -94 -98.5 -147.5t-171.5 -53.5q-117 0 -191.5 59.5t-74.5 157.5q0 80 58 160t155 129h-557v1475h919v-177h-711v-462h652z" />
<glyph unicode="&#x119;" horiz-adv-x="1185" d="M676 -506q-117 0 -191.5 59.5t-74.5 157.5q0 147 161 258q-223 10 -356 154.5t-133 408.5q0 270 141.5 417t370.5 147q233 0 366.5 -148.5t133.5 -458.5h-811q12 -178 100 -266t227 -88q94 0 164 48t94 124h213q-59 -207 -268 -303q-98 -45 -172 -117.5t-74 -144.5 q0 -117 117 -117q86 0 102 70h160q-27 -94 -98.5 -147.5t-171.5 -53.5zM598 938q-121 0 -203 -75t-104 -218h602q-10 145 -89 219t-206 74z" />
<glyph unicode="&#x11a;" horiz-adv-x="1175" d="M1014 836v-172h-652v-488h711v-176h-919v1475h919v-177h-711v-462h652zM981 1853l-240 -280h-223l-242 280h199l154 -167l153 167h199z" />
<glyph unicode="&#x11b;" horiz-adv-x="1185" d="M868 307h213q-41 -152 -165.5 -245t-311.5 -93q-236 0 -379 145.5t-143 417.5q0 270 141.5 417t370.5 147q233 0 366.5 -148.5t133.5 -458.5h-811q12 -178 100 -266t227 -88q94 0 163.5 48t94.5 124zM598 938q-121 0 -203 -75t-104 -218h602q-10 145 -89 219t-206 74z M934 1505l-240 -280h-223l-242 280h199l154 -168l153 168h199z" />
<glyph unicode="&#x11c;" horiz-adv-x="1511" d="M1380 793v-793h-153l-29 176q-70 -98 -188.5 -152.5t-264.5 -54.5q-285 0 -469 205t-184 565q0 365 190.5 565.5t485.5 200.5q248 0 416 -132t194 -331h-204q-29 135 -136.5 212t-269.5 77q-203 0 -333 -152.5t-130 -439.5q0 -283 135 -440.5t330 -157.5q176 0 299 104.5 t123 264.5v115h-432v168h620zM866 1853l240 -280h-199l-153 168l-154 -168h-199l242 280h223z" />
<glyph unicode="&#x11d;" horiz-adv-x="1247" d="M131 -72h211q31 -172 264 -172q147 0 224 72t77 205v137q-119 -139 -354 -139q-197 0 -334 141t-137 385q0 248 132 393.5t351 145.5q229 0 346 -172l31 141h162v-1042q0 -186 -130 -304t-362 -118q-209 0 -331.5 86.5t-149.5 240.5zM287 553q0 -164 88 -259t221 -95 q152 0 237 93t85 255q0 182 -87.5 281.5t-234.5 99.5q-141 0 -225 -95.5t-84 -279.5zM731 1505l240 -280h-199l-154 168l-153 -168h-199l242 280h223z" />
<glyph unicode="&#x11e;" horiz-adv-x="1511" d="M1380 793v-793h-153l-29 176q-70 -98 -188.5 -152.5t-264.5 -54.5q-285 0 -469 205t-184 565q0 365 190.5 565.5t485.5 200.5q248 0 416 -132t194 -331h-204q-29 135 -136.5 212t-269.5 77q-203 0 -333 -152.5t-130 -439.5q0 -283 135 -440.5t330 -157.5q176 0 299 104.5 t123 264.5v115h-432v168h620zM752 1581q-127 0 -204 70.5t-93 201.5h172q10 -141 124.5 -141t125.5 141h172q-16 -131 -94 -201.5t-203 -70.5z" />
<glyph unicode="&#x11f;" horiz-adv-x="1247" d="M131 -72h211q31 -172 264 -172q147 0 224 72t77 205v137q-119 -139 -354 -139q-197 0 -334 141t-137 385q0 248 132 393.5t351 145.5q229 0 346 -172l31 141h162v-1042q0 -186 -130 -304t-362 -118q-209 0 -331.5 86.5t-149.5 240.5zM287 553q0 -164 88 -259t221 -95 q152 0 237 93t85 255q0 182 -87.5 281.5t-234.5 99.5q-141 0 -225 -95.5t-84 -279.5zM606 1233q-127 0 -203.5 70.5t-93.5 201.5h172q10 -141 125 -141t125 141h172q-16 -131 -94 -201.5t-203 -70.5z" />
<glyph unicode="&#x120;" horiz-adv-x="1511" d="M1380 793v-793h-153l-29 176q-70 -98 -188.5 -152.5t-264.5 -54.5q-285 0 -469 205t-184 565q0 365 190.5 565.5t485.5 200.5q248 0 416 -132t194 -331h-204q-29 135 -136.5 212t-269.5 77q-203 0 -333 -152.5t-130 -439.5q0 -283 135 -440.5t330 -157.5q176 0 299 104.5 t123 264.5v115h-432v168h620zM874 1591h-221v232h221v-232z" />
<glyph unicode="&#x121;" horiz-adv-x="1247" d="M131 -72h211q31 -172 264 -172q147 0 224 72t77 205v137q-119 -139 -354 -139q-197 0 -334 141t-137 385q0 248 132 393.5t351 145.5q229 0 346 -172l31 141h162v-1042q0 -186 -130 -304t-362 -118q-209 0 -331.5 86.5t-149.5 240.5zM287 553q0 -164 88 -259t221 -95 q152 0 237 93t85 255q0 182 -87.5 281.5t-234.5 99.5q-141 0 -225 -95.5t-84 -279.5zM721 1243h-221v232h221v-232z" />
<glyph unicode="&#x122;" horiz-adv-x="1511" d="M1380 793v-793h-153l-29 176q-70 -98 -188.5 -152.5t-264.5 -54.5q-285 0 -469 205t-184 565q0 365 190.5 565.5t485.5 200.5q248 0 416 -132t194 -331h-204q-29 135 -136.5 212t-269.5 77q-203 0 -333 -152.5t-130 -439.5q0 -283 135 -440.5t330 -157.5q176 0 299 104.5 t123 264.5v115h-432v168h620zM866 -123v-162q0 -137 -82 -221t-188 -98v102q57 12 92 62.5t35 120.5h-61v196h204z" />
<glyph unicode="&#x123;" horiz-adv-x="1247" d="M131 -72h211q31 -172 264 -172q147 0 224 72t77 205v137q-119 -139 -354 -139q-197 0 -334 141t-137 385q0 248 132 393.5t351 145.5q229 0 346 -172l31 141h162v-1042q0 -186 -130 -304t-362 -118q-209 0 -331.5 86.5t-149.5 240.5zM287 553q0 -164 88 -259t221 -95 q152 0 237 93t85 255q0 182 -87.5 281.5t-234.5 99.5q-141 0 -225 -95.5t-84 -279.5zM496 1188v162q0 125 80.5 199.5t189.5 88.5v-102q-127 -27 -127 -152h61v-196h-204z" />
<glyph unicode="&#x124;" horiz-adv-x="1447" d="M1083 1475h211v-1475h-211v657h-721v-657h-208v1475h208v-641h721v641zM838 1853l239 -280h-198l-154 168l-154 -168h-198l241 280h224z" />
<glyph unicode="&#x125;" horiz-adv-x="1161" d="M340 0h-197v1475h197v-531q117 152 311 152q176 0 276.5 -104.5t100.5 -297.5v-694h-197v692q0 236 -227 236q-113 0 -188.5 -75t-75.5 -204v-649zM623 1853l239 -280h-198l-154 168l-154 -168h-198l241 280h224z" />
<glyph unicode="&#x126;" horiz-adv-x="1488" d="M1104 1475h211v-195h153v-156h-153v-1124h-211v657h-721v-657h-209v1124h-154v156h154v195h209v-195h721v195zM383 1124v-290h721v290h-721z" />
<glyph unicode="&#x127;" horiz-adv-x="1161" d="M340 0h-197v1225h-112v147h112v103h197v-103h301v-147h-301v-281q117 152 311 152q176 0 276.5 -104.5t100.5 -297.5v-694h-197v692q0 236 -227 236q-111 0 -187.5 -74t-76.5 -197v-657z" />
<glyph unicode="&#x128;" horiz-adv-x="516" d="M154 1475h208v-1475h-208v1475zM381 1599q-70 0 -133.5 39t-112.5 39q-76 0 -174 -78v166q94 68 182 68q70 0 133.5 -39t112.5 -39q68 0 166 78v-166q-94 -68 -174 -68z" />
<glyph unicode="&#x129;" horiz-adv-x="483" d="M340 0h-197v1065h197v-1065zM365 1251q-70 0 -133.5 39t-112.5 39q-76 0 -174 -78v166q94 68 182 68q70 0 133.5 -39t112.5 -39q68 0 166 78v-166q-94 -68 -174 -68z" />
<glyph unicode="&#x12a;" horiz-adv-x="516" d="M154 1475h208v-1475h-208v1475zM535 1645h-553v167h553v-167z" />
<glyph unicode="&#x12b;" horiz-adv-x="483" d="M340 0h-197v1065h197v-1065zM518 1296h-553v168h553v-168z" />
<glyph unicode="&#x12c;" horiz-adv-x="516" d="M258 1628q-127 0 -204 70.5t-93 201.5h172q10 -141 125 -141t125 141h172q-16 -131 -94 -201.5t-203 -70.5zM154 1475h208v-1475h-208v1475z" />
<glyph unicode="&#x12d;" horiz-adv-x="483" d="M242 1219q-127 0 -204 70.5t-93 201.5h172q10 -141 125 -141t125 141h172q-16 -131 -94 -201.5t-203 -70.5zM340 0h-197v1065h197v-1065z" />
<glyph unicode="&#x12e;" horiz-adv-x="516" d="M154 1475h208v-1475h-36q-233 -133 -234 -258q0 -117 117 -117q86 0 102 70h160q-27 -94 -98.5 -147.5t-171.5 -53.5q-117 0 -192 59.5t-75 157.5q0 82 59.5 162t160.5 129v1473z" />
<glyph unicode="&#x12f;" horiz-adv-x="483" d="M340 0h-18q-233 -133 -234 -258q0 -117 117 -117q86 0 102 70h160q-27 -94 -98.5 -147.5t-171.5 -53.5q-117 0 -192 59.5t-75 157.5q0 80 58.5 160t154.5 129v1065h197v-1065zM352 1243h-221v232h221v-232z" />
<glyph unicode="&#x130;" horiz-adv-x="516" d="M154 1475h208v-1475h-208v1475zM369 1591h-222v232h222v-232z" />
<glyph unicode="&#x131;" horiz-adv-x="483" d="M340 0h-197v1065h197v-1065z" />
<glyph unicode="&#x132;" horiz-adv-x="1622" d="M567 414h211q12 -268 250 -269q115 0 178.5 76t63.5 213v1041h209v-1043q0 -223 -120 -343t-339 -120q-199 0 -323 125t-130 320zM154 1475h208v-1475h-208v1475z" />
<glyph unicode="&#x133;" horiz-adv-x="966" d="M383 -375v162q82 -18 123 -18q68 0 94 28.5t26 106.5v1161h197v-1171q0 -133 -76 -213t-211 -80q-77 -1 -153 24zM835 1243h-221v232h221v-232zM352 1243h-221v232h221v-232zM340 0h-197v1065h197v-1065z" />
<glyph unicode="&#x134;" horiz-adv-x="1105" d="M51 414h211q12 -268 250 -269q115 0 178.5 76t63.5 213v1041h209v-1043q0 -223 -120 -343t-339 -120q-199 0 -323 125t-130 320zM961 1853l239 -280h-199l-153 168l-154 -168h-198l241 280h224z" />
<glyph unicode="&#x135;" horiz-adv-x="483" d="M-100 -375v162q82 -18 123 -18q66 0 93 27.5t27 107.5v1161h197v-1171q0 -133 -76 -213t-211 -80q-77 -1 -153 24zM354 1505l240 -280h-199l-153 168l-154 -168h-199l242 280h223z" />
<glyph unicode="&#x136;" horiz-adv-x="1294" d="M1284 0h-276l-646 694v-694h-208v1475h208v-656l601 656h258l-670 -705zM733 -123v-162q0 -137 -82 -221t-188 -98v102q57 12 92 62.5t35 120.5h-62v196h205z" />
<glyph unicode="&#x137;" horiz-adv-x="1064" d="M340 0h-197v1475h197v-824l418 414h258l-479 -463l538 -602h-262l-473 537v-537zM641 -123v-162q0 -137 -82 -221t-188 -98v102q57 12 92 62.5t35 120.5h-62v196h205z" />
<glyph unicode="&#x138;" horiz-adv-x="1064" d="M340 0h-197v1065h197v-469l436 469h240l-479 -502l538 -563h-276l-459 485v-485z" />
<glyph unicode="&#x139;" horiz-adv-x="1130" d="M154 1475h211v-1289h694v-186h-905v1475zM98 1573l209 280h254l-287 -280h-176z" />
<glyph unicode="&#x13a;" horiz-adv-x="483" d="M340 1475v-1475h-197v1475h197zM63 1573l209 280h254l-286 -280h-177z" />
<glyph unicode="&#x13b;" horiz-adv-x="1130" d="M154 1475h211v-1289h694v-186h-905v1475zM711 -123v-162q0 -137 -82 -221t-189 -98v102q57 12 92 62.5t35 120.5h-61v196h205z" />
<glyph unicode="&#x13c;" horiz-adv-x="483" d="M340 1475v-1475h-197v1475h197zM344 -123v-162q0 -137 -82 -221t-188 -98v102q57 12 92 62.5t35 120.5h-62v196h205z" />
<glyph unicode="&#x13d;" horiz-adv-x="1130" d="M154 1475h211v-1289h694v-186h-905v1475zM762 1475v-162q0 -125 -81 -200t-189 -89v102q127 27 126 152h-61v197h205z" />
<glyph unicode="&#x13e;" horiz-adv-x="702" d="M340 1475v-1475h-197v1475h197zM702 1475v-162q0 -125 -80.5 -200t-189.5 -89v102q127 27 127 152h-61v197h204z" />
<glyph unicode="&#x13f;" horiz-adv-x="1130" d="M725 634h-238v238h238v-238zM154 1475h211v-1289h694v-186h-905v1475z" />
<glyph unicode="&#x140;" horiz-adv-x="1097" d="M909 532h-238v238h238v-238zM340 1475v-1475h-197v1475h197z" />
<glyph unicode="&#x141;" horiz-adv-x="1130" d="M154 1475h211v-570l321 180v-208l-321 -181v-510h694v-186h-905v578l-103 -58v209l103 57v689z" />
<glyph unicode="&#x142;" horiz-adv-x="524" d="M340 1475v-547l164 100v-192l-164 -101v-735h-197v614l-123 -73v192l123 74v668h197z" />
<glyph unicode="&#x143;" horiz-adv-x="1472" d="M1133 1475h186v-1475h-264l-711 1235v-1235h-190v1475h276l703 -1225v1225zM616 1573l209 280h254l-286 -280h-177z" />
<glyph unicode="&#x144;" horiz-adv-x="1161" d="M340 0h-197v1065h162l23 -135q119 166 323 166q176 0 276.5 -104.5t100.5 -297.5v-694h-197v692q0 236 -227 236q-111 0 -187.5 -74t-76.5 -197v-657zM492 1225l208 280h254l-286 -280h-176z" />
<glyph unicode="&#x145;" horiz-adv-x="1472" d="M1133 1475h186v-1475h-264l-711 1235v-1235h-190v1475h276l703 -1225v1225zM858 -123v-162q0 -137 -82 -221t-188 -98v102q57 12 92 62.5t35 120.5h-62v196h205z" />
<glyph unicode="&#x146;" horiz-adv-x="1161" d="M340 0h-197v1065h162l23 -135q119 166 323 166q176 0 276.5 -104.5t100.5 -297.5v-694h-197v692q0 236 -227 236q-111 0 -187.5 -74t-76.5 -197v-657zM686 -123v-162q0 -137 -82 -221t-188 -98v102q57 12 92 62.5t35 120.5h-62v196h205z" />
<glyph unicode="&#x147;" horiz-adv-x="1472" d="M1118 1853l-239 -280h-224l-241 280h198l154 -167l154 167h198zM1133 1475h186v-1475h-264l-711 1235v-1235h-190v1475h276l703 -1225v1225z" />
<glyph unicode="&#x148;" horiz-adv-x="1161" d="M340 0h-197v1065h162l23 -135q119 166 323 166q176 0 276.5 -104.5t100.5 -297.5v-694h-197v692q0 236 -227 236q-111 0 -187.5 -74t-76.5 -197v-657zM956 1505l-239 -280h-223l-242 280h199l153 -168l154 168h198z" />
<glyph unicode="&#x14a;" horiz-adv-x="1472" d="M1133 1475h186v-1588q0 -133 -74 -209.5t-213 -76.5q-78 0 -153 24v164q82 -18 122 -18q68 0 100 27.5t32 107.5v94h-78l-711 1235v-1235h-190v1475h276l703 -1225v1225z" />
<glyph unicode="&#x14b;" horiz-adv-x="1161" d="M340 0h-197v1065h162l23 -135q119 166 323 166q176 0 276.5 -104.5t100.5 -297.5v-807q0 -133 -73.5 -209.5t-213.5 -76.5q-78 0 -153 24v164q82 -18 123 -18q63 0 91.5 27.5t28.5 107.5v786q0 236 -227 236q-111 0 -187.5 -75t-76.5 -198v-655z" />
<glyph unicode="&#x14c;" horiz-adv-x="1585" d="M793 -31q-313 0 -507 205t-194 563q0 360 200 564t503 204q305 0 501.5 -200.5t196.5 -567.5q0 -356 -196.5 -562t-503.5 -206zM792.5 139q221.5 0 354.5 157t133 441.5t-133 441t-354.5 156.5t-354.5 -156.5t-133 -441t133 -441.5t354.5 -157zM1051 1645h-553v167h553 v-167z" />
<glyph unicode="&#x14d;" horiz-adv-x="1214" d="M82 532q0 274 148.5 419t377.5 145q231 0 378 -144.5t147 -419.5q0 -270 -145.5 -416.5t-381.5 -146.5q-231 0 -377.5 147.5t-146.5 415.5zM287 532.5q0 -192.5 90 -298t233 -105.5q145 0 231.5 104.5t86.5 298.5q0 197 -88 300.5t-232 103.5q-141 0 -231 -105.5 t-90 -298zM885 1296h-553v168h553v-168z" />
<glyph unicode="&#x14e;" horiz-adv-x="1585" d="M795 1628q-127 0 -204 70.5t-93 201.5h172q10 -141 125 -141t125 141h172q-16 -131 -94 -201.5t-203 -70.5zM793 -31q-313 0 -507 205t-194 563q0 360 200 564t503 204q305 0 501.5 -200.5t196.5 -567.5q0 -356 -196.5 -562t-503.5 -206zM792.5 139q221.5 0 354.5 157 t133 441.5t-133 441t-354.5 156.5t-354.5 -156.5t-133 -441t133 -441.5t354.5 -157z" />
<glyph unicode="&#x14f;" horiz-adv-x="1214" d="M608 1219q-127 0 -204 70.5t-93 201.5h172q10 -141 125 -141t125 141h172q-16 -131 -94 -201.5t-203 -70.5zM82 532q0 274 148.5 419t377.5 145q231 0 378 -144.5t147 -419.5q0 -270 -145.5 -416.5t-381.5 -146.5q-231 0 -377.5 147.5t-146.5 415.5zM287 532.5 q0 -192.5 90 -298t233 -105.5q145 0 231.5 104.5t86.5 298.5q0 197 -88 300.5t-232 103.5q-141 0 -231 -105.5t-90 -298z" />
<glyph unicode="&#x150;" horiz-adv-x="1585" d="M793 -31q-313 0 -507 205t-194 563q0 360 200 564t503 204q305 0 501.5 -200.5t196.5 -567.5q0 -356 -196.5 -562t-503.5 -206zM792.5 139q221.5 0 354.5 157t133 441.5t-133 441t-354.5 156.5t-354.5 -156.5t-133 -441t133 -441.5t354.5 -157zM512 1573l199 280h219 l-262 -280h-156zM868 1573l199 280h219l-262 -280h-156z" />
<glyph unicode="&#x151;" horiz-adv-x="1214" d="M82 532q0 274 148.5 419t377.5 145q231 0 378 -144.5t147 -419.5q0 -270 -145.5 -416.5t-381.5 -146.5q-231 0 -377.5 147.5t-146.5 415.5zM287 532.5q0 -192.5 90 -298t233 -105.5q145 0 231.5 104.5t86.5 298.5q0 197 -88 300.5t-232 103.5q-141 0 -231 -105.5 t-90 -298zM344 1225l199 280h219l-262 -280h-156zM700 1225l199 280h219l-262 -280h-156z" />
<glyph unicode="&#x152;" horiz-adv-x="2029" d="M1927 176v-176h-878q-131 -31 -256 -31q-133 0 -252 41t-222.5 128t-165 240.5t-61.5 358.5q0 201 62.5 354.5t166 240.5t223.5 130t249 43t256 -30h878v-177h-670v-462h611v-172h-611v-488h670zM793 139q143 0 256 49v1098q-113 49 -256 49q-221 0 -354.5 -156.5 t-133.5 -441.5q0 -287 131.5 -442.5t356.5 -155.5z" />
<glyph unicode="&#x153;" horiz-adv-x="2023" d="M1706 307h213q-41 -154 -168 -246t-309 -92q-270 0 -410 211q-74 -113 -188.5 -162t-235.5 -49q-68 0 -135 14.5t-140 54.5t-127 100.5t-89 162.5t-35 231.5t35 231.5t89 162.5t127 100.5t140.5 54.5t134.5 14.5q121 0 235.5 -49.5t188.5 -161.5q70 109 178.5 160 t221.5 51q231 0 365 -147.5t134 -459.5h-811q6 -102 39 -175.5t83 -110.5t100.5 -52.5t105.5 -15.5q96 0 164.5 48t93.5 124zM287 532.5q0 -200.5 94 -302t229 -101.5t226.5 99.5t91.5 303.5q0 203 -92.5 303.5t-227.5 100.5t-228 -101.5t-93 -302zM1436 938 q-115 0 -200 -71.5t-108 -221.5h603q-10 145 -89 219t-206 74z" />
<glyph unicode="&#x154;" horiz-adv-x="1335" d="M1315 0h-246l-356 561h-351v-561h-208v1475h477q281 0 432 -120t151 -343q0 -295 -296 -408zM635 1305h-273v-574h279q170 0 263 75t93 206q0 293 -362 293zM463 1573l209 280h254l-287 -280h-176z" />
<glyph unicode="&#x155;" horiz-adv-x="729" d="M340 0h-197v1065h162l27 -158q90 188 270 189q59 0 117 -15v-196q-70 18 -125 18q-111 0 -182.5 -90t-71.5 -278v-535zM313 1225l209 280h254l-287 -280h-176z" />
<glyph unicode="&#x156;" horiz-adv-x="1335" d="M1315 0h-246l-356 561h-351v-561h-208v1475h477q281 0 432 -120t151 -343q0 -295 -296 -408zM635 1305h-273v-574h279q170 0 263 75t93 206q0 293 -362 293zM739 -123v-162q0 -137 -82 -221t-188 -98v102q57 12 92 62.5t35 120.5h-61v196h204z" />
<glyph unicode="&#x157;" horiz-adv-x="729" d="M340 0h-197v1065h162l27 -158q90 188 270 189q59 0 117 -15v-196q-70 18 -125 18q-111 0 -182.5 -90t-71.5 -278v-535zM344 -123v-162q0 -137 -82 -221t-188 -98v102q57 12 92 62.5t35 120.5h-62v196h205z" />
<glyph unicode="&#x158;" horiz-adv-x="1335" d="M1315 0h-246l-356 561h-351v-561h-208v1475h477q281 0 432 -120t151 -343q0 -295 -296 -408zM635 1305h-273v-574h279q170 0 263 75t93 206q0 293 -362 293zM963 1853l-240 -280h-223l-242 280h199l153 -167l154 167h199z" />
<glyph unicode="&#x159;" horiz-adv-x="729" d="M340 0h-197v1065h162l27 -158q90 188 270 189q59 0 117 -15v-196q-70 18 -125 18q-111 0 -182.5 -90t-71.5 -278v-535zM770 1505l-240 -280h-223l-241 280h198l154 -168l153 168h199z" />
<glyph unicode="&#x15a;" horiz-adv-x="1337" d="M1036 399q0 74 -33.5 119t-133 90t-298.5 101q-250 70 -349 166t-99 251q0 166 140 272.5t388 106.5q240 0 398.5 -106.5t185.5 -292.5h-215q-16 109 -110.5 168t-258.5 59q-160 0 -239.5 -55t-79.5 -143q0 -90 71.5 -143.5t315.5 -121.5q301 -84 413.5 -186t112.5 -276 q0 -180 -155.5 -309.5t-419.5 -129.5q-240 0 -404 121t-194 324h215q18 -127 117.5 -200t261.5 -73q176 0 273 73.5t97 184.5zM522 1573l209 280h254l-287 -280h-176z" />
<glyph unicode="&#x15b;" horiz-adv-x="1046" d="M766 289q0 37 -15.5 64.5t-37 46t-67.5 35t-82 25.5t-107 25q-186 41 -268.5 115t-82.5 193q0 139 108 221t306 82q178 0 294 -83t142 -229h-200q-35 156 -238 156q-106 0 -159.5 -36t-53.5 -93q0 -63 49 -97t199 -67q211 -47 311.5 -119.5t100.5 -224.5 q0 -150 -119 -242t-326 -92q-199 0 -321.5 91.5t-137.5 244.5h201q33 -180 260 -180q117 0 180.5 46t63.5 118zM395 1225l209 280h254l-287 -280h-176z" />
<glyph unicode="&#x15c;" horiz-adv-x="1337" d="M1036 399q0 74 -33.5 119t-133 90t-298.5 101q-250 70 -349 166t-99 251q0 166 140 272.5t388 106.5q240 0 398.5 -106.5t185.5 -292.5h-215q-16 109 -110.5 168t-258.5 59q-160 0 -239.5 -55t-79.5 -143q0 -90 71.5 -143.5t315.5 -121.5q301 -84 413.5 -186t112.5 -276 q0 -180 -155.5 -309.5t-419.5 -129.5q-240 0 -404 121t-194 324h215q18 -127 117.5 -200t261.5 -73q176 0 273 73.5t97 184.5zM768 1853l240 -280h-199l-154 168l-153 -168h-199l242 280h223z" />
<glyph unicode="&#x15d;" horiz-adv-x="1046" d="M766 289q0 37 -15.5 64.5t-37 46t-67.5 35t-82 25.5t-107 25q-186 41 -268.5 115t-82.5 193q0 139 108 221t306 82q178 0 294 -83t142 -229h-200q-35 156 -238 156q-106 0 -159.5 -36t-53.5 -93q0 -63 49 -97t199 -67q211 -47 311.5 -119.5t100.5 -224.5 q0 -150 -119 -242t-326 -92q-199 0 -321.5 91.5t-137.5 244.5h201q33 -180 260 -180q117 0 180.5 46t63.5 118zM633 1505l239 -280h-198l-154 168l-153 -168h-199l242 280h223z" />
<glyph unicode="&#x15e;" horiz-adv-x="1337" d="M930 -287q0 -98 -74 -160.5t-190 -62.5q-102 0 -176 55.5t-89 151.5h154q4 -33 35 -57.5t78 -24.5q49 0 79.5 25.5t30.5 70.5q0 102 -192 103l14 159q-213 16 -357.5 135t-170.5 306h215q18 -127 117.5 -200t261.5 -73q176 0 273 74t97 184q0 74 -33.5 119t-133 90 t-298.5 101q-250 70 -349 166t-99 251q0 166 140 272.5t388 106.5q240 0 398.5 -106.5t185.5 -292.5h-215q-16 109 -110.5 168t-258.5 59q-160 0 -239.5 -55t-79.5 -143q0 -90 71.5 -143.5t315.5 -121.5q301 -84 413.5 -186t112.5 -276q0 -168 -135 -292t-367 -143v-59 q187 -41 187 -201z" />
<glyph unicode="&#x15f;" horiz-adv-x="1046" d="M784 -287q0 -98 -73.5 -160.5t-190.5 -62.5q-102 0 -176 55.5t-88 151.5h154q4 -33 34.5 -57.5t77.5 -24.5q49 0 80 25.5t31 70.5q0 102 -193 103l15 159q-172 14 -276.5 102.5t-117.5 229.5h201q33 -180 260 -180q117 0 180.5 46t63.5 118q0 37 -15.5 64.5t-37 46 t-67.5 35t-82 25.5t-107 25q-186 41 -268.5 115t-82.5 193q0 139 108 221t306 82q178 0 294 -83t142 -229h-200q-35 156 -238 156q-106 0 -159.5 -36t-53.5 -93q0 -63 49 -97t199 -67q211 -47 311.5 -119.5t100.5 -224.5q0 -133 -97.5 -222t-269.5 -108v-59 q186 -41 186 -201z" />
<glyph unicode="&#x160;" horiz-adv-x="1337" d="M1036 399q0 74 -33.5 119t-133 90t-298.5 101q-250 70 -349 166t-99 251q0 166 140 272.5t388 106.5q240 0 398.5 -106.5t185.5 -292.5h-215q-16 109 -110.5 168t-258.5 59q-160 0 -239.5 -55t-79.5 -143q0 -90 71.5 -143.5t315.5 -121.5q301 -84 413.5 -186t112.5 -276 q0 -180 -155.5 -309.5t-419.5 -129.5q-240 0 -404 121t-194 324h215q18 -127 117.5 -200t261.5 -73q176 0 273 73.5t97 184.5zM1004 1853l-240 -280h-223l-242 280h199l153 -167l154 167h199z" />
<glyph unicode="&#x161;" horiz-adv-x="1046" d="M766 289q0 37 -15.5 64.5t-37 46t-67.5 35t-82 25.5t-107 25q-186 41 -268.5 115t-82.5 193q0 139 108 221t306 82q178 0 294 -83t142 -229h-200q-35 156 -238 156q-106 0 -159.5 -36t-53.5 -93q0 -63 49 -97t199 -67q211 -47 311.5 -119.5t100.5 -224.5 q0 -150 -119 -242t-326 -92q-199 0 -321.5 91.5t-137.5 244.5h201q33 -180 260 -180q117 0 180.5 46t63.5 118zM879 1505l-240 -280h-223l-242 280h199l153 -168l154 168h199z" />
<glyph unicode="&#x162;" horiz-adv-x="1234" d="M1214 1475v-187h-495v-1288h-209v1288h-490v187h1194zM715 -123v-162q0 -137 -82 -221t-189 -98v102q57 12 92 62.5t35 120.5h-61v196h205z" />
<glyph unicode="&#x163;" horiz-adv-x="659" d="M618 158v-168q-76 -20 -145 -21q-137 0 -211 80t-74 215v633h-157v168h157l13 256h184v-256h229v-168h-229v-637q0 -119 113 -119q52 1 120 17zM451 -123v-162q0 -137 -82 -221t-189 -98v102q57 12 92 62.5t35 120.5h-61v196h205z" />
<glyph unicode="&#x164;" horiz-adv-x="1234" d="M1214 1475v-187h-495v-1288h-209v1288h-490v187h1194zM967 1853l-240 -280h-223l-242 280h199l153 -167l154 167h199z" />
<glyph unicode="&#x165;" horiz-adv-x="772" d="M793 1475v-121q0 -109 -67 -170.5t-171 -69.5v98q96 16 96 86h-59v177h201zM618 158v-168q-76 -20 -145 -21q-137 0 -211 80t-74 215v633h-157v168h157l13 256h184v-256h229v-168h-229v-637q0 -119 113 -119q52 1 120 17z" />
<glyph unicode="&#x166;" horiz-adv-x="1234" d="M1214 1475v-187h-495v-375h291v-153h-291v-760h-209v760h-285v153h285v375h-490v187h1194z" />
<glyph unicode="&#x167;" horiz-adv-x="659" d="M614 897h-229v-117h209v-147h-209v-373q0 -119 113 -119q53 0 120 17v-168q-76 -20 -145 -21q-137 0 -211 80t-74 215v369h-143v147h143v117h-157v168h157l13 256h184v-256h229v-168z" />
<glyph unicode="&#x168;" horiz-adv-x="1447" d="M143 1475h209v-1000q0 -150 98.5 -240t276.5 -90t276.5 90.5t98.5 239.5v1000h203v-981q0 -242 -158 -383.5t-422 -141.5q-266 0 -424 142.5t-158 382.5v981zM864 1599q-70 0 -133 39t-113 39q-76 0 -174 -78v166q94 68 183 68q70 0 133 -39t112 -39q68 0 166 78v-166 q-94 -68 -174 -68z" />
<glyph unicode="&#x169;" horiz-adv-x="1153" d="M133 1065h197v-698q0 -229 221 -230q127 0 194.5 81t67.5 198v649h197v-1065h-162l-23 123q-113 -154 -319 -154q-170 0 -271.5 101.5t-101.5 300.5v694zM684 1251q-70 0 -133.5 39t-112.5 39q-76 0 -174 -78v166q94 68 182 68q70 0 133.5 -39t112.5 -39q68 0 166 78 v-166q-94 -68 -174 -68z" />
<glyph unicode="&#x16a;" horiz-adv-x="1447" d="M143 1475h209v-1000q0 -150 98.5 -240t276.5 -90t276.5 90.5t98.5 239.5v1000h203v-981q0 -242 -158 -383.5t-422 -141.5q-266 0 -424 142.5t-158 382.5v981zM1004 1645h-553v167h553v-167z" />
<glyph unicode="&#x16b;" horiz-adv-x="1153" d="M133 1065h197v-698q0 -229 221 -230q127 0 194.5 81t67.5 198v649h197v-1065h-162l-23 123q-113 -154 -319 -154q-170 0 -271.5 101.5t-101.5 300.5v694zM848 1296h-553v168h553v-168z" />
<glyph unicode="&#x16c;" horiz-adv-x="1447" d="M143 1475h209v-1000q0 -150 98.5 -240t276.5 -90t276.5 90.5t98.5 239.5v1000h203v-981q0 -242 -158 -383.5t-422 -141.5q-266 0 -424 142.5t-158 382.5v981zM723 1581q-127 0 -204 70.5t-93 201.5h172q10 -141 125 -141t125 141h172q-16 -131 -94 -201.5t-203 -70.5z " />
<glyph unicode="&#x16d;" horiz-adv-x="1153" d="M133 1065h197v-698q0 -229 221 -230q127 0 194.5 81t67.5 198v649h197v-1065h-162l-23 123q-113 -154 -319 -154q-170 0 -271.5 101.5t-101.5 300.5v694zM563 1233q-127 0 -203.5 70.5t-93.5 201.5h172q10 -141 125 -141t125 141h172q-16 -131 -94 -201.5t-203 -70.5z " />
<glyph unicode="&#x16e;" horiz-adv-x="1447" d="M143 1475h209v-1000q0 -150 98.5 -240t276.5 -90t276.5 90.5t98.5 239.5v1000h203v-981q0 -242 -158 -383.5t-422 -141.5q-266 0 -424 142.5t-158 382.5v981zM596 1781.5q0 -57.5 36 -93t93 -35.5q59 0 95 35.5t36 93.5q0 59 -36 94t-95 35q-57 0 -93 -36t-36 -93.5z M995 1781.5q0 -106.5 -73.5 -176t-196.5 -69.5t-195.5 69.5t-72.5 176t72.5 176.5t195.5 70t196.5 -70t73.5 -176.5z" />
<glyph unicode="&#x16f;" horiz-adv-x="1153" d="M133 1065h197v-698q0 -229 221 -230q127 0 194.5 81t67.5 198v649h197v-1065h-162l-23 123q-113 -154 -319 -154q-170 0 -271.5 101.5t-101.5 300.5v694zM444 1433.5q0 -57.5 36 -93t93 -35.5q59 0 95.5 35.5t36.5 93.5q0 59 -36 94t-96 35q-57 0 -93 -36t-36 -93.5z M844 1433.5q0 -106.5 -74 -176t-196.5 -69.5t-195.5 69.5t-73 176t73 176t195.5 69.5t196.5 -69.5t74 -176z" />
<glyph unicode="&#x170;" horiz-adv-x="1447" d="M143 1475h209v-1000q0 -150 98.5 -240t276.5 -90t276.5 90.5t98.5 239.5v1000h203v-981q0 -242 -158 -383.5t-422 -141.5q-266 0 -424 142.5t-158 382.5v981zM453 1573l198 280h219l-262 -280h-155zM809 1573l199 280h219l-262 -280h-156z" />
<glyph unicode="&#x171;" horiz-adv-x="1153" d="M133 1065h197v-698q0 -229 221 -230q127 0 194.5 81t67.5 198v649h197v-1065h-162l-23 123q-113 -154 -319 -154q-170 0 -271.5 101.5t-101.5 300.5v694zM319 1225l199 280h219l-262 -280h-156zM676 1225l198 280h220l-263 -280h-155z" />
<glyph unicode="&#x172;" horiz-adv-x="1447" d="M836 -506q-117 0 -192 59.5t-75 157.5q0 68 42 137.5t118 120.5q-268 0 -427 142.5t-159 382.5v981h209v-1000q0 -150 98.5 -240t276.5 -90t276.5 90.5t98.5 239.5v1000h203v-981q0 -342 -318 -482q-100 -43 -180 -118.5t-80 -151.5q0 -117 117 -117q86 0 102 70h160 q-27 -94 -98.5 -147.5t-171.5 -53.5z" />
<glyph unicode="&#x173;" horiz-adv-x="1153" d="M813 1065h197v-1065q-231 -131 -232 -258q0 -117 117 -117q86 0 102 70h160q-27 -90 -98.5 -142.5t-171.5 -52.5q-117 0 -188.5 56.5t-71.5 154.5q0 82 60.5 163t158.5 132l-21 117q-113 -154 -319 -154q-170 0 -271.5 101.5t-101.5 300.5v694h197v-698q0 -229 221 -230 q125 0 193.5 77t68.5 189v662z" />
<glyph unicode="&#x174;" horiz-adv-x="1972" d="M1769 1475h193l-389 -1475h-242l-334 1249l-344 -1249h-256l-387 1475h213l314 -1227l337 1227h261l319 -1223zM1102 1853l239 -280h-198l-154 168l-153 -168h-199l242 280h223z" />
<glyph unicode="&#x175;" horiz-adv-x="1658" d="M1432 1065h196l-311 -1065h-227l-259 842l-253 -842h-236l-311 1065h205l229 -856l254 856h235l250 -852zM942 1505l240 -280h-199l-154 168l-153 -168h-199l242 280h223z" />
<glyph unicode="&#x176;" horiz-adv-x="1288" d="M755 1908l240 -280h-199l-153 168l-154 -168h-199l242 280h223zM748 0h-207v586l-541 889h229l416 -709l430 709h213l-540 -889v-586z" />
<glyph unicode="&#x177;" horiz-adv-x="1052" d="M639 1499l240 -280h-199l-153 168l-154 -168h-199l242 280h223zM1032 1065l-370 -1079q-70 -203 -141.5 -294t-207.5 -91q-53 0 -127 18v160q57 -14 103 -15q66 0 100.5 48.5t85.5 187.5h-63l-392 1065h213l302 -905l301 905h196z" />
<glyph unicode="&#x178;" horiz-adv-x="1288" d="M748 0h-207v586l-541 889h229l416 -709l430 709h213l-540 -889v-586zM520 1618h-213v205h213v-205zM983 1618h-213v205h213v-205z" />
<glyph unicode="&#x179;" horiz-adv-x="1308" d="M1227 1298l-899 -1118h878v-180h-1124v182l897 1112h-850v181h1098v-177zM532 1573l209 280h254l-286 -280h-177z" />
<glyph unicode="&#x17a;" horiz-adv-x="987" d="M926 879l-633 -711h633v-168h-865v186l633 713h-602v166h834v-186zM408 1225l208 280h254l-286 -280h-176z" />
<glyph unicode="&#x17b;" horiz-adv-x="1308" d="M1227 1298l-899 -1118h878v-180h-1124v182l897 1112h-850v181h1098v-177zM776 1591h-221v232h221v-232z" />
<glyph unicode="&#x17c;" horiz-adv-x="987" d="M926 879l-633 -711h633v-168h-865v186l633 713h-602v166h834v-186zM625 1243h-222v232h222v-232z" />
<glyph unicode="&#x17d;" horiz-adv-x="1308" d="M1227 1298l-899 -1118h878v-180h-1124v182l897 1112h-850v181h1098v-177zM1032 1853l-239 -280h-224l-241 280h198l154 -167l154 167h198z" />
<glyph unicode="&#x17e;" horiz-adv-x="987" d="M926 879l-633 -711h633v-168h-865v186l633 713h-602v166h834v-186zM879 1505l-240 -280h-223l-242 280h199l153 -168l154 168h199z" />
<glyph unicode="&#x2c6;" horiz-adv-x="819" d="M522 1505l240 -280h-199l-153 168l-154 -168h-199l242 280h223z" />
<glyph unicode="&#x2d8;" horiz-adv-x="675" d="M338 1233q-127 0 -204 70.5t-93 201.5h172q10 -141 125 -141t125 141h172q-16 -131 -94 -201.5t-203 -70.5z" />
<glyph unicode="&#x2da;" horiz-adv-x="661" d="M201 1433.5q0 -57.5 34.5 -93t94 -35.5t95.5 35.5t36 93.5q0 59 -36 94t-95.5 35t-94 -36t-34.5 -93.5zM600 1433.5q0 -106.5 -73.5 -176t-196.5 -69.5t-196 69.5t-73 176t73 176t196 69.5t196.5 -69.5t73.5 -176z" />
<glyph unicode="&#x2dc;" horiz-adv-x="716" d="M481 1251q-68 0 -131 39t-114 39q-76 0 -175 -78v166q94 68 183 68q70 0 133 -39t112 -39q68 0 166 78v-166q-94 -68 -174 -68z" />
<glyph unicode="&#x2000;" horiz-adv-x="1013" />
<glyph unicode="&#x2001;" horiz-adv-x="2027" />
<glyph unicode="&#x2002;" horiz-adv-x="1013" />
<glyph unicode="&#x2003;" horiz-adv-x="2027" />
<glyph unicode="&#x2004;" horiz-adv-x="675" />
<glyph unicode="&#x2005;" horiz-adv-x="505" />
<glyph unicode="&#x2006;" horiz-adv-x="337" />
<glyph unicode="&#x2007;" horiz-adv-x="337" />
<glyph unicode="&#x2008;" horiz-adv-x="251" />
<glyph unicode="&#x2009;" horiz-adv-x="405" />
<glyph unicode="&#x200a;" horiz-adv-x="112" />
<glyph unicode="&#x2010;" horiz-adv-x="1105" d="M922 573h-738v175h738v-175z" />
<glyph unicode="&#x2011;" horiz-adv-x="1105" d="M922 573h-738v175h738v-175z" />
<glyph unicode="&#x2012;" horiz-adv-x="1105" d="M922 573h-738v175h738v-175z" />
<glyph unicode="&#x2013;" horiz-adv-x="942" d="M881 573h-820v175h820v-175z" />
<glyph unicode="&#x2014;" horiz-adv-x="1351" d="M1290 573h-1229v175h1229v-175z" />
<glyph unicode="&#x2018;" horiz-adv-x="593" d="M178 930v207q0 160 78 241.5t190 96.5v-103q-127 -27 -127 -205h97v-237h-238z" />
<glyph unicode="&#x2019;" horiz-adv-x="593" d="M416 1475v-207q0 -160 -78 -242t-191 -96v102q127 27 127 205h-96v238h238z" />
<glyph unicode="&#x201a;" horiz-adv-x="593" d="M416 238v-207q0 -160 -78 -242t-191 -96v102q127 27 127 205h-96v238h238z" />
<glyph unicode="&#x201c;" horiz-adv-x="944" d="M178 930v207q0 160 78 241.5t190 96.5v-103q-127 -27 -127 -205h97v-237h-238zM528 930v207q0 160 78 241.5t191 96.5v-103q-127 -27 -127 -205h96v-237h-238z" />
<glyph unicode="&#x201d;" horiz-adv-x="944" d="M766 1475v-207q0 -160 -78 -242t-190 -96v102q127 27 127 205h-97v238h238zM416 1475v-207q0 -160 -78 -242t-191 -96v102q127 27 127 205h-96v238h238z" />
<glyph unicode="&#x201e;" horiz-adv-x="944" d="M766 238v-207q0 -160 -78 -242t-190 -96v102q127 27 127 205h-97v238h238zM416 238v-207q0 -160 -78 -242t-191 -96v102q127 27 127 205h-96v238h238z" />
<glyph unicode="&#x2022;" horiz-adv-x="614" d="M485 483h-356v338h356v-338z" />
<glyph unicode="&#x2026;" horiz-adv-x="1843" d="M426 0h-238v238h238v-238zM1040 0h-237v238h237v-238zM1655 0h-238v238h238v-238z" />
<glyph unicode="&#x202f;" horiz-adv-x="405" />
<glyph unicode="&#x2039;" horiz-adv-x="636" d="M356 184l-233 461l254 420h137l-160 -426l140 -455h-138z" />
<glyph unicode="&#x203a;" horiz-adv-x="636" d="M514 645l-233 -461h-138l140 455l-160 426h137z" />
<glyph unicode="&#x205f;" horiz-adv-x="505" />
<glyph unicode="&#x20ac;" d="M6 780l41 160h100q47 254 199 389t373 135q215 0 345 -112.5t157 -288.5h-213q-25 106 -97.5 166.5t-191.5 60.5q-295 0 -359 -350h498l-41 -160h-475v-63q0 -51 2 -76h432l-41 -160h-373q72 -336 359 -336q231 0 287 232h215q-41 -182 -170 -295t-336 -113 q-223 0 -371.5 132t-195.5 380h-144l41 160h84q-2 25 -2 76q0 43 2 63h-125z" />
<glyph unicode="&#x2122;" horiz-adv-x="1720" d="M1235 664h-162l-194 655v-655h-146v675h-278v-675h-158v675h-246v136h932l174 -615l164 615h246v-811h-150v655z" />
<glyph unicode="&#xe000;" horiz-adv-x="1065" d="M0 1065h1065v-1065h-1065v1065z" />
<glyph unicode="&#xfb01;" horiz-adv-x="1091" d="M793 1460v-170q-139 35 -224 35q-90 0 -132 -30.5t-42 -98.5v-131h553v-1065h-196v897h-357v-897h-196v897h-158v168h158v119q0 139 84 225t256 86q119 0 254 -35z" />
<glyph unicode="&#xfb02;" horiz-adv-x="1122" d="M979 0h-197v1294q-123 31 -213 31t-132 -30.5t-42 -98.5v-131h209v-168h-209v-897h-196v897h-158v168h158v119q0 139 84 225t256 86q115 0 245 -33l195 13v-1475z" />
<glyph unicode="&#xfb03;" horiz-adv-x="1679" d="M1536 0h-197v897h-356v-897h-197v897h-391v-897h-196v897h-158v168h158v88q0 143 85 237.5t255 94.5q154 0 331 -66q90 86 256 86q119 0 254 -35v-170q-139 35 -223 35q-90 0 -132 -30.5t-42 -98.5v-141h553v-1065zM786 1194q0 55 11 92q-117 39 -232 39 q-170 0 -170 -160v-100h391v129z" />
<glyph unicode="&#xfb04;" horiz-adv-x="1710" d="M1567 0h-197v1305q-123 31 -213 30.5t-132 -31t-42 -98.5v-141h209v-168h-209v-897h-197v897h-391v-897h-196v897h-158v168h158v88q0 143 85 237.5t255 94.5q154 0 331 -66q90 86 256 86q115 0 246 -32l195 12v-1485zM786 1194q0 55 11 92q-117 39 -232 39 q-170 0 -170 -160v-100h391v129z" />
</font>
</defs>
</svg>
